<svg width="123" height="50" viewBox="0 0 123 50" fill="none" xmlns="http://www.w3.org/2000/svg">
<g clip-path="url(#clip0_1838_685)">
<path d="M25.3951 48.8903C15.0935 45.7596 7.60643 36.2516 7.60643 25C7.60643 13.629 15.2532 4.04197 25.7112 0.991995C26.7822 0.67422 26.5048 1.47992e-06 25.1967 1.47992e-06C11.2903 1.47992e-06 0 11.2129 0 25C0 38.7871 11.2903 50 25.1967 50C26.5048 50 26.5838 49.2468 25.3951 48.8903Z" fill="#0099CC"/>
<path d="M12.3997 30.8215C12.3207 30.1473 12.2804 29.4747 12.2804 28.8005C12.2804 17.8263 21.1562 8.95217 32.1304 8.95217C42.5094 8.95217 45.5997 13.5876 45.9965 13.2699C46.4319 12.9538 42.2319 3.76184 30.069 3.76184C19.0949 3.76184 10.2207 12.636 10.2207 23.6102C10.2207 26.1457 10.6965 28.5634 11.5675 30.7811C11.9239 31.7328 12.4788 31.7328 12.3997 30.8215Z" fill="#0099CC"/>
<path d="M20.7212 16.525C25.8711 14.267 32.3696 14.1879 38.7469 16.446C43.026 17.9508 45.5228 20.0912 45.7212 19.9718C46.0776 19.8137 43.2244 15.3363 38.1131 13.3943C31.9324 11.0573 25.2776 12.2863 20.4437 16.0895C19.8889 16.525 20.0873 16.8024 20.7212 16.525Z" fill="#0099CC"/>
<path d="M122.739 25.8699C122.739 27.2957 121.55 28.4844 120.124 28.4844C118.697 28.4844 117.51 27.336 117.51 25.8699C117.51 24.4441 118.658 23.2554 120.124 23.2554C121.59 23.2554 122.739 24.4037 122.739 25.8699Z" fill="#FF9933"/>
<path d="M37.6369 40.4894L37.953 43.9766H43.4611L41.5982 23.7314H33.3983L23.0176 43.9766H28.6434L30.3869 40.4894H37.6369ZM37.3595 36.5669H32.3272L36.6466 27.812H36.6853L37.3595 36.5669Z" fill="#FF9933"/>
<path d="M51.1081 35.1411H51.9404L55.863 29.7926H60.9726L55.5451 36.6072L58.8743 43.9766H53.4452L51.2661 38.2313H50.4742L49.2468 43.9766H44.6113L48.8887 23.7314H53.5242L51.1081 35.1411Z" fill="#FF9933"/>
<path d="M68.2223 43.9813H72.8577L74.719 35.1458C75.7497 30.2732 73.8884 29.6797 69.1336 29.6797C65.8062 29.6797 62.5965 29.6394 61.6852 34.0361H66.3207C66.5981 32.7684 67.39 32.4926 68.54 32.4926C70.5593 32.4926 70.4803 33.3232 70.2029 34.6313L69.7271 36.8894H69.5304C69.3706 35.2652 67.311 35.3055 66.0029 35.3055C62.6368 35.3055 60.6545 36.3749 59.9416 39.7813C59.19 43.3861 60.8933 44.1797 64.1416 44.1797C65.7658 44.1797 67.9448 43.8619 68.6981 41.9216H68.8561L68.2223 43.9813ZM66.9142 38.1184C68.4207 38.1184 69.411 38.2361 69.1722 39.4248C68.8561 40.891 68.2223 41.1684 66.2803 41.1684C65.5674 41.1684 64.261 41.1684 64.5771 39.6232C64.8545 38.3151 65.7658 38.1184 66.9142 38.1184Z" fill="#FF9933"/>
<path d="M82.2481 29.7927L81.8126 31.7733H82.011C82.9223 30.1088 84.7836 29.6346 86.3691 29.6346C88.3497 29.6346 90.3304 29.9911 90.0529 32.4072H90.2513C90.9239 30.3862 92.9852 29.6346 94.7674 29.6346C98.0562 29.6346 99.4433 30.9814 98.7287 34.2701L96.6691 43.9766H92.0336L93.7771 35.7749C94.0142 34.3088 94.253 33.1991 92.469 33.1991C90.6465 33.1991 90.0529 34.3878 89.7352 35.933L88.032 43.9766H83.3965L85.2191 35.3781C85.4578 34.0717 85.5368 33.1991 83.9126 33.1991C82.011 33.1991 81.4158 34.2298 81.0594 35.933L79.3562 43.9766H74.7207L77.732 29.7927H82.2481Z" fill="#FF9933"/>
<path d="M107.327 43.9813H111.963L113.864 35.1458C114.895 30.2732 113.032 29.6797 108.279 29.6797C104.95 29.6797 101.74 29.6394 100.83 34.0361H105.466C105.742 32.7684 106.535 32.4926 107.684 32.4926C109.705 32.4926 109.626 33.3232 109.348 34.6313L108.872 36.8894H108.674C108.516 35.2652 106.456 35.3055 105.148 35.3055C101.78 35.3055 99.7997 36.3749 99.0868 39.7813C98.3336 43.3861 100.037 44.1797 103.285 44.1797C104.911 44.1797 107.09 43.8619 107.842 41.9216H108.001L107.327 43.9813ZM106.059 38.1184C107.564 38.1184 108.555 38.2361 108.317 39.4248C108.001 40.891 107.367 41.1684 105.426 41.1684C104.713 41.1684 103.405 41.1684 103.722 39.6232C104 38.3151 104.911 38.1184 106.059 38.1184Z" fill="#FF9933"/>
<path d="M118.696 43.9766H114.061L117.032 29.7927H121.707L118.696 43.9766Z" fill="#FF9933"/>
</g>
<defs>
<clipPath id="clip0_1838_685">
<rect width="123" height="50" fill="white"/>
</clipPath>
</defs>
</svg>
