<svg width="159" height="22" viewBox="0 0 159 22" fill="none" xmlns="http://www.w3.org/2000/svg">
<g clip-path="url(#clip0_1838_697)">
<path d="M10.3768 10.9789C7.04549 7.59874 3.71008 4.21853 0 0.45551C5.67712 0.45551 10.8044 0.724297 15.891 0.369987C19.8251 0.0930541 22.7207 1.1682 25.1683 4.25111C26.834 6.35254 28.9476 8.10374 30.8698 10.0015C31.4196 10.5432 31.9531 10.9545 31.106 11.7772C27.9132 14.8886 24.7895 18.0692 21.6252 21.2092C21.4541 21.3802 21.1528 21.425 20.9125 21.5268C20.436 20.0322 19.1083 19.234 18.0699 18.2484C15.5123 15.8171 13.362 12.9541 10.3768 10.9789Z" fill="#35C5FE"/>
<path d="M121.167 10.7743C121.167 7.86654 121.24 4.95467 121.134 2.04688C121.085 0.678506 121.554 0.36492 122.853 0.389356C127.056 0.470806 131.263 0.503387 135.466 0.377138C137.062 0.328268 137.062 1.12241 136.997 2.222C136.936 3.22791 137.396 4.42524 135.518 4.33972C132.607 4.2094 129.687 4.35194 126.771 4.2827C125.586 4.25419 124.967 4.53113 125.125 5.83841C125.207 6.50631 125.191 7.19457 125.134 7.86654C125.048 8.87245 125.516 9.12495 126.445 9.11273C129.292 9.07201 132.146 9.2064 134.989 9.06386C136.728 8.97427 136.59 9.93946 136.59 11.0798C136.59 12.1753 136.651 13.0224 135.042 12.9409C132.269 12.7984 129.479 12.9654 126.701 12.8758C125.443 12.835 124.958 13.226 125.125 14.4722C125.199 15.0057 125.191 15.5596 125.125 16.0931C124.991 17.2415 125.447 17.608 126.604 17.5836C129.585 17.5144 132.574 17.6488 135.555 17.5307C137.465 17.4533 136.915 18.7158 136.981 19.685C137.054 20.748 137.123 21.6032 135.486 21.5543C131.218 21.424 126.942 21.4525 122.67 21.5462C121.326 21.5747 121.11 21.0738 121.134 19.909C121.199 16.8668 121.155 13.8206 121.159 10.7743H121.167Z" fill="#113E7B"/>
<path d="M152.542 14.206C153.597 15.3952 154.619 16.5437 155.637 17.6962C156.655 18.8446 157.665 19.9972 158.858 21.3493C155.877 21.7402 153.418 21.8339 151.764 19.0361C151.019 17.7736 149.854 16.7595 148.864 15.6436C148.384 15.102 147.985 14.5481 147.089 14.4707C144.14 14.2264 144.055 14.2549 144.055 17.2319C144.055 17.908 143.961 18.6003 144.071 19.26C144.393 21.1782 143.562 21.6669 141.746 21.5529C140.512 21.4755 139.978 21.3248 139.995 19.8994C140.08 13.9454 140.072 7.99133 139.999 2.03728C139.982 0.693344 140.369 0.314598 141.697 0.363469C144.678 0.473427 147.667 0.318671 150.648 0.448992C155.829 0.677054 158.94 5.19757 157.303 9.96244C156.631 11.9132 155.596 12.8499 152.534 14.206H152.542ZM147.814 10.8543C148.693 10.8543 149.585 10.9236 150.457 10.8421C152.432 10.6588 153.65 9.39229 153.686 7.58001C153.727 5.68628 152.456 4.3179 150.408 4.15907C149.329 4.07355 148.237 4.13057 147.154 4.13057C145.091 4.13057 144.059 5.16092 144.059 7.22162C144.059 9.65972 145.309 10.872 147.81 10.8584L147.814 10.8543Z" fill="#113E7B"/>
<path d="M70.4783 14.1405C72.6286 16.5718 74.6282 18.8361 76.8518 21.3529C74.1924 21.5728 71.8914 22.1308 70.2135 19.5569C69.2239 18.0419 67.8352 16.7876 66.6501 15.3948C66.1899 14.8491 65.7012 14.5477 64.9396 14.4988C62.0237 14.3196 62.0237 14.2871 62.0237 17.1949C62.0237 17.8057 62.0237 18.4125 62.0237 19.0234C62.0237 21.4955 61.1847 22.1023 58.7616 21.5362C57.9511 21.3488 58.0733 20.8316 58.0733 20.3266C58.0652 14.0997 58.0855 7.87689 58.0489 1.64998C58.0448 0.676647 58.3502 0.371207 59.3236 0.391569C62.4431 0.45673 65.5668 0.354916 68.6823 0.47302C72.4494 0.615559 75.1658 3.00207 75.6422 6.38227C76.1595 10.0598 74.5549 12.5929 70.4864 14.1405H70.4783ZM65.6279 10.8498C66.6419 10.8498 67.6641 10.9435 68.6619 10.8295C70.5149 10.6177 71.6267 9.35522 71.6634 7.60811C71.7041 5.77954 70.5393 4.40302 68.6334 4.20346C67.4972 4.08536 66.3406 4.15052 65.1921 4.14645C63.0744 4.14373 62.0155 5.20667 62.0155 7.33525C62.0155 9.70818 63.2196 10.8797 65.6279 10.8498Z" fill="#113E7B"/>
<path d="M99.227 10.9063C99.227 7.86415 99.3084 4.82196 99.1944 1.78385C99.1252 0.0163674 100.274 0.427694 101.198 0.456202C102.086 0.480637 103.34 -0.0732283 103.247 1.73498C103.141 3.75496 103.267 5.79123 103.206 7.81528C103.173 8.87006 103.361 9.41171 104.619 9.36284C107.12 9.26917 109.632 9.2651 112.137 9.36284C113.395 9.41171 113.587 8.87006 113.554 7.8112C113.493 5.78715 113.619 3.75496 113.513 1.73091C113.42 -0.0813734 114.682 0.476564 115.562 0.456202C116.474 0.435839 117.61 7.72977e-05 117.586 1.77163C117.505 7.92116 117.509 14.0707 117.586 20.2202C117.61 21.9959 116.462 21.5438 115.554 21.5275C114.678 21.5112 113.412 22.0773 113.513 20.2569C113.623 18.3021 113.513 16.3391 113.55 14.3802C113.566 13.5087 113.44 12.9874 112.361 13.0118C109.722 13.0729 107.079 13.0729 104.436 13.0118C103.385 12.9874 103.202 13.4598 103.218 14.3517C103.259 16.3106 103.157 18.2736 103.251 20.2284C103.34 22.2076 101.919 21.442 101.015 21.5275C100.115 21.613 99.1333 21.837 99.1985 20.2284C99.3206 17.1251 99.2351 14.0137 99.2351 10.9023L99.227 10.9063Z" fill="#113E7B"/>
<path d="M56.2441 21.5022C55.45 21.5022 54.9654 21.433 54.5092 21.5144C52.5422 21.8647 51.2838 21.1968 50.8277 19.1727C50.5344 17.8654 49.7484 17.393 48.3353 17.4704C45.8388 17.6089 43.3261 17.5844 40.8255 17.4785C39.5508 17.4256 38.7241 17.7718 38.4309 19.0302C37.9259 21.2171 36.5412 21.7751 34.4194 21.5511C33.2139 21.4208 33.0673 21.1805 33.5438 20.142C35.0466 16.8962 36.4842 13.6218 37.9503 10.3597C39.278 7.40308 40.6382 4.46678 41.9088 1.48568C42.2998 0.565291 42.8862 0.223197 43.7781 0.426824C44.9225 0.687467 46.4334 -0.379538 47.1868 1.29427C50.172 7.92844 53.1409 14.5748 56.2441 21.5022ZM44.6171 4.92291C43.3831 7.72888 42.3242 10.1195 41.2857 12.5223C41.021 13.1331 40.5852 13.8255 41.864 13.8092C43.9899 13.7807 46.1157 13.801 48.49 13.801C47.1787 10.7955 45.9814 8.04654 44.6171 4.92291Z" fill="#113E7B"/>
<path d="M88.8444 21.9969C83.5868 21.9766 79.7627 19.419 78.3373 14.9596C76.7694 10.0603 78.3373 4.70901 82.137 2.00892C85.9244 -0.687103 91.573 -0.678958 95.3035 2.09037C95.7759 2.44061 97.0873 2.84379 96.1832 3.62571C95.3849 4.31805 95.1161 6.37061 93.1043 5.12441C88.1155 2.03335 82.2347 4.70901 81.7786 10.1906C81.5383 13.074 82.2429 15.6478 84.8859 17.1954C87.5575 18.7633 90.3146 18.5801 93.0188 17.0773C93.4912 16.8167 93.8618 15.9085 94.5338 16.4624C95.3605 17.1425 96.1017 17.957 96.7329 18.8204C96.9569 19.1258 96.3501 19.4475 96.0488 19.6797C93.931 21.3168 91.512 22.054 88.8444 21.9969Z" fill="#113E7B"/>
<path d="M10.3768 10.9963C13.366 12.9714 15.5163 15.8344 18.0698 18.2657C19.1083 19.2554 20.436 20.0495 20.9124 21.5441C14.1113 21.5441 7.31424 21.5441 0.0488281 21.5441C3.66524 17.8503 7.02101 14.4213 10.3768 10.9922V10.9963Z" fill="#113E7B"/>
</g>
<defs>
<clipPath id="clip0_1838_697">
<rect width="159" height="22" fill="white"/>
</clipPath>
</defs>
</svg>
