<svg width="84" height="50" viewBox="0 0 84 50" fill="none" xmlns="http://www.w3.org/2000/svg">
<g clip-path="url(#clip0_1838_1038)">
<path d="M23.5625 18.1589C23.5625 19.1878 23.6738 20.0221 23.8684 20.6339C24.0909 21.2456 24.369 21.913 24.7583 22.6361C24.8973 22.8585 24.9529 23.081 24.9529 23.2757C24.9529 23.5537 24.7861 23.8318 24.4246 24.1099L22.6727 25.2779C22.4224 25.4447 22.1721 25.5281 21.9496 25.5281C21.6715 25.5281 21.3935 25.3891 21.1154 25.1388C20.7261 24.7217 20.3924 24.2768 20.1143 23.8318C19.8362 23.3591 19.5581 22.8307 19.2522 22.1911C17.0832 24.7495 14.3579 26.0287 11.0765 26.0287C8.74063 26.0287 6.87747 25.3613 5.51485 24.0265C4.15224 22.6917 3.45703 20.9119 3.45703 18.6873C3.45703 16.3235 4.29128 14.4048 5.9876 12.9587C7.68391 11.5127 9.93639 10.7897 12.8007 10.7897C13.7461 10.7897 14.7194 10.8731 15.7484 11.0121C16.7773 11.1512 17.834 11.3736 18.9463 11.6239V9.59391C18.9463 7.48047 18.5014 6.00662 17.6393 5.14456C16.7495 4.2825 15.2478 3.86537 13.1066 3.86537C12.1333 3.86537 11.1322 3.9766 10.1032 4.22688C9.07433 4.47716 8.07323 4.78305 7.09994 5.17237C6.655 5.36703 6.3213 5.47826 6.12664 5.53388C5.93198 5.58949 5.79294 5.6173 5.68171 5.6173C5.29239 5.6173 5.09773 5.33922 5.09773 4.75524V3.39263C5.09773 2.94769 5.15335 2.61399 5.29239 2.41933C5.43143 2.22467 5.68171 2.03001 6.07102 1.83536C7.04432 1.3348 8.21227 0.917678 9.57488 0.583977C10.9375 0.222467 12.3835 0.0556168 13.913 0.0556168C17.2222 0.0556168 19.6415 0.806444 21.1988 2.3081C22.7283 3.80975 23.5069 6.09004 23.5069 9.14897V18.1589H23.5625ZM12.2723 22.3858C13.19 22.3858 14.1355 22.2189 15.1366 21.8852C16.1377 21.5515 17.0275 20.9397 17.7784 20.1055C18.2233 19.5771 18.557 18.9932 18.7239 18.3258C18.8907 17.6583 19.0019 16.8519 19.0019 15.9064V14.7385C18.1955 14.5438 17.3334 14.377 16.4436 14.2657C15.5537 14.1545 14.6916 14.0989 13.8296 14.0989C11.9664 14.0989 10.6038 14.4604 9.68612 15.2112C8.76844 15.962 8.32351 17.0188 8.32351 18.4092C8.32351 19.7162 8.65721 20.6895 9.35242 21.3569C10.0198 22.0521 10.9931 22.3858 12.2723 22.3858ZM34.6025 25.3891C34.1019 25.3891 33.7682 25.3057 33.5457 25.111C33.3233 24.9442 33.1286 24.5548 32.9618 24.0265L26.4268 2.53057C26.2599 1.9744 26.1765 1.61289 26.1765 1.41823C26.1765 0.973295 26.399 0.723019 26.8439 0.723019H29.5691C30.0975 0.723019 30.459 0.806444 30.6537 1.0011C30.8761 1.16795 31.043 1.55727 31.2098 2.08563L35.8817 20.4948L40.2198 2.08563C40.3588 1.52946 40.5257 1.16795 40.7481 1.0011C40.9706 0.834253 41.3599 0.723019 41.8605 0.723019H44.0851C44.6135 0.723019 44.975 0.806444 45.1975 1.0011C45.4199 1.16795 45.6146 1.55727 45.7258 2.08563L50.1196 20.7173L54.9304 2.08563C55.0973 1.52946 55.2919 1.16795 55.4866 1.0011C55.7091 0.834253 56.0706 0.723019 56.5711 0.723019H59.1573C59.6022 0.723019 59.8525 0.945486 59.8525 1.41823C59.8525 1.55727 59.8247 1.69631 59.7969 1.86316C59.7691 2.03001 59.7135 2.25248 59.6022 2.55837L52.9004 24.0543C52.7336 24.6105 52.5389 24.972 52.3164 25.1388C52.094 25.3057 51.7325 25.4169 51.2597 25.4169H48.8682C48.3398 25.4169 47.9783 25.3335 47.7558 25.1388C47.5334 24.9442 47.3387 24.5826 47.2275 24.0265L42.9172 6.09004L38.6347 23.9987C38.4956 24.5548 38.3288 24.9163 38.1063 25.111C37.8839 25.3057 37.4945 25.3891 36.994 25.3891H34.6025ZM70.3363 26.1399C68.8903 26.1399 67.4442 25.9731 66.0538 25.6394C64.6634 25.3057 63.5788 24.9442 62.8558 24.527C62.4109 24.2768 62.105 23.9987 61.9938 23.7484C61.8825 23.4981 61.8269 23.22 61.8269 22.9698V21.5515C61.8269 20.9676 62.0494 20.6895 62.4665 20.6895C62.6334 20.6895 62.8002 20.7173 62.9671 20.7729C63.1339 20.8285 63.3842 20.9397 63.6623 21.051C64.6078 21.4681 65.6367 21.8018 66.7212 22.0243C67.8335 22.2467 68.9181 22.358 70.0304 22.358C71.7823 22.358 73.1449 22.0521 74.0904 21.4403C75.0359 20.8285 75.5365 19.9386 75.5365 18.7985C75.5365 18.0199 75.2862 17.3803 74.7856 16.8519C74.2851 16.3235 73.3396 15.8508 71.977 15.4059L67.9448 14.1545C65.9148 13.5149 64.4131 12.5694 63.4954 11.318C62.5777 10.0945 62.105 8.73184 62.105 7.28581C62.105 6.11785 62.3553 5.08894 62.8558 4.19907C63.3564 3.3092 64.0238 2.53057 64.858 1.91878C65.6923 1.27919 66.6378 0.806444 67.7501 0.472743C68.8624 0.139042 70.0304 0 71.254 0C71.8658 0 72.5054 0.0278084 73.1171 0.111234C73.7567 0.194659 74.3407 0.305893 74.9247 0.417126C75.4809 0.556168 76.0092 0.695211 76.5098 0.862061C77.0103 1.02891 77.3996 1.19576 77.6777 1.36261C78.067 1.58508 78.3451 1.80755 78.512 2.05782C78.6788 2.28029 78.7622 2.58618 78.7622 2.9755V4.2825C78.7622 4.86647 78.5398 5.17237 78.1227 5.17237C77.9002 5.17237 77.5387 5.06113 77.0659 4.83867C75.4808 4.11565 73.7011 3.75414 71.7267 3.75414C70.1416 3.75414 68.8903 4.00441 68.0282 4.53277C67.1661 5.06113 66.7212 5.86758 66.7212 7.00772C66.7212 7.78636 66.9993 8.45376 67.5555 8.98212C68.1116 9.51048 69.1405 10.0388 70.6144 10.5116L74.5632 11.763C76.5654 12.4026 78.0114 13.2924 78.8735 14.4326C79.7355 15.5727 80.1527 16.8797 80.1527 18.3258C80.1527 19.5215 79.9024 20.606 79.4296 21.5515C78.9291 22.497 78.2617 23.3313 77.3996 23.9987C76.5376 24.6939 75.5087 25.1944 74.3129 25.5559C73.0615 25.9453 71.7545 26.1399 70.3363 26.1399Z" fill="#212121"/>
<path fill-rule="evenodd" clip-rule="evenodd" d="M68.6953 34.956C71.6708 34.5945 78.2336 33.8158 79.4015 35.3175C80.5695 36.7913 78.0945 42.9926 76.9822 45.7456C76.6485 46.5799 77.3715 46.9136 78.1223 46.274C83.0166 42.1584 84.2958 33.5656 83.2947 32.3142C82.2936 31.0906 73.7008 30.0339 68.4728 33.7046C67.6664 34.2886 67.8054 35.0672 68.6953 34.956ZM41.7215 50.0029C53.1508 50.0029 66.4432 46.4156 75.5922 39.6582C77.0939 38.5459 75.7869 36.8496 74.2574 37.5448C63.9961 41.8829 52.8449 43.9963 42.6948 43.9963C27.6505 43.9963 13.1067 39.8529 1.3159 33.012C0.286988 32.4002 -0.491648 33.4569 0.370413 34.2356C11.2713 44.0797 25.7039 50.0029 41.7215 50.0029Z" fill="#FF9900"/>
</g>
<defs>
<clipPath id="clip0_1838_1038">
<rect width="84" height="50" fill="white"/>
</clipPath>
</defs>
</svg>
