<svg width="173" height="34" viewBox="0 0 173 34" fill="none" xmlns="http://www.w3.org/2000/svg">
<g clip-path="url(#clip0_1838_707)">
<path d="M120.279 19.5774C120.279 16.6012 120.279 14.1031 120.279 11.6051C120.279 10.7147 120.114 9.74182 121.516 9.73358C122.934 9.73358 122.727 10.7312 122.727 11.6051C122.727 15.1666 122.744 18.7282 122.719 22.298C122.719 22.9823 123.082 23.9139 122.018 24.186C121.145 24.4086 120.46 24.0706 119.883 23.3286C117.814 20.6904 115.687 18.0851 113.601 15.4552C113.444 15.2573 113.42 14.9605 113.329 14.7049C113.123 14.8286 112.908 14.944 112.702 15.0677C112.702 17.4998 112.711 19.9236 112.702 22.3557C112.702 23.2214 112.892 24.2107 111.482 24.2437C110.039 24.2849 110.237 23.2956 110.237 22.4217C110.229 18.8601 110.221 15.2985 110.245 11.7287C110.245 11.0362 109.907 10.1128 110.922 9.79954C111.919 9.48625 112.587 10.0469 113.18 10.8054C114.994 13.1303 116.841 15.4222 118.688 17.7224C119.092 18.2335 119.537 18.7117 120.287 19.5774H120.279Z" fill="#353535"/>
<path d="M94.5972 24.5206C90.1617 24.4381 87.1113 21.3217 87.1607 16.9192C87.2102 12.5909 90.4338 9.47455 94.828 9.52402C99.2635 9.56524 102.438 12.6981 102.429 17.0099C102.421 21.3547 99.0244 24.603 94.5972 24.5206ZM99.6263 16.9275C99.585 14.0997 97.4415 11.9231 94.7208 11.9396C92.0002 11.9644 89.8649 14.1821 89.8731 16.9934C89.8731 19.8542 92.1651 22.1462 94.9352 22.0637C97.7136 21.9813 99.6675 19.846 99.6263 16.9192V16.9275Z" fill="#353535"/>
<path d="M155.655 15.5309C155.548 16.9242 155.845 18.573 155.424 20.2054C154.699 23.0497 152.547 24.6326 149.497 24.509C146.438 24.3853 144.08 22.6705 143.8 19.8756C143.503 16.8829 143.643 13.8572 143.602 10.8398C143.585 9.91643 144.154 9.71856 144.954 9.72681C145.811 9.73505 146.207 10.1143 146.207 10.9717C146.199 13.0988 146.215 15.2258 146.207 17.3446C146.207 18.3175 146.273 19.2656 146.702 20.156C147.427 21.6399 148.68 22.2088 150.255 22.0274C151.731 21.8625 152.564 20.9227 152.836 19.4882C153.297 17.0396 152.943 14.558 153.091 12.1012C153.149 11.1531 152.498 9.67734 154.41 9.74329C156.29 9.80101 155.548 11.2603 155.639 12.2084C155.738 13.2307 155.663 14.2612 155.663 15.5309H155.655Z" fill="#353535"/>
<path d="M63.1122 23.2336C63.1534 23.753 62.9885 24.124 62.5021 24.1817C61.9085 24.2559 61.2572 24.4125 60.7625 23.8849C60.5812 23.6953 60.4245 23.4232 60.3833 23.1759C59.9546 20.5871 58.1903 20.4965 56.022 20.4717C53.9032 20.447 52.4852 20.8427 52.0235 23.1017C51.7927 24.2147 50.9023 24.4867 49.9624 24.1405C48.8412 23.7283 49.4925 22.9121 49.7645 22.269C51.3557 18.4931 52.9798 14.7336 54.571 10.9577C54.8843 10.1992 55.247 9.68808 56.1869 9.67983C57.0691 9.67159 57.5802 10.0179 57.9182 10.8093C59.5671 14.7089 61.2325 18.6003 62.8813 22.4916C62.9885 22.7389 63.0545 23.011 63.1204 23.2171L63.1122 23.2336ZM56.1869 13.2084C55.5686 14.6594 55.0657 15.8466 54.571 17.0256C54.3979 17.446 54.0269 18.0149 54.8596 18.0561C55.8654 18.1056 57.0855 18.3117 57.8358 17.8418C58.3882 17.5038 57.506 16.4237 57.2422 15.69C56.9701 14.9315 56.6156 14.206 56.1951 13.2002L56.1869 13.2084Z" fill="#353535"/>
<path d="M75.2151 18.8885C74.1516 20.4302 73.22 21.774 72.2884 23.1178C71.8926 23.6867 71.5216 24.2803 70.6972 24.2308C70.1778 24.1978 69.5512 24.4287 69.2297 23.7939C68.9659 23.2745 69.3616 22.8787 69.6172 22.4995C70.6642 20.9743 71.6865 19.4326 72.7995 17.9568C73.3931 17.1736 73.4013 16.5718 72.7995 15.7886C71.8432 14.5354 70.9693 13.2246 70.1118 11.9055C69.7408 11.3284 68.8175 10.6193 69.7079 9.99277C70.5158 9.41566 71.5464 9.57231 72.2224 10.5287C73.1952 11.922 74.1598 13.307 75.2728 14.9064C76.2539 13.4719 77.1443 12.2023 77.9935 10.8997C78.4304 10.2401 78.8921 9.68773 79.7825 9.74544C80.2524 9.77842 80.7718 9.67124 81.0356 10.2154C81.25 10.6523 80.9944 10.9986 80.7553 11.3366C79.7 12.8536 78.7025 14.4118 77.5812 15.8793C77.0206 16.613 77.0371 17.1324 77.5812 17.8497C78.6118 19.2182 79.5929 20.6198 80.508 22.0625C80.8872 22.6561 81.992 23.4146 80.8708 24.0742C80.071 24.5441 79.0158 24.3875 78.3562 23.3816C77.3834 21.9141 76.3363 20.4879 75.2151 18.8802V18.8885Z" fill="#353535"/>
<path d="M167.553 24.5194C166.399 24.4947 165.08 24.0165 163.926 23.0602C163.39 22.615 163.102 22.1286 163.613 21.4937C164.066 20.9331 164.553 20.4714 165.352 20.9414C165.938 21.2876 166.506 21.7081 167.141 21.906C168.287 22.2687 169.4 22.1121 169.903 20.8754C170.373 19.7294 169.499 19.1029 168.65 18.6164C167.76 18.1135 166.795 17.7508 165.896 17.2479C163.827 16.0937 163.052 14.486 163.547 12.5156C163.984 10.7925 165.6 9.63007 167.76 9.53938C168.864 9.48992 169.936 9.66305 170.958 10.1412C171.577 10.4298 172.055 10.8008 171.709 11.551C171.412 12.1941 171.049 12.7629 170.142 12.4414C168.782 11.9632 167.059 11.246 166.416 13.0515C165.698 15.0466 167.768 15.3517 169.037 16.0195C169.277 16.1431 169.532 16.2503 169.779 16.3657C172.22 17.5447 173.151 19.0864 172.698 21.164C172.261 23.1838 170.357 24.5029 167.545 24.5194H167.553Z" fill="#353535"/>
<path d="M34.157 2.64975C34.2147 4.66138 33.1347 5.81559 31.255 6.0959C27.7676 6.62354 27.7017 6.68949 27.1163 10.2428C26.8113 12.0896 25.6323 13.1613 23.934 13.0706C22.2686 12.98 21.271 12.0319 20.999 10.4324C20.7187 8.80006 21.741 7.25836 23.5959 7.14293C26.6216 6.95331 28.0232 5.64246 28.1468 2.57555C28.2128 0.852471 29.5896 -0.112121 31.3044 0.0197888C32.9945 0.151699 33.9839 1.25645 34.1488 2.6415L34.157 2.64975Z" fill="#353535"/>
<path d="M3.02747 34.0013C1.41157 33.754 0.282089 32.8966 0.0430022 31.3054C-0.204329 29.673 0.628353 28.5188 2.20303 28.0324C2.91205 27.8098 3.69526 27.8345 4.43726 27.6944C5.88003 27.4223 6.74569 26.5649 6.93531 25.0892C6.99302 24.611 7.02599 24.1328 7.10844 23.6629C7.42997 21.8656 8.45227 20.835 10.3402 20.8845C11.9396 20.934 13.1598 22.2201 13.1928 23.8195C13.234 25.7652 12.0716 26.6638 10.332 26.9689C6.84462 27.5954 6.83637 27.579 6.14385 31.2724C5.81407 33.0038 4.72581 33.8447 3.03571 34.0013H3.02747Z" fill="#353535"/>
<path d="M34.175 31.0421C34.1503 32.4766 33.2681 33.5731 31.71 33.9112C30.1188 34.2574 28.8739 33.5731 28.2968 31.9902C28.0907 31.4214 28 30.7948 27.9505 30.1847C27.8021 28.2225 26.7551 27.2002 24.8176 27.0601C24.4796 27.0353 24.1334 27.0271 23.7953 26.9611C21.9321 26.6149 20.8768 25.3947 20.984 23.7458C21.0829 22.1876 22.3856 20.9427 23.952 20.885C25.6338 20.8273 26.854 21.8991 27.1096 23.7458C27.2333 24.628 27.1838 25.5349 27.6702 26.3346C28.3957 27.5382 29.5911 27.7361 30.8608 27.8515C33.0126 28.0494 34.1173 29.0799 34.175 31.0339V31.0421Z" fill="#353535"/>
<path d="M13.1856 10.4953C13.1197 11.6577 12.3035 12.7048 10.7865 13.0016C9.19537 13.3148 7.93398 12.7377 7.33214 11.1383C7.11778 10.5695 7.01061 9.94289 6.97763 9.33281C6.8787 7.32942 5.7657 6.38132 3.8695 6.18345C3.39132 6.13399 2.9049 6.1175 2.44322 6.00208C0.835564 5.61459 -0.087807 4.55107 0.0111256 2.91043C0.126547 1.17911 1.27252 0.123832 2.96261 0.00841033C4.57851 -0.0987666 5.66677 0.824604 6.08724 2.42401C6.15319 2.68783 6.15319 2.96814 6.18617 3.24021C6.53243 6.07628 7.0271 6.57094 9.86316 6.92545C12.1386 7.214 13.2186 8.24455 13.1856 10.4788V10.4953Z" fill="#353535"/>
<path d="M16.9935 13.3989C19.0711 13.3741 20.6952 14.9158 20.7282 16.944C20.7612 18.9473 19.1371 20.6209 17.1254 20.6539C15.0726 20.6869 13.4649 19.1205 13.4319 17.0676C13.4072 14.9571 14.8912 13.4236 16.9935 13.3906V13.3989Z" fill="#F96621"/>
<path d="M131.929 16.7605C131.929 14.9138 131.945 13.067 131.929 11.2203C131.92 10.2145 132.275 9.69506 133.371 9.72804C134.394 9.76926 134.625 10.3299 134.616 11.2038C134.608 15.1034 134.6 19.003 134.616 22.9026C134.616 23.8589 134.229 24.2464 133.272 24.2546C132.316 24.2546 131.904 23.8836 131.92 22.9191C131.953 20.8662 131.929 18.8134 131.929 16.7605Z" fill="#353535"/>
</g>
<defs>
<clipPath id="clip0_1838_707">
<rect width="173" height="34" fill="white"/>
</clipPath>
</defs>
</svg>
