<svg width="54" height="50" viewBox="0 0 54 50" fill="none" xmlns="http://www.w3.org/2000/svg">
<g clip-path="url(#clip0_1838_650)">
<path d="M17.6897 0.000602992H33.3916L17.0915 48.2959C16.924 48.7922 16.6051 49.2234 16.1796 49.5289C15.7541 49.8344 15.2436 49.9988 14.7198 49.9989H2.49987C2.10302 49.999 1.71186 49.9045 1.35875 49.7234C1.00564 49.5423 0.700737 49.2797 0.469257 48.9573C0.237778 48.6349 0.0863781 48.2621 0.0275838 47.8696C-0.0312104 47.4772 0.00429071 47.0763 0.13115 46.7003L15.3174 1.70358C15.4849 1.2071 15.8039 0.775667 16.2294 0.470049C16.655 0.164431 17.1658 0.000632166 17.6897 0.000602992Z" fill="url(#paint0_linear_1838_650)"/>
<path d="M40.5081 32.3984H15.6088C15.3773 32.3982 15.1511 32.4676 14.9596 32.5978C14.7682 32.7279 14.6204 32.9127 14.5354 33.128C14.4505 33.3434 14.4324 33.5793 14.4835 33.8051C14.5346 34.0309 14.6524 34.2361 14.8218 34.3939L30.8215 49.3275C31.2874 49.762 31.9007 50.0036 32.5378 50.0035H46.6368L40.5081 32.3984Z" fill="#0078D4"/>
<path d="M17.6905 1.8296e-05C17.1608 -0.00201435 16.6443 0.165369 16.2165 0.477719C15.7888 0.790069 15.4721 1.23102 15.3127 1.73616L0.150557 46.6587C0.0151631 47.0361 -0.0273435 47.4406 0.0266331 47.8379C0.0806097 48.2352 0.229482 48.6136 0.460655 48.9412C0.691828 49.2688 0.998502 49.5359 1.35473 49.7199C1.71097 49.9039 2.10628 49.9994 2.50722 49.9983H15.0425C15.5094 49.9149 15.9458 49.7091 16.307 49.4018C16.6683 49.0946 16.9416 48.6969 17.0989 48.2495L20.1225 39.3385L30.9229 49.4122C31.3755 49.7865 31.9432 49.9935 32.5306 49.9983H46.5771L40.4165 32.3933L22.4575 32.3975L33.449 1.8296e-05H17.6905Z" fill="url(#paint1_linear_1838_650)"/>
<path d="M37.7452 1.70056C37.578 1.20489 37.2594 0.774168 36.8345 0.469087C36.4095 0.164006 35.8996 -6.07751e-05 35.3765 1.68879e-08H17.877C18.4001 2.98242e-05 18.91 0.164132 19.3349 0.4692C19.7598 0.774269 20.0784 1.20494 20.2457 1.70056L35.4325 46.6991C35.5595 47.0752 35.5951 47.4761 35.5363 47.8687C35.4776 48.2613 35.3262 48.6342 35.0947 48.9567C34.8633 49.2792 34.5583 49.5419 34.2052 49.7231C33.852 49.9043 33.4608 49.9989 33.0638 49.9989H50.5639C50.9608 49.9988 51.352 49.9042 51.7051 49.7229C52.0581 49.5416 52.363 49.2789 52.5944 48.9565C52.8258 48.634 52.9771 48.2611 53.0359 47.8686C53.0946 47.476 53.059 47.0752 52.932 46.6991L37.7452 1.70056Z" fill="url(#paint2_linear_1838_650)"/>
</g>
<defs>
<linearGradient id="paint0_linear_1838_650" x1="23.4126" y1="3.70566" x2="7.10587" y2="51.8798" gradientUnits="userSpaceOnUse">
<stop stop-color="#114A8B"/>
<stop offset="1" stop-color="#0669BC"/>
</linearGradient>
<linearGradient id="paint1_linear_1838_650" x1="28.5071" y1="26.1555" x2="24.7351" y2="27.4309" gradientUnits="userSpaceOnUse">
<stop stop-opacity="0.3"/>
<stop offset="0.071" stop-opacity="0.2"/>
<stop offset="0.321" stop-opacity="0.1"/>
<stop offset="0.623" stop-opacity="0.05"/>
<stop offset="1" stop-opacity="0"/>
</linearGradient>
<linearGradient id="paint2_linear_1838_650" x1="26.4322" y1="2.29998" x2="44.3321" y2="49.9887" gradientUnits="userSpaceOnUse">
<stop stop-color="#3CCBF4"/>
<stop offset="1" stop-color="#2892DF"/>
</linearGradient>
<clipPath id="clip0_1838_650">
<rect width="54" height="50" fill="white"/>
</clipPath>
</defs>
</svg>
