<svg width="169" height="24" viewBox="0 0 169 24" fill="none" xmlns="http://www.w3.org/2000/svg">
<g clip-path="url(#clip0_1838_721)">
<path d="M44.3354 1.74219C48.8072 1.74219 50.9767 3.94584 50.9767 7.48459C50.9767 10.1396 49.7744 11.7554 47.3052 12.3584C50.5443 12.8932 52.1449 14.6607 52.1449 17.7633C52.1449 21.2679 49.7744 23.6725 44.8702 23.6725H35.8242V1.74219H44.3354ZM38.8282 4.61339V11.1523H43.9334C46.7704 11.1523 47.9386 9.85134 47.9386 7.73871C47.9386 5.62608 46.6718 4.60201 43.9334 4.60201L38.8282 4.61339ZM38.8282 13.8263V20.6534H44.9688C47.84 20.6534 49.141 19.618 49.141 17.4143C49.141 15.0779 47.9045 13.8111 44.9043 13.8111L38.8282 13.8263Z" fill="#253858"/>
<path d="M57.0562 0.567279C57.3242 0.548107 57.5931 0.586762 57.8447 0.680624C58.0964 0.774485 58.3249 0.921359 58.5149 1.11129C58.7048 1.30122 58.8517 1.52976 58.9455 1.78143C59.0394 2.03309 59.078 2.302 59.0589 2.56991C59.0589 3.10105 58.8479 3.61042 58.4723 3.98599C58.0968 4.36156 57.5874 4.57255 57.0562 4.57255C56.5251 4.57255 56.0157 4.36156 55.6402 3.98599C55.2646 3.61042 55.0536 3.10105 55.0536 2.56991C55.0344 2.302 55.0731 2.03309 55.167 1.78143C55.2608 1.52976 55.4077 1.30122 55.5976 1.11129C55.7875 0.921359 56.0161 0.774485 56.2678 0.680624C56.5194 0.586762 56.7883 0.548107 57.0562 0.567279ZM55.5884 6.97723H58.4596V23.6658H55.5884V6.97723Z" fill="#253858"/>
<path d="M69.4186 20.8619C70.0254 20.8438 70.629 20.765 71.2202 20.6268V23.3956C70.5912 23.5753 69.9399 23.6647 69.2858 23.6611C65.7129 23.6611 63.9758 21.5598 63.9758 18.4535V9.64642H61.2715V6.99142H63.9758V3.4375H66.7636V6.97625H71.2012V9.63125H66.7636V18.3928C66.7636 19.8606 67.6321 20.8619 69.4186 20.8619Z" fill="#253858"/>
<path d="M83.0543 23.9975C80.6192 23.9975 78.7494 22.8975 77.7442 20.728V23.6637H74.873V0H77.7632V9.97903C78.8328 7.77538 80.8354 6.64131 83.4032 6.64131C87.8409 6.64131 90.0787 10.4114 90.0787 15.3194C90.0635 20.0263 87.7271 23.9975 83.0543 23.9975ZM82.6181 9.31149C80.0389 9.31149 77.7632 10.9462 77.7632 14.6518V15.9869C77.7632 19.6926 79.8645 21.3273 82.3147 21.3273C85.5538 21.3273 87.2226 19.1919 87.2226 15.3194C87.1923 11.3141 85.5917 9.31149 82.6181 9.31149Z" fill="#253858"/>
<path d="M93.0684 6.97656H95.9396V17.0694C95.9396 20.0733 97.1419 21.4084 99.8766 21.4084C102.532 21.4084 104.382 19.6409 104.382 16.2691V6.97656H107.254V23.6652H104.382V20.9267C103.871 21.8742 103.109 22.6623 102.179 23.2043C101.248 23.7463 100.187 24.0213 99.1104 23.999C95.272 23.999 93.0684 21.3439 93.0684 16.7546V6.97656Z" fill="#253858"/>
<path d="M123.373 23.2299C122.372 23.7647 120.836 23.9885 119.3 23.9885C113.36 23.9885 110.576 20.3853 110.576 15.2649C110.576 10.2242 113.345 6.62096 119.3 6.62096C120.672 6.58084 122.034 6.86136 123.278 7.44022V10.0952C122.093 9.54194 120.794 9.2731 119.486 9.3101C115.147 9.3101 113.379 12.0448 113.379 15.2839C113.379 18.523 115.181 21.2576 119.554 21.2576C120.844 21.2919 122.13 21.0888 123.347 20.6584L123.373 23.2299Z" fill="#253858"/>
<path d="M126.646 23.6637V0H129.518V14.7922L136.694 6.98267H140.434L132.586 15.1715L140.764 23.6637H136.857L129.514 15.8542V23.6637H126.646Z" fill="#253858"/>
<path d="M150.275 24.0004C144.032 24.0004 141.297 20.3971 141.297 15.2768C141.297 10.236 144.1 6.63281 149.175 6.63281C154.314 6.63281 156.381 10.2057 156.381 15.2768V16.5777H144.198C144.6 19.4148 146.436 21.2505 150.373 21.2505C152.104 21.2502 153.822 20.9459 155.448 20.3516V23.0066C154.079 23.7349 151.978 24.0004 150.275 24.0004ZM144.168 14.1389H153.48C153.313 11.0363 151.909 9.26506 149.042 9.26506C146 9.24989 144.468 11.2184 144.168 14.1199V14.1389Z" fill="#253858"/>
<path d="M166.395 20.8619C167.002 20.8438 167.606 20.765 168.197 20.6268V23.3956C167.568 23.5753 166.916 23.6647 166.262 23.6611C162.689 23.6611 160.952 21.5598 160.952 18.4535V9.64642H158.248V6.99142H160.952V3.4375H163.755V6.97625H168.193V9.63125H163.755V18.3928C163.759 19.8606 164.62 20.8619 166.395 20.8619Z" fill="#253858"/>
<path d="M0.768357 2.37506C0.657651 2.37364 0.547975 2.39646 0.447029 2.44193C0.346082 2.4874 0.256312 2.55441 0.184022 2.63827C0.111732 2.72213 0.0586745 2.82079 0.0285738 2.92734C-0.00152688 3.03388 -0.0079406 3.14572 0.00978296 3.25501L3.22993 22.8035C3.27005 23.0427 3.39318 23.2601 3.57768 23.4176C3.76219 23.575 3.99628 23.6624 4.23883 23.6644H19.6872C19.869 23.6668 20.0456 23.6037 20.1849 23.4868C20.3241 23.3698 20.4167 23.2067 20.4458 23.0272L23.6659 3.2588C23.6836 3.14951 23.6772 3.03767 23.6471 2.93113C23.617 2.82458 23.564 2.72592 23.4917 2.64206C23.4194 2.55821 23.3296 2.49119 23.2287 2.44572C23.1277 2.40025 23.018 2.37743 22.9073 2.37886L0.768357 2.37506ZM14.3279 16.5035H9.39713L8.06204 9.52841H15.5226L14.3279 16.5035Z" fill="#2684FF"/>
<path d="M22.641 9.52344H15.5218L14.327 16.4985H9.39627L3.57422 23.4091C3.75875 23.5687 3.99402 23.6574 4.23797 23.6595H19.6901C19.8719 23.6618 20.0486 23.5987 20.1878 23.4818C20.327 23.3648 20.4196 23.2018 20.4487 23.0223L22.641 9.52344Z" fill="url(#paint0_linear_1838_721)"/>
</g>
<defs>
<linearGradient id="paint0_linear_1838_721" x1="24.2871" y1="11.4768" x2="12.5216" y2="20.6593" gradientUnits="userSpaceOnUse">
<stop offset="0.18" stop-color="#0052CC"/>
<stop offset="1" stop-color="#2684FF"/>
</linearGradient>
<clipPath id="clip0_1838_721">
<rect width="169" height="24" fill="white"/>
</clipPath>
</defs>
</svg>
