<svg width="95" height="50" viewBox="0 0 95 50" fill="none" xmlns="http://www.w3.org/2000/svg">
<g clip-path="url(#clip0_1838_735)">
<path d="M46.9001 33.4471C46.7762 33.4133 44.8706 32.9219 42.8455 32.9219C39.0113 32.9219 36.703 34.9922 36.703 38.0753C36.703 40.8044 38.6341 42.1655 40.9517 42.8976C41.2086 42.9824 41.5872 43.101 41.8393 43.1844C42.8709 43.509 43.6944 43.9912 43.6944 44.8265C43.6944 45.7607 42.7427 46.3654 40.6737 46.3654C38.8554 46.3654 37.1123 45.8454 36.7451 45.7528V49.546C36.9498 49.5895 39.0215 49.9962 41.2345 49.9962C44.4178 49.9962 48.0591 48.6053 48.0591 44.4646C48.0591 42.4562 46.8293 40.6072 44.1297 39.7491L42.9821 39.3837C42.2974 39.1676 41.0751 38.8175 41.0751 37.814C41.0751 37.0213 41.9807 36.4631 43.6483 36.4631C45.0871 36.4631 46.8381 36.9466 46.9001 36.9659V33.4471ZM82.0532 41.4593C82.0532 43.8577 80.216 45.798 77.7509 45.798C75.2831 45.798 73.4508 43.8577 73.4508 41.4593C73.4508 39.0657 75.2831 37.1245 77.7509 37.1245C80.216 37.1245 82.0532 39.0657 82.0532 41.4593ZM77.7509 32.9271C72.6809 32.9271 69.0448 36.7512 69.0448 41.4593C69.0448 46.1748 72.6809 49.9962 77.7509 49.9962C82.8204 49.9962 86.4617 46.1748 86.4617 41.4593C86.4617 36.7512 82.8204 32.9271 77.7509 32.9271ZM31.1248 49.7028H26.9648V33.2192H31.1248" fill="#049FD9"/>
<path d="M21.2467 33.5204C20.8558 33.4045 19.4109 32.9297 17.4538 32.9297C12.3918 32.9297 8.67578 36.5389 8.67578 41.4618C8.67578 46.7729 12.7778 49.9988 17.4538 49.9988C19.3116 49.9988 20.7298 49.5587 21.2467 49.412V44.9872C21.0679 45.0864 19.7082 45.862 17.7521 45.862C14.9808 45.862 13.1933 43.9116 13.1933 41.4618C13.1933 38.9374 15.0581 37.0651 17.7521 37.0651C19.7416 37.0651 21.0793 37.8578 21.2467 37.9452" fill="#049FD9"/>
<path d="M64.6646 33.5204C64.2738 33.4045 62.8288 32.9297 60.8718 32.9297C55.8097 32.9297 52.0938 36.5389 52.0938 41.4618C52.0938 46.7729 56.1958 49.9988 60.8718 49.9988C62.7296 49.9988 64.1477 49.5587 64.6646 49.412V44.9872C64.4859 45.0864 63.1262 45.862 61.17 45.862C58.3987 45.862 56.6112 43.9116 56.6112 41.4618C56.6112 38.9374 58.476 37.0651 61.17 37.0651C63.1595 37.0651 64.4973 37.8578 64.6646 37.9452" fill="#049FD9"/>
<path d="M26.9521 2.0576C26.9521 0.921418 26.0241 0 24.8866 0C23.7495 0 22.8215 0.921418 22.8215 2.0576V23.9468C22.8215 25.0895 23.7495 26.0105 24.8866 26.0105C26.0241 26.0105 26.9521 25.0895 26.9521 23.9468V2.0576ZM15.6083 9.82773C15.6083 8.69198 14.6807 7.76925 13.5432 7.76925C12.4057 7.76925 11.4781 8.69198 11.4781 9.82773V19.8346C11.4781 20.977 12.4057 21.8984 13.5432 21.8984C14.6807 21.8984 15.6083 20.977 15.6083 19.8346V9.82773ZM4.2649 15.5073C4.2649 14.3711 3.33733 13.4502 2.19983 13.4502C1.06365 13.4502 0.134766 14.3711 0.134766 15.5073V19.8346C0.134766 20.977 1.06365 21.8984 2.19983 21.8984C3.33733 21.8984 4.2649 20.977 4.2649 19.8346" fill="#049FD9"/>
<path d="M22.8214 2.0576C22.8214 0.921418 23.7494 0 24.8869 0C26.0239 0 26.9519 0.921418 26.9519 2.0576V23.9468C26.9519 25.0895 26.0239 26.0105 24.8869 26.0105C23.7494 26.0105 22.8214 25.0895 22.8214 23.9468V2.0576ZM34.1652 9.82773C34.1652 8.69198 35.0927 7.76925 36.2302 7.76925C37.3677 7.76925 38.2953 8.69198 38.2953 9.82773V19.8346C38.2953 20.977 37.3677 21.8984 36.2302 21.8984C35.0927 21.8984 34.1652 20.977 34.1652 19.8346V9.82773ZM45.5085 15.5073C45.5085 14.3711 46.4361 13.4502 47.5736 13.4502C48.7098 13.4502 49.6387 14.3711 49.6387 15.5073V19.8346C49.6387 20.977 48.7098 21.8984 47.5736 21.8984C46.4361 21.8984 45.5085 20.977 45.5085 19.8346" fill="#049FD9"/>
<path d="M68.1827 2.0576C68.1827 0.921418 69.1107 0 70.2482 0C71.3853 0 72.3133 0.921418 72.3133 2.0576V23.9468C72.3133 25.0895 71.3853 26.0105 70.2482 26.0105C69.1107 26.0105 68.1827 25.0895 68.1827 23.9468V2.0576ZM79.5265 9.82773C79.5265 8.69198 80.4541 7.76925 81.5916 7.76925C82.7291 7.76925 83.6566 8.69198 83.6566 9.82773V19.8346C83.6566 20.977 82.7291 21.8984 81.5916 21.8984C80.4541 21.8984 79.5265 20.977 79.5265 19.8346V9.82773ZM90.8699 15.5073C90.8699 14.3711 91.7974 13.4502 92.9349 13.4502C94.0711 13.4502 95 14.3711 95 15.5073V19.8346C95 20.977 94.0711 21.8984 92.9349 21.8984C91.7974 21.8984 90.8699 20.977 90.8699 19.8346" fill="#049FD9"/>
<path d="M72.3134 2.0576C72.3134 0.921418 71.3854 0 70.2479 0C69.1108 0 68.1828 0.921418 68.1828 2.0576V23.9468C68.1828 25.0895 69.1108 26.0105 70.2479 26.0105C71.3854 26.0105 72.3134 25.0895 72.3134 23.9468V2.0576ZM60.9696 9.82773C60.9696 8.69198 60.042 7.76925 58.9045 7.76925C57.767 7.76925 56.8395 8.69198 56.8395 9.82773V19.8346C56.8395 20.977 57.767 21.8984 58.9045 21.8984C60.042 21.8984 60.9696 20.977 60.9696 19.8346V9.82773ZM49.6262 15.5073C49.6262 14.3711 48.6987 13.4502 47.5612 13.4502C46.425 13.4502 45.4961 14.3711 45.4961 15.5073V19.8346C45.4961 20.977 46.425 21.8984 47.5612 21.8984C48.6987 21.8984 49.6262 20.977 49.6262 19.8346" fill="#049FD9"/>
</g>
<defs>
<clipPath id="clip0_1838_735">
<rect width="95" height="50" fill="white"/>
</clipPath>
</defs>
</svg>
