<svg width="152" height="50" viewBox="0 0 152 50" fill="none" xmlns="http://www.w3.org/2000/svg">
<g clip-path="url(#clip0_1838_744)">
<path d="M141.342 15.8186L132.983 13.8783L131.491 13.2812L93.1328 13.5798V32.0871L141.342 32.2364V15.8186Z" fill="white"/>
<path d="M125.671 30.4476C125.911 29.812 125.996 29.1281 125.918 28.453C125.84 27.778 125.602 27.1313 125.224 26.5671C124.835 26.1008 124.358 25.7158 123.82 25.4341C123.282 25.1524 122.694 24.9795 122.089 24.9253L96.1192 24.6268C95.97 24.6268 95.8207 24.4775 95.6715 24.4775C95.6367 24.4514 95.6085 24.4176 95.5891 24.3788C95.5696 24.3399 95.5595 24.2971 95.5595 24.2536C95.5595 24.2102 95.5696 24.1673 95.5891 24.1285C95.6085 24.0896 95.6367 24.0558 95.6715 24.0298C95.8207 23.7313 95.97 23.582 96.2685 23.582L122.388 23.2835C124.046 23.0995 125.625 22.477 126.963 21.4802C128.301 20.4834 129.349 19.1482 130 17.6119L131.492 13.7313C131.492 13.582 131.641 13.4328 131.492 13.2835C130.681 9.66926 128.712 6.41865 125.884 4.02567C123.057 1.63269 119.525 0.228156 115.826 0.0254878C112.128 -0.177181 108.464 0.833099 105.392 2.90281C102.32 4.97252 100.007 7.98852 98.8058 11.4925C97.246 10.3785 95.3435 9.85005 93.4327 9.99997C91.679 10.1955 90.0441 10.9817 88.7964 12.2294C87.5487 13.477 86.7626 15.112 86.567 16.8656C86.4676 17.7632 86.5181 18.6711 86.7163 19.5522C83.8789 19.6306 81.1841 20.813 79.205 22.8478C77.226 24.8825 76.1189 27.6092 76.1193 30.4476C76.0948 30.9991 76.145 31.5514 76.2686 32.0894C76.2754 32.2059 76.3248 32.3159 76.4073 32.3984C76.4899 32.4809 76.5998 32.5303 76.7163 32.5372H124.627C124.925 32.5372 125.224 32.3879 125.224 32.0894L125.671 30.4476Z" fill="#F48120"/>
<path d="M133.881 13.7266H133.135C132.986 13.7266 132.836 13.8758 132.687 14.0251L131.642 17.6071C131.402 18.2428 131.318 18.9267 131.396 19.6018C131.473 20.2768 131.712 20.9234 132.09 21.4877C132.479 21.954 132.956 22.339 133.494 22.6207C134.032 22.9024 134.62 23.0753 135.224 23.1295L140.747 23.428C140.896 23.428 141.045 23.5773 141.195 23.5773C141.229 23.6033 141.258 23.6371 141.277 23.676C141.296 23.7148 141.307 23.7577 141.307 23.8011C141.307 23.8446 141.296 23.8874 141.277 23.9263C141.258 23.9652 141.229 23.999 141.195 24.025C141.045 24.3235 140.896 24.4728 140.598 24.4728L134.926 24.7713C133.268 24.9553 131.689 25.5777 130.351 26.5746C129.013 27.5714 127.965 28.9066 127.314 30.4429L127.016 31.7862C126.866 31.9354 127.016 32.2339 127.314 32.2339H147.015C147.076 32.2426 147.138 32.237 147.197 32.2176C147.255 32.1982 147.308 32.1654 147.351 32.122C147.395 32.0785 147.427 32.0256 147.447 31.9673C147.466 31.909 147.472 31.847 147.463 31.7862C147.819 30.5216 148.019 29.2185 148.06 27.9056C148.037 24.1524 146.535 20.5596 143.881 17.9056C141.227 15.2517 137.634 13.7502 133.881 13.7266Z" fill="#FAAD3F"/>
<path d="M149.999 40.5935C149.734 40.5935 149.474 40.5148 149.253 40.3672C149.032 40.2196 148.86 40.0098 148.758 39.7643C148.657 39.5189 148.63 39.2488 148.682 38.9882C148.734 38.7276 148.862 38.4883 149.05 38.3004C149.237 38.1126 149.477 37.9846 149.737 37.9328C149.998 37.881 150.268 37.9076 150.513 38.0092C150.759 38.1109 150.969 38.2831 151.116 38.504C151.264 38.7249 151.343 38.9846 151.343 39.2503C151.343 39.4269 151.309 39.6019 151.242 39.7652C151.175 39.9285 151.076 40.0769 150.951 40.2018C150.826 40.3266 150.678 40.4256 150.514 40.4928C150.351 40.56 150.176 40.5943 149.999 40.5935ZM149.999 38.2055C149.793 38.2055 149.591 38.2668 149.419 38.3816C149.247 38.4964 149.113 38.6595 149.034 38.8505C148.955 39.0414 148.934 39.2514 148.975 39.4541C149.015 39.6568 149.114 39.8429 149.261 39.989C149.407 40.1351 149.593 40.2347 149.796 40.275C149.998 40.3153 150.208 40.2946 150.399 40.2155C150.59 40.1364 150.753 40.0025 150.868 39.8307C150.983 39.6589 151.044 39.4569 151.044 39.2503C151.047 39.1121 151.023 38.9748 150.971 38.8465C150.92 38.7182 150.843 38.6017 150.746 38.504C150.648 38.4063 150.531 38.3295 150.403 38.2782C150.275 38.2269 150.137 38.2021 149.999 38.2055ZM150.596 39.9965H150.298L149.999 39.5488H149.701V39.9965H149.402V38.6533H150.149C150.209 38.6446 150.271 38.6502 150.33 38.6696C150.388 38.689 150.441 38.7218 150.484 38.7652C150.528 38.8086 150.561 38.8616 150.58 38.9199C150.599 38.9782 150.605 39.0402 150.596 39.101C150.596 39.2503 150.447 39.3995 150.298 39.5488L150.596 39.9965ZM150.149 39.2503C150.298 39.2503 150.298 39.2503 150.298 39.101C150.298 39.0813 150.295 39.0617 150.287 39.0434C150.28 39.0251 150.269 39.0085 150.255 38.9945C150.241 38.9806 150.225 38.9696 150.206 38.9623C150.188 38.9549 150.168 38.9513 150.149 38.9518H149.701V39.3995H150.149V39.2503ZM16.2687 37.907H19.5522V46.8622H25.2239V49.698H16.2687V37.907ZM28.6567 43.7279C28.6567 42.8988 28.825 42.0784 29.1514 41.3163C29.4778 40.5542 29.9555 39.8662 30.5555 39.2941C31.1555 38.722 31.8654 38.2777 32.6422 37.9879C33.4189 37.6982 34.2464 37.5691 35.0746 37.6085C35.8949 37.5715 36.7142 37.7034 37.4816 37.9959C38.2489 38.2884 38.9481 38.7353 39.5357 39.309C40.1234 39.8826 40.587 40.5708 40.8979 41.3309C41.2088 42.091 41.3604 42.9068 41.3432 43.7279C41.3431 44.5569 41.1748 45.3773 40.8484 46.1394C40.522 46.9015 40.0444 47.5895 39.4444 48.1616C38.8443 48.7337 38.1345 49.1781 37.3577 49.4678C36.5809 49.7576 35.7534 49.8866 34.9253 49.8472C34.1081 49.8715 33.2944 49.731 32.5327 49.4339C31.7709 49.1369 31.0769 48.6895 30.4918 48.1184C29.9068 47.5473 29.4428 46.8642 29.1275 46.1099C28.8122 45.3555 28.6521 44.5454 28.6567 43.7279ZM38.0596 43.7279C38.0889 43.3141 38.0339 42.8987 37.8981 42.5068C37.7623 42.1149 37.5484 41.7546 37.2694 41.4476C36.9903 41.1407 36.652 40.8936 36.2747 40.7211C35.8975 40.5487 35.4892 40.4545 35.0746 40.4443C34.2697 40.4836 33.5109 40.8309 32.9552 41.4144C32.3995 41.9979 32.0895 42.7728 32.0895 43.5786C32.0895 44.3844 32.3995 45.1593 32.9552 45.7428C33.5109 46.3263 34.2697 46.6736 35.0746 46.7129C36.8656 47.0114 38.0596 45.5189 38.0596 43.7279ZM45.373 44.4741V37.907H48.6566V44.4741C48.6566 46.1159 49.5521 47.0114 50.8954 47.0114C51.2091 47.0375 51.5246 46.9923 51.8184 46.8793C52.1122 46.7662 52.3767 46.5882 52.592 46.3585C52.8073 46.1289 52.9679 45.8535 53.0618 45.553C53.1557 45.2526 53.1804 44.9348 53.1342 44.6234V37.907H56.4177V44.4741C56.4177 48.3547 54.1789 49.9965 50.8954 49.9965C47.4625 49.8472 45.373 48.2054 45.373 44.4741ZM61.3431 37.907H65.9699C70.149 37.907 72.6863 40.295 72.6863 43.7279C72.6863 47.1607 70.149 49.698 65.9699 49.698H61.4923V37.907H61.3431ZM65.9699 46.7129C66.3858 46.7526 66.8055 46.705 67.2019 46.573C67.5983 46.441 67.9628 46.2277 68.2719 45.9467C68.5811 45.6656 68.8281 45.3231 68.9971 44.941C69.1662 44.5589 69.2535 44.1457 69.2535 43.7279C69.2535 43.31 69.1662 42.8968 68.9971 42.5148C68.8281 42.1327 68.5811 41.7901 68.2719 41.5091C67.9628 41.228 67.5983 41.0147 67.2019 40.8827C66.8055 40.7508 66.3858 40.7031 65.9699 40.7428H64.6266V46.7129H65.9699ZM77.3131 37.907H86.7161V40.7428H80.5967V42.6831H86.1191V45.3696H80.5967V49.698H77.3131V37.907ZM91.3429 37.907H94.6265V46.8622H100.298V49.698H91.3429V37.907ZM108.806 37.7577H112.089L117.164 49.698H113.582L112.686 47.6084H108.059L107.164 49.698H103.731L108.806 37.7577ZM111.791 45.0711L110.447 41.7876L109.104 45.0711H111.791ZM121.343 37.907H126.865C127.57 37.8498 128.279 37.9397 128.947 38.1709C129.615 38.4022 130.227 38.7697 130.746 39.2503C131.173 39.7113 131.484 40.2686 131.65 40.8749C131.817 41.4813 131.835 42.1189 131.704 42.7338C131.572 43.3487 131.294 43.9228 130.893 44.4076C130.493 44.8923 129.981 45.2735 129.402 45.5189L132.238 49.698H128.507L126.119 46.1159H124.626V49.698H121.343V37.907ZM126.716 43.5786C127.761 43.5786 128.507 42.9816 128.507 42.2353C128.507 41.3398 127.761 40.892 126.716 40.892H124.626V43.7279H126.716V43.5786ZM136.417 37.907H145.97V40.5935H139.701V42.3846H145.373V45.0711H139.701V46.8622H146.119V49.698H136.417V37.907ZM9.10453 45.2204C8.87942 45.7479 8.50538 46.1982 8.02821 46.5163C7.55103 46.8345 6.99145 47.0065 6.41798 47.0114C5.61316 46.9721 4.85429 46.6248 4.29858 46.0413C3.74287 45.4578 3.43291 44.6829 3.43291 43.8771C3.43291 43.0713 3.74287 42.2964 4.29858 41.7129C4.85429 41.1294 5.61316 40.7821 6.41798 40.7428C7.02835 40.7545 7.62199 40.9444 8.12583 41.2892C8.62968 41.6339 9.02174 42.1184 9.25378 42.6831H12.6866C12.3929 41.2534 11.602 39.974 10.4544 39.0723C9.3067 38.1706 7.87656 37.7048 6.41798 37.7577C5.59294 37.7309 4.77082 37.8687 3.99959 38.163C3.22836 38.4573 2.52347 38.9022 1.92605 39.4718C1.32862 40.0415 0.850626 40.7244 0.519956 41.4808C0.189286 42.2371 0.012562 43.0517 9.61276e-05 43.8771C-0.00449808 44.6947 0.15563 45.5048 0.470927 46.2591C0.786224 47.0134 1.25023 47.6965 1.83526 48.2676C2.4203 48.8387 3.11437 49.2861 3.87607 49.5832C4.63778 49.8802 5.45151 50.0208 6.26872 49.9965C7.69477 50.0061 9.08374 49.5425 10.2181 48.6782C11.3524 47.8139 12.1681 46.5978 12.5373 45.2204H9.10453Z" fill="#212121"/>
</g>
<defs>
<clipPath id="clip0_1838_744">
<rect width="152" height="50" fill="white"/>
</clipPath>
</defs>
</svg>
