<svg width="200" height="35" viewBox="0 0 200 35" fill="none" xmlns="http://www.w3.org/2000/svg">
<g clip-path="url(#clip0_1838_771)">
<path fill-rule="evenodd" clip-rule="evenodd" d="M23.9628 22.3964C20.6591 20.4591 17.3554 18.5193 14.2225 16.3136L14.225 16.3111C10.1624 13.4515 6.34389 10.3137 3.28663 6.35122C1.94465 4.61152 0.802747 2.75471 0.146398 0.636829L0.117276 0.543462C0.0849472 0.440276 0.0525138 0.336756 0.0243996 0.231796C0.0149087 0.20016 0.0125962 0.166472 0.00881943 0.111454C0.00677054 0.0816067 0.0042907 0.0454814 0 0C0.35268 0.373158 0.695282 0.735177 1.03226 1.09125C1.41799 1.49884 1.79634 1.89864 2.174 2.29844C7.11248 7.54192 12.7171 11.968 18.7755 15.8427C22.211 18.0411 25.5927 20.3249 28.4524 23.2748C30.1311 25.0047 31.5438 26.9176 32.4393 29.177C32.5076 29.3454 32.5686 29.5186 32.6174 29.6919C32.6305 29.7409 32.6238 29.7944 32.6158 29.8588C32.6119 29.8905 32.6076 29.9249 32.6052 29.9627C30.2945 26.7566 27.3129 24.363 23.9628 22.3964ZM56.3172 2.70778C50.9249 4.09856 48.3459 9.86175 50.9249 14.7685C52.6085 17.9722 55.5145 19.2312 58.4815 19.3727C60.6969 19.3727 62.2902 19.0092 63.8006 18.2211C68.5561 15.7421 69.776 9.23956 66.1356 5.3039C63.4468 2.39791 60.0333 1.74888 56.3172 2.70778ZM59.0622 15.0003C56.7467 14.9808 55.0362 13.1899 55.046 10.7987C55.0558 8.47829 56.8174 6.6898 59.0939 6.6898C61.385 6.6898 63.1418 8.50025 63.1393 10.8597C63.1369 13.2143 61.3582 15.0198 59.0622 15.0003ZM49.2192 15.2031C49.1435 14.8786 48.9776 14.7566 48.6531 14.8688C47.9748 15.1055 47.5161 14.7956 47.1672 14.254C46.7499 13.6049 46.3107 12.9779 45.6373 12.5021C45.6707 12.4826 45.6999 12.4652 45.7263 12.4494L45.7265 12.4493C45.783 12.4156 45.8267 12.3895 45.8715 12.3679C49.2509 10.8282 49.4119 6.93407 47.8138 4.70395C46.7865 3.27169 45.2689 2.62998 43.5877 2.46163C41.6447 2.26623 39.6957 2.2926 37.7458 2.31897C36.6277 2.3341 35.5093 2.34923 34.3915 2.32255C34.0678 2.31414 34.0755 2.48323 34.0839 2.66597C34.0852 2.69533 34.0865 2.72504 34.0865 2.75442L34.0867 5.39918V5.40513C34.087 9.81384 34.0874 14.2225 34.0792 18.6312C34.0792 18.968 34.1573 19.0851 34.5135 19.0802C35.936 19.0607 37.3585 19.0534 38.7786 19.0826C39.2178 19.0924 39.2666 18.9167 39.2641 18.5532C39.2516 17.4399 39.2535 16.3267 39.2554 15.2125V15.2121V15.2118V15.2114V15.211V15.2106V15.2102V15.2098V15.2095V15.2091V15.2087V15.2083C39.2561 14.8025 39.2568 14.3966 39.2568 13.9904C39.2568 13.1169 39.5521 12.9461 40.3304 13.3878C40.5378 13.5073 40.7257 13.6708 40.9014 13.8343C41.5683 14.4595 42.0616 15.2144 42.5565 15.9718L42.6362 16.0937L42.7147 16.2137C43.2759 17.072 43.8364 17.9293 44.6687 18.5727C45.8594 19.495 48.2237 19.6511 49.4656 18.8704C49.7755 18.6752 50.0073 18.4531 49.9024 18.0359C49.6657 17.0941 49.4388 16.1498 49.2192 15.2055V15.2031ZM42.1652 9.76931C41.6202 9.88356 41.0703 9.86983 40.5199 9.85608C40.2004 9.8481 39.8808 9.84012 39.5618 9.85714C39.3129 9.86934 39.2519 9.74491 39.2544 9.52775L39.2567 9.13737C39.2615 8.35744 39.2662 7.57776 39.2495 6.79987C39.2422 6.48024 39.3935 6.43632 39.6545 6.44608C39.9213 6.45452 40.187 6.45245 40.4531 6.45037L40.4532 6.45037C40.5715 6.44945 40.69 6.44852 40.8086 6.44852V6.46072C40.9292 6.46072 41.0497 6.45833 41.1702 6.45595C41.435 6.45071 41.6994 6.44548 41.9627 6.4656C42.7874 6.52904 43.4267 7.19759 43.478 8.01254C43.5341 8.91532 43.0363 9.58631 42.1652 9.76931ZM91.9814 2.32853C91.5747 2.3269 91.168 2.32907 90.7614 2.33124C89.9483 2.33558 89.1356 2.33991 88.3239 2.31389C87.892 2.29925 87.7457 2.45053 87.6285 2.83848C87.0038 4.94278 86.3641 7.04298 85.7246 9.14215C85.5099 9.84696 85.2953 10.5516 85.0812 11.2563C85.0737 11.281 85.0684 11.3074 85.0631 11.334L85.0631 11.3341L85.0631 11.3342L85.0631 11.3342C85.0427 11.4366 85.0218 11.5415 84.8689 11.5589C84.6361 10.8364 84.4029 10.1144 84.1697 9.39265L84.1663 9.38198L84.1628 9.37129C83.4525 7.17253 82.7429 4.97585 82.0483 2.77504C81.9361 2.41881 81.7873 2.29925 81.4188 2.31877C80.7698 2.35049 80.1159 2.35293 79.4693 2.31877C79.0765 2.29925 78.9203 2.42857 78.8008 2.8092C78.0676 5.14157 77.3157 7.46924 76.5462 9.8512C76.3553 10.442 76.1634 11.0361 75.9704 11.6345C75.9354 11.5426 75.9062 11.4703 75.8815 11.4093L75.8815 11.4092C75.8459 11.3213 75.8198 11.2567 75.7996 11.1905C75.6287 10.6334 75.4575 10.0764 75.2864 9.51936C74.6021 7.29285 73.9178 5.06635 73.2523 2.8336C73.1327 2.43589 72.9766 2.30413 72.552 2.31633C71.7402 2.3391 70.9263 2.33585 70.1131 2.33259C69.7066 2.33097 69.3003 2.32934 68.8945 2.33097C68.3016 2.33097 68.1674 2.51396 68.3651 3.07028C68.9168 4.62275 69.4689 6.17502 70.021 7.72726L70.0214 7.72839C71.3591 11.4892 72.6967 15.2499 74.0282 19.013C74.1258 19.2911 74.2502 19.3887 74.5406 19.379C75.2506 19.3594 75.9655 19.3448 76.6731 19.3839C77.0367 19.4034 77.1611 19.2497 77.2636 18.9471C77.5144 18.1968 77.7834 17.4526 78.0522 16.7089L78.1322 16.4876C78.6283 15.1017 79.1267 13.7158 79.625 12.3298C79.8741 11.6369 80.1232 10.944 80.3721 10.2511C80.5359 10.3151 80.5631 10.43 80.5883 10.5363C80.5958 10.5677 80.6031 10.5984 80.6137 10.6268C81.6165 13.3815 82.6193 16.1363 83.6002 18.8983C83.7295 19.2594 83.8759 19.4082 84.276 19.3863C84.9446 19.3472 85.618 19.3619 86.2866 19.3814C86.5867 19.3912 86.7477 19.3253 86.8599 19.0105C88.0701 15.5859 89.2864 12.1633 90.5028 8.74013L90.512 8.71415L90.5212 8.68824L90.5304 8.66241L90.5396 8.63665C91.1994 6.77988 91.8593 4.92294 92.5182 3.0654C92.7159 2.50909 92.5816 2.33097 91.9839 2.32853H91.9814ZM98.644 2.31851C100.119 2.3145 101.594 2.31049 103.068 2.3497C105.323 2.40826 107.316 3.18173 108.854 4.89946C110.654 6.91243 111.081 9.34995 110.869 11.929C110.691 14.0957 109.893 16.0037 108.192 17.4628C106.745 18.7023 105.033 19.2879 103.166 19.3391C101.642 19.3813 100.118 19.3776 98.5933 19.3738C97.558 19.3713 96.5227 19.3688 95.4874 19.3806C95.0684 19.385 95.072 19.1921 95.0765 18.9424C95.077 18.9159 95.0775 18.8886 95.0775 18.8609V10.8334C95.0775 10.1412 95.0785 9.4487 95.0795 8.75617C95.0823 6.79309 95.0851 4.82936 95.0653 2.86698C95.0604 2.40094 95.1897 2.30822 95.6338 2.3131C96.6373 2.32397 97.6407 2.32124 98.644 2.31851ZM102.561 15.1595C103.883 15.0839 104.854 14.4397 105.45 13.2514H105.447C106.013 12.1169 106.07 10.9188 105.84 9.7013C105.445 7.5883 104.205 6.55619 102.058 6.52936C101.838 6.52651 101.617 6.52883 101.396 6.53115C101.049 6.53479 100.701 6.53844 100.355 6.52204C100.001 6.50496 99.9135 6.63427 99.9184 6.96855C99.9309 7.91865 99.929 8.86875 99.9271 9.81886C99.9264 10.1644 99.9257 10.5099 99.9257 10.8554C99.9257 11.2087 99.9262 11.562 99.9268 11.9153V11.9173C99.9282 12.859 99.9297 13.8006 99.9208 14.7423C99.9184 15.0326 99.9574 15.1888 100.309 15.1766C100.649 15.1644 100.988 15.1688 101.328 15.1731C101.739 15.1783 102.15 15.1836 102.561 15.1595ZM156.836 12.3852C156.417 12.6268 156.419 12.7707 156.626 13.1514L156.624 13.1489C157.388 14.5498 158.133 15.9596 158.879 17.3703L158.882 17.3763L158.885 17.3823L158.888 17.3883C159.094 17.7775 159.299 18.1667 159.506 18.5559C159.833 19.1756 159.73 19.3659 159.049 19.3659C158.571 19.3676 158.093 19.3667 157.615 19.3657C156.711 19.364 155.807 19.3622 154.904 19.3781C154.56 19.383 154.404 19.2537 154.257 18.9707C153.545 17.5866 152.822 16.2073 152.1 14.8289C151.931 14.5064 151.762 14.1839 151.593 13.8614C151.376 13.449 150.685 13.2075 150.278 13.3954C150.095 13.4801 150.114 13.6231 150.133 13.758C150.138 13.7978 150.143 13.8369 150.143 13.8736L150.142 14.2257C150.135 15.7525 150.128 17.2774 150.148 18.8023C150.156 19.222 150.1 19.3977 149.604 19.383C148.265 19.3415 146.92 19.3513 145.581 19.3781C145.183 19.3855 145.081 19.2781 145.083 18.8804C145.098 16.8601 145.096 14.8152 145.094 12.8V12.7986V12.7973V12.7959V12.7946V12.7932V12.7919V12.7906V12.7837V12.7738V12.764V12.7542V12.7445V12.7349V12.7253V12.7159V12.7064C145.093 12.0638 145.093 11.4242 145.093 10.7895C145.093 10.1265 145.093 9.46336 145.094 8.80012V8.79977V8.79943C145.095 6.80716 145.096 4.81387 145.085 2.82057C145.083 2.43993 145.159 2.30818 145.573 2.31306C146.568 2.32253 147.562 2.31986 148.557 2.3172C150.123 2.313 151.689 2.30881 153.254 2.35209C154.962 2.39845 156.592 2.80349 157.871 4.07227C160.303 6.49027 159.798 10.6797 156.836 12.3852ZM152.505 9.97941C153.474 9.99161 154.191 9.34502 154.24 8.40808H154.238C154.291 7.39793 153.686 6.6513 152.72 6.55127C152.439 6.52199 152.152 6.51467 151.869 6.52931C151.685 6.53966 151.482 6.51646 151.28 6.49342C150.864 6.4459 150.454 6.3991 150.239 6.64886C150.051 6.8654 150.096 7.28133 150.142 7.69742C150.162 7.88146 150.183 8.06553 150.183 8.2324H150.136C150.136 8.36976 150.138 8.50735 150.14 8.64497V8.64559C150.144 8.95509 150.148 9.26468 150.131 9.57194C150.114 9.89889 150.241 9.98917 150.553 9.97941C151.15 9.96377 151.745 9.97064 152.341 9.97753L152.505 9.97941ZM179.445 10.3882C179.22 10.0662 179.227 9.8734 179.479 9.56109C181.039 7.62679 182.58 5.67666 184.121 3.72673L184.629 3.083C184.652 3.05462 184.677 3.02725 184.702 2.99968L184.702 2.99961L184.703 2.99951L184.703 2.99935C184.808 2.8848 184.917 2.76671 184.827 2.5584C184.72 2.31622 184.537 2.32065 184.346 2.32531C184.319 2.32596 184.293 2.32661 184.266 2.32661C183.859 2.32661 183.453 2.3273 183.046 2.328L183.046 2.328C181.928 2.32991 180.81 2.33181 179.693 2.31929C179.371 2.31441 179.176 2.42421 178.991 2.67552C178.545 3.27576 178.085 3.86495 177.625 4.45452L177.624 4.45544L177.617 4.46485C177.468 4.65553 177.319 4.84625 177.171 5.0374C176.343 6.10123 175.516 7.16505 174.667 8.25571C174.559 8.06268 174.57 7.89754 174.581 7.74207C174.584 7.69709 174.587 7.65292 174.587 7.60912L174.584 6.91826V6.91809V6.91791V6.91774V6.91757V6.9174V6.91723V6.91706C174.58 5.54474 174.575 4.17267 174.591 2.8024C174.596 2.44129 174.521 2.31197 174.128 2.31929C172.725 2.34369 171.322 2.34125 169.921 2.31929C169.577 2.31441 169.485 2.41201 169.487 2.7536C169.497 8.15079 169.497 13.5455 169.487 18.9427C169.487 19.2819 169.57 19.3844 169.919 19.3795C171.322 19.36 172.725 19.3575 174.125 19.3795C174.513 19.3868 174.599 19.2648 174.591 18.8988C174.583 18.403 174.589 17.9064 174.594 17.4099V17.4084V17.4083V17.4082V17.408V17.4079V17.4078V17.4076V17.4075C174.603 16.6051 174.612 15.803 174.562 15.0046C174.509 14.136 174.943 13.6212 175.519 13.0771C175.854 13.5689 176.188 14.0586 176.522 14.5469L176.528 14.5564L176.531 14.5613C177.528 16.0209 178.517 17.4691 179.491 18.9281C179.723 19.2746 179.972 19.3868 180.374 19.3795C181.341 19.3629 182.309 19.3655 183.276 19.3681C183.731 19.3693 184.186 19.3705 184.642 19.3697C184.678 19.3697 184.715 19.3715 184.752 19.3733C184.949 19.3826 185.145 19.3919 185.264 19.1331C185.365 18.911 185.252 18.7847 185.144 18.6636C185.111 18.6277 185.08 18.5922 185.054 18.5548C183.192 15.8269 181.328 13.1015 179.445 10.3858V10.3882ZM121.995 9.10935C122.806 9.3753 123.599 9.68029 124.345 10.0878L124.338 10.0902C126.009 11.0028 126.827 12.4301 126.778 14.3211C126.729 16.2047 125.753 17.5248 124.121 18.3739C122.115 19.4182 119.968 19.5329 117.774 19.201C115.835 18.9082 114.056 18.2446 112.548 16.9392C112.104 16.5561 112.028 16.2535 112.458 15.7948C113.08 15.1287 113.658 14.4187 114.222 13.7013C114.551 13.2817 114.81 13.2134 115.259 13.5794C116.452 14.5505 117.823 15.119 119.382 15.1702C119.875 15.1873 120.356 15.1287 120.815 14.9408C121.173 14.7945 121.459 14.5846 121.451 14.1479C121.444 13.7184 121.176 13.4671 120.81 13.3549C120.228 13.1768 119.64 13.0213 119.052 12.8659L119.051 12.8659C118.817 12.804 118.584 12.7422 118.35 12.679C117.05 12.3277 115.81 11.8372 114.739 11.0003C112.111 8.94831 112.338 5.21273 115.193 3.48524C116.589 2.64101 118.126 2.34334 119.736 2.33114C121.612 2.35554 123.398 2.73617 125.055 3.64384C125.27 3.76095 125.48 3.88539 125.677 4.02447C126.788 4.79794 126.792 4.85406 125.926 5.84224C125.77 6.01982 125.612 6.19602 125.454 6.37233L125.454 6.37238C125.098 6.77017 124.741 7.16848 124.406 7.58437C124.077 7.99184 123.825 8.0016 123.408 7.66977C122.22 6.72062 120.9 6.09599 119.316 6.31315C118.843 6.37659 118.35 6.49371 118.245 7.0427C118.128 7.65025 118.558 7.94792 119.043 8.18216C119.644 8.4724 120.283 8.6389 120.922 8.80546C121.282 8.89935 121.642 8.99325 121.995 9.10935ZM199.998 15.7363C200.013 15.2947 199.915 15.1532 199.442 15.1605C198.425 15.1749 197.409 15.174 196.392 15.1731C195.336 15.1721 194.28 15.1712 193.225 15.1873C192.729 15.1947 192.598 15.0434 192.639 14.5798C192.676 14.1772 192.683 13.7648 192.639 13.3647C192.585 12.8791 192.788 12.8035 193.22 12.8108C193.995 12.8249 194.771 12.8235 195.546 12.8222C196.254 12.8211 196.961 12.8199 197.668 12.8303C198.051 12.8352 198.192 12.7547 198.178 12.3399C198.144 11.3468 198.144 10.3513 198.178 9.36072C198.192 8.93617 198.036 8.86785 197.663 8.87761C196.587 8.89957 195.508 8.89957 194.432 8.87761C194.256 8.87465 194.06 8.89773 193.864 8.92084C193.413 8.97392 192.961 9.02714 192.746 8.76537C192.555 8.53229 192.587 8.12373 192.619 7.70576C192.637 7.48491 192.654 7.26144 192.639 7.05984C192.607 6.63772 192.737 6.51573 193.168 6.52061C194.326 6.53424 195.484 6.5334 196.643 6.53256C197.557 6.53189 198.472 6.53123 199.385 6.53769C199.751 6.54013 199.927 6.49133 199.915 6.05457C199.881 4.96147 199.883 3.86349 199.915 2.77039C199.927 2.36292 199.771 2.32144 199.425 2.32144C195.706 2.33364 191.988 2.33608 188.271 2.319C187.862 2.319 187.779 2.43855 187.781 2.82163C187.794 4.88127 187.793 6.94092 187.792 9.00056C187.791 9.61755 187.791 10.2345 187.791 10.8515C187.791 11.4685 187.791 12.0855 187.792 12.7025C187.793 14.7622 187.794 16.8218 187.781 18.8814C187.779 19.2694 187.866 19.3865 188.274 19.3841C192.012 19.367 195.75 19.3646 199.488 19.3841C199.942 19.3865 200.01 19.2352 199.998 18.8351C199.971 17.8005 199.966 16.766 199.998 15.7339V15.7363ZM143.389 2.31914C143.796 2.31426 143.891 2.43382 143.882 2.82177L143.884 2.82421C143.855 3.89779 143.85 4.97381 143.884 6.0474C143.896 6.46951 143.75 6.54515 143.369 6.54027C142.77 6.5318 142.17 6.5339 141.57 6.53599C140.788 6.53873 140.005 6.54147 139.224 6.52075C138.726 6.50855 138.582 6.62323 138.584 7.14294C138.598 9.12756 138.598 11.1115 138.599 13.0955C138.599 14.985 138.599 16.8744 138.611 18.7645C138.614 19.2793 138.477 19.4013 137.977 19.3891C136.615 19.3501 135.254 19.3476 133.892 19.3891C133.363 19.4062 133.273 19.2354 133.275 18.7474C133.286 16.7517 133.287 14.7566 133.287 12.7616C133.287 10.8832 133.288 9.00481 133.297 7.12586C133.297 6.66227 133.197 6.50855 132.704 6.52075C131.957 6.54027 131.209 6.53758 130.461 6.53489C129.806 6.53254 129.151 6.53018 128.498 6.54271C128.085 6.55003 127.993 6.41827 128.002 6.03032C128.032 4.95673 128.036 3.88071 128.002 2.80713C127.99 2.38502 128.139 2.32158 128.515 2.32158C130.374 2.33256 132.233 2.33119 134.092 2.32981C134.712 2.32936 135.332 2.3289 135.952 2.3289C136.571 2.3289 137.191 2.32951 137.811 2.33012C139.67 2.33195 141.529 2.33378 143.389 2.31914ZM16.3374 11.8946C17.4392 12.6475 18.5597 13.3735 19.6801 14.0995C22.1328 15.6887 24.5854 17.2779 26.8414 19.1486C27.0293 19.3048 27.2025 19.2999 27.4026 19.2389C29.0154 18.7509 30.372 17.8701 31.4798 16.6013C31.6872 16.3622 31.7189 16.1475 31.4627 15.923C31.0859 15.594 30.7096 15.2641 30.3334 14.9342L30.333 14.934L30.3319 14.9329C29.8241 14.4878 29.3165 14.0428 28.808 13.6002C28.5714 13.3928 28.3322 13.4123 28.1053 13.6295L28.0725 13.6608C27.9224 13.8043 27.7713 13.9486 27.6076 14.076C25.8874 15.4179 23.5353 15.3887 22.0811 14.0125C20.6293 12.6413 20.3877 10.2745 21.5247 8.61534C22.957 6.52918 26.0289 6.3169 27.9711 8.21031C28.3981 8.6251 28.6372 8.55922 29.0154 8.21031C29.7596 7.52224 30.5258 6.85369 31.3114 6.21198C31.7287 5.87039 31.7238 5.60199 31.3675 5.22136C29.5961 3.33283 27.4221 2.36904 24.6577 2.31293C24.5936 2.31884 24.5212 2.32524 24.4421 2.33221L24.442 2.33222C24.1627 2.35687 23.8014 2.38875 23.4401 2.43248C19.0653 2.95219 15.8982 6.42182 15.7786 10.7942C15.764 11.2871 15.9128 11.6019 16.3374 11.8922V11.8946ZM166.622 2.31933C165.302 2.33885 163.98 2.34373 162.658 2.31933C162.257 2.31201 162.157 2.42181 162.16 2.81709C162.173 4.87817 162.172 6.93781 162.17 8.99823V8.99844C162.17 9.61616 162.17 10.234 162.17 10.8519C162.17 11.5215 162.17 12.1909 162.171 12.8602C162.173 14.8691 162.174 16.8772 162.16 18.8867C162.157 19.2844 162.26 19.3917 162.658 19.3844C163.978 19.3576 165.3 19.3625 166.622 19.3844C166.969 19.3893 167.057 19.2917 167.057 18.9477C167.047 13.5505 167.047 8.15328 167.057 2.75609C167.057 2.41205 166.967 2.31689 166.62 2.32177L166.622 2.31933ZM19.8838 23.3945C22.4984 24.7895 25.1129 26.1844 27.5257 27.9167L27.5281 27.9191C29.7314 29.5002 31.7907 31.235 33.2328 33.5823C33.2561 33.6201 33.2796 33.6579 33.3032 33.6958C33.5215 34.0463 33.7472 34.4087 33.9013 34.9657C32.6496 33.5994 31.4125 32.4721 30.0486 31.4839C27.6721 29.7638 25.0443 28.5072 22.3945 27.2848C17.0192 24.8033 11.8953 21.9095 7.4375 17.9665C5.56118 16.3074 3.87516 14.4701 2.82598 12.1472C2.70154 11.8715 2.59907 11.5861 2.49659 11.3006C2.47579 11.2462 2.46758 11.1866 2.45477 11.0935C2.44804 11.0446 2.44003 10.9865 2.42827 10.9151C3.76049 12.2668 5.04878 13.499 6.41516 14.6458C10.1556 17.7884 14.2645 20.3748 18.5588 22.6854C18.9998 22.9229 19.4418 23.1587 19.8838 23.3945Z" fill="#0C1724"/>
</g>
<defs>
<clipPath id="clip0_1838_771">
<rect width="200" height="35" fill="white"/>
</clipPath>
</defs>
</svg>
