<?xml version="1.0" encoding="UTF-8"?>
<svg xmlns="http://www.w3.org/2000/svg" width="392" height="70" viewBox="0 0 392 70" fill="none">
  <g clip-path="url(#clip0_203_1887)">
    <path d="M49 0.906738C52.1759 0.906738 54.8074 3.53627 54.8074 6.70985C54.8074 9.88342 52.1759 12.513 49 12.513C45.824 12.513 43.1926 9.88342 43.1926 6.70985C43.1926 3.53627 45.7333 0.906738 49 0.906738Z" fill="white"></path>
    <path d="M139.196 2.81079C139.196 1.81338 140.013 0.997314 140.92 0.997314H163.969C182.752 0.997314 198.087 16.2305 198.087 34.9092C198.087 53.7693 182.752 69.0025 163.969 69.0025H140.92C139.922 69.0025 139.196 68.0957 139.196 67.189V2.81079ZM162.88 57.2149C175.493 57.2149 184.748 47.6942 184.748 34.9092C184.748 22.3056 175.493 12.7849 162.88 12.7849H151.809V57.2149H162.88Z" fill="white"></path>
    <path d="M257.341 3.53617C256.796 2.26674 257.522 0.997314 258.974 0.997314H268.865C269.772 0.997314 270.317 1.54136 270.498 2.0854L289.191 43.8859H289.917L308.609 2.0854C308.791 1.63203 309.426 0.997314 310.243 0.997314H320.133C321.585 0.997314 322.402 2.26674 321.767 3.53617L291.641 68.9118C291.369 69.4559 290.824 69.9999 290.007 69.9999H289.009C288.102 69.9999 287.648 69.5465 287.376 68.9118L257.341 3.53617Z" fill="white"></path>
    <path d="M356.974 0C376.393 0 392 15.6865 392 35.0907C392 54.4948 376.393 70 356.974 70C337.556 70 322.039 54.5855 322.039 35.0907C322.039 15.6865 337.556 0 356.974 0ZM356.974 57.3964C369.224 57.3964 379.387 47.4223 379.387 35.0907C379.387 22.7591 369.224 12.6036 356.974 12.6036C344.724 12.6036 334.652 22.8497 334.652 35.0907C334.652 47.3316 344.724 57.3964 356.974 57.3964Z" fill="white"></path>
    <path d="M248.357 57.3964H221.68C220.5 57.3964 219.502 56.3989 219.502 55.2202V42.5259C219.502 41.3471 220.5 40.3497 221.68 40.3497H243.548C244.546 40.3497 245.363 39.5337 245.363 38.5363V30.4663C245.363 29.4689 244.456 28.6528 243.548 28.6528H208.976C207.796 28.6528 206.798 29.6502 206.798 30.829V67.3705C206.798 68.3679 207.615 69.1839 208.613 69.1839H248.176C249.265 69.1839 249.991 68.2772 249.991 67.3705V59.3912C250.263 58.2124 249.446 57.3964 248.357 57.3964Z" fill="white"></path>
    <path d="M248.357 0.997314H208.794C207.706 0.997314 206.98 1.90405 206.98 2.81079V10.7901C206.98 11.7875 207.796 12.6035 208.794 12.6035H248.357C249.446 12.6035 250.172 11.6968 250.172 10.7901V2.81079C250.263 1.81338 249.446 0.997314 248.357 0.997314Z" fill="white"></path>
    <path d="M68.237 0.906738H97.5463C100.722 0.906738 103.354 3.53627 103.354 6.70985C103.354 9.88342 100.722 12.513 97.5463 12.513H68.237C65.0611 12.513 62.4296 9.88342 62.4296 6.70985C62.4296 3.53627 65.0611 0.906738 68.237 0.906738Z" fill="#D6E80F"></path>
    <path d="M39.2 50.3237H112.791C115.967 50.3237 118.598 47.6942 118.598 44.5206C118.598 41.3471 115.967 38.7175 112.791 38.7175H39.2C36.0241 38.7175 33.3926 41.3471 33.3926 44.5206C33.3926 47.6942 35.9333 50.3237 39.2 50.3237Z" fill="#D6E80F"></path>
    <path d="M97.1833 31.4636H112.791C115.967 31.4636 118.598 28.8341 118.598 25.6605C118.598 22.487 115.967 19.8574 112.791 19.8574H97.1833C94.0074 19.8574 91.3759 22.487 91.3759 25.6605C91.2852 28.8341 93.9166 31.4636 97.1833 31.4636Z" fill="#D6E80F"></path>
    <path d="M97.1833 69.1839C100.359 69.1839 102.991 66.5543 102.991 63.3807C102.991 60.2072 100.359 57.5776 97.1833 57.5776C94.0074 57.5776 91.3759 60.2072 91.3759 63.3807C91.2852 66.5543 93.9166 69.1839 97.1833 69.1839Z" fill="#D6E80F"></path>
    <path d="M5.80741 31.4636H78.3092C81.4852 31.4636 84.1166 28.8341 84.1166 25.6605C84.1166 22.487 81.4852 19.8574 78.3092 19.8574H5.80741C2.63148 19.8574 0 22.487 0 25.6605C0 28.8341 2.63148 31.4636 5.80741 31.4636Z" fill="white"></path>
    <path d="M62.0667 69.1839H78.4C81.5759 69.1839 84.2074 66.5543 84.2074 63.3807C84.2074 60.2072 81.5759 57.5776 78.4 57.5776H62.0667C58.8907 57.5776 56.2593 60.2072 56.2593 63.3807C56.1685 66.5543 58.8 69.1839 62.0667 69.1839Z" fill="white"></path>
    <path d="M21.7778 38.7175C24.9537 38.7175 27.5852 41.3471 27.5852 44.5206C27.5852 47.6942 24.9537 50.3237 21.7778 50.3237C18.6018 50.3237 15.9704 47.6942 15.9704 44.5206C15.9704 41.2564 18.5111 38.7175 21.7778 38.7175Z" fill="white"></path>
  </g>
  <defs>
    <clipPath id="clip0_203_1887">
      <rect width="392" height="70" fill="white"></rect>
    </clipPath>
  </defs>
</svg>
