<svg width="200" height="35" viewBox="0 0 200 35" fill="none" xmlns="http://www.w3.org/2000/svg">
<g clip-path="url(#clip0_1838_786)">
<path fill-rule="evenodd" clip-rule="evenodd" d="M34.3439 12.048C34.6032 12.9272 34.3284 13.6466 33.5128 14.0588H33.5145C32.4688 14.5876 31.7819 15.4702 31.6171 16.5589C31.3853 18.0819 31.8781 19.4196 33.4235 20.3022C34.3267 20.8173 34.6306 21.487 34.3147 22.476C33.9798 23.5234 33.5677 24.5383 33.0578 25.5153C32.534 26.5146 31.9228 26.7911 30.8478 26.4855C28.9504 25.948 26.9981 27.0332 26.4727 28.9169C26.2941 29.5522 26.3078 30.1841 26.4864 30.8194C26.7972 31.9184 26.5173 32.5331 25.4922 33.0585C24.5375 33.5479 23.5622 33.9789 22.5302 34.2811C21.4501 34.5988 20.8783 34.391 20.3117 33.4157C19.6042 32.1983 18.5448 31.5544 17.1436 31.5818C15.8386 31.6076 14.8152 32.2103 14.1576 33.3573C13.572 34.3807 13.0277 34.6005 11.8893 34.2725C10.8264 33.9669 9.83046 33.5101 8.85171 33.0105C7.96225 32.5554 7.66862 31.8858 7.93134 30.9207C8.3589 29.3582 7.88841 27.9124 6.62462 27.0092C5.71284 26.3567 4.70146 26.1695 3.61281 26.4803C2.52589 26.7894 1.90601 26.5215 1.39088 25.5307C0.863726 24.5159 0.437884 23.4582 0.0978967 22.3678C-0.171689 21.5041 0.121936 20.7881 0.923825 20.3485C2.15499 19.6737 2.84698 18.6417 2.84355 17.2337C2.84012 15.8016 2.17903 14.7233 0.898068 14.045C0.152844 13.6518 -0.156235 12.9512 0.0755743 12.1373C0.420713 10.9267 0.911805 9.77285 1.52138 8.67047C1.9352 7.92009 2.63235 7.69 3.5407 7.93211C4.7856 8.26523 5.93606 8.04716 6.90107 7.18002C8.00346 6.18925 8.32112 4.9392 7.93992 3.51743C7.82659 3.09159 7.77165 2.68292 7.95538 2.26394C8.1185 1.89133 8.3898 1.63548 8.74524 1.45347C9.77551 0.924601 10.8367 0.476436 11.9442 0.133014C12.9659 -0.182933 13.6047 0.0591787 14.1249 0.993285C14.9406 2.46141 16.5546 3.16543 18.1292 2.731C19.0994 2.46313 19.836 1.88961 20.3237 1.00702C20.856 0.0454419 21.4707 -0.189802 22.5302 0.1416C23.5673 0.466133 24.5667 0.879956 25.5351 1.37105C26.5087 1.86558 26.7903 2.49919 26.5018 3.55177C25.9386 5.60543 27.1269 7.57324 29.1994 8.00423C29.3565 8.03635 29.5183 8.04854 29.6805 8.06077C29.7611 8.06686 29.8419 8.07295 29.9223 8.0815C30.2709 8.08494 30.604 8.02655 30.9371 7.92868C31.8712 7.65394 32.5649 7.95444 33.0097 8.80956C33.5506 9.85012 34.0108 10.9216 34.3439 12.048ZM11.0616 17.0156C10.9414 20.6095 13.8176 23.35 17.0869 23.3672C20.5177 23.4702 23.2599 20.807 23.4059 17.4397C23.5484 14.1429 20.844 11.2118 17.6536 11.0366C14.1284 10.8426 11.1784 13.523 11.0616 17.0156ZM51.5885 7.8267C53.1448 7.81652 54.701 7.80633 56.2559 7.85519H56.2576C60.0851 7.97711 63.1707 9.5328 64.8569 13.0855C67.3141 18.2591 64.7968 24.7464 58.4418 26.1595C57.6141 26.345 56.7762 26.424 55.9297 26.424C55.4602 26.4236 54.9907 26.423 54.5213 26.4224H54.5212H54.5211H54.521H54.5209H54.5208H54.5207H54.5207H54.5206H54.5205H54.5204H54.5203H54.5202C52.6428 26.4199 50.7656 26.4175 48.8895 26.4326C48.5375 26.4343 48.4809 26.3244 48.4809 26.005C48.4901 23.7285 48.4892 21.451 48.4883 19.174V19.1716V19.1714V19.1713V19.1711V19.171C48.488 18.4881 48.4877 17.8052 48.4877 17.1224C48.4877 16.44 48.488 15.7576 48.4883 15.075V15.0749V15.0747V15.0746V15.0744V15.0743V15.0741V15.074V15.0738V15.0737V15.0735V15.0734V15.0732V15.0708C48.4892 12.7939 48.4901 10.5163 48.4809 8.23982C48.4791 7.92903 48.5427 7.83115 48.8741 7.83287C49.7784 7.83855 50.683 7.83263 51.5875 7.8267H51.5876H51.5877H51.5877H51.5878H51.5879H51.588H51.5881H51.5881H51.5882H51.5883H51.5884H51.5885ZM56.8741 22.7236C58.4847 22.5176 59.8017 21.7929 60.6517 20.3609H60.6551C61.4982 18.9391 61.6133 17.3903 61.3506 15.8037C60.9608 13.4512 59.2505 11.844 56.8895 11.5607C56.1143 11.4683 55.3372 11.4795 54.56 11.4906C54.0514 11.4979 53.5427 11.5052 53.0346 11.4834C52.7049 11.468 52.6328 11.5693 52.6363 11.8852C52.6476 13.1802 52.646 14.4742 52.6443 15.7686V15.7688V15.7689V15.7691V15.7693V15.7694V15.7696V15.7698V15.7699V15.7701V15.7703V15.7704V15.7706C52.6437 16.2332 52.6431 16.6958 52.6431 17.1585C52.6431 17.7446 52.6429 18.3306 52.6427 18.9165V18.9254V18.9256V18.9258V18.926V18.9262V18.9264V18.9266V18.9268V18.927V18.9271V18.9273V18.9275C52.6424 20.0955 52.642 21.2632 52.6431 22.4317C52.6431 22.4576 52.6415 22.4844 52.64 22.5113V22.5113V22.5113V22.5114V22.5114V22.5115V22.5115V22.5115V22.5116C52.6311 22.6624 52.6223 22.8136 52.8904 22.8078C53.3414 22.7972 53.7933 22.8036 54.2451 22.81H54.2452H54.2453H54.2453H54.2454H54.2454H54.2455H54.2455H54.2456H54.2457H54.2457H54.2458H54.2458C55.1235 22.8223 56.0014 22.8347 56.8741 22.7236ZM102.715 18.2309C102.699 16.9019 102.277 15.7016 101.289 14.7572C99.2942 12.8478 95.8102 12.8976 93.7703 14.8723C93.5591 15.0766 93.4818 15.0509 93.2981 14.85C92.4241 13.8935 91.3114 13.4248 90.0304 13.3784C88.6928 13.3286 87.4634 13.672 86.3507 14.5941C86.3507 14.5068 86.3482 14.4304 86.346 14.3614V14.3613V14.3612V14.3611V14.361V14.3609C86.3417 14.2308 86.3384 14.1273 86.3541 14.0275C86.409 13.6858 86.2528 13.6325 85.9489 13.6377C84.8619 13.6548 83.775 13.6548 82.6881 13.6377C82.403 13.6342 82.2949 13.6858 82.2966 14.0034C82.3086 18.0352 82.3086 22.0687 82.2966 26.1004C82.2966 26.4078 82.4099 26.4404 82.6658 26.4387C83.7664 26.4267 84.8688 26.4181 85.9695 26.4439C86.3077 26.4507 86.3593 26.3426 86.3575 26.0369C86.3455 23.6639 86.3455 21.2891 86.3541 18.9161C86.3575 18.006 86.8538 17.3346 87.6746 17.0702C88.6121 16.7662 89.596 17.0255 90.1266 17.7089C90.4734 18.1554 90.5129 18.6791 90.5129 19.2131C90.5129 19.7816 90.5134 20.3502 90.5138 20.9187C90.5151 22.6236 90.5164 24.3285 90.5061 26.0335C90.5061 26.3426 90.5645 26.4524 90.901 26.4439C91.9725 26.4198 93.0474 26.4147 94.1189 26.4439C94.5052 26.4542 94.5876 26.3425 94.5842 25.9717C94.5687 23.5694 94.567 21.1672 94.5893 18.765C94.5979 17.7776 95.3054 17.0805 96.3168 16.9706C97.4363 16.8487 98.3515 17.3861 98.5885 18.3408C98.664 18.6413 98.6726 18.9641 98.6726 19.2767C98.6778 20.9702 98.6771 22.6627 98.6765 24.3558V24.3559V24.3561V24.3562V24.3564V24.3566V24.3567V24.3569V24.357V24.3572V24.3574V24.3575C98.6763 24.923 98.6761 25.4885 98.6761 26.0541C98.6761 26.079 98.6751 26.1039 98.6742 26.1285C98.668 26.2955 98.6624 26.4449 98.9542 26.4404C100.127 26.4233 101.3 26.4301 102.473 26.437C102.68 26.437 102.739 26.3683 102.739 26.1657C102.736 25.2637 102.736 24.3619 102.736 23.4602C102.736 21.7166 102.736 19.9733 102.715 18.2292V18.2309ZM114.062 13.6116C115.163 13.6322 116.264 13.627 117.364 13.6133C117.624 13.6099 117.699 13.6717 117.699 13.9413C117.69 17.9868 117.69 22.0323 117.699 26.0778C117.699 26.3371 117.636 26.4178 117.366 26.4143C116.265 26.3989 115.165 26.4006 114.064 26.4143C113.806 26.4178 113.695 26.3611 113.724 26.0864C113.74 25.9445 113.737 25.8002 113.733 25.6354C113.731 25.5569 113.729 25.4738 113.729 25.3841C110.662 28.0061 105.188 26.5517 104.22 21.5429C103.749 19.1149 104.22 16.8792 106.007 15.0437C107.664 13.3454 110.391 12.8595 112.544 13.8606C112.96 14.0529 113.322 14.3208 113.729 14.6882C113.729 14.5907 113.731 14.5027 113.732 14.4212V14.4211V14.421V14.421V14.4209V14.4208V14.4208V14.4207C113.735 14.2556 113.737 14.1169 113.726 13.979C113.703 13.7215 113.757 13.6064 114.062 13.6116ZM108.167 19.9683C108.142 21.7095 109.352 22.9733 111.073 23.0024L111.074 23.0007C112.699 23.0299 113.866 21.8022 113.889 20.0439C113.911 18.277 112.776 17.0321 111.109 16.9994C109.462 16.9668 108.191 18.2478 108.167 19.9683ZM73.9047 13.3441C73.3449 13.3596 72.7182 13.387 72.1034 13.5433C69.6806 14.158 67.9446 15.5849 67.2131 17.9975C66.4816 20.4117 66.9384 22.6526 68.695 24.519C70.6284 26.5744 73.0616 27.0724 75.7334 26.4954C80.4554 25.4755 82.5194 19.7094 79.523 15.9335C78.1167 14.1632 76.2107 13.3767 73.9047 13.3441ZM73.9098 23.0183C72.1687 23.0166 71.0079 21.806 71.0113 19.9996C71.0148 18.2619 72.2477 17.0084 73.9321 17.0273C75.5874 17.0462 76.7602 18.2636 76.7757 19.9807C76.7928 21.8112 75.6527 23.0217 73.9098 23.0183ZM169.658 13.5509C170.267 13.3912 170.896 13.3379 171.332 13.3534L171.334 13.3517C174.701 13.3723 177.362 15.1667 178.195 17.9673C179.507 22.3871 176.514 26.0274 172.809 26.5957C170.518 26.9477 168.414 26.5116 166.673 24.9061C164.683 23.0739 164.056 20.773 164.745 18.1956C165.416 15.6887 167.175 14.2034 169.658 13.5509ZM168.605 19.8973C168.579 21.7689 169.709 23.0035 171.471 23.0276H171.469C173.179 23.0499 174.33 21.8668 174.356 20.0621C174.381 18.3004 173.222 17.0572 171.526 17.0263C169.889 16.9971 168.629 18.2368 168.605 19.8973ZM161.092 15.1956C159.447 13.7515 157.475 13.3394 155.334 13.5506C151.914 13.8906 149.345 16.6997 149.345 20.1219C149.345 21.305 149.59 22.3404 150.087 23.2522C151.678 26.173 155.089 27.5604 158.439 26.5697C160.894 25.8433 162.561 24.2275 163.147 21.7068C163.736 19.1724 163.073 16.9367 161.088 15.1956H161.092ZM156.33 23.1715C154.596 23.1664 153.425 21.9386 153.44 20.1408C153.456 18.4186 154.654 17.1823 156.323 17.1685C157.989 17.1548 159.211 18.4357 159.199 20.182C159.187 21.9987 158.056 23.1767 156.33 23.1715ZM153.051 8.27714C153.029 9.21983 153.031 10.1642 153.051 11.1069L153.05 11.1121C153.056 11.4246 152.986 11.5225 152.655 11.519C151.825 11.5096 150.996 11.51 150.167 11.5105H150.166C149.337 11.5109 148.508 11.5113 147.678 11.5019C147.326 11.4984 147.229 11.5877 147.229 11.9466C147.234 14.0425 147.235 16.1384 147.236 18.2343C147.237 20.8141 147.238 23.3939 147.247 25.9736C147.249 26.3943 147.141 26.4956 146.731 26.4836C145.673 26.451 144.613 26.4476 143.556 26.4836C143.118 26.4991 143.054 26.348 143.054 25.9548C143.061 23.7112 143.062 21.468 143.063 19.225C143.064 16.821 143.065 14.4173 143.073 12.0136C143.075 11.6015 142.979 11.4898 142.56 11.4967C141.62 11.5126 140.679 11.5113 139.738 11.51H139.738C139.049 11.509 138.359 11.5081 137.669 11.5139C137.359 11.5156 137.225 11.4692 137.237 11.1069C137.264 10.1642 137.261 9.21983 137.237 8.27714C137.228 7.95604 137.312 7.87705 137.633 7.87877C139.548 7.89059 141.461 7.88935 143.375 7.88812H143.375C143.964 7.88774 144.553 7.88736 145.142 7.88736C145.679 7.88736 146.215 7.88759 146.752 7.88783C148.719 7.8887 150.686 7.88956 152.651 7.87877C152.969 7.87705 153.06 7.95261 153.051 8.27714ZM135.925 13.6066C134.113 13.1 132.455 13.4658 130.896 14.6437C130.896 14.5711 130.893 14.5051 130.891 14.4437V14.4435V14.4432C130.888 14.3218 130.884 14.2185 130.899 14.1183C130.952 13.7628 130.823 13.6598 130.461 13.6684C129.374 13.6941 128.287 13.6855 127.2 13.6718C126.929 13.6684 126.835 13.7302 126.836 14.0221C126.847 18.0556 126.847 22.0891 126.836 26.1226C126.836 26.4162 126.931 26.4763 127.202 26.4728C128.289 26.4591 129.378 26.4505 130.463 26.4763C130.827 26.4849 130.908 26.3767 130.906 26.0247C130.89 23.722 130.892 21.4194 130.902 19.1168C130.906 18.1466 131.424 17.4082 132.278 17.0923C133.164 16.7643 134.227 17.0288 134.823 17.7345C135.214 18.1981 135.309 18.7493 135.307 19.3383C135.304 20.403 135.304 21.4677 135.304 22.5323C135.304 23.7133 135.305 24.8941 135.3 26.0745C135.3 26.3509 135.339 26.4814 135.664 26.4746C136.794 26.4557 137.924 26.4608 139.055 26.4711C139.292 26.4728 139.378 26.4093 139.376 26.1586C139.373 25.2357 139.376 24.3127 139.379 23.3899C139.384 21.6806 139.389 19.9716 139.358 18.2634C139.316 15.971 137.968 14.1784 135.927 13.6083L135.925 13.6066ZM191.131 16.5541C190.941 16.5678 190.769 16.6382 190.606 16.7241L190.608 16.7224C190.101 16.9851 190.07 17.5432 190.561 17.8419C191.039 18.1325 191.578 18.2785 192.114 18.4237L192.16 18.4361C193.097 18.6902 194.018 18.9752 194.852 19.5024C197.1 20.9241 197.045 24.9095 194.143 26.1819C192.457 26.922 190.729 26.8997 188.981 26.4584C187.695 26.1338 186.581 25.4951 185.599 24.6073C185.394 24.4236 185.37 24.3137 185.585 24.1094C186.217 23.5084 186.832 22.8902 187.436 22.26C187.622 22.066 187.718 22.0901 187.907 22.26C188.985 23.2302 190.238 23.6715 191.693 23.4208C192.071 23.3556 192.424 23.2251 192.486 22.7666C192.541 22.3545 192.361 22.0695 191.835 21.8892C191.391 21.737 190.94 21.6014 190.489 21.4657L190.488 21.4657C190.079 21.3426 189.67 21.2194 189.265 21.0838C188.377 20.7851 187.532 20.4004 186.945 19.6226C185.592 17.8333 186.251 15.0637 188.288 13.9836C189.256 13.4702 190.295 13.2607 191.772 13.2779C193.075 13.3259 194.681 13.6299 196.011 14.7803C196.512 15.2119 196.531 15.6629 196.07 16.1334C195.925 16.2803 195.78 16.4265 195.635 16.5728L195.634 16.5736L195.634 16.5739C195.296 16.9147 194.958 17.2556 194.629 17.605C194.462 17.7818 194.368 17.8265 194.174 17.6221C193.348 16.7481 192.299 16.4768 191.131 16.5541ZM184.027 7.62929C184.027 7.36657 183.953 7.28759 183.691 7.29102C182.59 7.30476 181.489 7.31334 180.389 7.28759C180.019 7.279 179.947 7.40091 179.949 7.74434C179.959 9.88484 179.958 12.0245 179.958 14.1645C179.957 15.0545 179.957 15.9445 179.958 16.8347C179.958 17.54 179.958 18.2453 179.958 18.9507V18.9509V18.951C179.959 21.3043 179.96 23.6581 179.951 26.0109C179.951 26.3286 180.03 26.423 180.354 26.4162C181.455 26.3938 182.556 26.4007 183.656 26.4127C183.922 26.4162 184.029 26.3646 184.029 26.0659C184.02 19.9203 184.02 13.7731 184.029 7.62757L184.027 7.62929ZM123.976 13.6236C124.235 13.6202 124.309 13.682 124.309 13.9516H124.314C124.304 17.9953 124.304 22.0391 124.314 26.0829C124.314 26.3783 124.217 26.4281 123.952 26.4246C122.852 26.4109 121.751 26.4057 120.65 26.4263C120.333 26.4332 120.247 26.3594 120.25 26.0331C120.263 24.5215 120.261 22.9935 120.26 21.4853V21.4848V21.4819V21.4753V21.4688C120.259 20.9729 120.259 20.4792 120.259 19.9889C120.259 19.5302 120.259 19.0715 120.259 18.613V18.6128V18.6127C120.26 17.0853 120.261 15.5584 120.252 14.0305C120.25 13.7369 120.284 13.6116 120.633 13.6202C121.746 13.6476 122.862 13.639 123.976 13.6236ZM122.295 7.44178C121.059 7.44178 120.092 8.40164 120.094 9.62938C120.097 10.9018 121.045 11.8771 122.285 11.8771C123.521 11.8771 124.459 10.9155 124.447 9.66028C124.433 8.36215 123.543 7.44178 122.295 7.44178ZM197.966 14.3394C197.95 13.7779 198.427 13.2919 198.991 13.2971H198.992C199.538 13.3023 200 13.7693 200 14.3136C199.999 14.8631 199.542 15.3284 198.996 15.337C198.453 15.3456 197.981 14.8871 197.966 14.3394Z" fill="#212121"/>
</g>
<defs>
<clipPath id="clip0_1838_786">
<rect width="200" height="35" fill="white"/>
</clipPath>
</defs>
</svg>
