<svg width="50" height="50" viewBox="0 0 50 50" fill="none" xmlns="http://www.w3.org/2000/svg">
<g clip-path="url(#clip0_1838_974)">
<path d="M2.67795e-06 24.9668C0.00633379 11.1665 11.2694 -0.015811 25.1488 1.67816e-05C38.9427 0.0158446 50.1583 11.2441 50.1519 25.0332C50.1456 38.8351 38.8889 50.0095 25.0032 50C11.214 49.9905 -0.00632844 38.7559 2.67795e-06 24.9668ZM39.4349 28.2732C39.465 27.3267 38.9617 26.6319 38.3887 25.956C34.818 21.7332 31.252 17.5055 27.6891 13.2748C26.1412 11.4356 24.1405 11.4467 22.5926 13.2859C19.0361 17.5166 15.4717 21.7395 11.9009 25.9592C10.2849 27.868 10.5302 29.6977 12.6274 31.0763C16.1902 33.4188 19.7689 35.7376 23.3191 38.0991C24.5457 38.9142 25.7344 38.9237 26.9326 38.1402C30.6774 35.6901 34.4144 33.2257 38.145 30.7566C39.0234 30.1741 39.4144 29.3115 39.4334 28.2732H39.4349Z" fill="#0178D3"/>
<path d="M39.4336 28.2707C39.4147 29.3106 39.0253 30.1732 38.1453 30.7541C34.4131 33.2232 30.6777 35.6876 26.9329 38.1378C25.7347 38.9212 24.546 38.9117 23.3194 38.0966C19.7692 35.7351 16.1905 33.4163 12.6277 31.0738C10.5289 29.6936 10.2852 27.8655 11.9012 25.9567C15.472 21.7386 19.0364 17.5141 22.5929 13.2834C24.1393 11.4442 26.1399 11.4331 27.6894 13.2723C31.2523 17.5031 34.8167 21.7307 38.389 25.9535C38.962 26.631 39.4653 27.3242 39.4352 28.2707H39.4336ZM20.9943 34.7918C22.232 35.6053 23.3257 36.3745 24.4716 37.0551C24.9971 37.3669 25.5843 37.2435 26.1146 36.8953C29.7834 34.48 33.4602 32.0773 37.1275 29.6588C38.0962 29.0194 38.2307 28.0713 37.4805 27.1754C35.3184 24.5939 33.1532 22.014 30.9642 19.4531C29.8895 18.1947 28.2197 18.0048 26.8031 18.8896C26.2823 19.2156 26.1304 19.4736 26.6084 20.0292C28.4982 22.2213 30.32 24.4705 32.2035 26.6674C32.6815 27.2245 32.7464 27.4967 32.0373 27.9304C30.0873 29.1254 28.2038 30.428 26.276 31.661C24.5998 32.7341 23.044 34.0099 20.9911 34.7918H20.9943ZM28.7562 16.8431C27.8461 15.7541 27.0943 14.8044 26.2887 13.9054C25.6476 13.19 24.5603 13.2454 23.924 14.0004C20.225 18.3847 16.5324 22.7737 12.8477 27.1691C12.1006 28.0602 12.194 28.9988 13.1073 29.6177C14.7217 30.7082 16.3393 31.7956 18.0044 32.8054C19.2722 33.5746 20.6097 33.5493 21.8996 32.7721C22.3048 32.5284 22.6752 32.2213 23.0915 31.9997C23.6818 31.6848 23.7578 31.4695 23.1215 31.0691C21.4074 29.9896 19.7391 28.8389 18.0345 27.7421C17.585 27.4524 17.5565 27.2482 17.911 26.8367C19.9702 24.442 22.031 22.0472 24.0332 19.605C25.2393 18.133 26.5577 16.9174 28.7578 16.8415L28.7562 16.8431ZM30.5068 26.9475C30.453 26.8763 30.396 26.7876 30.3279 26.7085C28.6992 24.7728 27.0658 22.8418 25.4466 20.9013C25.195 20.599 25.0541 20.6892 24.842 20.9424C23.2545 22.8418 21.6654 24.7395 20.0525 26.6151C19.7233 26.9982 19.8388 27.1596 20.195 27.3891C21.7208 28.3736 23.2355 29.3739 24.7502 30.3758C25.0114 30.5483 25.2298 30.618 25.5321 30.4138C27.0611 29.3834 28.6059 28.3783 30.1443 27.3622C30.2947 27.2625 30.4688 27.1786 30.5052 26.9491L30.5068 26.9475Z" fill="#F2F7FC"/>
<path d="M20.998 34.7927C23.0493 34.0124 24.6052 32.7351 26.2829 31.6619C28.2092 30.429 30.0943 29.1263 32.0443 27.9313C32.7533 27.4976 32.6884 27.2254 32.2105 26.6683C30.3269 24.4714 28.5052 22.2222 26.6153 20.0301C26.1373 19.4761 26.2877 19.2166 26.81 18.8905C28.2266 18.0057 29.8964 18.1957 30.9711 19.454C33.1585 22.0149 35.3254 24.5932 37.4874 27.1763C38.2377 28.0722 38.1047 29.0203 37.1345 29.6597C33.4672 32.0782 29.7904 34.4809 26.1215 36.8962C25.5913 37.2444 25.0041 37.3694 24.4786 37.056C23.3326 36.3739 22.2389 35.6062 21.0012 34.7927H20.998Z" fill="#0178D3"/>
<path d="M28.7581 16.8477C26.5581 16.9236 25.2396 18.1376 24.0335 19.6112C22.0313 22.0534 19.9706 24.4482 17.9114 26.8429C17.5584 27.2544 17.5869 27.4586 18.0348 27.7483C19.7395 28.8451 21.4077 29.9958 23.1219 31.0753C23.7581 31.4757 23.6806 31.691 23.0918 32.0059C22.6755 32.2291 22.3052 32.5346 21.9 32.7783C20.6116 33.5555 19.2725 33.5792 18.0047 32.8116C16.3397 31.8018 14.7221 30.7144 13.1076 29.6239C12.1928 29.0066 12.101 28.068 12.8481 27.1753C16.5328 22.7799 20.227 18.3909 23.9243 14.0066C24.5606 13.2516 25.648 13.1962 26.289 13.9116C27.0962 14.8106 27.8465 15.7587 28.7566 16.8492L28.7581 16.8477Z" fill="#0178D3"/>
<path d="M30.5074 26.9494C30.471 27.1804 30.2969 27.2643 30.1466 27.3625C28.6081 28.3786 27.0633 29.3837 25.5344 30.4141C25.232 30.6182 25.0136 30.5486 24.7525 30.3761C23.2377 29.3758 21.723 28.3739 20.1972 27.3894C19.8411 27.1599 19.724 26.9984 20.0548 26.6154C21.6692 24.7398 23.2567 22.842 24.8443 20.9427C25.0564 20.6895 25.1956 20.5992 25.4489 20.9016C27.0696 22.8436 28.7031 24.7746 30.3302 26.7088C30.3967 26.7879 30.4552 26.8765 30.509 26.9478L30.5074 26.9494Z" fill="#0178D3"/>
</g>
<defs>
<clipPath id="clip0_1838_974">
<rect width="50" height="50" fill="white"/>
</clipPath>
</defs>
</svg>
