<svg width="126" height="34" viewBox="0 0 126 34" fill="none" xmlns="http://www.w3.org/2000/svg">
<g clip-path="url(#clip0_1838_802)">
<path fill-rule="evenodd" clip-rule="evenodd" d="M24.2669 14.551H13.6779C13.405 14.551 13.1847 14.7709 13.1847 15.0432V20.2101C13.1847 20.4824 13.405 20.7058 13.6779 20.7058H17.8092V27.126C17.8092 27.126 16.8822 27.4402 14.3181 27.4402C11.2921 27.4402 7.06633 26.337 7.06633 17.0646C7.06633 7.79218 11.467 6.57029 15.5984 6.57029C18.8187 6.57029 20.3899 7.08012 21.386 7.4033C21.4957 7.43892 21.5985 7.47227 21.6957 7.50242C22.0036 7.59668 22.2869 7.28946 22.2869 7.01715L23.4693 2.02485C23.4693 1.89568 23.4273 1.74207 23.2804 1.64083C22.8816 1.35805 20.4539 3.0394e-06 14.3181 3.0394e-06C7.25173 -0.00348808 0 2.99887 0 17.4242C0 31.8495 8.30119 34 15.2976 34C21.0905 34 24.6027 31.5283 24.6027 31.5283C24.7461 31.448 24.7636 31.2455 24.7636 31.1547V15.0432C24.7636 14.7709 24.5433 14.551 24.2704 14.551H24.2669ZM78.8368 1.72736C78.8368 1.45156 78.6199 1.23162 78.347 1.23162H72.3861C72.1133 1.23162 71.8929 1.45505 71.8929 1.72736V13.2236H62.6017V1.72736C62.6017 1.45156 62.3813 1.23162 62.1084 1.23162H56.1475C55.8747 1.23162 55.6543 1.45505 55.6543 1.72736V32.8611C55.6543 33.1369 55.8747 33.3604 56.1475 33.3604H62.1084C62.3813 33.3604 62.6017 33.1369 62.6017 32.8611V19.546H71.8929L71.8754 32.8611C71.8754 33.1369 72.0958 33.3604 72.3686 33.3604H78.3435C78.6164 33.3604 78.8333 33.1369 78.8368 32.8611V1.72736ZM31.6726 1.93061C33.796 1.93061 35.5171 3.6622 35.5171 5.80575C35.5171 7.9458 33.796 9.68089 31.6726 9.68089C29.5492 9.68089 27.8281 7.94929 27.8281 5.80575C27.8281 3.6622 29.5492 1.93061 31.6726 1.93061ZM35.0892 26.2811V11.9116C35.0892 11.6393 34.8688 11.4159 34.5959 11.4159H28.6525C28.3796 11.4159 28.1348 11.6952 28.1348 11.971V32.5616C28.1348 33.1656 28.5126 33.3471 29.0023 33.3471H34.358C34.9457 33.3471 35.0892 33.0608 35.0892 32.5511V26.2846V26.2811ZM95.5737 11.4706H101.486C101.758 11.4706 101.982 11.694 101.982 11.9698V32.8676C101.982 33.14 101.758 33.3634 101.489 33.3634L97.6691 33.3808C97.4802 33.3808 97.3018 33.2447 97.2353 33.112C97.1688 32.9794 97.0184 31.8448 97.0184 31.8448C97.0184 31.8448 93.8701 33.9953 89.9696 33.9953C85.2121 33.9953 81.7559 32.4801 81.7559 26.2904V11.9698C81.7559 11.694 81.9797 11.4706 82.2491 11.4706H88.252C88.5248 11.4706 88.7452 11.694 88.7452 11.9698V25.2815C88.7452 27.3656 89.3154 28.3327 91.4458 28.3327C93.5762 28.3327 95.0804 27.2365 95.0804 27.2365V11.9698C95.0804 11.694 95.3008 11.4706 95.5737 11.4706ZM117.662 10.7728C114.3 10.7728 112.016 12.2705 112.016 12.2705V1.72736C112.016 1.45156 111.795 1.23162 111.522 1.23162H105.544C105.271 1.23162 105.051 1.45505 105.051 1.72736V32.8611C105.051 33.1369 105.271 33.3604 105.544 33.3604H109.693C109.878 33.3604 110.022 33.2626 110.127 33.095C110.228 32.9275 110.379 31.6602 110.379 31.6602C110.379 31.6602 112.824 33.9713 117.452 33.9713C122.885 33.9713 126.001 31.2203 126.001 21.6232C126.001 12.0262 121.023 10.7728 117.662 10.7728ZM115.328 28.3122C113.275 28.2494 111.886 27.3207 111.886 27.3207V17.4618C111.886 17.4618 113.258 16.6205 114.944 16.4703C117.074 16.2783 119.127 16.9207 119.127 21.9933C119.127 27.3417 118.2 28.396 115.332 28.3122H115.328ZM47.7549 11.4155H52.2256C52.4984 11.4155 52.7188 11.6354 52.7188 11.9112V16.708C52.7188 16.9803 52.4984 17.2037 52.2256 17.2037H47.7549V25.956C47.7549 27.2756 48.5 28.295 50.6969 28.295C51.1205 28.295 51.5361 28.255 51.8537 28.2245C52.0502 28.2056 52.2093 28.1903 52.3095 28.1903C52.5719 28.1903 52.8028 28.4102 52.7993 28.686V32.8963C52.7993 33.0953 52.6978 33.2768 52.5194 33.3432C52.2256 33.4514 50.452 33.9262 48.9688 33.9262C45.7259 33.9262 40.9159 33.2559 40.9159 26.4133V17.2037H37.7921C37.5192 17.2037 37.2988 16.9838 37.2988 16.708V12.8782C37.2988 12.6513 37.4492 12.4628 37.6556 12.4035C37.862 12.3441 40.9159 11.6075 40.9159 11.6075V5.51548C40.9159 5.28856 41.0419 5.18382 41.2798 5.18382H47.3736C47.6325 5.18382 47.7479 5.29554 47.7479 5.51897L47.7549 11.4155Z" fill="#100E0F"/>
</g>
<defs>
<clipPath id="clip0_1838_802">
<rect width="126" height="34" fill="white"/>
</clipPath>
</defs>
</svg>
