<svg width="157" height="34" viewBox="0 0 157 34" fill="none" xmlns="http://www.w3.org/2000/svg">
<g clip-path="url(#clip0_1838_812)">
<path d="M63.3902 12.8137H68.5456C67.6856 7.32384 62.9398 3.5 56.7638 3.5C49.4562 3.5 43.9727 8.88102 43.9727 17.8932C43.9727 26.7445 49.2095 32.2343 56.9132 32.2343C63.827 32.2343 68.7764 27.7803 68.7764 20.5701V17.211H57.445V21.1708H63.8813C63.7998 25.1601 61.1407 27.6851 56.9403 27.6851C52.2647 27.6851 49.0601 24.1764 49.0601 17.8388C49.0601 11.5421 52.319 8.0469 56.8317 8.0469C60.1992 8.0469 62.5031 9.84888 63.3902 12.8137Z" fill="#171321"/>
<path d="M72.182 31.8612H77.1179V10.8947H72.182V31.8612ZM74.6714 7.56274C76.2398 7.56274 77.5207 6.35915 77.5207 4.88582C77.5207 3.4125 76.2398 2.19531 74.6714 2.19531C73.1031 2.19531 71.8086 3.39664 71.8086 4.88582C71.8086 6.37501 73.0805 7.56274 74.6624 7.56274H74.6714Z" fill="#171321"/>
<path d="M91.9011 10.8724H87.7687V5.83594H82.8328V10.8724H79.8613V14.6963H82.8328V26.3604C82.8056 30.3067 85.6707 32.2537 89.3777 32.1381C90.3652 32.1185 91.3444 31.9527 92.2836 31.6463L91.4507 27.7794C90.979 27.902 90.4942 27.9667 90.0069 27.972C88.7644 27.972 87.7687 27.5346 87.7687 25.5399V14.6849H91.9011V10.8724Z" fill="#171321"/>
<path d="M95.7148 31.822H113.073V27.5743H100.775V3.85156H95.7148V31.822Z" fill="#171321"/>
<path d="M122.529 32.2596C125.815 32.2596 127.777 30.716 128.677 28.9549H128.84V31.8358H133.593V17.7961C133.593 12.2519 129.08 10.5859 125.084 10.5859C120.68 10.5859 117.298 12.5511 116.208 16.375L120.818 17.0323C121.306 15.5975 122.698 14.369 125.118 14.369C127.41 14.369 128.664 15.5431 128.664 17.6057V17.6873C128.664 19.1063 127.177 19.1765 123.481 19.5709C119.419 20.0084 115.533 21.2233 115.533 25.9493C115.52 30.0746 118.532 32.2596 122.529 32.2596ZM124.151 28.633C122.092 28.633 120.618 27.6901 120.618 25.8745C120.618 23.975 122.268 23.184 124.466 22.8689C125.763 22.6921 128.354 22.3634 128.992 21.8466V24.3173C129.006 26.6451 127.123 28.6262 124.151 28.6262V28.633Z" fill="#171321"/>
<path d="M137.227 31.822H142.081V28.5172H142.366C143.145 30.0472 144.767 32.1915 148.368 32.1915C153.304 32.1915 156.999 28.2702 156.999 21.3614C156.999 14.3688 153.195 10.5722 148.354 10.5722C144.659 10.5722 143.117 12.798 142.366 14.3144H142.158V3.85156H137.227V31.822ZM142.067 21.3342C142.067 17.2543 143.812 14.6272 146.99 14.6272C150.276 14.6272 151.968 17.4265 151.968 21.3342C151.968 25.2419 150.251 28.1342 146.99 28.1342C143.839 28.1342 142.067 25.4029 142.067 21.3342Z" fill="#171321"/>
<path d="M34.6639 13.4579L34.6164 13.331L29.8186 0.796412C29.7215 0.550293 29.5487 0.341508 29.3253 0.200283C29.1585 0.0933805 28.9691 0.0270878 28.7722 0.00671688C28.5753 -0.0136541 28.3763 0.0124643 28.1913 0.082978C28.0062 0.153492 27.8403 0.26644 27.7067 0.412769C27.5731 0.559098 27.4756 0.734738 27.422 0.925611L24.1835 10.8558H11.0687L7.83018 0.925611C7.77616 0.735023 7.67843 0.559714 7.54477 0.413665C7.41111 0.267616 7.24522 0.154868 7.06034 0.0844116C6.87546 0.0139554 6.6767 -0.0122595 6.47992 0.00785823C6.28313 0.0279759 6.09376 0.0938687 5.9269 0.200283C5.70345 0.341508 5.53065 0.550293 5.43354 0.796412L0.638001 13.3332L0.588213 13.4579C-0.102205 15.2651 -0.187262 17.2482 0.345864 19.108C0.87899 20.9679 2.0014 22.6037 3.54384 23.7689L3.56195 23.7825L3.60268 23.8142L10.9012 29.2927L14.5222 32.0331L16.722 33.6991C16.9801 33.8944 17.2947 34 17.6182 34C17.9416 34 18.2563 33.8944 18.5144 33.6991L20.7141 32.0331L24.3351 29.2927L31.6857 23.7825L31.706 23.7666C33.2484 22.6019 34.371 20.9666 34.9045 19.1072C35.438 17.2478 35.3536 15.2651 34.6639 13.4579Z" fill="#E24329"/>
<path d="M34.667 13.4551L34.6195 13.3281C32.2819 13.8086 30.0793 14.8009 28.1696 16.234L17.6348 24.2126L24.3426 29.2899L31.6932 23.7796L31.7136 23.7638C33.2552 22.5984 34.3768 20.9629 34.9095 19.1035C35.4422 17.2441 35.3571 15.2617 34.667 13.4551Z" fill="#FC6D26"/>
<path d="M10.9062 29.2882L14.5272 32.0286L16.727 33.6946C16.9851 33.8899 17.2997 33.9955 17.6232 33.9955C17.9466 33.9955 18.2613 33.8899 18.5194 33.6946L20.7191 32.0286L24.3401 29.2882L17.6322 24.2109L10.9062 29.2882Z" fill="#FCA326"/>
<path d="M7.08562 16.2317C5.17659 14.7993 2.97475 13.8078 0.638001 13.3281L0.588213 13.4528C-0.102205 15.26 -0.187262 17.243 0.345864 19.1029C0.87899 20.9628 2.0014 22.5986 3.54384 23.7638L3.56195 23.7774L3.60268 23.8091L10.9012 29.2876L17.6136 24.2103L7.08562 16.2317Z" fill="#FC6D26"/>
</g>
<defs>
<clipPath id="clip0_1838_812">
<rect width="157" height="34" fill="white"/>
</clipPath>
</defs>
</svg>
