<svg width="176" height="36" viewBox="0 0 176 36" fill="none" xmlns="http://www.w3.org/2000/svg">
<g clip-path="url(#clip0_1838_824)">
<path d="M34.9721 1.64527C30.7586 -0.979927 25.2117 -0.354472 20.2645 2.74539C15.3327 -0.354472 9.78232 -0.979927 5.574 1.64527C-1.08302 5.79383 -1.89238 16.478 3.76797 25.5102C7.94021 32.1692 14.4649 36.071 20.2731 35.999C26.0812 36.071 32.6059 32.1692 36.7781 25.5102C42.4316 16.478 41.6291 5.79383 34.9721 1.64527ZM6.82842 23.603C5.66127 21.7579 4.78066 19.7475 4.21647 17.6398C3.71521 15.8102 3.52356 13.91 3.64941 12.0175C3.90201 8.67949 5.26469 6.08 7.48484 4.69715C9.70499 3.31429 12.64 3.23033 15.7657 4.46753C16.2348 4.65431 16.6988 4.87022 17.1593 5.1084C15.4224 6.68776 13.912 8.49834 12.6709 10.489C9.23415 15.9725 8.18594 22.0745 9.38537 26.9393C8.42898 25.9105 7.57281 24.7934 6.82842 23.603ZM36.3313 17.6381C35.7664 19.7455 34.8858 21.7559 33.7194 23.6013C32.9744 24.7934 32.1183 25.9127 31.1624 26.9445C32.2347 22.5834 31.5061 17.2405 28.877 12.23C28.835 12.1475 28.7761 12.0747 28.7041 12.0163C28.6322 11.9579 28.5487 11.9152 28.4591 11.891C28.3696 11.8667 28.2759 11.8615 28.1842 11.8756C28.0925 11.8898 28.0048 11.9229 27.9267 11.973L19.73 17.0794C19.6553 17.126 19.5904 17.1867 19.5393 17.2583C19.4881 17.3298 19.4515 17.4107 19.4318 17.4963C19.412 17.582 19.4093 17.6706 19.4239 17.7573C19.4385 17.844 19.4702 17.9269 19.517 18.0013L20.7198 19.9188C20.7663 19.9933 20.8271 20.0579 20.8987 20.109C20.9703 20.16 21.0512 20.1964 21.137 20.2161C21.2227 20.2359 21.3115 20.2386 21.3983 20.224C21.485 20.2094 21.5681 20.1779 21.6426 20.1313L26.9558 16.8207C27.1277 17.3348 27.2995 17.8488 27.4284 18.3629C27.9296 20.1902 28.1218 22.088 27.9972 23.9783C27.7446 27.3146 26.3819 29.9141 24.1618 31.2987C23.0166 31.9969 21.7045 32.3756 20.3624 32.3954H20.1923C18.8502 32.376 17.5379 31.9973 16.3929 31.2987C14.1711 29.9141 12.8084 27.3146 12.5558 23.9783C12.4307 22.0858 12.6224 20.1858 13.1229 18.3561C14.2745 14.1229 16.6551 10.3235 19.9655 7.43544C21.393 6.18589 23.019 5.18175 24.7769 4.4641C27.8941 3.2269 30.8342 3.30915 33.0561 4.69372C35.278 6.07829 36.6389 8.67607 36.8915 12.0141C37.019 13.9068 36.8297 15.8074 36.3313 17.6381ZM78.6414 13.6506C74.3317 13.6506 70.8485 17.0058 70.8485 21.2743C70.8485 25.5137 74.3317 28.814 78.6414 28.814C82.9803 28.814 86.4635 25.5188 86.4635 21.2743C86.4635 17.0075 82.9855 13.6523 78.6414 13.6523V13.6506ZM78.6414 24.8282C76.6549 24.8282 75.1428 23.226 75.1428 21.2451C75.1428 19.2642 76.6549 17.6381 78.6414 17.6381C80.657 17.6381 82.1692 19.2694 82.1692 21.2503C82.1692 23.2312 80.657 24.8351 78.6414 24.8351V24.8282ZM96.1809 7.79529H88.2506C88.1649 7.79365 88.0798 7.8093 88.0003 7.8413C87.9209 7.87329 87.8487 7.92097 87.7882 7.98147C87.7277 8.04197 87.6801 8.11404 87.6482 8.19336C87.6164 8.27267 87.6009 8.35759 87.6028 8.44302V27.7225C87.5966 27.8107 87.6088 27.8993 87.6387 27.9826C87.6685 28.066 87.7153 28.1422 87.7762 28.2066C87.837 28.271 87.9106 28.3221 87.9923 28.3568C88.0739 28.3914 88.1619 28.4088 88.2506 28.4079H96.1809C102.527 28.4079 106.936 24.1993 106.936 18.0767C106.936 11.9164 102.527 7.79529 96.1809 7.79529ZM96.3682 24.3364H92.0293V11.8565H96.3682C99.8806 11.8565 102.302 14.4765 102.302 18.0682C102.302 21.5998 99.8806 24.3364 96.3682 24.3364ZM122.721 14.0653H119.74C119.575 14.0783 119.421 14.1516 119.306 14.2711C119.192 14.3906 119.126 14.548 119.121 14.713V15.5955C118.443 14.4765 116.908 13.6523 114.997 13.6523C111.279 13.6523 107.795 16.5654 107.795 21.2177C107.795 25.8444 111.248 28.8106 114.968 28.8106C116.886 28.8106 118.451 27.9881 119.13 26.8691V27.7807C119.131 27.9442 119.196 28.1008 119.312 28.2165C119.428 28.3323 119.585 28.398 119.749 28.3993H122.73C122.812 28.4012 122.893 28.3865 122.97 28.356C123.046 28.3256 123.115 28.2801 123.173 28.2223C123.231 28.1645 123.276 28.0955 123.307 28.0196C123.337 27.9437 123.352 27.8625 123.35 27.7807V14.713C123.353 14.629 123.338 14.5453 123.308 14.4669C123.278 14.3886 123.232 14.3171 123.173 14.2567C123.114 14.1963 123.044 14.1482 122.967 14.1154C122.889 14.0825 122.806 14.0655 122.721 14.0653ZM115.786 24.8608C113.812 24.8608 112.329 23.3477 112.329 21.2486C112.329 19.1494 113.812 17.6381 115.786 17.6381C117.76 17.6381 119.243 19.1477 119.243 21.2469C119.243 23.346 117.762 24.8591 115.786 24.8591V24.8608ZM139.457 7.79529H136.475C136.392 7.79278 136.309 7.80687 136.231 7.83672C136.153 7.86658 136.082 7.91161 136.021 7.96919C135.961 8.02677 135.913 8.09575 135.88 8.1721C135.846 8.24845 135.829 8.33064 135.827 8.41389V15.5372C135.14 14.4765 133.583 13.6523 131.636 13.6523C127.945 13.6523 124.522 16.5654 124.522 21.2177C124.522 25.8444 127.974 28.8106 131.695 28.8106C133.612 28.8106 135.059 27.9881 135.857 26.8691V27.7807C135.857 27.9443 135.922 28.1012 136.038 28.217C136.154 28.3329 136.311 28.3984 136.475 28.3993H139.457C139.539 28.4014 139.62 28.3869 139.697 28.3565C139.773 28.3262 139.842 28.2807 139.9 28.2229C139.958 28.165 140.004 28.0959 140.034 28.0199C140.065 27.9439 140.079 27.8625 140.077 27.7807V8.41732C140.08 8.33522 140.065 8.25346 140.035 8.17704C140.005 8.10063 139.959 8.03117 139.901 7.97293C139.843 7.91469 139.774 7.86889 139.697 7.83835C139.621 7.8078 139.539 7.79315 139.457 7.79529ZM132.521 24.8968C130.555 24.8968 129.085 23.3683 129.085 21.2469C129.085 19.1254 130.561 17.5969 132.521 17.5969C134.482 17.5969 135.958 19.1254 135.958 21.2469C135.958 23.3683 134.489 24.8968 132.521 24.8968ZM156.189 7.79529H153.212C153.129 7.79278 153.046 7.80685 152.968 7.83669C152.89 7.86653 152.818 7.91153 152.758 7.96909C152.697 8.02665 152.649 8.09561 152.616 8.17197C152.582 8.24833 152.564 8.33056 152.563 8.41389V15.5372C151.884 14.4765 150.319 13.6523 148.372 13.6523C144.681 13.6523 141.258 16.5654 141.258 21.2177C141.258 25.8444 144.712 28.8106 148.43 28.8106C150.35 28.8106 151.795 27.9881 152.592 26.8691V27.7807C152.593 27.9445 152.659 28.1013 152.775 28.2171C152.891 28.333 153.048 28.3984 153.212 28.3993H156.189C156.271 28.4014 156.352 28.3869 156.428 28.3565C156.504 28.3262 156.574 28.2807 156.631 28.2228C156.689 28.1649 156.735 28.0958 156.765 28.0198C156.795 27.9438 156.81 27.8624 156.807 27.7807V8.41732C156.81 8.33531 156.796 8.25358 156.766 8.17717C156.736 8.10076 156.691 8.03128 156.633 7.97302C156.575 7.91475 156.505 7.86892 156.429 7.83836C156.353 7.80779 156.271 7.79314 156.189 7.79529ZM149.253 24.8968C147.286 24.8968 145.816 23.3683 145.816 21.2469C145.816 19.1254 147.293 17.5969 149.253 17.5969C151.214 17.5969 152.69 19.1254 152.69 21.2469C152.69 23.3683 151.224 24.8968 149.258 24.8968H149.253ZM172.513 15.0677L168.064 30.2825C167.205 32.99 165.289 34.6093 162.308 34.6093C160.952 34.6093 159.718 34.3334 158.751 33.7817C158.187 33.4612 157.72 33.1682 157.72 32.6987C157.72 32.4074 157.814 32.2566 157.986 31.9841L158.869 30.6647C159.118 30.2962 159.302 30.1763 159.57 30.1763C159.783 30.1815 159.988 30.2528 160.158 30.3802C160.713 30.7383 161.229 31.0468 162.014 31.0468C162.932 31.0468 163.633 30.7538 164.011 29.6639L164.392 28.401H162.591C162.407 28.4069 162.226 28.3483 162.081 28.2353C161.935 28.1223 161.834 27.9621 161.794 27.7824L157.812 15.0677C157.665 14.5673 157.8 14.067 158.538 14.067H161.674C162.057 14.067 162.325 14.1972 162.493 14.7438L165.434 24.9824L168.183 14.7438C168.271 14.3908 168.508 14.067 168.98 14.067H171.955C172.541 14.0653 172.718 14.4765 172.513 15.0677ZM69.7247 19.5933V27.7207C69.7261 27.8093 69.7096 27.8973 69.6763 27.9794C69.6429 28.0616 69.5933 28.1362 69.5305 28.1988C69.4677 28.2615 69.3929 28.3109 69.3105 28.3442C69.2282 28.3774 69.1399 28.3938 69.0511 28.3925H66.5904C66.5015 28.3941 66.4131 28.3778 66.3307 28.3446C66.2482 28.3115 66.1733 28.262 66.1104 28.1993C66.0475 28.1366 65.998 28.0619 65.9647 27.9797C65.9314 27.8975 65.9151 27.8094 65.9168 27.7207V25.5873C64.3547 27.5545 61.638 28.7934 58.5655 28.7934C52.7952 28.7934 48.2861 24.4649 48.2861 18.3029C48.2861 11.8993 53.1543 7.48513 59.3044 7.48513C63.8444 7.48513 67.4736 9.43175 69.0855 13.3473C69.1306 13.4507 69.1557 13.5618 69.1593 13.6746C69.1593 13.8596 69.0373 14.0001 68.6438 14.1355L65.7707 15.2391C65.5974 15.3107 65.4032 15.3138 65.2277 15.2476C65.0738 15.157 64.9533 15.0194 64.884 14.8552C63.853 12.9 62.0177 11.572 59.1927 11.572C55.5291 11.572 52.9052 14.4251 52.9052 18.1247C52.9052 21.7112 55.1391 24.6603 59.2975 24.6603C61.485 24.6603 63.2292 23.6321 64.042 22.5029H61.4472C61.3584 22.5043 61.2702 22.4879 61.1878 22.4546C61.1055 22.4213 61.0307 22.3719 60.9678 22.3093C60.905 22.2466 60.8554 22.172 60.8221 22.0899C60.7887 22.0077 60.7722 21.9198 60.7736 21.8312V19.6224C60.7722 19.5338 60.7887 19.4458 60.8221 19.3637C60.8554 19.2816 60.905 19.207 60.9678 19.1443C61.0307 19.0817 61.1055 19.0322 61.1878 18.999C61.2702 18.9657 61.3584 18.9493 61.4472 18.9507H69.0511C69.1383 18.9462 69.2254 18.9596 69.3072 18.9899C69.389 19.0203 69.4638 19.067 69.5268 19.1271C69.5899 19.1873 69.64 19.2597 69.674 19.3398C69.708 19.42 69.7253 19.5062 69.7247 19.5933ZM172.594 11.0562V10.8592C172.594 10.8453 172.599 10.8319 172.608 10.8215C172.618 10.8127 172.631 10.8078 172.644 10.8078H173.9C173.907 10.8075 173.913 10.8086 173.919 10.811C173.926 10.8133 173.931 10.8169 173.936 10.8215C173.945 10.8319 173.95 10.8453 173.95 10.8592V11.0562C173.95 11.0695 173.945 11.0823 173.936 11.0922C173.931 11.0968 173.926 11.1003 173.919 11.1027C173.913 11.105 173.907 11.1061 173.9 11.1059H173.441V12.3414C173.441 12.3549 173.435 12.3677 173.426 12.3773C173.416 12.3868 173.403 12.3924 173.39 12.3928H173.152C173.146 12.3928 173.14 12.3914 173.134 12.3887C173.128 12.3861 173.122 12.3822 173.118 12.3774C173.113 12.3727 173.109 12.3672 173.107 12.361C173.104 12.3548 173.103 12.3481 173.103 12.3414V11.1059H172.644C172.637 11.1064 172.63 11.1055 172.624 11.1032C172.618 11.1009 172.612 11.0972 172.607 11.0925C172.603 11.0878 172.599 11.0821 172.597 11.0758C172.594 11.0696 172.593 11.0629 172.594 11.0562ZM174.79 10.8523L175.134 11.6457L175.477 10.8523C175.483 10.8383 175.492 10.8262 175.505 10.818C175.519 10.8107 175.535 10.8071 175.551 10.8078H175.95C175.957 10.8073 175.963 10.8082 175.969 10.8104C175.975 10.8126 175.981 10.8161 175.986 10.8206C175.99 10.8251 175.994 10.8306 175.997 10.8367C175.999 10.8427 176 10.8492 176 10.8557V12.3431C176 12.3496 175.999 12.3562 175.997 12.3623C175.995 12.3684 175.992 12.374 175.987 12.3787C175.982 12.3834 175.977 12.3871 175.971 12.3895C175.965 12.392 175.958 12.3931 175.952 12.3928H175.728C175.722 12.393 175.715 12.3919 175.709 12.3896C175.703 12.3872 175.697 12.3837 175.692 12.3791C175.687 12.3745 175.684 12.3689 175.681 12.3627C175.679 12.3564 175.678 12.3498 175.679 12.3431V11.2207L175.309 12.0364C175.304 12.0518 175.294 12.0654 175.282 12.0758C175.267 12.0836 175.251 12.0872 175.235 12.0861H175.053C175.037 12.0869 175.022 12.0834 175.008 12.0758C174.995 12.0659 174.986 12.0521 174.981 12.0364L174.613 11.2207V12.3431C174.613 12.3496 174.613 12.3561 174.61 12.3622C174.608 12.3683 174.605 12.3738 174.6 12.3785C174.595 12.3832 174.59 12.3868 174.584 12.3893C174.578 12.3918 174.572 12.393 174.565 12.3928H174.336C174.33 12.3927 174.324 12.3914 174.318 12.3888C174.312 12.3862 174.307 12.3825 174.303 12.3779C174.298 12.3732 174.295 12.3677 174.293 12.3618C174.291 12.3558 174.29 12.3495 174.29 12.3431V10.8557C174.29 10.8492 174.291 10.8427 174.293 10.8367C174.296 10.8306 174.299 10.8251 174.304 10.8206C174.309 10.8161 174.315 10.8126 174.321 10.8104C174.327 10.8082 174.333 10.8073 174.34 10.8078H174.727C174.742 10.8073 174.757 10.8109 174.771 10.818C174.781 10.8274 174.787 10.8393 174.79 10.8523Z" fill="#212121"/>
</g>
<defs>
<clipPath id="clip0_1838_824">
<rect width="176" height="36" fill="white"/>
</clipPath>
</defs>
</svg>
