<svg width="63" height="50" viewBox="0 0 63 50" fill="none" xmlns="http://www.w3.org/2000/svg">
<g clip-path="url(#clip0_1838_636)">
<path d="M39.4239 13.7685H41.3189L46.7195 8.36793L46.9848 6.07505C43.891 3.34435 40.1521 1.44743 36.1213 0.563473C32.0906 -0.320481 27.901 -0.162283 23.9484 1.02312C19.9958 2.20853 16.4106 4.382 13.5316 7.33824C10.6525 10.2945 8.5746 13.9359 7.49414 17.9184C8.09579 17.6718 8.76226 17.6319 9.38908 17.8047L20.1903 16.0235C20.1903 16.0235 20.7398 15.1139 21.024 15.1708C23.3384 12.629 26.5368 11.068 29.9644 10.8073C33.3921 10.5467 36.7897 11.606 39.4618 13.7685H39.4239Z" fill="#EA4335"/>
<path d="M54.4122 17.9182C53.1709 13.3469 50.6222 9.23735 47.0788 6.09375L39.499 13.6735C41.0787 14.9643 42.3447 16.5969 43.2015 18.4483C44.0582 20.2996 44.4833 22.3214 44.4448 24.361V25.7064C45.3307 25.7064 46.208 25.8809 47.0264 26.2199C47.8449 26.5589 48.5886 27.0559 49.215 27.6823C49.8414 28.3087 50.3383 29.0524 50.6773 29.8708C51.0163 30.6893 51.1908 31.5665 51.1908 32.4524C51.1908 33.3383 51.0163 34.2155 50.6773 35.034C50.3383 35.8525 49.8414 36.5961 49.215 37.2226C48.5886 37.849 47.8449 38.3459 47.0264 38.6849C46.208 39.0239 45.3307 39.1984 44.4448 39.1984H30.9528L29.6074 40.5628V48.6542L30.9528 49.9996H44.4448C48.2124 50.0289 51.8894 48.8448 54.9319 46.6224C57.9743 44.3999 60.2206 41.2573 61.3385 37.6592C62.4564 34.0612 62.3865 30.1988 61.1391 26.6436C59.8917 23.0884 57.5331 20.0291 54.4122 17.9182Z" fill="#4285F4"/>
<path d="M17.4423 49.9232H30.9343V39.122H17.4423C16.4811 39.1218 15.5311 38.915 14.6568 38.5156L12.7618 39.1031L7.32335 44.5036L6.84961 46.3986C9.89939 48.7015 13.6208 49.9398 17.4423 49.9232Z" fill="#34A853"/>
<path d="M17.4424 14.8829C13.7867 14.9048 10.2291 16.0678 7.2665 18.2097C4.30391 20.3516 2.08426 23.3652 0.917572 26.8298C-0.249116 30.2944 -0.304579 34.0369 0.758929 37.5345C1.82244 41.0321 3.95181 44.1103 6.84963 46.339L14.6757 38.5129C13.6812 38.0635 12.8105 37.3796 12.1384 36.5198C11.4663 35.66 11.0128 34.65 10.8169 33.5764C10.6209 32.5028 10.6884 31.3977 11.0134 30.3559C11.3385 29.3141 11.9114 28.3667 12.6831 27.5951C13.4548 26.8234 14.4022 26.2504 15.444 25.9254C16.4858 25.6003 17.5909 25.5329 18.6645 25.7288C19.7381 25.9248 20.7481 26.3782 21.6079 27.0504C22.4677 27.7225 23.1516 28.5932 23.6009 29.5877L31.427 21.7616C29.7844 19.6141 27.6673 17.8758 25.2412 16.6825C22.8152 15.4892 20.146 14.8733 17.4424 14.8829Z" fill="#FBBC05"/>
</g>
<defs>
<clipPath id="clip0_1838_636">
<rect width="63" height="50" fill="white"/>
</clipPath>
</defs>
</svg>
