<svg width="49" height="50" viewBox="0 0 49 50" fill="none" xmlns="http://www.w3.org/2000/svg">
<g clip-path="url(#clip0_1838_642)">
<path d="M11.9665 0L11.9681 11.9822L0 11.9791V3.17457C0.0887919 2.55198 0.273166 2.02916 0.553121 1.60609C1.24361 0.559389 2.24748 0.0323829 3.56473 0.0250706C6.34966 0.0104461 9.15026 0.00208922 11.9665 0Z" fill="#0066DA"/>
<path d="M11.9668 0L36.6332 0.00313383C36.6851 0.00311343 36.7355 0.018991 36.7773 0.0485744L36.8353 0.0908811C36.8186 0.0971488 36.8045 0.103939 36.793 0.111251C36.7752 0.120653 36.7664 0.135277 36.7664 0.155125L36.7632 11.9869C36.7611 11.9869 36.7585 11.9869 36.7554 11.9869H11.9731C11.972 11.9859 11.9705 11.9843 11.9684 11.9822L11.9668 0Z" fill="#FBBC04"/>
<path d="M36.8338 0.09375L48.6562 11.9522L36.7617 11.9898L36.7649 0.157994C36.7649 0.138146 36.7737 0.123521 36.7915 0.11412C36.803 0.106808 36.8171 0.100018 36.8338 0.09375Z" fill="#EA4335"/>
<path d="M0 11.9766L11.9681 11.9797C11.9702 11.9818 11.9718 11.9834 11.9728 11.9844L11.9759 28.5436L0 28.5404V11.9766Z" fill="#2684FC"/>
<path d="M48.6581 11.9453L48.7317 11.9986V37.3669C48.4538 38.8848 47.6672 39.8651 46.3719 40.3081C45.9102 40.4668 45.2296 40.5452 44.3302 40.5431C38.4919 40.5337 32.594 40.5248 26.6366 40.5164C25.7717 40.5154 24.8942 40.5217 24.0042 40.5353C23.9551 40.5363 23.9133 40.5541 23.8789 40.5885C20.9644 43.4894 18.0395 46.4154 15.1041 49.3664C14.6544 49.8192 14.1452 50.0715 13.4996 49.9759C12.8979 49.8871 12.4545 49.5769 12.1693 49.0452C12.0492 48.8195 11.9881 48.408 11.986 47.8104C11.9787 45.388 11.976 42.9577 11.9781 40.5196L11.9766 34.5214L17.8964 28.6016C17.9222 28.5758 17.9529 28.5553 17.9868 28.5413C18.0206 28.5273 18.057 28.5202 18.0938 28.5201L36.6304 28.5264C36.6649 28.5264 36.698 28.5127 36.7224 28.4883C36.7468 28.4639 36.7605 28.4309 36.7605 28.3964L36.7558 11.9829C36.7589 11.9829 36.7615 11.9829 36.7636 11.9829L48.6581 11.9453Z" fill="#00AC47"/>
<path d="M11.9759 28.55V34.5294L11.9775 40.5275C9.47357 40.5421 6.99105 40.5468 4.52995 40.5416C3.50415 40.5395 2.76508 40.4591 2.31277 40.3003C1.04461 39.8574 0.273688 38.8755 0 37.3545V28.5469L11.9759 28.55Z" fill="#00832D"/>
</g>
<defs>
<clipPath id="clip0_1838_642">
<rect width="49" height="50" fill="white"/>
</clipPath>
</defs>
</svg>
