<svg width="100" height="100" viewBox="0 0 100 100" fill="none" xmlns="http://www.w3.org/2000/svg">
<path d="M60.7628 35.729H63.2028L70.1569 28.775L70.4985 25.8225C66.5147 22.3063 61.7004 19.8638 56.5102 18.7256C51.32 17.5873 45.9253 17.791 40.8357 19.3174C35.7461 20.8438 31.1297 23.6425 27.4225 27.4491C23.7152 31.2557 21.0396 35.9445 19.6484 41.0727C20.4231 40.7551 21.2813 40.7037 22.0884 40.9263L35.9965 38.6327C35.9965 38.6327 36.7041 37.4614 37.0701 37.5346C40.0502 34.2618 44.1686 32.2517 48.5822 31.9161C52.9958 31.5804 57.3708 32.9445 60.8116 35.729H60.7628Z" fill="#EA4335"/>
<path d="M80.0643 41.0707C78.4659 35.1845 75.184 29.8928 70.6214 25.8449L60.8613 35.605C62.8954 37.2671 64.5256 39.3694 65.6287 41.7533C66.7319 44.1372 67.2794 46.7405 67.2298 49.3668V51.0992C68.3705 51.0992 69.5001 51.3239 70.554 51.7604C71.6079 52.1969 72.5654 52.8368 73.3721 53.6434C74.1787 54.45 74.8185 55.4076 75.2551 56.4615C75.6916 57.5154 75.9163 58.645 75.9163 59.7857C75.9163 60.9264 75.6916 62.056 75.2551 63.1099C74.8185 64.1637 74.1787 65.1213 73.3721 65.9279C72.5654 66.7346 71.6079 67.3744 70.554 67.8109C69.5001 68.2475 68.3705 68.4722 67.2298 68.4722H49.8568L48.1244 70.229V80.6479L49.8568 82.3803H67.2298C72.0811 82.4181 76.8158 80.8933 80.7334 78.0316C84.651 75.1699 87.5435 71.1232 88.9829 66.4902C90.4223 61.8572 90.3323 56.8839 88.7261 52.306C87.12 47.7281 84.0829 43.7887 80.0643 41.0707Z" fill="#4285F4"/>
<path d="M32.4592 82.2842H49.8322V68.376H32.4592C31.2214 68.3758 29.9982 68.1095 28.8723 67.5952L26.4323 68.3516L19.4295 75.3057L18.8194 77.7457C22.7465 80.7111 27.5383 82.3055 32.4592 82.2842Z" fill="#34A853"/>
<path d="M32.4597 37.1678C27.7524 37.1959 23.1715 38.6936 19.3567 41.4515C15.5419 44.2095 12.6838 48.0901 11.1815 52.5512C9.67923 57.0124 9.60781 61.8314 10.9772 66.3351C12.3467 70.8389 15.0885 74.8024 18.8199 77.6722L28.8972 67.5949C27.6166 67.0163 26.4955 66.1357 25.63 65.0286C24.7646 63.9215 24.1807 62.6209 23.9283 61.2385C23.676 59.8561 23.7629 58.4331 24.1814 57.0916C24.6 55.7501 25.3377 54.5302 26.3314 53.5366C27.3251 52.5429 28.545 51.8052 29.8864 51.3866C31.2279 50.9681 32.6509 50.8812 34.0333 51.1335C35.4157 51.3858 36.7163 51.9698 37.8234 52.8352C38.9305 53.7007 39.8112 54.8218 40.3897 56.1024L50.467 46.0251C48.3519 43.26 45.6258 41.0216 42.5019 39.485C39.378 37.9485 35.941 37.1554 32.4597 37.1678Z" fill="#FBBC05"/>
</svg>
