<svg id="레이어_1" data-name="레이어 1" xmlns="http://www.w3.org/2000/svg" viewBox="0 0 722 194"><path d="M1290.907,636.892H849.028c-1.469-1.634-1.434-3.662-1.438-5.658q-.039-20.21,0-40.42a16.57,16.57,0,0,1,.091-1.993c.534-4.318,1.8-4.97,5.373-2.275a35.148,35.148,0,0,0,15.889,6.813c21.665,3.451,41.477-8.1,49.179-29.5,7.534-20.936,5.961-41.263-6.742-60.056-13.646-20.19-43.468-21.98-57.716-10.708-3.978,3.147-4.378,2.927-6.083-1.674a3.9,3.9,0,0,0-4.084-2.873c-6.325-.082-12.65-.057-18.976-.013-2.671.019-3.959,1.32-3.993,3.977-.021,1.663-.037,3.326-.037,4.989q0,65.621-.026,131.24c0,2.77.594,5.708-1.43,8.151q-107.766,0-215.532.108c-3.931.008-4.564-1.085-4.5-4.68.233-13.124.092-26.254.092-39.383,1.77-1.58,3.967-1.544,6.126-1.568,5.319-.06,10.639.028,15.958-.039,5.811-.072,6.268-.472,6.291-6.242.065-15.613.023-31.226.023-46.84,0-14.45.043-28.9-.023-43.351-.026-5.769-.48-6.17-6.291-6.242-5.319-.066-10.639.021-15.958-.038-2.16-.025-4.356.011-6.126-1.569V473.062c1.776-1.575,3.973-1.5,6.128-1.523,4.315-.048,8.632-.015,12.947-.018,9.368-.007,9.374-.006,9.371-9.119,0-4.811.031-9.621-.029-14.431-.021-1.648-.255-3.327.575-4.878q344.157,0,688.312-.093c3.748,0,4.631.838,4.6,4.59-.2,23.473-.1,46.95-.1,70.425-2.379-.027-2.351-2.11-2.761-3.536-5.235-18.208-18.59-26.086-36.239-27.871a79.682,79.682,0,0,0-32.6,3.26c-8.935,2.865-10.015,4.15-10.018,13.337,0,3,.021,5.993,0,8.989-.022,2.862.977,4.321,3.881,2.66,6.386-3.652,13.4-4.741,20.564-5.593a33.633,33.633,0,0,1,19.361,3.4,15.991,15.991,0,0,1,9.115,16.334c-.352,4.27-1.371,5.064-5.386,3.406a49,49,0,0,0-22.924-3.984c-12.007.982-22.947,4.533-30.522,14.649-12.388,16.545-5.078,40.875,14.4,47.836,12.731,4.549,25.43,4.546,37.891-1.288,1.866-.873,3.862-2.345,5.944-.279,1.124,2.7,3.3,3.279,5.993,3.238,5.906-.09,11.814-.046,17.722-.016,1.965.01,3.973-.106,5.577,1.382v13.986c-5.242,1.272-10.56.4-15.838.5-14.34.294-12.436-1.7-12.606,12.889-.039,3.317.024,6.634-.029,9.951C1292.394,633.265,1292.356,635.271,1290.907,636.892Z" transform="translate(-599 -443)" style="fill:#fefefe"/><path d="M819.036,636.892c0-48.273.056-96.546-.1-144.818-.013-4.19,1.1-5.437,5.254-5.206a176.217,176.217,0,0,0,18.981,0c4.16-.218,6.438.656,5.586,5.325a10.687,10.687,0,0,0,.284,2.492c7.533-6.16,15.642-9.922,25.182-10.069,20.586-.316,36.981,10.094,44.532,29.234,7.943,20.134,7.4,40.18-3.463,59.184-11.771,20.584-38.016,28.464-58.032,18.028a44.712,44.712,0,0,1-8.234-5.935v51.761Z" transform="translate(-599 -443)" style="fill:#285ae5"/><path d="M1290.839,588.967c-10.488,5.283-21.431,7.69-33.249,6.051-22.144-3.071-35.739-21.377-30.7-41.777a30.63,30.63,0,0,1,15.875-20.2c14.217-7.674,28.935-7.948,43.892-2.218,1.217.467,2.407,1,3.658,1.531,1.954-11.058-2.206-17.9-12.868-20.613-12.184-3.1-23.859-.959-34.791,4.849-4.062,2.158-4.648,1.109-4.483-2.866.234-5.648.159-11.316.015-16.97a4.678,4.678,0,0,1,3.111-5.026c18.106-7.928,36.628-9.774,55.42-3.037,11.937,4.279,19.447,13,22.641,25.372.344,1.331-.143,3.107,1.543,3.953v1c-.973,1.711-.487,3.577-.491,5.363-.038,21.4-.128,42.8.069,64.2.036,3.966-1.082,5.135-5,4.935a175.508,175.508,0,0,0-18.915.013C1292.88,593.731,1291.126,592.528,1290.839,588.967Z" transform="translate(-599 -443)" style="fill:#285ae5"/><path d="M599.1,487.048c8.652-.03,17.3.025,25.954-.138,2.734-.051,3.791.677,3.783,3.609q-.13,49.63-.042,99.262c0,1.989-.1,3.672-2.8,3.588-8.961-.277-17.939.511-26.891-.432Z" transform="translate(-599 -443)" style="fill:#285ae5"/><path d="M628.088,443.093c1.458,9.367.377,18.792.592,28.187.061,2.68-2.292,1.835-3.741,1.841-8.614.039-17.228-.028-25.843-.059,0-9.157.089-18.316-.065-27.47-.036-2.151.413-2.6,2.566-2.564C610.425,443.185,619.258,443.093,628.088,443.093Z" transform="translate(-599 -443)" style="fill:#010101"/><path d="M1290.907,636.892c-.068-8.786-.151-17.572-.19-26.359-.006-1.4-.435-3.295,1.914-3.227,9.422.272,18.873-.829,28.268.616,0,8.824-.092,17.65.065,26.471.039,2.152-.413,2.6-2.566,2.564C1309.237,636.8,1300.071,636.892,1290.907,636.892Z" transform="translate(-599 -443)" style="fill:#010101"/><path d="M1290.839,588.967c1.051,3.259,3.222,4.159,6.621,3.965a159.821,159.821,0,0,1,17.456-.012c3.906.2,5.112-.983,5.074-4.985-.2-21.274-.117-42.55-.068-63.826,0-1.713-.857-3.693.977-5.1v74.922c-8.551-.075-17.106-.352-25.649-.133C1291.377,593.9,1290.172,592.531,1290.839,588.967Z" transform="translate(-599 -443)" style="fill:#567dea"/><path d="M678.236,494.486c9.985-9.161,21.331-11.128,33.529-9.308A30.479,30.479,0,0,1,730.411,495c2.1,2.341,3.257,2.167,5.512.154,10.58-9.447,23.271-11.95,36.857-9.744,15.205,2.468,25.986,14.222,26.774,31.721,1.1,24.419.445,48.917.594,73.382.013,2.2-.935,2.868-2.988,2.854-7.829-.054-15.661-.141-23.486.042-3.762.088-3.321-2.277-3.32-4.615q.006-28.463-.017-56.926a45.733,45.733,0,0,0-.427-7.463c-1.485-8.853-7.629-13.838-15.945-13.146A15.911,15.911,0,0,0,739,527.08c-.081,20.14-.2,40.283.094,60.419.073,4.93-1.358,6.3-6.121,5.963a132.33,132.33,0,0,0-17.977,0c-4.666.31-6.239-.875-6.151-5.9.331-18.8.15-37.615.108-56.424a37.62,37.62,0,0,0-.547-6.941c-1.708-8.948-7.3-13.542-15.513-12.941-8.682.637-15.423,7.391-15.473,15.985-.118,20.14-.179,40.283.065,60.42.055,4.53-1.089,6.092-5.744,5.8-6.472-.4-12.991-.236-19.482-.046-3.117.091-4.35-.673-4.337-4.105q.184-49.185,0-98.371c-.013-3.5,1.313-4.133,4.371-4.037,5.99.189,11.991.055,17.988.055C677.347,486.959,677.347,486.959,678.236,494.486Z" transform="translate(-599 -443)" style="fill:#285ae5"/><path d="M997.33,547.186c-9.82,0-19.644.153-29.459-.075-3.926-.091-4.464,1.249-3.5,4.679,2.983,10.648,11.648,17.888,23.617,19.246,11.4,1.3,22.285-.426,32.18-6.483,3.445-2.108,4.479-1.574,4.292,2.461a107.321,107.321,0,0,0,.044,14.459c.394,4.42-1.482,6.762-5.273,8.379-19.756,8.425-39.548,9.012-58.785-.968-15.191-7.882-22.894-21.5-24.958-38.1-2.372-19.079.77-37.04,14.614-51.467,14.41-15.017,32.376-17.861,51.545-12,18.391,5.627,26.341,20.193,29.244,38.132.959,5.928.829,11.927.959,17.915.069,3.162-1.11,3.919-4.058,3.876C1017.638,547.1,1007.483,547.185,997.33,547.186Z" transform="translate(-599 -443)" style="fill:#285ae5"/><path d="M1173.613,557.017c4.386-12.9,8.341-24.513,12.291-36.132,3.371-9.92,6.9-19.791,10.015-29.791,1.043-3.351,2.623-4.354,6.012-4.215,6.648.272,13.327.311,19.972,0,4.36-.2,5.432.582,3.69,5.055-8.994,23.091-17.7,46.3-26.5,69.461-3.6,9.484-7.3,18.935-10.75,28.473-.947,2.616-2.271,3.617-5.067,3.55-7.155-.173-14.321-.191-21.475.011-2.888.081-4.045-1.148-4.987-3.655q-18.6-49.511-37.407-98.943c-1.155-3.034-.857-4.047,2.673-3.94,7.485.228,14.99.268,22.471-.017,3.457-.132,4.9,1.041,6,4.276,6.908,20.312,14.051,40.544,21.125,60.8C1172.112,553.191,1172.615,554.411,1173.613,557.017Z" transform="translate(-599 -443)" style="fill:#285ae5"/><path d="M1077.271,496.823c8.29-10.565,18.182-13.31,29.712-11.916,4.135.5,5.621,2.143,5.375,6.391-.376,6.471-.239,12.984-.045,19.47.11,3.7-.12,5.45-4.681,3.636a26.121,26.121,0,0,0-18.14-.367c-7.7,2.558-12.194,8.842-12.21,16.969-.036,19.144-.121,38.289.076,57.431.041,3.933-1.044,5.189-5,5.009-6.816-.309-13.659-.179-20.486-.043-2.794.056-4.172-.459-4.161-3.762q.166-49.442,0-98.883c-.01-3.181,1.08-3.942,4.045-3.858,6.658.19,13.338.3,19.985-.029,4.174-.207,6.423.67,5.556,5.337A35.447,35.447,0,0,0,1077.271,496.823Z" transform="translate(-599 -443)" style="fill:#285ae5"/><path d="M893.949,540.313c-.027,15.362-7.6,26.511-19.916,29.129a22.313,22.313,0,0,1-18.078-3.421c-4.725-3.292-7.717-7.28-7.355-13.658.488-8.609.269-17.271.052-25.9a11.8,11.8,0,0,1,3.617-8.889,23.325,23.325,0,0,1,36.025,2.94C892.429,526.455,893.884,533.2,893.949,540.313Z" transform="translate(-599 -443)" style="fill:#fefefe"/><path d="M1272.241,547.57a26.825,26.825,0,0,1,13.726,3.74c7.047,3.994,6.75,15.1-.471,18.827-8.223,4.247-16.507,4.666-24.892.914a10.9,10.9,0,0,1-6.956-10.556c0-5.089,2.706-8.345,7.013-10.539A24.555,24.555,0,0,1,1272.241,547.57Z" transform="translate(-599 -443)" style="fill:#fefefe"/><path d="M984.135,527.8c-5.492,0-10.986-.052-16.478.02-2.191.029-2.939-.571-2.375-2.924,2.651-11.063,13.68-18.356,24.654-16.157a17.765,17.765,0,0,1,14.2,15.472c.319,2.541-.219,3.894-3.02,3.593a4.614,4.614,0,0,0-.5,0Q992.374,527.807,984.135,527.8Z" transform="translate(-599 -443)" style="fill:#fdfdfe"/></svg>