<svg width="152" height="38" viewBox="0 0 152 38" fill="none" xmlns="http://www.w3.org/2000/svg">
<g clip-path="url(#clip0_1838_961)">
<path fill-rule="evenodd" clip-rule="evenodd" d="M83.1298 16.2082C83.2332 16.9856 83.288 17.7676 83.2849 18.5556L83.288 18.5586V18.5595V18.5604V18.5613V18.5622V18.563V18.5639V18.5648V18.5657V18.5666C83.2788 21.78 83.2697 24.995 83.2971 28.2084C83.3016 28.7546 83.142 28.8793 82.6189 28.8702L82.5517 28.8691C81.7821 28.8562 81.3949 28.8497 81.2 28.6528C81.0026 28.4533 81.0026 28.0585 81.0026 27.2637V18.6012C81.0026 17.763 80.9311 16.9293 80.7502 16.1124C80.2332 13.7726 78.5955 12.6011 76.2189 12.8385C73.2706 13.1336 71.414 14.8983 70.8438 17.9395C70.6978 18.7153 70.6491 19.4958 70.6491 20.2823C70.6501 21.1219 70.6492 21.9615 70.6484 22.8011C70.6465 24.6208 70.6447 26.4405 70.6613 28.2601C70.6659 28.7789 70.5457 28.9493 69.9983 28.9417L69.9248 28.9406C69.1623 28.9294 68.7743 28.9237 68.5761 28.7269C68.371 28.5232 68.3691 28.1147 68.3653 27.2832L68.3653 27.2789C68.3272 18.1859 68.2877 9.09296 68.2482 0H70.5275V14.162C71.2528 13.1153 72.0617 12.2375 73.1565 11.661C75.413 10.4728 77.7455 10.4606 80.0248 11.483C82.0077 12.3729 82.8561 14.1346 83.1298 16.2082ZM147.072 0.776769C146.525 0.767641 146.285 0.947158 146.081 1.44007C143.358 8.05023 140.613 14.6528 137.869 21.2538C137.841 21.3211 137.818 21.392 137.795 21.4635C137.728 21.6719 137.66 21.8855 137.455 22.0282C137.276 21.9014 137.216 21.7199 137.157 21.5426C137.138 21.4837 137.118 21.4252 137.095 21.3694L136.504 19.9478L136.501 19.943C133.935 13.7703 131.368 7.59704 128.815 1.41725C128.628 0.962371 128.427 0.755471 127.892 0.775248C126.475 0.823931 125.055 0.830016 123.639 0.775248C123.005 0.750907 122.903 0.971499 122.909 1.53895C122.937 4.23409 122.942 6.92922 122.947 9.62436C122.948 10.2974 122.949 10.9705 122.95 11.6436C122.953 12.7473 122.956 13.8511 122.959 14.9548C122.971 19.372 122.984 23.7891 122.976 28.2063C122.976 28.7631 123.09 28.9654 123.679 28.9198C124.409 28.862 125.151 28.8604 125.881 28.9198C126.556 28.973 126.764 28.792 126.761 28.0709C126.737 22.3165 126.74 16.5622 126.742 10.8086V10.8084V10.8081V10.8078V10.8076V10.8073C126.743 9.36948 126.744 7.93166 126.744 6.49391C126.744 6.38519 126.754 6.27586 126.768 6.12205V6.12198C126.776 6.03261 126.785 5.92821 126.794 5.80019C129.766 13.0402 132.661 20.093 135.556 27.1459C136.278 28.9032 136.287 28.9032 138.145 28.9192L138.208 28.9198C138.699 28.9243 138.906 28.7539 139.08 28.3158C140.033 25.9514 140.992 23.5897 141.952 21.2281L141.953 21.2252L141.954 21.2227L141.955 21.2205L141.956 21.2184L141.957 21.2164L141.957 21.2152L141.957 21.2145C143.117 18.3611 144.276 15.5076 145.423 12.6492C145.692 11.9772 145.97 11.3088 146.249 10.6405C146.882 9.11957 147.516 7.59868 148.041 6.03447C148.092 6.0261 148.143 6.01812 148.195 6.01013C148.246 6.00214 148.297 5.99415 148.348 5.98579C148.34 6.07138 148.329 6.15682 148.319 6.24221L148.318 6.24323L148.318 6.24369C148.295 6.43251 148.272 6.62107 148.271 6.81034C148.266 13.8875 148.268 20.9632 148.271 28.0404C148.271 28.0937 148.267 28.1477 148.264 28.2017C148.253 28.373 148.242 28.5461 148.339 28.7068C148.331 28.8346 148.401 28.8452 148.499 28.8117C149.08 28.8193 149.661 28.8273 150.242 28.8352L150.251 28.8353C150.834 28.8433 151.417 28.8513 152.001 28.8589V0.741779C151.534 0.746525 151.068 0.753595 150.602 0.760665C149.425 0.778526 148.247 0.796388 147.069 0.776769H147.072ZM62.9629 11.4153C62.56 11.4245 62.4398 11.534 62.4535 11.9295C62.4725 12.4947 62.4688 13.0605 62.4648 13.6765V13.6769V13.6774V13.6778V13.6783V13.6787V13.6792V13.6797V13.6802V13.6807C62.463 13.9506 62.4611 14.2301 62.4611 14.5234C59.1327 9.52889 53.09 10.5938 50.0033 12.9214C46.0483 15.9048 45.288 21.3587 48.3033 25.2609C50.0762 27.5566 52.4696 28.7235 55.3465 28.9075C58.3085 29.0962 60.6927 28.0236 62.4596 25.3872C62.4596 25.8535 62.4714 26.299 62.4828 26.7295L62.4828 26.7298C62.5069 27.6378 62.5291 28.479 62.4353 29.3076C62.1616 31.7311 61.491 33.9857 59.0734 35.2256C56.2862 36.6541 51.9146 36.0121 49.614 33.8594C49.4789 33.7329 49.3632 33.5579 49.2486 33.3845C49.02 33.0389 48.7961 32.7003 48.4325 32.7671C48.1285 32.8223 47.8731 33.1026 47.6111 33.3901L47.6111 33.3901C47.4539 33.5627 47.2942 33.7379 47.1203 33.8686C46.7052 34.1804 46.8192 34.3843 47.1142 34.6931C48.3687 36.0045 49.8771 36.8671 51.6044 37.4026C51.8141 37.4675 52.0307 37.5116 52.2473 37.5557L52.2474 37.5558L52.2474 37.5558L52.2475 37.5558L52.2475 37.5558L52.2476 37.5558L52.2477 37.5558L52.2477 37.5558L52.2478 37.5558L52.2478 37.5558C52.686 37.6451 53.1246 37.7344 53.5081 37.9959H56.8518C56.9184 37.8277 57.0453 37.8383 57.1696 37.8487C57.2184 37.8527 57.2668 37.8567 57.311 37.8499C59.9705 37.4376 62.0308 36.1445 63.3704 33.7712C64.3466 32.0415 64.6127 30.1535 64.6279 28.2077C64.6644 23.1934 64.6994 18.1791 64.7313 13.1649C64.7434 11.3725 64.7405 11.3726 63.0054 11.4128L62.9614 11.4138L62.9629 11.4153ZM55.4651 26.8188C51.6166 26.8355 48.542 23.7396 48.5466 19.8526C48.5511 16.0021 51.5831 12.9397 55.4164 12.9138C59.2908 12.888 62.3425 15.9367 62.3547 19.842C62.3653 23.7624 59.3653 26.802 55.4666 26.8172L55.4651 26.8188ZM1.74559 2.53964C0.976895 2.47093 0.583354 2.9394 0.183293 3.41564C0.122784 3.48767 0.0621271 3.55988 0 3.63043V4.84597L0.107032 4.97284C0.213938 5.09976 0.320844 5.22669 0.430316 5.35105C0.93666 5.91851 1.80489 6.10867 2.4268 5.79071C3.11865 5.43624 3.51551 4.51736 3.3224 3.71867C3.15666 3.03559 2.52868 2.61114 1.74711 2.54116L1.74559 2.53964ZM117.032 1.41885C117.21 0.935064 117.42 0.757069 117.948 0.779889H117.945C118.747 0.814221 119.55 0.807696 120.39 0.800866C120.741 0.798011 121.099 0.795103 121.466 0.795103C120.905 2.2225 120.351 3.63364 119.799 5.03497L119.797 5.04097L119.793 5.05219C118.936 7.23096 118.089 9.38607 117.242 11.5417C116.835 12.5783 116.428 13.6148 116.02 14.6513L116.02 14.6529L116.019 14.6537C114.283 19.0713 112.546 23.4893 110.835 27.9173C110.575 28.5882 110.301 28.9594 109.507 28.8544C108.901 28.7749 108.278 28.8054 107.661 28.8355L107.459 28.8453C107.079 28.8636 106.874 28.7647 106.729 28.3874C104.301 22.0256 101.866 15.6661 99.4316 9.30672C98.3793 6.55828 97.3271 3.80988 96.2754 1.06133C96.2598 1.02041 96.2598 0.972612 96.2598 0.911153V0.911093V0.910843C96.2598 0.876433 96.2598 0.837742 96.2571 0.793581C96.6375 0.793581 97.0163 0.79508 97.3941 0.796574C98.3348 0.800296 99.2689 0.803991 100.203 0.784453C100.583 0.775645 100.648 1.0083 100.712 1.23449C100.726 1.28176 100.739 1.32876 100.755 1.37321C101.738 4.09921 102.716 6.82689 103.694 9.55438C104.038 10.5135 104.382 11.4727 104.727 12.4317L108.774 23.7154L109.239 22.4674L109.244 22.4562L109.247 22.4482C109.737 21.1318 110.204 19.8781 110.669 18.6235L111.634 16.0222L111.635 16.0177L111.637 16.0136C113.441 11.151 115.245 6.28768 117.032 1.41885ZM21.3851 16.9777C21.3288 14.9559 20.7389 13.0314 18.8625 11.8874C16.4251 10.4026 13.8842 10.4071 11.3525 11.6698C10.2288 12.2312 9.40771 13.141 8.69305 14.215C8.678 13.9617 8.66336 13.7084 8.64871 13.4551V13.4551V13.4551V13.455V13.455V13.455C8.61455 12.864 8.58038 12.273 8.541 11.682C8.53821 11.6402 8.54189 11.5927 8.54565 11.544V11.544V11.544V11.544V11.544V11.544C8.5583 11.3802 8.57193 11.2039 8.34333 11.1921C7.7123 11.1602 7.07823 11.1678 6.4472 11.1982C6.23391 11.2088 6.24915 11.4019 6.26164 11.5601C6.26349 11.5835 6.26527 11.6061 6.26625 11.6272C6.27795 11.8668 6.29557 12.1061 6.31318 12.3454C6.33448 12.6348 6.35579 12.9242 6.36661 13.214C6.48435 16.2188 6.4685 19.2243 6.45266 22.2296V22.2297V22.2298V22.2298V22.2299V22.2299C6.44394 23.882 6.43523 25.534 6.44872 27.1858L6.44905 27.2252C6.45633 28.0952 6.45999 28.5326 6.68053 28.7496C6.9035 28.969 7.34814 28.9631 8.24233 28.9512L8.28859 28.9506C8.7189 28.9445 8.84055 28.8304 8.83446 28.3999C8.81166 26.5012 8.81166 24.6026 8.82838 22.704C8.83191 22.3255 8.82815 21.9469 8.82439 21.5684C8.81359 20.4801 8.80278 19.3921 8.96523 18.3074C9.39099 15.4625 10.9617 13.5304 13.4417 13.0025C16.2091 12.4138 18.6603 13.2748 19.045 16.8043C19.2104 18.3224 19.1922 19.8419 19.1741 21.3614V21.3614C19.165 22.1183 19.156 22.8753 19.1697 23.632C19.1882 24.6401 19.1842 25.6488 19.1801 26.6577V26.6578V26.6579V26.658V26.6582V26.6583V26.659V26.6597V26.6604V26.6611V26.6618C19.1779 27.2213 19.1756 27.7809 19.1773 28.3405C19.1773 28.3739 19.1755 28.4098 19.1736 28.4465V28.4465V28.4465V28.4466V28.4466C19.1627 28.6654 19.1503 28.9144 19.5057 28.8623C19.7355 28.8287 19.971 28.8523 20.2059 28.8759C20.6301 28.9184 21.0528 28.9608 21.4383 28.6661C21.4672 28.645 21.462 28.5768 21.4571 28.5125C21.4553 28.4888 21.4535 28.4656 21.4535 28.4455C21.4495 27.324 21.4513 26.2026 21.453 25.0812V25.0812V25.0811V25.081V25.081V25.0809C21.4572 22.3795 21.4614 19.6786 21.3851 16.9793V16.9777ZM32.3377 19.1295C32.7786 19.2279 33.2203 19.3265 33.6371 19.4894L33.6356 19.4878C35.3523 20.1572 36.6767 21.2054 36.8835 23.206C37.0979 25.2658 36.4395 26.988 34.6954 28.1335C32.2504 29.7401 29.632 29.6062 26.9908 28.6401C25.6162 28.1381 24.5351 27.2664 23.752 26.0204C23.5863 25.7572 23.5452 25.5777 23.8721 25.4453C23.8949 25.4347 23.9162 25.421 23.9375 25.4073L23.9375 25.4073C24.09 25.3139 24.24 25.2033 24.3901 25.0926C24.7263 24.8446 25.0628 24.5964 25.4277 24.5417C25.8394 24.4801 26.022 24.8137 26.2094 25.156C26.3092 25.3384 26.4104 25.5232 26.5483 25.6522C28.2163 27.2116 30.9518 27.6589 32.9605 26.5894C33.8621 26.1086 34.551 25.4241 34.6908 24.3393C34.8383 23.1877 34.446 22.3175 33.3938 21.7577C32.3081 21.1796 31.151 20.8494 29.9422 20.6851C28.8337 20.5345 27.7511 20.2622 26.7475 19.7845C24.8818 18.896 24.0272 17.434 24.196 15.4563C24.3739 13.3812 25.531 12.0136 27.4363 11.2727C28.338 10.9213 29.2975 10.8056 30.2706 10.8102C32.6564 10.8832 34.7486 11.5267 36.0958 13.7129C36.3422 14.113 36.3376 14.288 35.8951 14.4918C35.7021 14.5802 35.5172 14.7089 35.3342 14.8362C35.0415 15.0398 34.7539 15.24 34.446 15.2662C34.0726 15.2979 33.8985 14.9751 33.7196 14.6432C33.6238 14.4657 33.5267 14.2855 33.3969 14.1556C31.6893 12.4456 28.4733 12.5126 26.93 14.329C26.0009 15.4229 26.2305 16.8605 27.4241 17.6577C28.4136 18.3188 29.5323 18.5392 30.6518 18.7597C31.0394 18.8361 31.427 18.9124 31.8094 19.0071C31.9843 19.0506 32.1609 19.09 32.3377 19.1295ZM96.456 26.5533L96.4548 26.5539L96.4545 26.5503L96.456 26.5533ZM96.4548 26.5539C95.5429 26.9628 94.6964 27.1999 93.7996 27.1893C92.3718 27.171 91.493 26.3586 91.4823 24.9423C91.4666 22.8054 91.4664 20.6681 91.4662 18.5308C91.4661 16.9447 91.466 15.3585 91.4595 13.7727C91.4595 13.3848 91.5568 13.2494 91.9643 13.2615C92.6815 13.2831 93.3988 13.2787 94.1165 13.2743H94.1167H94.1169H94.117C94.4125 13.2725 94.7082 13.2707 95.0039 13.2707C95.7727 13.2707 96.1532 13.2707 96.3355 13.0806C96.5141 12.8943 96.5023 12.5253 96.4789 11.7949L96.4773 11.7463C96.4636 11.3401 96.3389 11.2412 95.9497 11.2473C95.326 11.2581 94.7019 11.2566 94.0779 11.2551H94.0779C93.3846 11.2535 92.6915 11.2519 91.9993 11.2671C91.5629 11.2762 91.4443 11.1423 91.458 10.7163C91.4805 10.0735 91.4758 9.43056 91.471 8.78714V8.78686V8.78658V8.7863C91.4691 8.51798 91.4671 8.24956 91.4671 7.98101C91.4671 7.05142 91.4671 6.59084 91.2371 6.37163C91.0112 6.15635 90.5635 6.17382 89.6761 6.20845L89.6318 6.21018C89.2456 6.2254 89.1771 6.35319 89.1817 6.69549C89.1891 7.2648 89.1876 7.83411 89.1861 8.40342V8.40489C89.1842 9.12669 89.1823 9.8485 89.1984 10.5703C89.2091 11.0252 89.1026 11.2108 88.6161 11.1743C88.2311 11.1457 87.8432 11.1525 87.4549 11.1592L87.4548 11.1592C87.2849 11.1622 87.1149 11.1651 86.945 11.1651C86.1159 11.1651 85.7065 11.1651 85.5103 11.3697C85.3189 11.5692 85.3303 11.9633 85.353 12.7418L85.3545 12.7945C85.3666 13.2235 85.5217 13.2874 85.8912 13.2767C86.23 13.2666 86.5693 13.2713 86.9084 13.276C87.3804 13.2825 87.852 13.2891 88.3211 13.2554C88.9916 13.2068 89.2152 13.3771 89.206 14.1028C89.1716 16.9871 89.1789 19.8723 89.1862 22.7569V22.7573V22.7576C89.1879 23.4438 89.1897 24.1299 89.1908 24.816C89.1924 25.852 89.4448 26.8257 90.0575 27.6746C91.0991 29.1183 93.0606 29.6553 95.2107 29.1061C96.1484 28.8668 96.5853 28.2664 96.5214 27.3049C96.5116 27.1612 96.4981 27.0181 96.4824 26.8523C96.4738 26.761 96.4645 26.6628 96.4548 26.5539ZM1.33546 11.2386C2.83149 11.277 2.83149 11.277 2.83149 12.7973H2.83301C2.83301 14.0249 2.83239 15.2525 2.83177 16.4802V16.4802V16.4803C2.82983 20.3383 2.82788 24.1962 2.84518 28.0531C2.8467 28.6404 2.76307 28.8899 2.08794 28.8655L1.97788 28.8616C1.27433 28.837 0.91834 28.8245 0.73821 28.6401C0.553709 28.4513 0.553709 28.0822 0.553709 27.3351V19.9734C0.553709 19.2618 0.5551 18.5502 0.556491 17.8386C0.560344 15.8682 0.564197 13.898 0.538503 11.9286C0.5309 11.349 0.687517 11.2212 1.25012 11.2364L1.33546 11.2386ZM42.4487 12.794C42.4487 12.0304 42.4487 11.6507 42.2589 11.4572C42.0712 11.2659 41.698 11.2566 40.9557 11.2382C40.9293 11.2376 40.9023 11.2369 40.875 11.2362C40.3139 11.2225 40.1497 11.3503 40.1557 11.933C40.1805 13.9143 40.1769 15.8956 40.1734 17.877L40.1734 17.8834C40.1722 18.5805 40.1709 19.2776 40.1709 19.9747V27.3349C40.1709 28.0821 40.1709 28.4534 40.3566 28.643C40.54 28.8303 40.9045 28.8402 41.6292 28.8598C41.6585 28.8606 41.6884 28.8614 41.7189 28.8623C42.3164 28.879 42.4655 28.7147 42.4624 28.1199C42.4438 24.2033 42.4457 20.2867 42.4476 16.3701C42.4481 15.1781 42.4487 13.9861 42.4487 12.794ZM39.6426 4.33047C39.6243 3.34161 40.3177 2.62354 41.2741 2.6418C42.2381 2.66005 42.8981 3.31574 42.9011 4.25744C42.9041 5.27521 42.2518 5.9522 41.2787 5.94155C40.3222 5.9309 39.6608 5.27978 39.6426 4.33047Z" fill="#222222"/>
</g>
<defs>
<clipPath id="clip0_1838_961">
<rect width="152" height="38" fill="white"/>
</clipPath>
</defs>
</svg>
