<svg width="118" height="44" viewBox="0 0 118 44" fill="none" xmlns="http://www.w3.org/2000/svg">
<g clip-path="url(#clip0_1838_750)">
<path d="M69.8463 4.51741C69.1256 4.54368 68.437 4.84083 67.9235 5.35632C67.3344 5.94319 67.0311 6.7592 67.089 7.58835C67.089 8.68482 67.6724 9.69891 68.6222 10.246C69.5707 10.7954 70.7411 10.7954 71.6896 10.246C72.6381 9.69891 73.224 8.68482 73.2221 7.58835C73.2813 6.7592 72.9777 5.94319 72.389 5.35632C71.8017 4.76717 70.9854 4.46354 70.1563 4.52322C70.0524 4.51582 69.9492 4.51371 69.8463 4.51741ZM57.1767 6.31662L57.1882 29.97C57.1882 33.3213 55.8455 35.6444 51.9618 35.6444C50.3359 35.657 48.7245 35.3609 47.2109 34.7736V39.2442C48.9862 39.8496 50.8525 40.1439 52.7278 40.1171C59.0702 40.1171 61.7765 35.8481 61.7765 29.6629V6.31662H57.1767ZM104.751 13.8213C97.5959 13.8213 94.0192 19.9014 94.0192 27.1073C94.0192 34.622 97.4457 40.3953 104.24 40.3953C108.173 40.3953 111.238 38.6598 112.877 35.2853L112.882 39.8845H117.279V14.3322H112.882V18.8266C111.343 15.5043 108.48 13.8213 104.751 13.8213ZM91.3768 13.942C86.981 13.9361 84.6235 15.9999 83.2348 18.8266V14.3322H78.9427V39.9018H83.2348V24.8022C83.2348 19.3902 86.6614 17.6831 92.2829 18.263V13.9709C91.9714 13.9516 91.6698 13.9424 91.3768 13.942ZM67.9091 14.3381V39.8897H72.3038V14.3381H67.9091ZM105.907 17.8859C109.659 17.8859 112.877 20.3895 112.877 26.0633V28.1298C112.877 33.8012 109.354 36.3054 105.42 36.3079C100.866 36.3079 98.4158 33.2401 98.3922 27.0835C98.3922 21.155 100.947 17.8859 105.907 17.8859Z" fill="#212121"/>
<path d="M42.0446 20.7671L23.1112 1.83362L21.2762 0L0.509153 20.7671C-0.169718 21.4478 -0.169718 22.5498 0.509153 23.2291L13.5302 36.2498L21.2762 43.9976L42.0446 23.2291C42.724 22.5498 42.724 21.4478 42.0446 20.7671ZM21.2762 28.5019L14.7728 21.999L21.2762 15.4938L27.7809 21.999L21.2762 28.5019Z" fill="#2684FF"/>
<path d="M21.274 15.4898C17.0163 11.2302 16.9945 4.33145 21.2287 0.046875L6.99414 14.2759L14.742 22.0237L21.274 15.4898Z" fill="url(#paint0_linear_1838_750)"/>
<path d="M27.7982 21.9844L21.2754 28.5058C23.331 30.5595 24.4871 33.3471 24.4871 36.2536C24.4871 39.1601 23.331 41.9458 21.2754 44.0014L35.5442 29.7322L27.7982 21.9844Z" fill="url(#paint1_linear_1838_750)"/>
</g>
<defs>
<linearGradient id="paint0_linear_1838_750" x1="18.4785" y1="10.5452" x2="11.0302" y2="17.9917" gradientUnits="userSpaceOnUse">
<stop stop-color="#0052CC"/>
<stop offset="1" stop-color="#2684FF"/>
</linearGradient>
<linearGradient id="paint1_linear_1838_750" x1="24.1513" y1="33.3797" x2="31.5847" y2="25.9463" gradientUnits="userSpaceOnUse">
<stop stop-color="#0052CC"/>
<stop offset="1" stop-color="#2684FF"/>
</linearGradient>
<clipPath id="clip0_1838_750">
<rect width="118" height="44" fill="white"/>
</clipPath>
</defs>
</svg>
