<svg width="180" height="37" viewBox="0 0 180 37" fill="none" xmlns="http://www.w3.org/2000/svg">
<g clip-path="url(#clip0_1838_757)">
<path d="M57.2181 21.199C57.2393 21.8893 57.1332 22.5556 56.8942 23.2008C56.7217 23.6973 56.4428 24.1275 56.0552 24.4699C55.7312 24.7487 55.3649 24.9664 54.9799 25.1151C54.6135 25.2452 54.2259 25.3302 53.8595 25.3302C53.4294 25.3302 52.9993 25.2452 52.5877 25.0514C52.1576 24.8575 51.7913 24.5788 51.4885 24.2336C51.1221 23.8036 50.8434 23.2858 50.6921 22.7469C50.477 22.0353 50.3893 21.2839 50.3893 20.5511V20.4211L47.4609 21.1325V21.2175C47.4609 23.2194 48.0424 24.8575 49.1627 26.0841C50.2832 27.3107 51.8762 27.9586 53.8781 27.9586C55.88 27.9586 57.473 27.3347 58.5935 26.1081C59.7138 24.8814 60.2741 23.1584 60.2741 20.9838V8.36719H57.2367V21.2016H57.2155L57.2181 21.199Z" fill="#182954"/>
<path d="M71.9297 21.035C71.9297 21.6802 71.8208 22.328 71.5633 22.9307C71.3694 23.4485 71.0455 23.8999 70.6366 24.2874C70.2702 24.6113 69.8402 24.8902 69.3888 25.0627C68.9587 25.2353 68.5073 25.3202 68.0533 25.3441C67.2781 25.3654 66.5028 25.0866 65.9638 24.5264C65.4248 23.9874 65.1673 23.0396 65.1673 21.7704V14.0391H62.3477V21.9856C62.3477 23.9875 62.8203 25.4955 63.7468 26.4858C64.6735 27.4761 65.985 27.9727 67.6656 27.9727C69.3463 27.9727 70.8305 27.2186 71.9084 25.7556V27.7575H74.7281V14.0391H71.9084V21.0376H71.9297V21.035Z" fill="#182954"/>
<path d="M87.2801 20.8935C87.3014 22.0352 86.935 23.177 86.2022 24.0584C85.5359 24.8974 84.5216 25.3726 83.4676 25.3514C82.4348 25.3514 81.5293 24.9001 80.7754 24.0372C80.0213 23.153 79.6124 22.0565 79.6337 20.8935C79.6124 19.7519 80.0213 18.6315 80.7541 17.75C81.5082 16.866 82.3896 16.4358 83.4463 16.4358C84.5003 16.4146 85.5146 16.8871 86.1809 17.7288C86.935 18.6102 87.3014 19.7519 87.2801 20.8935ZM83.9428 13.8312C83.0374 13.8312 82.156 14.0463 81.3594 14.4764C80.6904 14.8216 80.1116 15.3154 79.6575 15.918V14.0436H76.8379V33.8342H79.6575V25.8239C80.0877 26.448 80.6691 26.9444 81.3382 27.3108C82.1347 27.7409 83.0401 27.956 83.9428 27.956C85.6446 27.9772 87.2376 27.2232 88.3368 25.9328C89.5209 24.5973 90.1237 22.8955 90.1237 20.8935C90.1237 18.8917 89.5209 17.2111 88.3581 15.8756C87.2376 14.5613 85.6234 13.8074 83.9428 13.8286" fill="#182954"/>
<path d="M109.352 19.3824C109.869 17.3594 111.202 16.3238 113.334 16.3238C114.216 16.3027 115.058 16.6026 115.702 17.2054C116.306 17.7656 116.672 18.5409 116.735 19.3586L109.349 19.3798L109.352 19.3824ZM118.289 16.1752C117.88 15.6575 117.383 15.2061 116.823 14.8397C116.284 14.4945 115.702 14.237 115.078 14.0644C114.476 13.8919 113.831 13.8281 113.204 13.8281C111.202 13.8281 109.543 14.4945 108.274 15.8088C107.005 17.123 106.378 18.8223 106.378 20.8905C106.357 22.1171 106.636 23.3437 107.175 24.4429C107.714 25.497 108.553 26.3811 109.564 27.005C110.685 27.6502 111.954 27.9954 113.247 27.9528C113.937 27.9528 114.603 27.8679 115.269 27.6715C115.83 27.5201 116.369 27.2838 116.863 26.9599C117.314 26.6785 117.701 26.336 118.068 25.9483C118.392 25.6032 118.692 25.2155 118.929 24.8067C119.143 24.4403 119.338 24.0527 119.489 23.6438L119.531 23.5349L116.839 22.8233L116.797 22.9084C116.493 23.5987 116.022 24.2013 115.418 24.6739C114.794 25.1253 114.041 25.3643 113.286 25.3403C112.102 25.3403 111.133 24.9952 110.4 24.2863C109.689 23.6199 109.238 22.7145 109.153 21.7454H119.509L119.531 21.6578C119.573 21.3339 119.616 21.0126 119.616 20.6887C119.616 19.8285 119.486 18.9444 119.249 18.1266C119.056 17.4151 118.711 16.7699 118.281 16.1672" fill="#182954"/>
<path d="M141.416 25.3489C140.232 25.3702 139.069 25.025 138.1 24.3798C137.11 23.7347 136.335 22.8081 135.816 21.7514C135.278 20.6097 134.999 19.3406 134.999 18.0689C134.978 16.797 135.256 15.5279 135.816 14.3863C136.313 13.3084 137.11 12.4057 138.1 11.7605C140.124 10.4675 142.731 10.4675 144.754 11.7605C145.744 12.4057 146.54 13.3322 147.037 14.3863C147.576 15.5492 147.854 16.797 147.854 18.0689C147.876 19.338 147.597 20.6097 147.037 21.7514C146.519 22.8293 145.744 23.732 144.754 24.3798C143.763 25.025 142.6 25.3702 141.416 25.3489ZM148.306 11.0729C147.467 10.1675 146.431 9.43735 145.314 8.9621C142.836 7.9293 140.038 7.9293 137.561 8.9621C136.42 9.45593 135.407 10.1675 134.59 11.0729C133.772 11.9995 133.124 13.0535 132.695 14.2164C131.789 16.6935 131.789 19.4282 132.695 21.9027C133.124 23.0656 133.77 24.1196 134.59 25.0463C135.429 25.9516 136.444 26.6818 137.582 27.1571C140.059 28.1898 142.858 28.1898 145.335 27.1571C146.477 26.6631 147.488 25.9516 148.327 25.0463C149.167 24.1196 149.813 23.0656 150.244 21.9027C151.15 19.4256 151.15 16.6909 150.244 14.2164C149.793 13.0535 149.145 11.9755 148.306 11.0729Z" fill="#182954"/>
<path d="M159.975 13.8256C159.394 13.8256 158.812 13.9105 158.252 14.1044C157.755 14.2557 157.284 14.492 156.853 14.8159C156.529 15.0522 156.229 15.3336 155.927 15.6124C155.774 15.7638 155.647 15.9124 155.518 16.0638V14.0619H152.674V27.7566H155.494V20.7366C155.494 20.0915 155.603 19.4437 155.86 18.8409C156.054 18.3232 156.378 17.8718 156.787 17.4842C157.153 17.1603 157.562 16.8815 158.013 16.709C158.443 16.5363 158.897 16.4514 159.349 16.4302C160.145 16.3877 160.899 16.6877 161.459 17.2479C161.977 17.8082 162.256 18.7347 162.256 20.0251V27.7326H165.075V19.7861C165.097 15.8248 163.374 13.8203 159.973 13.8203" fill="#182954"/>
<path d="M169.71 19.3824C170.227 17.3594 171.561 16.3238 173.693 16.3238C174.577 16.3027 175.415 16.6053 176.061 17.208C176.663 17.7682 177.03 18.5435 177.094 19.3612L169.708 19.3824H169.71ZM179.916 21.6657C179.959 21.3418 180.001 21.0207 180.001 20.6967C180.001 19.8365 179.87 18.9524 179.614 18.1346C179.399 17.423 179.075 16.7779 178.623 16.1752C178.215 15.6575 177.718 15.2061 177.16 14.8397C176.621 14.4945 176.039 14.237 175.415 14.0644C174.813 13.8919 174.168 13.8281 173.544 13.8281C171.542 13.8281 169.883 14.4945 168.614 15.8088C167.342 17.123 166.718 18.8223 166.718 20.8905C166.696 22.1171 166.976 23.3465 167.515 24.4429C168.053 25.497 168.872 26.3811 169.904 27.005C171.024 27.6502 172.294 27.9954 173.587 27.9529C174.274 27.9529 174.944 27.8679 175.61 27.6741C176.17 27.5228 176.709 27.2865 177.203 26.9625C177.654 26.6837 178.042 26.3386 178.408 25.9509C178.732 25.6059 179.032 25.2182 179.268 24.8093C179.483 24.4429 179.677 24.0553 179.828 23.6464L179.87 23.5376L177.2 22.8261L177.158 22.911C176.854 23.6013 176.383 24.2039 175.779 24.6766C175.155 25.1279 174.402 25.3669 173.647 25.343C172.463 25.343 171.495 24.9979 170.762 24.289C170.05 23.6225 169.599 22.7172 169.514 21.7481H179.892L179.914 21.6631L179.916 21.6657Z" fill="#182954"/>
<path d="M94.3237 14.9152C93.5273 15.1515 92.6882 15.1515 91.8892 14.9152L91.6953 14.8516V27.8346H94.4938V14.8727L94.3211 14.9152H94.3237Z" fill="#182954"/>
<path d="M93.1358 9.10314C92.642 9.0819 92.1455 9.27571 91.7791 9.64211C91.4339 10.0085 91.2402 10.4811 91.2613 10.9776C91.2402 11.4715 91.4339 11.9679 91.7791 12.313C92.5331 13.0458 93.7385 13.0458 94.4926 12.313C94.8377 11.9466 95.0315 11.4741 95.0102 10.9776C95.0315 10.4838 94.8377 10.0085 94.4926 9.64211C94.1262 9.27571 93.6322 9.0819 93.1358 9.10314Z" fill="#182954"/>
<path d="M101.62 10.1875H99.0789V10.23C99.0789 13.9975 96.5381 14.6878 96.2355 14.7728L96.1504 14.794V16.6897H98.67V23.0431C98.6489 23.7759 98.755 24.4848 98.9488 25.1963C99.1002 25.7353 99.3365 26.2292 99.6816 26.6593C99.9844 27.0257 100.372 27.3257 100.781 27.5434C101.19 27.7585 101.641 27.8885 102.095 27.9735C103.237 28.1461 104.4 28.1037 105.52 27.8673L105.605 27.846V25.1114L105.541 25.1327C105.52 25.1327 103.452 25.7353 102.334 24.8964C101.861 24.53 101.622 23.9697 101.622 23.2157V16.6897H105.605V14.1701H101.622V10.1875H101.62Z" fill="#182954"/>
<path d="M127.893 14.033C127.009 14.2056 126.192 14.572 125.483 15.1109C124.964 15.4986 124.535 15.9924 124.235 16.5739V14.033H121.391V27.7276H124.235V20.8591C124.235 20.2776 124.344 19.6749 124.559 19.136C124.752 18.6421 125.055 18.2093 125.463 17.8429C125.851 17.4979 126.303 17.2402 126.778 17.0465C127.251 16.8738 127.748 16.7889 128.243 16.7889H128.394C128.998 16.8102 129.6 16.9402 130.16 17.1341L130.267 17.1766L130.288 17.0916C130.351 16.08 130.546 15.0897 130.848 14.1206L130.869 14.0781L130.697 14.0357C129.77 13.8631 128.823 13.8631 127.899 14.0357" fill="#182954"/>
<path fill-rule="evenodd" clip-rule="evenodd" d="M3.05328 18.2003C3.05328 18.5639 3.07983 18.9542 3.10904 19.318H7.63851C9.09081 19.318 10.6015 19.318 11.9715 18.9542C13.984 18.4232 15.7735 17.2763 17.6479 16.0444L17.7037 16.0151C18.3197 15.5665 18.9887 15.2319 19.7162 15.0089C20.6375 14.7566 21.5907 14.6743 22.5385 14.6743H32.9674C32.633 13.2486 32.1019 11.876 31.3452 10.6174H5.06579C3.75156 12.9114 3.05328 15.5399 3.05328 18.1975M29.6965 28.0158C24.2722 34.3641 14.7115 35.1472 8.36599 29.6938C7.75002 29.1628 7.19246 28.6026 6.68801 28.0158H29.6965ZM27.9362 21.4978C27.9362 22.9527 26.7335 24.1554 25.2812 24.1554C23.8289 24.1554 22.6261 22.9527 22.6261 21.4978C22.6261 20.0428 23.8289 18.8401 25.2812 18.8401C26.7335 18.8401 27.9362 20.0428 27.9362 21.4978ZM33.2754 16.9391H22.5119C21.7845 16.9099 21.0304 16.9948 20.3322 17.1621C19.8278 17.3294 19.3525 17.5816 18.9357 17.8895L18.8799 17.9188L18.8719 17.9241C16.9444 19.1825 14.9346 20.4941 12.5609 21.1367C11.0794 21.5296 9.56872 21.5562 8.11642 21.5562H3.44623C3.78075 23.0111 4.34097 24.4369 5.095 25.7245H31.3187C32.6622 23.4306 33.3604 20.8021 33.3312 18.1445C33.3312 17.7781 33.3073 17.409 33.2807 17.0188L33.2754 16.9391ZM8.36599 6.67739C14.7407 1.25051 24.2722 2.00454 29.6965 8.35537H6.68801C7.19246 7.76861 7.75002 7.17919 8.36599 6.67739ZM18.3197 36.6394C28.438 36.6394 36.6394 28.438 36.6394 18.3197C36.6394 8.20138 28.438 0 18.3197 0C8.20137 0 0 8.20138 0 18.3197C0 28.438 8.20137 36.6394 18.3197 36.6394Z" fill="#00BFA5"/>
</g>
<defs>
<clipPath id="clip0_1838_757">
<rect width="180" height="37" fill="white"/>
</clipPath>
</defs>
</svg>
