<svg width="54" height="50" viewBox="0 0 54 50" fill="none" xmlns="http://www.w3.org/2000/svg">
<g clip-path="url(#clip0_1838_656)">
<path d="M37.4913 18.75H51.375C52.6867 18.75 53.75 19.8133 53.75 21.125V33.7712C53.75 38.592 49.842 42.5 45.0213 42.5H44.98C40.1592 42.5007 36.2507 38.5932 36.25 33.7725C36.25 33.7721 36.25 33.7717 36.25 33.7712V19.9913C36.25 19.3057 36.8057 18.75 37.4913 18.75Z" fill="#5059C9"/>
<path d="M46.875 16.25C49.9816 16.25 52.5 13.7316 52.5 10.625C52.5 7.5184 49.9816 5 46.875 5C43.7684 5 41.25 7.5184 41.25 10.625C41.25 13.7316 43.7684 16.25 46.875 16.25Z" fill="#5059C9"/>
<path d="M29.375 16.25C33.8623 16.25 37.5 12.6123 37.5 8.12501C37.5 3.63769 33.8623 0 29.375 0C24.8877 0 21.25 3.63769 21.25 8.12501C21.25 12.6123 24.8877 16.25 29.375 16.25Z" fill="#7B83EB"/>
<path d="M40.2087 18.75H17.2912C15.9952 18.7821 14.9699 19.8577 15 21.1538V35.5775C14.819 43.3553 20.9724 49.8097 28.75 50C36.5276 49.8097 42.681 43.3553 42.5 35.5775V21.1538C42.53 19.8577 41.5048 18.7821 40.2087 18.75Z" fill="#7B83EB"/>
<path opacity="0.1" d="M29.9987 18.75V38.9625C29.9925 39.8894 29.4308 40.7221 28.5737 41.075C28.3008 41.1904 28.0075 41.2499 27.7112 41.25H16.0987C15.9362 40.8375 15.7862 40.425 15.6612 40C15.2236 38.5657 15.0004 37.0746 14.9987 35.575V21.15C14.9686 19.856 15.9922 18.7821 17.2862 18.75H29.9987Z" fill="black"/>
<path opacity="0.2" d="M28.7487 18.75V40.2125C28.7487 40.5088 28.6892 40.8021 28.5737 41.075C28.2208 41.9321 27.3881 42.4938 26.4612 42.5H16.6862C16.4737 42.0875 16.2737 41.675 16.0987 41.25C15.9237 40.825 15.7862 40.425 15.6612 40C15.2236 38.5657 15.0004 37.0746 14.9987 35.575V21.15C14.9686 19.856 15.9922 18.7821 17.2862 18.75H28.7487Z" fill="black"/>
<path opacity="0.2" d="M28.7487 18.75V37.7125C28.7392 38.9719 27.7206 39.9905 26.4612 40H15.6612C15.2236 38.5657 15.0004 37.0746 14.9987 35.575V21.15C14.9686 19.856 15.9922 18.7821 17.2862 18.75H28.7487Z" fill="black"/>
<path opacity="0.2" d="M27.4987 18.75V37.7125C27.4892 38.9719 26.4706 39.9905 25.2112 40H15.6612C15.2236 38.5657 15.0004 37.0746 14.9987 35.575V21.15C14.9686 19.856 15.9922 18.7821 17.2862 18.75H27.4987Z" fill="black"/>
<path opacity="0.1" d="M30.0016 12.2875V16.225C29.7891 16.2375 29.5891 16.25 29.3766 16.25C29.1641 16.25 28.9641 16.2375 28.7516 16.225C28.3296 16.197 27.9112 16.13 27.5016 16.025C24.9703 15.4255 22.8791 13.6503 21.8766 11.25C21.7041 10.8469 21.5702 10.4283 21.4766 10H27.7141C28.9754 10.0048 29.9968 11.0261 30.0016 12.2875Z" fill="black"/>
<path opacity="0.2" d="M28.75 13.5375V16.225C28.3281 16.197 27.9096 16.13 27.5 16.025C24.9687 15.4255 22.8775 13.6503 21.875 11.25H26.4625C27.7238 11.2548 28.7452 12.2761 28.75 13.5375Z" fill="black"/>
<path opacity="0.2" d="M28.75 13.5375V16.225C28.3281 16.197 27.9096 16.13 27.5 16.025C24.9687 15.4255 22.8775 13.6503 21.875 11.25H26.4625C27.7238 11.2548 28.7452 12.2761 28.75 13.5375Z" fill="black"/>
<path opacity="0.2" d="M27.5 13.5375V16.025C24.9687 15.4255 22.8775 13.6503 21.875 11.25H25.2125C26.4739 11.2548 27.4952 12.2761 27.5 13.5375Z" fill="black"/>
<path d="M2.29124 11.25H25.2087C26.4742 11.25 27.5 12.2758 27.5 13.5412V36.4587C27.5 37.7241 26.4741 38.75 25.2087 38.75H2.29124C1.02581 38.75 0 37.7241 0 36.4587V13.5412C0 12.2758 1.02584 11.25 2.29124 11.25Z" fill="url(#paint0_linear_1838_656)"/>
<path d="M19.7807 19.9747H15.1994V32.4497H12.2807V19.9747H7.7207V17.5547H19.7807V19.9747Z" fill="white"/>
</g>
<defs>
<linearGradient id="paint0_linear_1838_656" x1="4.77731" y1="9.45966" x2="22.7227" y2="40.5403" gradientUnits="userSpaceOnUse">
<stop stop-color="#5A62C3"/>
<stop offset="0.5" stop-color="#4D55BD"/>
<stop offset="1" stop-color="#3940AB"/>
</linearGradient>
<clipPath id="clip0_1838_656">
<rect width="54" height="50" fill="white"/>
</clipPath>
</defs>
</svg>
