<svg xmlns="http://www.w3.org/2000/svg" viewBox="0 0 230 240">
    <defs>
        <style>.cls-1{fill:#00829b;}</style>
    </defs>
    <title>Asset 8</title>
    <g id="Layer_2" data-name="Layer 2">
        <g id="Layer_1-2" data-name="Layer 1">
            <path class="cls-1" d="M233.41,142.09c-.65-2.4-3-11.22-5.26-19.59L210.42,56.36c-2.24-8.38-4.6-17.19-5.25-19.6a12.42,12.42,0,0,0-8.21-8.2l-19.58-5.24L111.22,5.57,91.6.31a12.37,12.37,0,0,0-11.16,3L3.3,80.46A12.37,12.37,0,0,0,.12,90.56l-.08,0L.57,92.7h0l22.69,84.7c2.24,8.36,4.61,17.19,5.25,19.59a12.43,12.43,0,0,0,8.2,8.2l16.81,4.51,69,18.48,16.35,4.37,3.27.88a12.36,12.36,0,0,0,11.17-3l14.35-14.35,48.42-48.43c6.13-6.12,12.58-12.57,14.37-14.37A12.43,12.43,0,0,0,233.41,142.09ZM8.58,85.7,85.77,8.49a5.56,5.56,0,0,1,3.93-1L195.08,35.76a5.1,5.1,0,0,1,2.9,2.93c.65,2.42,3,11.23,5.25,19.58l20.9,77.93c1,3.68,1.76,6.6,2.13,7.93a5.46,5.46,0,0,1-1.11,3.9L148,225.23a5.38,5.38,0,0,1-3.93,1l-2.74-.73L124.43,221l-85.8-23a4.55,4.55,0,0,1-1.74-1.15,4.65,4.65,0,0,1-1.16-1.77c-.51-1.94-2.13-8-3.9-14.59L12.75,109.29c-2-7.4-4.07-15.18-5-18.53l.12,0-.49-1.36A5.73,5.73,0,0,1,8.58,85.7Z"/>
        </g>
    </g>
</svg>