<svg width="142" height="40" viewBox="0 0 142 40" fill="none" xmlns="http://www.w3.org/2000/svg">
<g clip-path="url(#clip0_1838_832)">
<path fill-rule="evenodd" clip-rule="evenodd" d="M39.6505 23.42C39.7619 23.8367 39.8477 24.1576 39.8905 24.3157C39.9676 24.6521 39.9618 25.0021 39.8737 25.3358C39.7856 25.6694 39.6177 25.9765 39.3846 26.2307C39.0787 26.5387 37.9763 27.6425 36.9287 28.6899L28.6534 36.9778L26.2009 39.4335C25.9487 39.6685 25.6428 39.8381 25.3101 39.9276C24.9773 40.0171 24.6278 40.0237 24.2919 39.9469L23.733 39.7963L20.9387 39.0485L9.14625 35.886L6.27332 35.1142C5.94341 35.0119 5.64336 34.8307 5.39916 34.5862C5.15496 34.3417 4.97398 34.0412 4.87189 33.7109C4.80657 33.4656 4.63578 32.8278 4.42724 32.049C4.28661 31.5238 4.12883 30.9346 3.97464 30.3584L0.0967905 15.8635L0.00621051 15.4973H0.019883C-0.0229369 15.1869 0.00360357 14.8708 0.0975888 14.5719C0.191574 14.273 0.35066 13.9987 0.563363 13.7688L13.747 0.566004C13.9992 0.331427 14.3047 0.162047 14.6371 0.0725761C14.9695 -0.0168945 15.3187 -0.023749 15.6543 0.052608L19.0075 0.952763L30.3146 3.99036L33.661 4.88709C33.9913 4.98894 34.2917 5.17001 34.5362 5.41457C34.7808 5.65912 34.962 5.95976 35.0641 6.29037C35.1752 6.7028 35.5785 8.21047 35.9613 9.64456L38.9915 20.9632C39.2291 21.8442 39.4724 22.7543 39.6505 23.42ZM14.658 1.45247L1.46574 14.6656C1.32574 14.8462 1.2532 15.0702 1.26066 15.2988L1.3444 15.5315H1.32389C1.42058 15.8802 1.58935 16.5095 1.78367 17.234C1.9088 17.7005 2.04453 18.2065 2.17842 18.7026L5.4393 30.8872C5.7418 32.0149 6.01867 33.052 6.10583 33.384C6.14779 33.4989 6.21563 33.6025 6.30408 33.6869C6.38665 33.7747 6.48845 33.8421 6.60146 33.8837L21.2652 37.8198L24.1535 38.5898L24.6218 38.7148C24.8594 38.7476 25.1004 38.6862 25.2934 38.5436L38.4788 25.3322C38.6252 25.1424 38.6932 24.9034 38.6685 24.6648C38.6387 24.5576 38.5942 24.3901 38.5375 24.1771C38.4738 23.9378 38.3949 23.641 38.3045 23.3077L34.7325 9.97142C34.4583 8.95253 34.1755 7.89362 33.9954 7.21964C33.923 6.9484 33.8672 6.7395 33.8353 6.62066C33.7921 6.50714 33.7257 6.40391 33.6403 6.31757C33.555 6.23123 33.4526 6.16368 33.3397 6.11924L15.3296 1.28134C15.0922 1.25168 14.8523 1.31279 14.658 1.45247ZM141.441 4.93058C141.61 5.02719 141.751 5.16715 141.849 5.33617C141.95 5.51129 142.002 5.71057 141.999 5.91288C142.002 6.11221 141.95 6.30848 141.851 6.48104C141.753 6.65062 141.611 6.78982 141.439 6.8832C141.259 6.98109 141.057 7.03117 140.853 7.02866C140.65 7.03131 140.451 6.98118 140.273 6.8832C140.102 6.78883 139.96 6.64986 139.861 6.48104C139.76 6.30895 139.708 6.11246 139.711 5.91288C139.709 5.7117 139.761 5.51361 139.861 5.33959C139.959 5.16792 140.102 5.02644 140.275 4.93058C140.454 4.83397 140.653 4.78339 140.856 4.78339C141.059 4.78339 141.259 4.83397 141.437 4.93058H141.441ZM141.3 6.67613C141.428 6.6041 141.532 6.49804 141.603 6.3698C141.676 6.23132 141.713 6.07646 141.711 5.91973C141.714 5.76075 141.677 5.60353 141.603 5.4628C141.533 5.33273 141.428 5.22484 141.3 5.15134C141.165 5.07466 141.012 5.03567 140.856 5.0384C140.703 5.03636 140.553 5.07537 140.42 5.15134C140.292 5.2253 140.187 5.33304 140.116 5.4628C140.042 5.60338 140.004 5.7606 140.007 5.91973C140.005 6.0766 140.042 6.23145 140.116 6.3698C140.187 6.49766 140.292 6.6036 140.419 6.67613C140.552 6.75121 140.703 6.78903 140.856 6.78565C141.011 6.78869 141.164 6.75093 141.3 6.67613ZM141.263 5.86667C141.212 5.92452 141.145 5.96714 141.071 5.98989L141.391 6.48104H141.068L140.813 6.04123H140.714V6.48104H140.434V5.29509H140.776C141.143 5.29509 141.328 5.41489 141.328 5.65789C141.331 5.73086 141.308 5.80263 141.263 5.85983V5.86667ZM140.714 5.82047H140.839C140.979 5.82047 141.051 5.76571 141.051 5.65961C141.051 5.5535 140.977 5.5073 140.834 5.5073H140.714V5.82047ZM60.5399 12.9503C60.5388 11.4238 60.1178 10.2345 59.2769 9.38222C58.4338 8.52884 57.2539 8.10215 55.7374 8.10215C53.6911 8.10101 51.9747 8.94413 50.5881 10.6315L50.2702 8.55223H46.7188V24.4812H50.8205V13.4004C51.2639 12.7141 51.8211 12.1088 52.468 11.6104C53.0155 11.2052 53.6792 10.9885 54.3599 10.9926C55.0413 10.9914 55.558 11.182 55.9101 11.5642C56.2621 11.9464 56.4382 12.6086 56.4382 13.551V24.4812H60.5399V12.9503ZM67.2473 17.7061H77.8674C77.9307 16.8624 77.9631 16.3422 77.9631 16.1402C77.962 13.6109 77.3114 11.6389 76.0114 10.2242C74.7114 8.8095 72.8775 8.10215 70.5099 8.10215C68.9536 8.10215 67.6102 8.46838 66.48 9.20082C65.3416 9.94322 64.4419 10.9993 63.889 12.2418C63.2751 13.6193 62.9695 15.1146 62.9935 16.6228C62.9958 19.1989 63.6954 21.2286 65.0922 22.7117C66.4891 24.1948 68.4779 24.9364 71.0585 24.9364C73.3287 24.948 75.5367 24.1946 77.3274 22.7973L75.632 20.5999C74.9728 21.0381 74.2643 21.3971 73.5213 21.6695C72.8415 21.9021 72.1273 22.0178 71.4089 22.0118C70.2171 22.0175 69.2578 21.6866 68.5308 21.0192C67.8039 20.3518 67.3761 19.2474 67.2473 17.7061ZM70.6056 10.842C72.8024 10.842 73.9007 12.2367 73.9007 15.0262V15.2076H67.2473C67.3544 13.6822 67.6906 12.5733 68.2557 11.8808C68.8208 11.1882 69.6041 10.842 70.6056 10.842ZM92.1951 10.0015L90.5955 12.2604C89.1439 11.3979 87.726 10.9661 86.3416 10.965C85.5315 10.965 84.9026 11.1121 84.4617 11.4014C84.2571 11.5178 84.0871 11.6866 83.9691 11.8905C83.851 12.0944 83.7892 12.326 83.79 12.5616C83.7784 12.887 83.8799 13.2064 84.0771 13.4652C84.2685 13.7048 84.6155 13.933 85.1179 14.1497C85.8422 14.4345 86.5844 14.6712 87.3397 14.8582C89.1741 15.3203 90.5339 15.9324 91.4192 16.6945C92.3045 17.4566 92.7466 18.5205 92.7455 19.8861C92.7455 21.4731 92.0618 22.7126 90.6946 23.6048C89.3273 24.497 87.632 24.9436 85.6084 24.9448C84.32 24.9599 83.0382 24.7562 81.8177 24.3424C80.7391 23.9753 79.7365 23.4139 78.8594 22.6858L80.9102 20.5176C82.3778 21.5558 83.9108 22.0749 85.5093 22.0749C86.4277 22.0749 87.1586 21.9037 87.702 21.5615C87.9531 21.4215 88.1615 21.216 88.3051 20.9667C88.4487 20.7175 88.522 20.4339 88.5173 20.1462C88.5374 19.7567 88.4306 19.3711 88.213 19.0475C88.0102 18.7772 87.6479 18.5364 87.1261 18.3254C86.3245 18.0259 85.5076 17.7694 84.6787 17.557C82.9514 17.1155 81.6827 16.4982 80.8726 15.7053C80.475 15.3229 80.1615 14.8616 79.9519 14.3509C79.7424 13.8403 79.6416 13.2915 79.6558 12.7396C79.649 11.8769 79.9366 11.0377 80.471 10.3609C81.0778 9.61341 81.8733 9.04206 82.7748 8.70603C83.8607 8.28702 85.0174 8.08246 86.181 8.10365C88.4631 8.10479 90.4679 8.7374 92.1951 10.0015ZM105.235 12.2588L106.835 9.99981C105.106 8.73571 103.102 8.10366 100.822 8.10366C99.6585 8.08235 98.5018 8.28691 97.4159 8.70605C96.5133 9.04091 95.717 9.61245 95.1104 10.3609C94.576 11.0377 94.2884 11.8769 94.2952 12.7396C94.2811 13.2913 94.3818 13.84 94.591 14.3506C94.8002 14.8612 95.1133 15.3226 95.5103 15.7054C96.325 16.4983 97.5937 17.1155 99.3164 17.557C100.145 17.7692 100.962 18.0257 101.764 18.3254C102.283 18.5422 102.646 18.7823 102.852 19.0458C103.071 19.369 103.178 19.7549 103.157 20.1445C103.161 20.4322 103.088 20.7158 102.944 20.965C102.801 21.2143 102.592 21.4198 102.341 21.5598C101.792 21.902 101.062 22.0732 100.15 22.0732C98.5553 22.0732 97.0189 21.5541 95.5411 20.5159L93.4902 22.6841C94.3671 23.4125 95.3698 23.974 96.4486 24.3407C97.6691 24.7547 98.9508 24.9583 100.239 24.9431C102.263 24.9419 103.958 24.4953 105.325 23.6031C106.693 22.7109 107.376 21.4714 107.376 19.8844C107.375 18.5188 106.933 17.4549 106.048 16.6928C105.164 15.9307 103.805 15.3186 101.971 14.8565C101.215 14.6694 100.473 14.4327 99.7488 14.148C99.2475 13.9313 98.9011 13.7031 98.7097 13.4635C98.5112 13.2052 98.409 12.8856 98.4209 12.5599C98.4201 12.3243 98.4819 12.0927 98.5999 11.8888C98.7179 11.6849 98.8879 11.5161 99.0925 11.3997C99.5403 11.1105 100.169 10.9633 100.981 10.9633C102.364 10.9644 103.782 11.3962 105.235 12.2588ZM123.121 24.483H119.57L119.346 22.2583C118.793 23.1017 118.041 23.7945 117.155 24.2742C116.227 24.736 115.2 24.9639 114.164 24.9382C112.65 24.9382 111.482 24.5012 110.662 23.6273C109.842 22.7534 109.431 21.5441 109.43 19.9993V8.554H113.531V19.5065C113.531 20.41 113.697 21.0524 114.027 21.4334C114.357 21.8145 114.885 22.005 115.61 22.005C116.911 22.005 118.05 21.252 119.028 19.746V8.554H123.129L123.121 24.483ZM136.662 12.2588L138.262 9.99981C136.53 8.73571 134.524 8.10366 132.246 8.10366C131.082 8.08235 129.925 8.28691 128.84 8.70605C127.937 9.04118 127.142 9.6127 126.536 10.3609C126.001 11.0377 125.714 11.8769 125.72 12.7396C125.706 13.2913 125.807 13.84 126.016 14.3506C126.226 14.8612 126.539 15.3226 126.936 15.7054C127.746 16.4983 129.014 17.1155 130.742 17.557C131.577 17.7708 132.399 18.0296 133.206 18.3322C133.729 18.5433 134.091 18.784 134.293 19.0544C134.512 19.3776 134.618 19.7634 134.597 20.1531C134.602 20.4408 134.529 20.7243 134.385 20.9736C134.242 21.2228 134.033 21.4284 133.782 21.5683C133.233 21.9106 132.503 22.0817 131.591 22.0817C129.985 22.0829 128.446 21.5609 126.977 20.5159L124.926 22.6841C125.802 23.4129 126.805 23.9743 127.884 24.3407C129.105 24.7547 130.386 24.9583 131.675 24.9431C133.698 24.9419 135.394 24.4953 136.761 23.6031C138.128 22.7109 138.812 21.4714 138.812 19.8844C138.813 18.5188 138.371 17.4549 137.486 16.6928C136.6 15.9307 135.241 15.3186 133.406 14.8565C132.651 14.6695 131.909 14.4328 131.184 14.148C130.684 13.9313 130.337 13.7031 130.144 13.4635C129.946 13.2047 129.845 12.8853 129.856 12.5599C129.856 12.3243 129.917 12.0927 130.035 11.8888C130.153 11.6849 130.323 11.5161 130.528 11.3997C130.969 11.1105 131.598 10.9633 132.408 10.9633C133.795 10.9644 135.213 11.3962 136.662 12.2588ZM51.9046 33.3724C51.9057 32.446 51.5804 31.7484 50.9287 31.2795C50.2793 30.8117 49.3632 30.5778 48.1805 30.5778H45.6562V39.6153H46.9808V36.2971H48.1942C49.3005 36.2971 50.1955 36.0563 50.8791 35.5749C51.5628 35.0934 51.9046 34.3593 51.9046 33.3724ZM50.4963 33.3844C50.4963 34.1117 50.2946 34.6131 49.8896 34.8938H49.893C49.4897 35.1733 48.9012 35.3131 48.1275 35.3131H46.9705V31.5482H48.1549C48.9069 31.5482 49.4851 31.6925 49.8896 31.9811C50.2941 32.2698 50.4963 32.7375 50.4963 33.3844ZM57.1537 32.6278L56.9162 33.8086C56.7064 33.7574 56.4913 33.7309 56.2753 33.7299C56.0684 33.7222 55.8623 33.7606 55.672 33.8423C55.4816 33.924 55.3118 34.0469 55.1746 34.2022C54.8966 34.5171 54.6784 35.0066 54.5201 35.6706V39.6186H53.2383V32.7065H54.3458L54.4705 34.1098C54.6234 33.6551 54.8983 33.2513 55.2652 32.9427C55.5988 32.6809 56.0122 32.542 56.4359 32.5491C56.6774 32.5475 56.9183 32.5739 57.1537 32.6278ZM64.2607 36.1577C64.2607 35.0464 63.9758 34.1674 63.4062 33.5205C62.8308 32.8736 62.0287 32.5502 60.9998 32.5502C60.3791 32.5325 59.7658 32.689 59.2292 33.002C58.7361 33.3058 58.3437 33.7488 58.1012 34.2752C57.8305 34.8699 57.6967 35.5179 57.7099 36.1713C57.711 37.2814 57.9993 38.1599 58.5747 38.8068C59.15 39.4537 59.9539 39.7771 60.9861 39.7771C61.6018 39.7933 62.2098 39.6368 62.7413 39.3253C63.2351 39.0223 63.6278 38.5791 63.8693 38.0521C64.1407 37.4582 64.2745 36.8106 64.2607 36.1577ZM60.9878 38.8068C59.7243 38.8056 59.0925 37.9272 59.0925 36.1713H59.0874C59.0874 34.4041 59.7254 33.5205 61.0015 33.5205C62.2548 33.5205 62.8815 34.3996 62.8815 36.1577C62.8826 37.9249 62.2514 38.8079 60.9878 38.8068ZM67.7306 30.989C67.6397 31.0908 67.5706 31.2101 67.5274 31.3396C67.4842 31.469 67.4678 31.606 67.4794 31.742V32.7003H69.2636L69.1235 33.6313H67.4794V39.6124H66.1976V33.6313H64.8867V32.7003H66.1976V31.7557C66.1872 31.4866 66.236 31.2185 66.3406 30.9704C66.4451 30.7223 66.6028 30.5002 66.8026 30.3199C67.2082 29.9571 67.7727 29.7757 68.4962 29.7757C68.798 29.7722 69.0993 29.8003 69.3952 29.8595C69.6868 29.926 69.9725 30.0159 70.2497 30.1282L69.8464 31.0078C69.4408 30.836 69.005 30.747 68.5646 30.746C68.1767 30.746 67.8964 30.8264 67.7306 30.989ZM71.1967 36.5764H75.8795C75.8932 36.3659 75.9017 36.1605 75.9086 35.9603C75.9097 34.8936 75.6499 34.0584 75.1292 33.4549C74.6085 32.8514 73.8605 32.5496 72.8852 32.5496C72.3084 32.536 71.7414 32.7009 71.2616 33.0219C70.7922 33.3481 70.4247 33.8008 70.202 34.3277C69.9463 34.9307 69.8205 35.5809 69.8329 36.2358C69.8329 37.3368 70.1177 38.2021 70.6874 38.8319C71.2571 39.4617 72.0546 39.7765 73.0801 39.7765C74.0064 39.778 74.9074 39.4736 75.6436 38.9106L75.0865 38.1901C74.7968 38.3833 74.4831 38.5375 74.1534 38.6488C73.8375 38.7473 73.5083 38.7958 73.1775 38.7925C72.9249 38.8025 72.6729 38.7598 72.4376 38.6673C72.2023 38.5749 71.9887 38.4345 71.8102 38.2552C71.457 37.8969 71.2525 37.3373 71.1967 36.5764ZM74.2012 34.0419C74.4895 34.3979 74.6336 34.9181 74.6336 35.6026L74.6387 35.6813H71.1967C71.2844 34.229 71.8541 33.5028 72.9057 33.5028C73.4811 33.5063 73.9129 33.6859 74.2012 34.0419ZM81.0995 32.7461C81.5092 32.8816 81.8951 33.0808 82.2429 33.3365L81.6926 34.0963C81.3921 33.912 81.0716 33.7627 80.7372 33.6514C80.4282 33.5539 80.1059 33.5048 79.7819 33.5059C79.4354 33.4882 79.0913 33.5727 78.7923 33.7489C78.6834 33.8194 78.5943 33.9166 78.5335 34.0314C78.4728 34.1461 78.4425 34.2745 78.4454 34.4044C78.4411 34.5338 78.4703 34.6622 78.5302 34.7771C78.5901 34.8919 78.6786 34.9893 78.7872 35.0598C79.0145 35.2189 79.4264 35.3712 80.0211 35.5201C80.8381 35.7118 81.4488 35.9742 81.8532 36.3073C82.0537 36.4726 82.2129 36.6824 82.3183 36.92C82.4236 37.1577 82.4721 37.4167 82.46 37.6764C82.4724 37.9885 82.4005 38.2982 82.2519 38.5729C82.1034 38.8476 81.8836 39.077 81.6157 39.2371C80.9982 39.6107 80.2859 39.7973 79.5648 39.7745C78.4482 39.7745 77.5236 39.4727 76.791 38.8692L77.4746 38.135C78.073 38.5735 78.7961 38.808 79.5375 38.8042C79.9403 38.8253 80.3403 38.7271 80.6877 38.5218C80.8199 38.443 80.9289 38.3305 81.0036 38.1959C81.0784 38.0612 81.1162 37.9091 81.1132 37.7551C81.1228 37.5532 81.069 37.3533 80.9594 37.1835C80.8197 37.012 80.6368 36.8808 80.4296 36.8036C80.0719 36.6617 79.704 36.5473 79.329 36.4614C78.5485 36.2697 77.9839 36.0119 77.6353 35.6878C77.4647 35.5318 77.3297 35.3409 77.2395 35.128C77.1493 34.9151 77.1059 34.6852 77.1123 34.454C77.1115 34.0987 77.2321 33.7539 77.4541 33.4768C77.7026 33.1669 78.0304 32.9303 78.4027 32.7923C78.8357 32.6246 79.2971 32.5421 79.7614 32.5493C80.215 32.5441 80.6666 32.6105 81.0995 32.7461ZM88.6892 33.3349C88.3416 33.079 87.9557 32.8797 87.5458 32.7445C87.1073 32.6077 86.6498 32.5419 86.1906 32.5494C85.7263 32.5423 85.265 32.6248 84.8319 32.7924C84.4604 32.9309 84.1332 33.1675 83.885 33.477C83.6619 33.7534 83.5411 34.0987 83.5432 34.4541C83.5368 34.6853 83.5802 34.9152 83.6704 35.1281C83.7607 35.341 83.8957 35.532 84.0662 35.688C84.4148 36.0114 84.9771 36.2698 85.7582 36.4615C86.1332 36.5475 86.5011 36.6619 86.8588 36.8038C87.066 36.881 87.2489 37.0121 87.3886 37.1837C87.4982 37.3535 87.552 37.5533 87.5424 37.7553C87.5454 37.9093 87.5076 38.0614 87.4328 38.196C87.3581 38.3307 87.2491 38.4431 87.1169 38.5219C86.7695 38.7273 86.3695 38.8255 85.9667 38.8043C85.2293 38.8078 84.5101 38.5752 83.9141 38.1403L83.2305 38.8745C83.9642 39.478 84.8888 39.7798 86.0043 39.7798C86.7253 39.8023 87.4375 39.6157 88.0551 39.2424C88.3227 39.0821 88.5422 38.8525 88.6904 38.5779C88.8387 38.3032 88.9103 37.9936 88.8977 37.6817C88.9101 37.4219 88.8617 37.1629 88.7564 36.9252C88.651 36.6875 88.4917 36.4777 88.291 36.3126C87.8865 35.9795 87.2758 35.7171 86.4589 35.5254C86.0254 35.4399 85.6086 35.2844 85.2249 35.0651C85.1164 34.9946 85.0278 34.8972 84.9679 34.7824C84.908 34.6675 84.8788 34.5391 84.8831 34.4096C84.8806 34.2772 84.9128 34.1464 84.9763 34.0302C85.0399 33.9141 85.1326 33.8165 85.2454 33.7474C85.5444 33.5711 85.8885 33.4866 86.235 33.5043C86.559 33.5033 86.8813 33.5524 87.1904 33.6498C87.5248 33.7608 87.8454 33.9101 88.1457 34.0948L88.6892 33.3349ZM91.5821 29.623C91.6636 29.6974 91.7282 29.7885 91.7716 29.8901C91.8149 29.9916 91.836 30.1013 91.8334 30.2117C91.8364 30.3217 91.8155 30.431 91.7721 30.5321C91.7287 30.6331 91.6639 30.7235 91.5821 30.797C91.4012 30.9543 91.167 31.0364 90.9276 31.0263C90.6924 31.0356 90.4627 30.9535 90.2867 30.797C90.2049 30.7235 90.1401 30.6331 90.0967 30.5321C90.0533 30.431 90.0324 30.3217 90.0354 30.2117C90.0328 30.1013 90.0539 29.9916 90.0972 29.8901C90.1406 29.7885 90.2052 29.6974 90.2867 29.623C90.3726 29.5432 90.4735 29.4812 90.5835 29.4407C90.6935 29.4002 90.8105 29.3819 90.9276 29.3869C91.1684 29.3757 91.4038 29.4607 91.5821 29.623ZM91.5821 32.7034V39.6154H90.3003V32.7051L91.5821 32.7034ZM99.7823 36.1577C99.7823 35.0464 99.4974 34.1674 98.9277 33.5205C98.3558 32.8736 97.5537 32.5502 96.5214 32.5502C95.9007 32.5325 95.2874 32.689 94.7508 33.002C94.2578 33.3058 93.8653 33.7488 93.6228 34.2752C93.3513 34.8696 93.2175 35.5178 93.2315 36.1713C93.2269 37.2814 93.5152 38.1599 94.0962 38.8068C94.6773 39.4537 95.4806 39.7771 96.506 39.7771C97.1223 39.7935 97.7308 39.637 98.2629 39.3253C98.7567 39.0223 99.1494 38.5791 99.3909 38.0521C99.6615 37.458 99.7952 36.8105 99.7823 36.1577ZM96.5094 38.8068C95.2459 38.8056 94.6141 37.9272 94.6141 36.1713C94.6152 34.4041 95.2521 33.5205 96.5248 33.5205C97.7781 33.5205 98.4048 34.3996 98.4048 36.1577C98.4048 37.9249 97.773 38.8079 96.5094 38.8068ZM106.473 33.1086C106.849 33.4851 107.038 34.0014 107.039 34.6574V39.6202H105.755V34.8285C105.755 34.3374 105.658 33.9934 105.463 33.7915C105.348 33.6846 105.211 33.6027 105.063 33.5509C104.914 33.4991 104.757 33.4784 104.6 33.4903C104.234 33.4846 103.875 33.5948 103.575 33.8051C103.242 34.0521 102.959 34.3591 102.739 34.7104V39.6151H101.457V32.7031H102.558L102.669 33.7298C102.92 33.3694 103.252 33.0729 103.638 32.8639C104.029 32.6521 104.468 32.5437 104.913 32.549C105.578 32.5467 106.098 32.7333 106.473 33.1086ZM114.736 38.9241C114.555 38.8701 114.394 38.7628 114.275 38.6161C114.161 38.4257 114.112 38.2036 114.135 37.9829V34.8204C114.135 34.0862 113.923 33.5215 113.494 33.1227C113.065 32.724 112.42 32.5255 111.556 32.5255C110.69 32.5409 109.833 32.7006 109.019 32.9978L109.339 33.8757C109.977 33.6565 110.644 33.5331 111.318 33.5095C111.839 33.5095 112.224 33.6156 112.475 33.8244C112.726 34.0331 112.851 34.384 112.851 34.8734V35.3868H111.723C110.689 35.3868 109.891 35.5836 109.33 35.9772C109.088 36.1602 108.887 36.3934 108.742 36.6609C108.597 36.9284 108.512 37.224 108.491 37.5276C108.471 37.8312 108.516 38.1357 108.623 38.4203C108.73 38.705 108.898 38.9632 109.113 39.1774C109.528 39.5619 110.098 39.7541 110.822 39.7541C111.789 39.7541 112.518 39.4118 113.01 38.7273C113.095 39.0221 113.275 39.2803 113.523 39.4615C113.801 39.6338 114.116 39.7371 114.442 39.7626L114.736 38.9241ZM112.839 36.1945V37.7826C112.422 38.498 111.844 38.8574 111.111 38.8574C110.94 38.87 110.769 38.8488 110.606 38.7947C110.444 38.7407 110.294 38.6549 110.164 38.5425C110.05 38.4174 109.963 38.2703 109.908 38.1102C109.853 37.9501 109.831 37.7804 109.843 37.6115C109.843 36.6669 110.522 36.1945 111.879 36.1945H112.839ZM116.586 39.3691C116.444 39.2208 116.334 39.0446 116.263 38.8517C116.193 38.6588 116.162 38.4533 116.175 38.2482V29.9192L117.456 29.7754V38.2225C117.444 38.3701 117.482 38.5176 117.562 38.6418C117.607 38.6894 117.663 38.726 117.724 38.7489C117.785 38.7717 117.851 38.7802 117.916 38.7735C118.078 38.7757 118.239 38.749 118.391 38.6948L118.733 39.5334C118.415 39.6944 118.063 39.7754 117.708 39.7695C117.503 39.7807 117.299 39.7511 117.107 39.6823C116.914 39.6135 116.737 39.5071 116.586 39.3691Z" fill="#222222"/>
</g>
<defs>
<clipPath id="clip0_1838_832">
<rect width="142" height="40" fill="white"/>
</clipPath>
</defs>
</svg>
