<svg width="95" height="40" viewBox="0 0 95 40" fill="none" xmlns="http://www.w3.org/2000/svg">
<g clip-path="url(#clip0_1838_826)">
<path d="M0 0.0184725C0.0687635 0.0184725 0.139385 0.0129242 0.208149 0.0129242C3.46977 0.0129242 6.73139 0.0129242 9.99301 0.0129242C9.99858 0.0129242 10.006 0.0129242 10.0116 0.0129242C10.1621 -0.0111183 10.2458 0.0499127 10.3182 0.190469C10.8572 1.24464 11.4073 2.29511 11.9537 3.34558C14.2935 7.83968 16.6389 12.3319 18.9713 16.8297C20.3391 19.4651 21.627 22.1376 22.77 24.8784C23.0674 25.5941 23.348 26.3154 23.636 27.0348C23.6844 27.155 23.7401 27.2623 23.8962 27.3104C23.9037 27.2327 23.9185 27.168 23.9148 27.1033C23.8944 26.6945 23.8721 26.2858 23.8461 25.8789C23.8312 25.6404 23.8015 25.4018 23.7866 25.1632C23.755 24.5973 23.7271 24.0314 23.7011 23.4654C23.6788 23.0068 23.6584 22.5463 23.6435 22.0876C23.6119 21.1629 23.5822 20.2364 23.5561 19.3116C23.5394 18.7272 23.5208 18.141 23.519 17.5547C23.5152 11.803 23.5152 6.05314 23.5134 0.301434C23.5134 0.214511 23.5134 0.127588 23.5134 0.0443644C23.6732 0.00367712 31.3859 -0.00187115 31.581 0.0369667V38.8656C31.4862 38.8693 31.4082 38.8748 31.3283 38.8748C30.0608 38.873 28.7952 38.8674 27.5277 38.8674C25.6283 38.8674 23.7271 38.8693 21.8278 38.8785C21.6661 38.8785 21.5824 38.8304 21.5081 38.688C19.0791 34.0478 16.6463 29.4095 14.2155 24.7711C13.3457 23.1141 12.4666 21.4607 11.6693 19.7666C10.2941 16.8464 9.07492 13.8614 7.90966 10.8542C7.86382 10.7371 7.77337 10.6539 7.63832 10.6046C7.63832 10.6748 7.6346 10.7414 7.63832 10.8062C7.67735 11.3203 7.71638 11.8363 7.75726 12.3504C7.80187 12.9219 7.85762 13.4915 7.88921 14.0648C7.9524 15.1967 8.01931 16.3285 8.05648 17.4604C8.0955 18.668 8.08621 19.8794 8.12896 21.0871C8.23303 24.0147 8.16427 26.9442 8.17728 29.8718C8.19029 32.7939 8.18099 35.7179 8.18099 38.64C8.18099 38.7084 8.18099 38.775 8.18099 38.8656H0V0.0184725Z" fill="#212121"/>
<path d="M48.3368 40C48.0543 39.9741 47.7718 39.9445 47.4893 39.9242C44.0641 39.6708 40.8471 38.7553 37.9182 36.93C37.1859 36.4732 36.5039 35.9535 35.8906 35.3469C35.8423 35.2988 35.7958 35.247 35.7363 35.186C37.3625 32.8557 38.9422 30.5032 40.6204 28.1933C40.6892 28.2617 40.7412 28.3135 40.7932 28.3671C41.9195 29.5138 43.1702 30.4995 44.5827 31.28C45.8892 32.0012 47.27 32.5117 48.7512 32.7318C49.9499 32.9112 51.1486 32.9186 52.3362 32.6319C52.9904 32.4747 53.5907 32.1991 54.1203 31.783C54.8935 31.1783 55.3153 30.3812 55.4138 29.4121C55.5142 28.4171 55.1536 27.5867 54.4865 26.8673C54.0311 26.3772 53.4922 25.9925 52.9235 25.6448C51.9385 25.0456 50.8977 24.5573 49.8459 24.0894C48.517 23.4995 47.1845 22.9169 45.8669 22.3066C44.6031 21.7222 43.3839 21.0527 42.2447 20.25C41.2671 19.5639 40.3732 18.7834 39.6131 17.8643C38.4906 16.5049 37.7974 14.9459 37.5446 13.2074C37.2547 11.223 37.4424 9.29035 38.2378 7.43168C38.9812 5.68952 40.1167 4.24697 41.6054 3.07629C43.1293 1.87971 44.8503 1.08261 46.718 0.586965C47.6306 0.34469 48.5579 0.174543 49.5002 0.109814C50.1878 0.0635782 50.8736 -0.0307424 51.5649 0.00994492C51.7675 0.0210414 51.9682 0.0395357 52.1708 0.0561805C52.7376 0.104265 53.3082 0.132007 53.8713 0.207833C56.4527 0.557374 58.8669 1.37112 61.0283 2.85066C61.5561 3.21129 62.0616 3.60152 62.5095 4.05833C62.6935 4.24697 62.8607 4.45226 63.0447 4.66124C61.3089 6.78623 59.5359 8.84463 57.7611 10.9289C57.7072 10.8679 57.6626 10.818 57.6217 10.768C56.5568 9.47714 55.2596 8.49879 53.6855 7.89588C52.9365 7.60922 52.1578 7.45017 51.3605 7.37619C50.7026 7.31516 50.0466 7.30961 49.3905 7.41688C48.6936 7.53154 48.0524 7.77567 47.467 8.17699C46.2534 9.00923 45.5472 10.9086 46.627 12.5361C46.9373 13.004 47.3295 13.3942 47.7718 13.7364C48.3981 14.2228 49.082 14.6167 49.7864 14.9792C50.8885 15.5469 52.0314 16.0259 53.1632 16.5271C54.4288 17.0875 55.6945 17.6479 56.9173 18.3007C58.0176 18.8888 59.0787 19.5361 60.0526 20.3203C61.2253 21.2654 62.2158 22.3676 62.9295 23.6992C63.4276 24.6313 63.7361 25.6263 63.9145 26.662C64.0725 27.5793 64.1133 28.5021 64.026 29.4287C63.8364 31.4279 63.1376 33.2293 61.9111 34.8272C60.7867 36.2919 59.3687 37.396 57.7183 38.2172C56.3096 38.9181 54.8228 39.3749 53.2766 39.6542C52.3213 39.8262 51.3587 39.9112 50.3904 39.9649C50.316 39.9686 50.2417 39.9852 50.1674 39.9963H48.3442L48.3368 40Z" fill="#212121"/>
<path d="M82.7583 38.9356H74.6405C74.6386 38.8524 74.6349 38.7747 74.6349 38.6952C74.6349 36.7108 74.6349 34.7263 74.6349 32.7437C74.6386 28.0647 74.6405 23.3838 74.6479 18.7048C74.6479 17.9687 74.6479 17.2308 74.6851 16.4947C74.7613 15.0152 74.791 13.5375 74.804 12.0561C74.8096 11.4828 74.8561 10.9113 74.8858 10.3398C74.9081 9.91817 74.9174 9.49836 74.8691 9.04525C74.7929 9.09148 74.7353 9.12292 74.6814 9.15991C73.6796 9.822 72.6798 10.4859 71.6762 11.1462C71.2599 11.4199 70.8362 11.6862 70.3994 11.9655C69.3048 9.77577 68.2157 7.599 67.1211 5.41298C67.1806 5.3686 67.2363 5.32791 67.2921 5.28907C69.5241 3.75035 71.758 2.21348 73.99 0.674762C74.1257 0.582291 74.2595 0.486121 74.3933 0.3918C74.5048 0.314125 74.6275 0.273438 74.7669 0.273438C77.3446 0.277136 79.9222 0.278986 82.5 0.280835C82.5817 0.280835 82.6616 0.280835 82.7564 0.280835V38.9393L82.7583 38.9356Z" fill="#212121"/>
<path d="M94.995 34.6002C95.0675 36.3424 93.9041 38.4433 91.4788 38.9778C90.3135 39.2348 89.1817 39.1146 88.1316 38.5413C86.8642 37.8496 86.1133 36.7714 85.8922 35.3492C85.697 34.1027 85.9461 32.9394 86.6616 31.8963C87.366 30.8681 88.3491 30.2393 89.5887 30.0488C90.6257 29.8897 91.633 30.0192 92.5753 30.5056C93.7182 31.0955 94.4337 32.0332 94.8054 33.2446C94.9448 33.6995 95.021 34.1637 94.995 34.6002Z" fill="#EF1A6F"/>
</g>
<defs>
<clipPath id="clip0_1838_826">
<rect width="95" height="40" fill="white"/>
</clipPath>
</defs>
</svg>
