<svg width="151" height="50" viewBox="0 0 151 50" fill="none" xmlns="http://www.w3.org/2000/svg">
<g clip-path="url(#clip0_1838_854)">
<path fill-rule="evenodd" clip-rule="evenodd" d="M26.522 0.249361C23.9486 -0.416599 23.2744 0.191808 23.4389 2.7981C23.469 3.29793 23.5263 3.79551 23.5834 4.29202V4.29203V4.29205V4.29206V4.29207V4.29209V4.2921C23.6353 4.74293 23.6871 5.19287 23.7184 5.64281C23.7232 5.71479 23.7348 5.79797 23.7471 5.88551C23.7978 6.24795 23.859 6.68515 23.4882 6.71164C22.2529 6.80715 22.3886 7.48955 22.5164 8.13241C22.5536 8.31958 22.5902 8.5034 22.592 8.66841C22.5972 9.31621 22.6722 9.96069 22.7472 10.6061C22.7903 10.9764 22.8334 11.347 22.8633 11.7187C22.8699 11.7927 22.8754 11.8673 22.8809 11.9415C22.9367 12.7001 22.9896 13.4197 24.1953 13.0753C24.4389 13.0073 24.7205 13.0335 24.9999 13.0595C25.7011 13.1246 26.3881 13.1884 26.4233 11.7598C26.4691 9.67694 26.6822 7.60207 26.8989 5.49082C26.9936 4.56853 27.089 3.6393 27.1715 2.69943C26.9886 2.42816 27.0888 2.06611 27.1904 1.69919C27.3536 1.10977 27.5203 0.507793 26.522 0.249361ZM120.25 32.6819H120.25H120.25C120.341 32.6846 120.432 32.6873 120.522 32.6873H120.514C122.026 32.6873 122.783 32.6873 123.141 33.065C123.5 33.4431 123.46 34.1995 123.38 35.713L123.375 35.8116C123.334 36.6255 123.211 37.0859 122.249 37.0366C121.558 37.0041 120.867 37.0065 120.175 37.009H120.175H120.175H120.175H120.175H120.175H120.174H120.174H120.174H120.174H120.174H120.174H120.174H120.174H120.174H120.173H120.173H120.173H120.173H120.173C119.292 37.0121 118.412 37.0152 117.538 36.9462C114.446 36.6995 112.818 35.1374 112.712 31.9474C112.614 28.9929 112.637 26.0345 112.659 23.0777V23.0768V23.0759V23.075V23.0741V23.0732V23.0723V23.0714V23.0705V23.0696V23.0687V23.0678V23.0669V23.066V23.0652V23.0643V23.0634V23.0625V23.0616C112.669 21.7861 112.679 20.511 112.679 19.2366H112.646C112.646 18.1229 112.651 17.0091 112.657 15.8956C112.67 13.1127 112.683 10.331 112.613 7.55351C112.572 6.10649 113.016 5.56386 114.446 5.75296C115.047 5.82695 115.671 5.79406 116.288 5.75296C117.176 5.70362 117.488 6.08182 117.464 6.96155C117.441 7.79725 117.446 8.63294 117.452 9.46864V9.46916C117.459 10.4092 117.466 11.3492 117.431 12.2892C117.398 13.2512 117.686 13.6705 118.689 13.58C119.033 13.546 119.382 13.5606 119.729 13.5752C120.138 13.5923 120.546 13.6094 120.942 13.5472C122.874 13.2429 123.556 13.8842 123.433 15.9315C123.342 17.4607 123.079 18.0033 121.427 17.954C117.447 17.8307 117.447 17.9293 117.447 21.958C117.447 22.7815 117.451 23.6042 117.454 24.4267L117.454 24.4311C117.463 26.4074 117.471 28.3819 117.431 30.3606C117.398 31.9885 117.99 32.8353 119.7 32.6873C119.881 32.6709 120.066 32.6764 120.25 32.6819ZM107.058 16.4315L107.058 16.4321L107.058 16.4326C105.428 18.6777 103.896 20.7874 102.302 22.8518L102.278 22.8436C101.48 23.8878 101.423 24.5455 102.311 25.6061C104.522 28.2373 106.664 30.9253 108.815 33.6255L108.816 33.6259L108.816 33.6259L108.816 33.6263L108.816 33.6266L108.817 33.627C109.616 34.6303 110.417 35.6353 111.223 36.6397C107.688 37.7249 105.69 37.1659 103.602 34.5513C103.195 34.0432 102.787 33.5351 102.379 33.0268L102.378 33.026L102.378 33.0255C101.03 31.3464 99.6811 29.665 98.356 27.974L98.3208 27.9288L98.278 27.8739C97.8301 27.298 97.3944 26.7378 96.5473 26.9709C95.7938 27.1747 95.8847 27.7126 95.9696 28.215C95.9977 28.3815 96.0252 28.544 96.0211 28.6893C95.9635 30.9502 95.9553 33.2112 96.0211 35.464C96.054 36.5657 95.8073 37.1741 94.5658 37.0343C93.8916 36.9603 93.201 36.985 92.5186 37.0343C91.5731 37.1083 91.2114 36.7877 91.2114 35.7682C91.2443 26.1898 91.2443 16.6115 91.2114 7.03323C91.2114 6.01374 91.5649 5.6602 92.5186 5.76708C92.6556 5.77805 92.7927 5.77439 92.9297 5.77074C92.9982 5.76891 93.0667 5.76708 93.1352 5.76708C93.5228 5.77178 93.8589 5.77068 94.1504 5.76974C95.1451 5.76651 95.6193 5.76497 95.8403 6.00076C96.0417 6.21561 96.0328 6.62751 96.0159 7.4147V7.41479C96.0092 7.7285 96.0011 8.10182 96.0046 8.54603C96.017 10.6343 96.017 12.7206 96.017 14.8069C96.017 16.8931 96.017 18.9794 96.0293 21.0677C96.031 21.1808 96.0181 21.3039 96.0049 21.4296C95.9547 21.9072 95.9006 22.4226 96.6295 22.5723C97.3652 22.7194 97.7189 22.2163 98.0866 21.6933L98.0929 21.6843C98.5569 21.0196 99.0361 20.3637 99.5155 19.7077L99.5156 19.7077C100.489 18.3759 101.462 17.0433 102.311 15.6332C103.322 13.9477 104.58 13.2571 106.496 13.5531C106.97 13.6231 107.454 13.6084 108.063 13.59C108.383 13.5802 108.738 13.5695 109.143 13.5695C108.424 14.5509 107.733 15.5028 107.058 16.4315ZM148.075 29.9604C148.046 31.2649 148.018 32.5121 150.186 32.8506V32.8588C150.997 32.9894 150.875 33.8864 150.75 34.8095C150.686 35.2817 150.621 35.7608 150.679 36.1475C150.806 36.9948 150.186 37.009 149.611 37.0221C149.549 37.0235 149.489 37.0249 149.43 37.0272C146.511 37.1506 145.023 36.2873 143.864 33.6481C141.397 36.5586 138.273 37.6685 134.565 37.2986C131.671 37.0108 129.393 35.6296 127.502 33.533C123.359 28.9206 123.531 21.258 127.864 16.6703C132.049 12.2387 138.018 12.0908 143.428 16.4154C143.683 13.6693 144.842 12.9129 147.382 13.5789C148.229 13.7986 148.151 14.3382 148.079 14.8385L148.079 14.8387C148.059 14.975 148.04 15.1083 148.04 15.2315C148.061 17.595 148.061 19.9565 148.061 22.3179C148.061 24.6798 148.061 27.0417 148.081 29.4057C148.083 29.5894 148.079 29.7743 148.075 29.9581V29.9586V29.959V29.9595V29.9599V29.9604ZM129.41 25.2044C129.418 29.677 132.304 32.8177 136.464 32.8506H136.456C140.583 32.8835 143.633 29.6359 143.584 25.2702C143.535 20.888 140.657 17.772 136.628 17.7226C132.444 17.6815 129.41 20.8222 129.41 25.2044ZM76.0015 13.1997C69.1939 13.1915 63.9649 18.3548 64.0142 25.0472C64.0717 32.2741 69.0048 37.3716 75.9439 37.3881C82.7762 37.4045 87.997 32.159 87.9641 25.3186C87.9312 18.3383 82.8666 13.2162 76.0015 13.1997ZM75.9028 32.8497C71.759 32.8085 68.8321 29.6103 68.8732 25.1459C68.9061 20.8377 71.8742 17.7463 75.9768 17.7299C80.137 17.7135 83.1133 20.8788 83.1133 25.3268C83.1133 29.7254 80.0794 32.8908 75.9028 32.8497ZM45.9434 20.0456C46.5265 19.7974 47.1066 19.5504 47.6852 19.4828H47.677C49.0172 19.3266 49.3543 19.861 49.2556 20.864C49.2319 21.113 49.3422 21.4125 49.4542 21.7167C49.7306 22.4674 50.0174 23.2464 48.3265 23.3634C45.8197 23.5379 43.3169 23.8029 40.6466 24.0857L40.6465 24.0857C39.5422 24.2026 38.4092 24.3226 37.2354 24.4405C36.4821 24.4766 36.5157 23.9266 36.5516 23.3371C36.573 22.9873 36.5952 22.6237 36.4544 22.3604C36.0186 21.5629 36.2899 21.1271 37.1532 20.9134C38.111 20.6767 39.0611 20.4169 40.0088 20.1578L40.0089 20.1577L40.009 20.1577L40.0092 20.1577L40.0093 20.1576L40.0094 20.1576L40.0095 20.1575L40.0097 20.1575L40.0098 20.1575L40.0099 20.1574L40.0101 20.1574L40.0102 20.1574L40.0103 20.1573L40.0104 20.1573L40.0106 20.1573L40.0107 20.1572L40.0108 20.1572C40.4453 20.0384 40.8794 19.9197 41.3134 19.8034C41.3837 19.7858 41.4696 19.7526 41.5538 19.7201C41.7058 19.6613 41.8519 19.6049 41.8889 19.6472C43.2667 21.185 44.6127 20.6121 45.9434 20.0456ZM7.69532 30.5112C7.73744 30.5638 7.92786 30.4917 8.12847 30.4158C8.24117 30.3731 8.35709 30.3293 8.45172 30.3056C8.82849 30.2065 9.20451 30.0991 9.5809 29.9916L9.58108 29.9916L9.58113 29.9916C10.4531 29.7426 11.3272 29.493 12.2173 29.3437C13.4682 29.133 13.322 28.4479 13.1719 27.7442C13.1345 27.5691 13.0969 27.3928 13.0806 27.2225C12.9901 26.2441 12.7928 25.4055 11.4444 25.833C10.5148 25.919 9.58188 26.0115 8.64642 26.1044L8.64615 26.1044L8.64593 26.1044L8.64571 26.1044L8.64548 26.1045L8.64518 26.1045L8.64487 26.1045C6.27154 26.34 3.88184 26.5771 1.48792 26.7127C-0.345065 26.8198 -0.0758527 27.6765 0.190796 28.525C0.292525 28.8488 0.393881 29.1713 0.377988 29.4506C0.306397 30.7821 1.00156 30.7111 1.87725 30.6217C2.00723 30.6084 2.14119 30.5947 2.27721 30.5852C2.84037 30.5436 3.40434 30.299 3.96992 30.0536C5.19611 29.5216 6.42979 28.9864 7.67888 30.5112H7.69532ZM26.7702 38.2083C26.773 38.2481 26.7758 38.2877 26.7787 38.3272L26.7704 38.3354C26.8061 38.8389 26.862 39.3392 26.9178 39.8392L26.9178 39.8392C26.9906 40.4904 27.0632 41.1409 27.0911 41.7967C27.0959 41.9221 27.1177 42.0573 27.1398 42.1944L27.1398 42.1945C27.2308 42.7584 27.3271 43.3551 26.2689 43.4411C25.7223 43.4856 25.8145 43.9232 25.8958 44.3094L25.8958 44.3095C25.9197 44.4228 25.9427 44.5317 25.9483 44.625C26.0223 45.9898 26.1374 47.3464 26.2936 48.703C26.4087 49.6896 26.0305 49.9609 25.0521 49.9856L24.9688 49.9879C23.9172 50.0172 23.2945 50.0346 22.9428 49.7344C22.4324 49.2989 22.4925 48.1946 22.64 45.4877L22.6431 45.4307C22.6789 45.0246 22.7287 44.5398 22.7845 43.9966L22.7845 43.9965L22.7845 43.9964L22.7845 43.9962C22.9467 42.4169 23.1596 40.3433 23.2269 38.2696C23.2786 36.8446 24.0089 36.9416 24.7247 37.0365C25.0332 37.0775 25.3389 37.118 25.5865 37.0363C26.6639 36.6772 26.7182 37.4597 26.7702 38.2083ZM47.6129 27.6412C46.8192 27.7084 46.0073 27.5806 45.1976 27.4531C44.9169 27.4089 44.6365 27.3648 44.3571 27.3288C44.2513 27.3144 44.1328 27.315 44.0127 27.3155C43.5823 27.3174 43.1293 27.3194 43.1485 26.6382C43.1778 25.7749 42.6538 25.7449 42.1151 25.714C42.0484 25.7102 41.9814 25.7063 41.9153 25.7009C41.5974 25.6735 41.2767 25.6589 40.9561 25.6442C40.3148 25.615 39.6735 25.5858 39.0541 25.4542C37.2865 25.0843 36.2341 25.4542 36.5547 27.4357C36.0567 28.5525 36.743 28.7274 37.4249 28.9011C37.486 28.9167 37.547 28.9323 37.6071 28.9485C38.5519 29.1966 39.5006 29.4348 40.4495 29.673C42.6138 30.2164 44.7797 30.7602 46.9059 31.4232C48.5584 31.9412 49.0189 31.3657 49.2244 29.8775C49.4135 28.5292 49.5615 27.4686 47.6047 27.633L47.6129 27.6412ZM5.45081 22.8319C4.43954 22.7003 3.42827 22.5852 2.40878 22.4948L2.40055 22.4783C0.287572 22.2892 -0.403053 20.7271 0.715101 18.8032C1.03041 18.2686 1.34572 18.374 1.69438 18.4905C1.76392 18.5137 1.83479 18.5374 1.90725 18.5566C2.75136 18.7752 3.59447 18.9953 4.43719 19.2153C7.01732 19.8889 9.59386 20.5616 12.1844 21.1875C13.3937 21.4819 13.2386 22.1546 13.0794 22.8455C13.034 23.0423 12.9883 23.2406 12.9737 23.432C12.8997 24.3364 12.7599 25.1339 11.5184 24.6818C11.1447 24.6563 10.7703 24.6301 10.395 24.6039L10.3921 24.6037C9.55468 24.545 8.7133 24.4862 7.868 24.4351C7.79925 24.431 7.72999 24.4282 7.66108 24.4254H7.66102L7.66094 24.4254L7.66086 24.4254C7.04586 24.4004 6.45801 24.3766 6.49497 23.4156C6.52038 22.8249 6.13357 22.8328 5.76296 22.8405C5.65386 22.8427 5.54617 22.845 5.45081 22.8319ZM16.4757 9.05673C16.4346 9.09783 16.5235 9.26475 16.6076 9.4227C16.6413 9.4859 16.6742 9.54767 16.6977 9.59936C16.8891 10.0095 17.0835 10.4181 17.2777 10.8263C17.7259 11.7685 18.1732 12.7087 18.5805 13.6609C18.9669 14.5653 19.5671 14.5324 20.1426 14.0226C20.332 13.8549 20.6354 13.8127 20.9399 13.7703C21.5607 13.684 22.1864 13.5969 21.8609 12.4441C21.0682 9.65637 20.3113 6.8584 19.5539 4.05827C19.353 3.31556 19.1521 2.5727 18.9504 1.82983L18.937 1.7804C18.8281 1.3807 18.7314 1.0254 18.2023 1.05699C16.0975 0.908999 15.0862 2.4218 15.7111 4.33746C15.85 4.76363 16.1238 5.17631 16.4001 5.59289C17.0888 6.63095 17.7935 7.69318 16.4675 9.04851L16.4757 9.05673ZM11.2682 35.6097C10.7937 36.0109 10.312 36.4181 9.61123 35.547L9.61945 35.5552C9.32253 35.1873 8.96987 35.4782 8.65297 35.7396C8.56622 35.8111 8.48215 35.8804 8.40263 35.9334C8.1976 36.0687 7.98875 36.2002 7.77974 36.3318C7.17578 36.712 6.57039 37.0932 6.05122 37.5696C4.64531 38.8439 3.79847 38.6877 2.91052 36.9283C2.26923 35.6539 2.30211 35.0948 3.66692 34.5029C5.61091 33.6588 7.52245 32.7427 9.43496 31.826C10.4101 31.3587 11.3854 30.8912 12.3655 30.4331C13.4754 29.9151 15.3829 31.2306 15.2924 32.5625C15.2175 32.6295 15.1381 32.706 15.0541 32.787C14.8803 32.9548 14.6865 33.1417 14.4703 33.3025L14.2715 33.449C13.4013 34.0906 12.5353 34.7291 11.6338 35.325C11.5101 35.4052 11.3895 35.5072 11.2685 35.6095L11.2683 35.6097L11.2683 35.6097L11.2682 35.6097ZM32.57 43.0451L32.57 43.045C32.2675 42.5284 31.9665 42.0146 32.9351 41.475C33.4531 41.1872 30.929 35.8267 30.2795 35.7774C30.2356 35.7774 30.1918 35.792 30.148 35.8066L30.1479 35.8066L30.1299 35.8126L30.1116 35.8184C30.1018 35.8214 30.092 35.8242 30.0822 35.8267C28.0514 36.0076 27.4677 36.838 28.0185 38.8112C28.255 39.6631 28.5041 40.5118 28.7531 41.3604L28.7532 41.3605C29.3092 43.2553 29.865 45.149 30.2795 47.074C30.6741 48.9239 31.2661 49.3843 33.0831 48.5539C34.3657 47.9784 34.8343 47.5344 34.0697 46.2354C33.6338 45.5019 33.3026 44.7043 32.9734 43.9113L32.9734 43.9113L32.9733 43.911C32.9114 43.7619 32.8496 43.613 32.7871 43.4647V43.4564C32.7304 43.3189 32.6502 43.1821 32.5702 43.0454L32.5702 43.0454L32.5702 43.0453L32.5701 43.0453L32.5701 43.0452L32.5701 43.0452L32.5701 43.0452L32.57 43.0451L32.57 43.0451ZM44.4486 34.8287C45.0525 35.0601 45.6536 35.2904 46.1896 35.6384L46.1978 35.6466C47.3133 36.3744 46.7912 36.9728 46.3495 37.479C46.2573 37.5847 46.1687 37.6863 46.0991 37.7842C45.9884 37.9388 45.9063 38.1614 45.8215 38.3915C45.5725 39.0669 45.2997 39.8069 44.2081 39.0833C42.3402 37.8329 40.4937 36.5519 38.6462 35.2703C37.4687 34.4534 36.2908 33.6362 35.1067 32.8265C34.5311 32.4319 34.3667 32.0372 34.8847 31.5275C35.1094 31.3059 35.2269 30.9979 35.3441 30.6906C35.5314 30.1996 35.7179 29.7104 36.3399 29.5789C36.8775 29.8283 37.5029 30.0374 38.1204 30.2439L38.1204 30.2439C39.4579 30.6911 40.7585 31.126 41.051 31.9304C41.7328 33.7883 43.0978 34.3112 44.4486 34.8287ZM11.8645 11.9339C11.1466 12.7122 11.6058 13.1018 12.0493 13.4779C12.1493 13.5627 12.2484 13.6468 12.3331 13.7345C12.6898 14.1049 13.0679 14.4538 13.4454 14.8021L13.4454 14.8022C13.9729 15.2889 14.4992 15.7746 14.9641 16.3161C15.8269 17.3218 16.2728 16.7945 16.7101 16.2772C16.902 16.0502 17.0923 15.8251 17.3155 15.7323C18.2445 15.3377 18.1705 14.754 17.6032 13.9811C16.2848 12.2032 15.0094 10.3983 13.7336 8.59263L13.7335 8.59249L13.733 8.59182L13.7322 8.59063L13.7317 8.58996L13.7312 8.58929L13.7311 8.58916L13.731 8.58902C13.4324 8.16645 13.1338 7.74384 12.8346 7.32152C11.3821 5.28254 9.54045 5.36475 7.30963 7.56818C7.64261 7.83744 7.97662 8.10568 8.31064 8.37392C9.31265 9.17861 10.3147 9.98331 11.2889 10.8158C11.3386 10.8591 11.3968 10.905 11.4582 10.9533L11.4583 10.9534L11.4583 10.9534C11.7924 11.217 12.2187 11.5531 11.8645 11.9421V11.9339ZM7.30045 16.2924C6.51117 15.8896 5.71366 15.5114 4.91615 15.1332H4.92437C2.60585 14.0397 2.41675 12.9051 4.22553 11.0552C4.54617 10.7181 4.81749 10.6195 5.24502 10.9154C8.36105 13.0942 11.4935 15.2565 14.6342 17.4188C14.8166 17.5471 15.0433 17.6144 15.0866 17.6207C15.1326 19.3448 13.3424 20.5591 12.1595 20.0333C11.9108 19.9217 11.6582 19.8163 11.4055 19.7109C10.8396 19.4748 10.2734 19.2386 9.75053 18.9316C9.57306 18.8291 9.35492 18.7568 9.13433 18.6837C8.43518 18.4521 7.71143 18.2123 8.18017 16.9748C8.28193 16.7014 7.90161 16.546 7.5681 16.4097C7.47044 16.3698 7.3768 16.3316 7.30045 16.2924ZM15.0864 17.6161L15.0866 17.6207C15.096 17.6221 15.0967 17.6206 15.0864 17.6161ZM38.0161 37.6496C38.1421 37.1855 37.8991 36.9781 37.6538 36.7685L37.6537 36.7685L37.6537 36.7684L37.6536 36.7684L37.6536 36.7683C37.5947 36.7181 37.5358 36.6678 37.4817 36.6137C37.2279 36.3653 36.9794 36.1108 36.7307 35.8561C36.2139 35.327 35.6964 34.7972 35.1303 34.3198C34.9893 34.2024 34.86 34.0327 34.7285 33.86C34.3076 33.3078 33.8641 32.7257 32.9433 33.7279C32.8054 33.8783 32.6598 34.0169 32.5191 34.1508C31.8292 34.8073 31.2586 35.3503 32.3102 36.6137C34.267 38.9733 36.01 41.5303 37.6544 44.1201C38.5916 45.5918 39.2247 45.4849 40.4169 44.4408C41.5186 43.4706 41.9708 42.928 40.6553 41.6618C40.3987 41.4146 40.0977 41.1827 39.7914 40.9467C38.7533 40.147 37.6543 39.3003 38.0161 37.6496ZM32.9985 11.93L32.9986 11.9298C33.3425 11.4284 33.6869 10.9264 34.0384 10.4279L34.0302 10.4197C34.0634 10.3732 34.0961 10.3246 34.129 10.2758C34.3984 9.8767 34.6801 9.45934 35.2882 9.94287C35.8943 10.3382 36.1256 9.95202 36.3459 9.58415C36.4005 9.493 36.4544 9.40297 36.5132 9.32624C36.6455 9.15193 36.7795 8.97821 36.9137 8.8043L36.9138 8.80415L36.914 8.804L36.9141 8.80386L36.9142 8.80371L36.9142 8.80368C37.4888 8.05906 38.0662 7.31092 38.5193 6.49796C39.2181 5.25648 39.7279 5.17427 40.9365 6.07866C42.5973 7.32014 42.5479 8.1012 41.0598 9.44134C38.7824 11.4968 36.6365 13.7002 34.5975 15.9858C33.6623 17.0328 33.1605 16.5355 32.6526 16.0322C32.4506 15.8319 32.2476 15.6307 32.0159 15.5254C30.8474 14.998 31.3127 14.3424 31.8072 13.6457L31.8268 13.618C32.2233 13.0602 32.6106 12.4955 32.9985 11.93ZM20.3325 36.1342C19.7981 35.7643 19.3212 35.8383 19.0253 36.496C18.5736 37.4853 18.1122 38.4705 17.6508 39.4557C16.5248 41.8602 15.3985 44.2651 14.4129 46.732C13.9673 47.846 14.7283 47.9756 15.4743 48.1026C15.8019 48.1584 16.1267 48.2137 16.345 48.3517C16.3771 48.3719 16.4096 48.3926 16.4426 48.4136C16.974 48.7525 17.6017 49.1528 18.1126 48.0146C18.3787 47.42 18.4999 46.7749 18.6217 46.1266C18.884 44.7311 19.1491 43.3206 20.8669 42.3663C21.6076 41.9567 21.8198 40.6011 22.0393 39.1987C22.1414 38.5464 22.2451 37.8838 22.4044 37.3017C22.2268 36.6539 21.7006 36.5439 21.1739 36.4338C20.8717 36.3706 20.5693 36.3073 20.3325 36.1425V36.1342ZM30.7303 13.3844C30.5939 13.7723 30.4536 14.1713 29.9093 14.2161V14.2079C28.2156 14.3065 27.1879 13.024 27.6236 11.3714C27.7058 11.0644 27.7853 10.7566 27.8648 10.4487C28.0237 9.83301 28.1827 9.21729 28.3636 8.60888C28.4013 8.48463 28.4276 8.34985 28.454 8.21467C28.5656 7.64319 28.6786 7.06456 29.6626 7.24408C30.2055 7.34462 30.2894 6.92059 30.3687 6.51992C30.3867 6.42911 30.4044 6.3395 30.4272 6.25747C30.5204 5.90668 30.6255 5.55771 30.7305 5.20875C30.9406 4.51081 31.1507 3.81288 31.2658 3.10033C31.5289 1.46421 32.2031 1.25866 33.7488 1.80952C35.4096 2.40148 35.6151 3.02633 34.8259 4.55557C33.8667 6.40814 33.0098 8.31186 32.153 10.2156L32.1529 10.2158C31.7244 11.1677 31.296 12.1196 30.8548 13.0651C30.8075 13.1651 30.7691 13.2743 30.7303 13.3844ZM39.1518 14.1551C39.0539 14.0948 38.7418 14.3246 38.5258 14.4837L38.4694 14.5251C38.045 14.8189 37.6259 15.1202 37.2072 15.4213L37.2071 15.4214C36.4659 15.9543 35.7258 16.4866 34.9587 16.9751C34.1037 17.5178 34.2681 18.0522 34.8683 18.5619C35.0619 18.7259 35.1561 19.0174 35.2505 19.3093C35.4447 19.91 35.6394 20.5125 36.7017 20.0089C38.0698 19.3578 39.4409 18.711 40.8117 18.0643L40.8127 18.0639L40.813 18.0638C42.6958 17.1755 44.5784 16.2874 46.4527 15.3883C46.5002 15.3656 46.55 15.3439 46.6008 15.3219C46.9716 15.1606 47.3886 14.9793 47.2584 14.2126C47.1195 13.9946 46.9868 13.7437 46.8486 13.4825L46.8486 13.4824C46.5125 12.8471 46.1439 12.1501 45.573 11.7132C45.1297 11.369 44.7293 11.7295 44.3133 12.1042C44.0734 12.3202 43.8284 12.5409 43.5669 12.6341C43.0863 12.8051 42.6757 13.1805 42.264 13.557C41.4289 14.3206 40.5891 15.0884 39.1518 14.1633V14.1551ZM17.869 36.4686C17.3937 37.2215 16.9416 37.9375 16.3772 38.5528V38.561C16.208 38.7457 16.0841 39.0154 15.9573 39.2911C15.6159 40.0338 15.2545 40.8202 13.9353 40.1067C13.6379 39.9428 13.4212 40.3256 13.2189 40.6827C13.1472 40.8094 13.0773 40.9328 13.0063 41.0275C12.8696 41.2091 12.7288 41.3888 12.5879 41.5686C12.1353 42.1461 11.6817 42.7249 11.3619 43.3707C10.4986 45.089 9.66003 44.9822 8.34455 43.7571C7.30861 42.787 6.91397 42.2608 8.17189 41.1097C9.77203 39.6457 11.2857 38.0915 12.8011 36.5355C13.5749 35.741 14.3492 34.9461 15.1357 34.1624C15.2049 34.0915 15.2721 34.0043 15.3409 33.9149C15.6073 33.5689 15.899 33.19 16.4347 33.5951C16.9734 33.9961 17.4728 34.4493 17.9774 34.9073C18.166 35.0785 18.3553 35.2503 18.5477 35.4203C18.308 35.7734 18.0861 36.1249 17.869 36.4686Z" fill="#222222"/>
</g>
<defs>
<clipPath id="clip0_1838_854">
<rect width="151" height="50" fill="white"/>
</clipPath>
</defs>
</svg>
