<svg width="82" height="50" viewBox="0 0 82 50" fill="none" xmlns="http://www.w3.org/2000/svg">
<g clip-path="url(#clip0_1838_878)">
<path d="M40.5487 49.9969C34.6006 49.9969 28.6522 50.0058 22.7041 49.9934C19.2111 49.986 15.8794 49.2498 12.7447 47.68C9.86786 46.2391 7.45019 44.2332 5.4611 41.7086C3.24425 38.8945 1.76729 35.7183 0.885689 32.2547C0.17026 29.4431 -0.0924565 26.5843 0.0282258 23.6915C0.178924 20.0779 0.93489 16.5986 2.42918 13.2947C3.95504 9.9207 6.10535 7.02102 9.0042 4.70166C11.7097 2.53729 14.7707 1.13302 18.1643 0.449491C19.6846 0.143529 21.2185 -0.000617994 22.7694 1.99122e-06C34.6557 0.0037219 46.5417 0.00434189 58.4279 0.000621976C61.7749 -0.000617994 64.9748 0.667726 68.0021 2.10299C71.7305 3.87057 74.6786 6.53868 76.9273 9.98796C78.9105 13.0299 80.1285 16.3695 80.7409 19.9418C81.0877 21.9642 81.2149 24.0015 81.1438 26.0481C81.0088 29.9289 80.1916 33.6547 78.5113 37.17C76.7775 40.7975 74.3258 43.8292 71.0173 46.1368C68.5133 47.883 65.7515 49.0157 62.7555 49.5858C61.242 49.8738 59.7155 49.9981 58.1767 49.9978C52.3007 49.9965 46.4247 49.9972 40.5484 49.9972L40.5487 49.9969ZM40.5728 41.8679C46.3869 41.8679 52.2014 41.8685 58.0155 41.8673C58.8194 41.8673 59.6215 41.8372 60.4204 41.729C62.153 41.4947 63.7934 40.9823 65.3229 40.1289C67.7836 38.7562 69.5994 36.762 70.9015 34.2827C72.2191 31.7742 72.8532 29.0795 73.0042 26.2647C73.1091 24.3093 72.9881 22.3663 72.5803 20.4459C72.1173 18.2654 71.3338 16.2157 70.1023 14.3496C68.5359 11.9763 66.4645 10.2087 63.82 9.14292C62.0295 8.42157 60.1605 8.1215 58.2339 8.12212C46.4507 8.12646 34.6678 8.12522 22.8845 8.12274C21.9234 8.12274 20.9712 8.20117 20.0259 8.37414C17.8171 8.77837 15.8175 9.65162 14.0555 11.0522C12.0643 12.635 10.6467 14.6481 9.65929 16.9783C8.65175 19.3556 8.1978 21.8498 8.12725 24.4197C8.07619 26.2744 8.24917 28.1101 8.66567 29.9196C9.18492 32.1757 10.0575 34.279 11.4191 36.1606C13.3819 38.8734 15.9846 40.649 19.2374 41.4516C20.5659 41.7796 21.9194 41.8713 23.2846 41.8701C29.0474 41.8642 34.8101 41.8676 40.5728 41.8676V41.8679Z" fill="#C74634"/>
</g>
<defs>
<clipPath id="clip0_1838_878">
<rect width="82" height="50" fill="white"/>
</clipPath>
</defs>
</svg>
