<svg width="180" height="33" viewBox="0 0 180 33" fill="none" xmlns="http://www.w3.org/2000/svg">
<g clip-path="url(#clip0_1838_880)">
<path fill-rule="evenodd" clip-rule="evenodd" d="M17.8466 21.1618L32.7692 6.18489L26.8161 0.210938L20.8663 6.18161L14.9209 0.211326L0 15.1946L5.94955 21.169L20.8672 6.18904L23.8263 9.15786L8.91038 24.1374L14.8568 30.1154L20.8099 24.1374L17.8466 21.1618ZM20.8055 24.1454L35.7264 9.16213L41.676 15.1366L26.7551 30.1198L20.8055 24.1454Z" fill="#F04E23"/>
<path fill-rule="evenodd" clip-rule="evenodd" d="M92.8932 0H87.6085V24.2588H92.8932V0ZM76.4999 6.06096C74.1745 6.06096 71.7587 6.69745 68.7689 8.30536L70.4299 12.4299C73.0264 10.9741 75.1711 10.3376 76.7418 10.3376C78.5237 10.3376 79.309 11.0048 79.309 11.8841V11.9442C79.309 12.5513 78.8253 12.8849 77.648 13.0063L75.595 13.2185C70.4605 13.7642 68.3463 16.0086 68.3463 19.1017V19.3139C68.3463 22.2562 70.7621 24.5606 74.1745 24.5606C76.4215 24.5606 78.3735 23.6079 79.5602 21.9266L79.9429 24.2577H84.5937V13.6735C84.5937 8.66964 81.7248 6.06096 76.4999 6.06096ZM76.0468 20.5255C74.326 20.5255 73.5101 19.8583 73.5101 18.8268V18.7668C73.5101 17.8567 74.023 17.1896 75.8953 16.9174L76.7112 16.7959C77.9031 16.6291 78.6353 16.409 79.309 15.9993V17.3417C79.309 19.3739 78.04 20.5255 76.0468 20.5255ZM54.0704 8.79872C55.1321 7.12676 57.0616 6.05926 59.4641 6.05926V6.05393C63.6923 6.05393 67.1353 9.8155 67.1353 14.9982V15.6053C67.1353 20.792 63.6923 24.5522 59.4641 24.5522C57.2091 24.5522 55.3062 23.5675 54.3003 22.0103V30.314H49.0156V6.36216H53.6665L54.0704 8.79872ZM57.924 20.1568C60.2799 20.1568 61.6991 18.1846 61.6991 15.4559V15.153C61.6991 12.4229 60.2799 10.452 57.924 10.452C55.568 10.452 54.1488 12.4229 54.1488 15.153V15.4559C54.1488 18.186 55.568 20.1568 57.924 20.1568ZM164.241 6.06096C158.835 6.06096 155.03 9.8212 155.03 15.0079V15.615C155.03 20.8004 158.835 24.5619 164.241 24.5619C169.647 24.5619 173.452 20.8017 173.452 15.615V15.0079C173.452 9.82253 169.647 6.06096 164.241 6.06096ZM168.016 15.4629C168.016 18.1917 166.597 20.1639 164.241 20.1639C161.885 20.1639 160.466 18.193 160.466 15.4629V15.16C160.466 12.4299 161.885 10.459 164.241 10.459C166.597 10.459 168.016 12.4299 168.016 15.16V15.4629ZM178.327 7.06687V7.1576C178.327 7.49386 178.126 7.7634 177.767 7.87416L178.357 8.97768H177.724L177.244 8.03695H176.606V8.97768H176.032V6.18752H177.24C177.935 6.18752 178.327 6.5518 178.327 7.06687ZM177.239 6.70258H176.605V7.52188H177.239C177.6 7.52188 177.752 7.3711 177.752 7.12825V7.09756C177.752 6.82401 177.601 6.70258 177.239 6.70258ZM177.131 4.70392C175.5 4.70392 174.262 5.94755 174.262 7.58482C174.262 9.22208 175.5 10.4657 177.131 10.4657C178.761 10.4657 180 9.22208 180 7.58482C180 5.94755 178.761 4.70392 177.131 4.70392ZM177.131 10.0707C175.712 10.0707 174.684 9.03928 174.684 7.58348C174.684 6.12769 175.712 5.09622 177.131 5.09622C178.55 5.09622 179.577 6.12769 179.577 7.58348C179.577 9.03928 178.55 10.0707 177.131 10.0707ZM134.21 0H139.495V24.2588H134.21V0ZM149.89 20.1579C148.35 20.1579 147.776 19.4 147.776 17.7627V10.4531H153.997V6.35924H147.776V2.26407L142.491 3.05268V18.2778C142.491 22.433 144.605 24.556 148.834 24.556C150.706 24.556 152.91 23.9795 154.723 22.9481L153.213 19.1878C152.154 19.7643 150.675 20.1592 149.89 20.1592V20.1579ZM115.304 8.30536C118.293 6.69745 120.709 6.06096 123.035 6.06096C128.26 6.06096 131.128 8.66964 131.128 13.6735V24.2577H126.478L126.095 21.9266C124.908 23.6079 122.955 24.5606 120.709 24.5606C117.297 24.5606 114.881 22.2562 114.881 19.3139V19.1017C114.881 16.0086 116.995 13.7642 122.13 13.2185L124.183 13.0063C125.36 12.8849 125.844 12.5513 125.844 11.9442V11.8841C125.844 11.0048 125.058 10.3376 123.276 10.3376C121.706 10.3376 119.561 10.9741 116.965 12.4299L115.304 8.30536ZM120.045 18.8268C120.045 19.8583 120.859 20.5255 122.582 20.5255C124.575 20.5255 125.842 19.3739 125.842 17.3417V15.9993C125.17 16.409 124.438 16.6291 123.246 16.7959L122.43 16.9174C120.558 17.1896 120.045 17.8567 120.045 18.7668V18.8268ZM104.458 6.06096C99.0519 6.06096 95.2462 9.8212 95.2462 15.0079V15.615C95.2462 20.8004 99.0519 24.5619 104.458 24.5619C109.863 24.5619 113.669 20.8017 113.669 15.615V15.0079C113.668 9.82253 109.863 6.06096 104.458 6.06096ZM108.231 15.4629C108.231 18.1917 106.812 20.1639 104.456 20.1639C102.1 20.1639 100.681 18.193 100.681 15.4629V15.16C100.681 12.4299 102.1 10.459 104.456 10.459C106.812 10.459 108.231 12.4299 108.231 15.16V15.4629ZM153.437 28.4252C151.915 28.4252 150.953 29.3165 150.953 30.739C150.953 32.1601 151.915 33.0528 153.437 33.0528C154.96 33.0528 155.922 32.1614 155.922 30.739C155.922 29.3165 154.958 28.4252 153.437 28.4252ZM153.437 29.5354C154.189 29.5354 154.623 29.985 154.623 30.739C154.623 31.4929 154.182 31.9426 153.43 31.9426C152.685 31.9426 152.25 31.4942 152.25 30.739C152.25 29.985 152.685 29.5354 153.437 29.5354ZM129.267 32.9292L127.353 30.3939H127.34V32.9292H126.091V28.5658H127.446L129.32 31.0344H129.333V28.5658H130.582V32.9292H129.267ZM133.546 31.1812V31.8617H136.204L136.071 32.9292H132.231V28.5658H136.071V29.6199H133.546V30.2204H135.539V31.1812H133.546ZM138.86 29.6867V32.9292H140.056V29.6867H141.65L141.517 28.5658H137.265V29.6867H138.86ZM148.03 31.5948L148.694 28.5658H150.023L148.827 32.9292H147.232L146.435 30.2871H146.302L145.505 32.9292H143.777L142.714 28.5658H144.043L144.84 31.5948L145.771 28.5658H147.099L147.897 31.5948H148.03ZM157.331 28.5658H159.865C161.019 28.5658 161.585 29.1142 161.585 30.131C161.585 30.8289 161.3 31.3039 160.74 31.5281L161.771 32.9318H160.294L159.493 31.7843H158.635V32.9318H157.331V28.5658ZM159.696 30.7608C160.13 30.7608 160.286 30.518 160.286 30.1871C160.286 29.8561 160.13 29.6199 159.696 29.6199H158.634V30.7608H159.696ZM167.962 32.9158L166.234 30.6608L167.962 28.5658H166.367L165.171 30.167H164.64V28.5658H163.311V32.9292H164.64V31.2479H165.171L166.5 32.9292H167.962V32.9158ZM169.024 32.6372V31.4402H169.031C169.758 31.8085 170.466 31.9886 171.08 31.9886C171.546 31.9886 171.782 31.8766 171.782 31.6577C171.782 31.4389 171.626 31.3828 170.695 31.2334C169.677 31.0719 168.999 30.765 168.999 29.8857C168.999 29.0691 169.714 28.4392 171.11 28.4392C171.67 28.4392 172.253 28.558 172.794 28.7888V29.9738L172.787 29.9804C172.272 29.6815 171.577 29.4934 171.017 29.4934C170.52 29.4934 170.322 29.6121 170.322 29.811C170.322 30.0424 170.571 30.0844 171.182 30.1877C171.247 30.1987 171.317 30.2105 171.391 30.2233C172.409 30.3981 173.086 30.685 173.086 31.6084C173.086 32.3249 172.552 33.0428 171.019 33.0428C170.261 33.0428 169.658 32.8867 169.024 32.6372Z" fill="#222222"/>
</g>
<defs>
<clipPath id="clip0_1838_880">
<rect width="180" height="33" fill="white"/>
</clipPath>
</defs>
</svg>
