<svg width="180" height="44" viewBox="0 0 180 44" fill="none" xmlns="http://www.w3.org/2000/svg">
<g clip-path="url(#clip0_1838_981)">
<path fill-rule="evenodd" clip-rule="evenodd" d="M32.1748 5.99792L23.3977 0.93125C21.2477 -0.310417 18.5977 -0.310417 16.4477 0.93125L5.8164 7.06875C4.70807 7.70834 4.70807 9.30834 5.8164 9.94792C6.33099 10.2458 6.96432 10.2458 7.47891 9.94792L17.8081 3.98542C19.1164 3.22917 20.7289 3.22917 22.0393 3.98542L30.5143 8.87709C31.0289 9.175 31.6622 9.175 32.1768 8.87709C33.2831 8.2375 33.2831 6.6375 32.1748 5.99792ZM34.4063 32.7298L22.0375 39.8715C20.7292 40.6277 19.1167 40.6277 17.8063 39.8715L5.4375 32.7298C4.12917 31.9736 3.32292 30.5777 3.32292 29.0652V13.3027C3.32292 12.709 3.00625 12.1611 2.49167 11.8631C1.38542 11.2236 0 12.0236 0 13.3027V29.4152C0 31.8986 1.325 34.1923 3.475 35.434L16.4479 42.9236C18.5979 44.1652 21.2479 44.1652 23.3979 42.9236L36.3708 35.434C38.5208 34.1923 39.8458 31.8986 39.8458 29.4152V18.8361C39.8458 17.5569 38.4604 16.7569 37.3521 17.3965C36.8375 17.6944 36.5208 18.2423 36.5208 18.8361V29.0673C36.5208 30.5777 35.7146 31.9757 34.4063 32.7298ZM32.2494 12.6734L36.6453 10.1359C37.4015 9.69843 38.3682 9.92344 38.8536 10.6484C39.389 11.4484 39.1369 12.5318 38.3036 13.013L34.1015 15.4401C33.5411 15.7651 33.1953 16.363 33.1953 17.0109V27.1568C33.1953 28.6693 32.389 30.0651 31.0807 30.8214L22.4348 35.813C21.3265 36.4526 19.9411 35.6526 19.9411 34.3734C19.9411 33.7797 20.2578 33.2318 20.7723 32.9339L28.5119 28.4651C29.3536 27.9776 29.8723 27.0797 29.8723 26.1089V17.7589C29.8723 16.7859 29.3536 15.888 28.5119 15.4026L21.2807 11.2276C20.4411 10.7422 19.4036 10.7422 18.5619 11.2276L11.3307 15.4005C10.489 15.888 9.97026 16.7859 9.97026 17.7568V26.1089C9.97026 27.0818 10.489 27.9797 11.3307 28.4651L12.614 29.2068C12.9161 29.3818 13.2932 29.163 13.2932 28.8151V25.588C13.2932 23.9609 15.0515 22.9443 16.4619 23.7526L16.6182 23.8422L19.1661 25.313C19.6328 25.5839 20.2098 25.5839 20.6765 25.313L22.4682 24.2776C22.9369 24.0089 23.2244 23.5089 23.2244 22.9693V20.8984C23.2244 20.3589 22.9348 19.8609 22.4682 19.5901L20.6765 18.5547C20.2098 18.2839 19.6328 18.2839 19.1661 18.5547L16.2057 20.2484C15.6911 20.5464 15.0578 20.5464 14.5432 20.2484C13.4348 19.6089 13.4348 18.0089 14.5432 17.3693L18.564 15.0651C19.4036 14.5797 20.4411 14.5797 21.2828 15.0651L25.189 17.3193C26.0307 17.8068 26.5494 18.7047 26.5494 19.6755V24.1901C26.5494 25.163 26.0307 26.0609 25.189 26.5464L21.2807 28.8026C20.4411 29.288 19.4036 29.288 18.5619 28.8026L17.2973 28.0734C16.9953 27.8984 16.6182 28.1172 16.6182 28.4651V31.6922C16.6182 33.3193 14.8557 34.338 13.4453 33.5234L8.76193 30.8193C7.45359 30.063 6.64734 28.6651 6.64734 27.1547V16.7109C6.64734 15.1984 7.45359 13.8026 8.76193 13.0464L17.8078 7.82343C19.1182 7.06718 20.7307 7.06718 22.039 7.82343L30.4369 12.6734C30.9974 12.9964 31.689 12.9964 32.2494 12.6734Z" fill="#5F47B7"/>
<path fill-rule="evenodd" clip-rule="evenodd" d="M146.664 7.4375C145.395 7.4375 144.391 8.38958 144.391 9.65833C144.391 10.9021 145.395 11.8521 146.664 11.8521C147.933 11.8521 148.964 10.9 148.964 9.65833C148.964 8.38958 147.933 7.4375 146.664 7.4375ZM148.658 14.6958H144.699V29.2063H148.658V14.6958ZM116.19 25.8965V29.209C115.37 29.4131 114.49 29.561 113.463 29.561C109.886 29.561 107.659 27.8319 107.659 24.109V18.0402H105.372V14.6965H107.659V11.0319H111.618V14.6965H115.722V18.0381H111.618V23.7548C111.618 25.4256 112.497 26.011 114.315 26.011C114.705 26.0128 115.22 25.9724 115.823 25.9251L115.823 25.9251C115.942 25.9157 116.065 25.9061 116.19 25.8965ZM56.2159 29.5606C60.3201 29.5606 63.2513 26.3065 63.2513 21.9377C63.2513 17.569 60.3201 14.3752 56.2138 14.3731C54.2221 14.3731 52.5492 15.1356 51.5534 16.5127V14.696H47.918V34.4856H51.8763V27.8023C52.9034 28.9148 54.4284 29.5606 56.2159 29.5606ZM55.4846 17.9502C57.5659 17.9502 59.2367 19.5044 59.2367 21.9669C59.2367 24.4294 57.5367 25.9544 55.4846 25.9544C53.6367 25.9544 51.8201 24.694 51.8201 21.9377C51.8201 19.1523 53.668 17.9502 55.4846 17.9502ZM74.3643 18.186V14.6965C73.983 14.5798 73.6018 14.5215 73.0726 14.5194C71.4893 14.5194 70.0518 15.1944 69.0851 16.4256V14.6965H65.4497V29.209H69.408V21.9673C69.408 19.359 71.0205 18.186 73.308 18.186H74.3643ZM88.218 20.5877V29.2065H84.5825V27.8002C83.5555 28.8856 82.0325 29.5585 80.1555 29.5585C76.9888 29.5585 75.143 27.6815 75.143 25.219C75.143 22.5815 77.2825 20.9981 80.6242 20.9981H84.2596V20.3523C84.2596 18.769 83.3513 17.8023 81.5617 17.8023C80.0075 17.8023 78.9242 18.5356 77.7221 19.796L75.67 17.3627C77.37 15.3398 79.4513 14.3731 82.0013 14.3731C85.6971 14.3731 88.218 16.4544 88.218 20.5877ZM84.2596 23.7835V23.6085H81.1513C79.8617 23.6085 79.1284 24.1065 79.1284 25.0752C79.1284 26.071 79.9784 26.6585 81.2096 26.6585C82.8825 26.6565 84.2596 25.4835 84.2596 23.7835ZM94.1092 23.2856H104.282C104.399 22.7877 104.547 21.9377 104.549 21.1148C104.549 17.3627 101.792 14.3731 97.7175 14.3731C93.4362 14.3731 90.1237 17.6877 90.1237 21.9669C90.1237 26.246 93.4654 29.5585 98.0675 29.5585C100.295 29.5585 102.23 28.7669 103.872 27.3898L102.23 24.6919C101.057 25.6023 99.7675 26.1585 98.1842 26.1585C96.0737 26.1585 94.5779 25.1315 94.1092 23.2856ZM100.705 20.5023H94.1092C94.5487 18.6835 95.8967 17.571 97.5675 17.571C99.2383 17.571 100.676 18.6544 100.705 20.5023ZM124.752 14.3731C120.383 14.3731 116.983 17.6856 116.983 21.9356C116.983 26.1856 120.383 29.5294 124.723 29.5294C129.091 29.5294 132.55 26.1565 132.55 21.9356C132.55 17.7148 129.091 14.3731 124.752 14.3731ZM124.752 17.9773C126.891 17.9773 128.504 19.6773 128.504 21.9648C128.504 24.2231 126.891 25.894 124.752 25.894C122.583 25.894 121 24.2523 121 21.9648C121 19.6481 122.583 17.9773 124.752 17.9773ZM143.218 14.6965V18.186H142.162C139.875 18.186 138.262 19.359 138.262 21.9673V29.209H134.304V14.6965H137.939V16.4256C138.906 15.1944 140.343 14.5194 141.927 14.5194C142.458 14.5215 142.839 14.5798 143.218 14.6965ZM163.908 29.2065V20.5877C163.908 16.4544 161.385 14.3731 157.691 14.3731C155.141 14.3731 153.06 15.3398 151.36 17.3627L153.412 19.796C154.614 18.5356 155.698 17.8023 157.252 17.8023C159.041 17.8023 159.95 18.769 159.95 20.3523V20.9981H156.314C152.973 20.9981 150.833 22.5815 150.833 25.219C150.833 27.6815 152.679 29.5585 155.845 29.5585C157.723 29.5585 159.245 28.8856 160.273 27.8002V29.2065H163.908ZM159.95 23.6085V23.7835C159.95 25.4835 158.573 26.6565 156.9 26.6585C155.668 26.6585 154.818 26.071 154.818 25.0752C154.818 24.1065 155.552 23.6085 156.841 23.6085H159.95ZM180.001 20.2085V29.2085H176.071V20.7356C176.071 19.0648 174.986 17.921 173.373 17.921C171.761 17.921 170.617 19.0648 170.617 20.7356V29.2085H166.659V14.696H170.294V16.0148C171.29 15.019 172.757 14.3731 174.544 14.3731C177.948 14.3752 180.001 16.719 180.001 20.2085Z" fill="#1F2937"/>
</g>
<defs>
<clipPath id="clip0_1838_981">
<rect width="180" height="44" fill="white"/>
</clipPath>
</defs>
</svg>
