<svg width="180" height="44" viewBox="0 0 180 44" fill="none" xmlns="http://www.w3.org/2000/svg">
<g clip-path="url(#clip0_1838_998)">
<path fill-rule="evenodd" clip-rule="evenodd" d="M32.1743 5.99797L23.3971 0.931259C21.2471 -0.31042 18.5971 -0.31042 16.4471 0.931259L5.81572 7.06882C4.70737 7.70841 4.70737 9.30842 5.81572 9.94801C6.3303 10.2459 6.96364 10.2459 7.47823 9.94801L17.8075 3.98545C19.1158 3.2292 20.7284 3.2292 22.0388 3.98545L30.5139 8.87717C31.0285 9.17509 31.6618 9.17509 32.1764 8.87717C33.2826 8.23758 33.2826 6.63756 32.1743 5.99797ZM34.4066 32.7274L22.0377 39.8691C20.7294 40.6254 19.1168 40.6254 17.8064 39.8691L5.43755 32.7274C4.12921 31.9711 3.32295 30.5753 3.32295 29.0627V13.3001C3.32295 12.7063 3.00628 12.1584 2.49169 11.8605C1.38543 11.2209 0 12.0209 0 13.3001V29.4128C0 31.8961 1.32501 34.1899 3.47503 35.4316L16.4481 42.9212C18.5981 44.1629 21.2481 44.1629 23.3981 42.9212L36.3712 35.4316C38.5212 34.1899 39.8462 31.8961 39.8462 29.4128V18.8335C39.8462 17.5543 38.4608 16.7543 37.3524 17.3939C36.8378 17.6918 36.5212 18.2397 36.5212 18.8335V29.0648C36.5212 30.5753 35.7149 31.9732 34.4066 32.7274ZM32.25 12.6717L36.6458 10.1341C37.4021 9.69663 38.3688 9.92164 38.8542 10.6466C39.3896 11.4466 39.1375 12.53 38.3042 13.0112L34.1021 15.4384C33.5416 15.7634 33.1958 16.3613 33.1958 17.0092V27.1551C33.1958 28.6676 32.3895 30.0635 31.0812 30.8197L22.4353 35.8115C21.3269 36.451 19.9415 35.651 19.9415 34.3719C19.9415 33.7781 20.2582 33.2302 20.7728 32.9323L28.5124 28.4635C29.3541 27.976 29.8729 27.078 29.8729 26.1072V17.7571C29.8729 16.7842 29.3541 15.8863 28.5124 15.4009L21.2811 11.2258C20.4415 10.7404 19.404 10.7404 18.5623 11.2258L11.331 15.3988C10.4893 15.8863 9.97058 16.7842 9.97058 17.755V26.1072C9.97058 27.0801 10.4893 27.9781 11.331 28.4635L12.6144 29.2052C12.9164 29.3802 13.2935 29.1614 13.2935 28.8135V25.5864C13.2935 23.9593 15.0519 22.9426 16.4623 23.7509L16.6186 23.8405L19.1665 25.3114C19.6332 25.5822 20.2103 25.5822 20.6769 25.3114L22.4686 24.2759C22.9374 24.0072 23.2249 23.5072 23.2249 22.9676V20.8967C23.2249 20.3572 22.9353 19.8592 22.4686 19.5884L20.6769 18.553C20.2103 18.2821 19.6332 18.2821 19.1665 18.553L16.2061 20.2467C15.6915 20.5447 15.0581 20.5447 14.5435 20.2467C13.4352 19.6071 13.4352 18.0071 14.5435 17.3675L18.5644 15.0634C19.404 14.5779 20.4415 14.5779 21.2832 15.0634L25.1895 17.3175C26.0312 17.805 26.5499 18.703 26.5499 19.6738V24.1884C26.5499 25.1614 26.0312 26.0593 25.1895 26.5447L21.2811 28.801C20.4415 29.2864 19.404 29.2864 18.5623 28.801L17.2977 28.0718C16.9957 27.8968 16.6186 28.1156 16.6186 28.4635V31.6906C16.6186 33.3177 14.856 34.3364 13.4456 33.5219L8.76224 30.8177C7.45389 30.0614 6.64763 28.6635 6.64763 27.153V16.7092C6.64763 15.1967 7.45389 13.8008 8.76224 13.0446L17.8082 7.82162C19.1186 7.06536 20.7311 7.06536 22.0394 7.82162L30.4374 12.6717C30.9979 12.9946 31.6895 12.9946 32.25 12.6717Z" fill="#5F47B7"/>
<path fill-rule="evenodd" clip-rule="evenodd" d="M146.663 4.66406C145.395 4.66406 144.39 5.61615 144.39 6.88492C144.39 8.12868 145.395 9.07869 146.663 9.07869C147.932 9.07869 148.963 8.1266 148.963 6.88492C148.963 5.61615 147.932 4.66406 146.663 4.66406ZM148.657 11.9225H144.699V26.433H148.657V11.9225ZM116.189 23.1256V26.4381C115.368 26.6423 114.489 26.7902 113.462 26.7902C109.885 26.7902 107.657 25.061 107.657 21.3381V15.2692H105.37V11.9255H107.657V8.26085H111.616V11.9255H115.72V15.2672H111.616V20.9839C111.616 22.6547 112.495 23.2402 114.314 23.2402C114.704 23.2419 115.218 23.2015 115.821 23.1542L115.822 23.1541L115.822 23.1541C115.941 23.1448 116.063 23.1352 116.189 23.1256ZM56.214 26.7884C60.3182 26.7884 63.2495 23.5342 63.2495 19.1654C63.2495 14.7966 60.3182 11.6028 56.2119 11.6007C54.2202 11.6007 52.5473 12.3632 51.5515 13.7403V11.9236H47.916V31.7134H51.8744V25.03C52.9015 26.1425 54.4265 26.7884 56.214 26.7884ZM55.4828 15.1778C57.564 15.1778 59.2349 16.732 59.2349 19.1945C59.2349 21.6571 57.5349 23.1821 55.4828 23.1821C53.6348 23.1821 51.8181 21.9217 51.8181 19.1654C51.8181 16.3799 53.6661 15.1778 55.4828 15.1778ZM74.3633 15.4094V11.9198C73.9821 11.8031 73.6008 11.7448 73.0717 11.7427C71.4883 11.7427 70.0508 12.4177 69.0841 13.649V11.9198H65.4487V26.4324H69.407V19.1907C69.407 16.5823 71.0196 15.4094 73.3071 15.4094H74.3633ZM88.2172 17.8154V26.4342H84.5817V25.0279C83.5547 26.1134 82.0317 26.7863 80.1546 26.7863C76.9879 26.7863 75.1421 24.9092 75.1421 22.4467C75.1421 19.8091 77.2817 18.2258 80.6234 18.2258H84.2588V17.5799C84.2588 15.9966 83.3505 15.0299 81.5609 15.0299C80.0067 15.0299 78.9234 15.7633 77.7213 17.0237L75.6692 14.5903C77.3692 12.5674 79.4505 11.6007 82.0005 11.6007C85.6963 11.6007 88.2172 13.682 88.2172 17.8154ZM84.2588 21.0112V20.8362H81.1505C79.8609 20.8362 79.1275 21.3342 79.1275 22.3029C79.1275 23.2988 79.9775 23.8863 81.2088 23.8863C82.8817 23.8842 84.2588 22.7112 84.2588 21.0112ZM94.1079 20.5133H104.281C104.398 20.0154 104.546 19.1654 104.548 18.3425C104.548 14.5903 101.791 11.6007 97.7163 11.6007C93.435 11.6007 90.1225 14.9153 90.1225 19.1945C90.1225 23.4738 93.4642 26.7863 98.0663 26.7863C100.293 26.7863 102.229 25.9946 103.871 24.6175L102.229 21.9196C101.056 22.83 99.7663 23.3863 98.183 23.3863C96.0726 23.3863 94.5767 22.3592 94.1079 20.5133ZM100.704 17.7299H94.1079C94.5475 15.9112 95.8955 14.7987 97.5663 14.7987C99.2372 14.7987 100.675 15.882 100.704 17.7299ZM124.751 11.6007C120.382 11.6007 116.982 14.9133 116.982 19.1633C116.982 23.4133 120.382 26.7571 124.721 26.7571C129.09 26.7571 132.549 23.3842 132.549 19.1633C132.549 14.9424 129.09 11.6007 124.751 11.6007ZM124.751 15.2049C126.89 15.2049 128.503 16.9049 128.503 19.1925C128.503 21.4508 126.89 23.1217 124.751 23.1217C122.582 23.1217 120.998 21.48 120.998 19.1925C120.998 16.8758 122.582 15.2049 124.751 15.2049ZM143.218 11.9198V15.4094H142.162C139.874 15.4094 138.262 16.5823 138.262 19.1907V26.4324H134.303V11.9198H137.939V13.649C138.905 12.4177 140.343 11.7427 141.926 11.7427C142.457 11.7448 142.839 11.8031 143.218 11.9198ZM163.907 26.4342V17.8154C163.907 13.682 161.384 11.6007 157.69 11.6007C155.14 11.6007 153.059 12.5674 151.359 14.5903L153.411 17.0237C154.613 15.7633 155.696 15.0299 157.251 15.0299C159.04 15.0299 159.949 15.9966 159.949 17.5799V18.2258H156.313C152.971 18.2258 150.832 19.8091 150.832 22.4467C150.832 24.9092 152.678 26.7863 155.844 26.7863C157.721 26.7863 159.244 26.1134 160.271 25.0279V26.4342H163.907ZM159.949 20.8362V21.0112C159.949 22.7112 158.571 23.8842 156.899 23.8863C155.667 23.8863 154.817 23.2988 154.817 22.3029C154.817 21.3342 155.551 20.8362 156.84 20.8362H159.949ZM179.999 17.4362V26.4363H176.07V17.9633C176.07 16.2924 174.984 15.1487 173.372 15.1487C171.759 15.1487 170.616 16.2924 170.616 17.9633V26.4363H166.657V11.9236H170.293V13.2424C171.289 12.2466 172.755 11.6007 174.543 11.6007C177.947 11.6028 179.999 13.9466 179.999 17.4362Z" fill="#1F2937"/>
<path d="M173.506 40.1506V33.1016H175.42V35.9515H175.516L177.636 33.1016H179.866L177.485 36.2406L179.922 40.1506H177.636L176.053 37.5072L175.42 38.3333V40.1506H173.506Z" fill="#5F47B7"/>
<path d="M170.682 36.6287C170.682 37.4134 170.53 38.0754 170.225 38.6147C169.919 39.1516 169.508 39.5589 168.989 39.8365C168.47 40.1119 167.892 40.2496 167.254 40.2496C166.612 40.2496 166.031 40.1108 165.513 39.8331C164.996 39.5532 164.586 39.1447 164.281 38.6078C163.978 38.0686 163.826 37.4089 163.826 36.6287C163.826 35.8439 163.978 35.1831 164.281 34.6462C164.586 34.1069 164.996 33.6996 165.513 33.4243C166.031 33.1466 166.612 33.0078 167.254 33.0078C167.892 33.0078 168.47 33.1466 168.989 33.4243C169.508 33.6996 169.919 34.1069 170.225 34.6462C170.53 35.1831 170.682 35.8439 170.682 36.6287ZM168.714 36.6287C168.714 36.2065 168.657 35.8508 168.545 35.5617C168.435 35.2703 168.271 35.05 168.053 34.9009C167.837 34.7494 167.571 34.6737 167.254 34.6737C166.938 34.6737 166.67 34.7494 166.452 34.9009C166.237 35.05 166.073 35.2703 165.96 35.5617C165.85 35.8508 165.795 36.2065 165.795 36.6287C165.795 37.0509 165.85 37.4077 165.96 37.6991C166.073 37.9882 166.237 38.2085 166.452 38.36C166.67 38.5091 166.938 38.5837 167.254 38.5837C167.571 38.5837 167.837 38.5091 168.053 38.36C168.271 38.2085 168.435 37.9882 168.545 37.6991C168.657 37.4077 168.714 37.0509 168.714 36.6287Z" fill="#5F47B7"/>
<path d="M161.03 36.6287C161.03 37.4134 160.878 38.0754 160.572 38.6147C160.267 39.1516 159.855 39.5589 159.337 39.8365C158.818 40.1119 158.24 40.2496 157.602 40.2496C156.959 40.2496 156.379 40.1108 155.86 39.8331C155.344 39.5532 154.933 39.1447 154.628 38.6078C154.325 38.0686 154.174 37.4089 154.174 36.6287C154.174 35.8439 154.325 35.1831 154.628 34.6462C154.933 34.1069 155.344 33.6996 155.86 33.4243C156.379 33.1466 156.959 33.0078 157.602 33.0078C158.24 33.0078 158.818 33.1466 159.337 33.4243C159.855 33.6996 160.267 34.1069 160.572 34.6462C160.878 35.1831 161.03 35.8439 161.03 36.6287ZM159.061 36.6287C159.061 36.2065 159.005 35.8508 158.893 35.5617C158.783 35.2703 158.618 35.05 158.4 34.9009C158.185 34.7494 157.919 34.6737 157.602 34.6737C157.285 34.6737 157.018 34.7494 156.8 34.9009C156.584 35.05 156.42 35.2703 156.308 35.5617C156.198 35.8508 156.143 36.2065 156.143 36.6287C156.143 37.0509 156.198 37.4077 156.308 37.6991C156.42 37.9882 156.584 38.2085 156.8 38.36C157.018 38.5091 157.285 38.5837 157.602 38.5837C157.919 38.5837 158.185 38.5091 158.4 38.36C158.618 38.2085 158.783 37.9882 158.893 37.6991C159.005 37.4077 159.061 37.0509 159.061 36.6287Z" fill="#5F47B7"/>
<path d="M144.992 40.1506V33.1016H146.906V35.8551H149.439V33.1016H151.353V40.1506H149.439V37.3971H146.906V40.1506H144.992Z" fill="#5F47B7"/>
<path d="M136.58 40.1506V33.1016H139.636C140.173 33.1016 140.624 33.1738 140.989 33.3184C141.356 33.463 141.633 33.6672 141.819 33.9311C142.007 34.1949 142.101 34.5059 142.101 34.8638C142.101 35.1231 142.044 35.3595 141.929 35.5728C141.816 35.7862 141.658 35.9652 141.454 36.1098C141.25 36.2521 141.011 36.3507 140.738 36.4058V36.4746C141.041 36.4861 141.316 36.563 141.564 36.7052C141.812 36.8452 142.009 37.0391 142.156 37.2869C142.303 37.5324 142.376 37.8216 142.376 38.1543C142.376 38.5398 142.275 38.8828 142.073 39.1834C141.874 39.484 141.589 39.7203 141.22 39.8924C140.85 40.0645 140.41 40.1506 139.898 40.1506H136.58ZM138.494 38.6224H139.389C139.71 38.6224 139.951 38.5627 140.111 38.4434C140.272 38.3218 140.352 38.1428 140.352 37.9065C140.352 37.7412 140.315 37.6013 140.239 37.4865C140.163 37.3718 140.055 37.2846 139.915 37.225C139.778 37.1653 139.611 37.1355 139.416 37.1355H138.494V38.6224ZM138.494 35.9515H139.279C139.446 35.9515 139.594 35.9251 139.723 35.8723C139.851 35.8195 139.951 35.7438 140.022 35.6451C140.095 35.5442 140.132 35.4214 140.132 35.2768C140.132 35.0589 140.054 34.8925 139.898 34.7778C139.742 34.6607 139.545 34.6022 139.306 34.6022H138.494V35.9515Z" fill="#5F47B7"/>
<path d="M128.611 40.1506V33.1016H133.692V34.6435H130.525V35.8551H133.43V37.3971H130.525V38.6086H133.678V40.1506H128.611Z" fill="#5F47B7"/>
<path d="M117.862 40.1506L115.783 33.1016H117.917L118.881 37.4384H118.936L120.079 33.1016H121.758L122.901 37.4521H122.956L123.92 33.1016H126.054L123.975 40.1506H122.144L120.946 36.213H120.891L119.693 40.1506H117.862Z" fill="#5F47B7"/>
</g>
<defs>
<clipPath id="clip0_1838_998">
<rect width="180" height="44" fill="white"/>
</clipPath>
</defs>
</svg>
