<svg width="154" height="50" viewBox="0 0 154 50" fill="none" xmlns="http://www.w3.org/2000/svg">
<g clip-path="url(#clip0_1838_626)">
<path fill-rule="evenodd" clip-rule="evenodd" d="M20.9944 0C34.6679 0 41.5431 7.316 41.5431 7.316C41.5431 7.316 42.3291 12.7314 41.8274 23.6352C41.0695 40.1068 20.9991 49.999 20.9974 50C20.9957 50.0009 0.925516 40.1068 0.167442 23.6352C-0.334416 12.7314 0.451805 7.316 0.451805 7.316C0.451805 7.316 7.3207 0 20.9944 0Z" fill="#ED2E26"/>
<path fill-rule="evenodd" clip-rule="evenodd" d="M67.2401 33.5214C62.5175 33.5214 58.6754 29.6793 58.6754 24.9567C58.6754 20.2343 62.5175 16.392 67.2401 16.392C71.9629 16.392 75.8049 20.2343 75.8049 24.9567C75.8049 29.6793 71.9629 33.5214 67.2401 33.5214ZM67.2401 12.9297C60.6083 12.9297 55.2129 18.3251 55.2129 24.9567C55.2129 28.9711 56.9 32.548 60.0916 35.3011C63.0806 37.8791 67.3668 39.6564 72.3156 40.48C73.0232 40.0912 74.3616 38.7795 74.7877 37.881C71.1415 37.2519 69.4693 36.6277 69.4693 36.6277C69.4693 36.6277 69.9362 36.6088 70.8733 36.3459C75.7444 34.9797 79.3152 30.1684 79.2674 24.9567C79.2064 18.3253 73.872 12.9297 67.2401 12.9297Z" fill="#222222"/>
<path fill-rule="evenodd" clip-rule="evenodd" d="M133.752 30.4898L129.69 19.7109H126.07L131.997 34.7564C131.997 34.7564 129.375 40.9894 129.376 40.9889C131.101 40.9889 132.988 40.8671 133.727 39.0493C135.459 34.7859 141.489 19.7109 141.489 19.7109H137.869L133.752 30.4898Z" fill="#222222"/>
<path fill-rule="evenodd" clip-rule="evenodd" d="M120.176 35.8645C120.176 35.8645 123.535 35.8022 123.535 33.5226V13.0469H120.176V35.8645Z" fill="#222222"/>
<path fill-rule="evenodd" clip-rule="evenodd" d="M108.174 32.7104C106.142 32.7104 103.104 31.3548 103.057 27.6203V27.5936C103.057 24.6447 105.233 22.4208 108.118 22.4208C110.273 22.4208 112.023 23.5458 112.806 25.4418C113.114 26.0829 113.262 26.8341 113.234 27.6139C113.206 28.4061 113.029 29.1624 112.719 29.8091C111.928 31.6258 110.229 32.7104 108.174 32.7104ZM113.206 21.829C112.271 20.5242 110.443 19.2578 107.752 19.2578C103.16 19.2578 99.6973 22.8293 99.6973 27.5654C99.6973 29.7791 100.454 31.8362 101.829 33.3578C103.315 35.0036 105.364 35.8735 107.752 35.8735C110.067 35.8735 112.048 34.9295 113.206 33.3124V35.8628C113.206 35.8628 116.566 35.8096 116.566 33.5227V19.707H113.206V21.829Z" fill="#222222"/>
<path fill-rule="evenodd" clip-rule="evenodd" d="M93.5779 28.4682C93.5779 31.1812 92.1689 32.6893 89.6129 32.7144C87.0203 32.7144 85.7599 31.2427 85.7599 28.2156V19.7109H82.4004V28.8895C82.4004 30.2143 82.6235 32.1037 83.6878 33.5816C84.7753 35.0918 86.4944 35.8642 88.7961 35.8775C88.8275 35.8778 88.859 35.878 88.8904 35.878C91.6431 35.878 93.0609 34.63 93.7464 33.6603V35.8668C93.7464 35.8668 96.9375 35.8123 96.9375 33.6388V19.7109H93.5779V28.4682Z" fill="#222222"/>
<path fill-rule="evenodd" clip-rule="evenodd" d="M149.543 26.0914C147.798 25.3367 146.528 24.6841 146.55 23.6717C146.565 23.0018 147.448 22.3604 148.365 22.3921C149.347 22.4259 150.075 23.1031 150.481 23.6447C150.481 23.6447 152.316 22.0759 152.539 21.9078C151.588 20.3337 149.973 19.4473 148.161 19.4074C145.578 19.3506 143.43 21.3771 143.374 23.9248C143.325 26.1317 144.618 27.0426 146.313 28.004L149.103 29.5727C149.747 30.0228 150.051 30.3591 150.035 31.0515C150.012 32.1367 149.104 32.8402 147.928 32.9098C147.064 32.9608 146.354 32.4608 145.681 31.7567C144.371 30.3862 142.361 31.045 141.746 31.243C143.025 34.1839 145.444 35.8964 147.862 35.9498C150.905 36.0168 153.34 33.7702 153.405 30.8352C153.436 29.4224 152.817 27.6674 149.543 26.0914Z" fill="#222222"/>
<path fill-rule="evenodd" clip-rule="evenodd" d="M10.7339 21.651C10.7339 15.8269 15.3381 11.0888 20.9974 11.0888C26.6614 11.0888 31.2694 15.6968 31.2694 21.3607C31.2694 25.8825 27.3825 29.6026 24.3867 31.5143C25.5489 32.1774 28.1138 32.8737 30.5695 33.0987C34.1555 30.3235 36.3426 26.0335 36.3426 21.3607C36.3426 12.8994 29.4589 6.01562 20.9974 6.01562C12.5361 6.01562 5.65234 12.8994 5.65234 21.3607C5.65234 26.471 7.78021 31.0108 11.8056 34.4896C15.5692 37.7418 21.0745 39.9127 27.3426 40.9404C28.7006 40.1901 31.0231 37.9745 31.8941 36.6776C26.6591 36.0043 21.7046 34.7276 18.3834 32.9853C13.3076 30.3228 10.7339 26.5092 10.7339 21.651Z" fill="white"/>
</g>
<defs>
<clipPath id="clip0_1838_626">
<rect width="154" height="50" fill="white"/>
</clipPath>
</defs>
</svg>
