<svg width="160" height="27" viewBox="0 0 160 27" fill="none" xmlns="http://www.w3.org/2000/svg">
<g clip-path="url(#clip0_1838_1029)">
<path d="M147.814 0H126.471C126.796 0.327167 127.112 0.663845 127.408 1.02145C129.801 3.89557 131.066 7.51343 131.066 11.4851C131.066 17.6157 128.46 23.1471 124.281 26.8791H137.355L143.559 11.5593H135.78L137.085 5.617H152.518L144.412 26.8791H147.582C154.991 26.9266 160 20.8265 160 13.4177C160 6.00884 155.223 0 147.814 0Z" fill="#E85E27"/>
<path fill-rule="evenodd" clip-rule="evenodd" d="M27.482 7.62376C27.482 3.22602 24.062 0 18.0988 0H5.95558L0 26.8791H6.7716L8.8183 17.6442H12.7861L16.7141 26.8791H23.4742L19.2705 17.2029C24.3036 16.4211 27.4801 12.4133 27.4801 7.62376H27.482ZM16.6342 12.0215H10.0661L11.4851 5.61891H17.5643C19.5673 5.61891 20.7409 6.69361 20.7409 8.25907C20.7409 10.3115 19.2268 12.0215 16.6361 12.0215H16.6342ZM42.4222 0L26.6972 26.8791H33.4555L36.0861 22.4224L48.6079 22.43L49.5932 26.881H56.3477L50.4206 0H42.4222ZM39.3673 16.813L45.165 6.90665L47.3601 16.813H39.3673ZM65.5135 0H76.951L76.9491 0.00190213C82.7164 0.00190213 86.2829 3.17847 86.2829 7.72267C86.2829 12.8052 82.3759 17.6442 75.9238 17.6442L68.3781 17.6366L66.3104 26.8791H59.5579L65.5135 0ZM69.6259 12.0215H75.6328C78.0276 12.0215 79.5911 10.3115 79.5911 8.25907C79.5911 6.5966 78.3205 5.61891 76.2681 5.61891H71.0353L69.6259 12.0215ZM99.0099 0H92.2364L86.2827 26.8791H93.0543L99.0099 0ZM112.99 0C117.515 0 121.344 1.57497 123.68 4.38062C125.23 6.2409 126.122 8.6414 126.122 11.4851C126.122 16.0407 124.325 21.4085 119.265 24.4519C116.779 25.9451 113.507 26.8791 109.275 26.8791H98.3568L104.312 0H112.99ZM106.374 21.2659H110.11C115.931 21.2659 119.415 16.9556 119.415 12.1052C119.415 8.50254 117.239 5.61891 113.363 5.61891L109.84 5.62271L106.374 21.2659Z" fill="black"/>
</g>
<defs>
<clipPath id="clip0_1838_1029">
<rect width="160" height="27" fill="white"/>
</clipPath>
</defs>
</svg>
