<svg width="120" height="40" viewBox="0 0 120 40" fill="none" xmlns="http://www.w3.org/2000/svg">
<g clip-path="url(#clip0_1838_1023)">
<path fill-rule="evenodd" clip-rule="evenodd" d="M74.276 10.8407C73.4847 11.9851 73.6241 13.0799 74.4042 14.1587V14.1571C74.7568 14.6445 75.1084 15.1327 75.4599 15.6208C76.2437 16.7093 77.0274 17.7975 77.8225 18.8766C79.2817 20.8568 78.9373 22.2729 76.714 23.3261C75.2115 24.0373 74.8703 24.9147 75.5158 26.4059C76.2687 28.1415 76.1854 28.3733 74.4074 29.3514C75.4037 30.403 75.4005 30.7467 74.3689 31.7088C74.0454 32.0093 74.0422 32.3113 74.1351 32.7125C74.5131 34.3411 74.6781 35.9569 73.8403 37.5263C72.9914 39.115 71.6426 39.8693 69.895 39.9381C69.2445 39.9635 68.5924 39.9523 67.9403 39.9411C67.4443 39.9326 66.9482 39.9241 66.4527 39.9317C66.0346 39.938 65.86 39.8102 65.9081 39.3883C65.9221 39.2642 65.9179 39.1386 65.9137 39.0126C65.9117 38.952 65.9097 38.8912 65.9097 38.8305C65.9097 36.7245 65.9099 34.6185 65.91 32.5125C65.9109 21.9749 65.9118 11.4373 65.8905 0.899782C65.8889 0.151813 66.0955 -0.0271888 66.8099 0.00317748C68.1179 0.0596465 69.429 0.0360619 70.7386 0.0125036L70.8129 0.0111686C71.2053 0.00317747 71.452 0.124643 71.6699 0.445886C71.6999 0.490165 71.7301 0.53443 71.7602 0.578708C72.1958 1.21847 72.6332 1.86095 72.8969 2.58591C73.5136 4.28163 74.1014 5.98853 74.6508 7.70663C74.9985 8.78863 74.9488 9.86743 74.276 10.8407ZM119.442 0.0144202C119.846 0.0112237 120.036 0.105519 119.995 0.541835H119.996C119.974 0.782443 119.979 1.0254 119.984 1.26797V1.26818V1.2684C119.986 1.37211 119.988 1.47574 119.988 1.57908L119.988 7.35699V7.37622C119.988 17.9787 119.987 28.5812 119.999 39.1837C119.999 39.7639 119.924 40.0132 119.24 39.9972C117.052 39.9461 114.864 39.9541 112.676 39.994C112.09 40.0036 111.993 39.8198 111.993 39.2828C112.007 32.7922 112.006 26.3007 112.005 19.8096C112.005 18.0773 112.005 16.3449 112.005 14.6126V13.6153C111.911 13.7496 111.829 13.8652 111.755 13.9692C111.616 14.1648 111.506 14.3193 111.406 14.48C109.856 16.9582 108.307 19.4373 106.759 21.9163C105.209 24.3982 103.658 26.88 102.107 29.361C101.636 30.1138 101.618 30.1106 101.148 29.3563L101.131 29.3293C98.0384 24.3774 94.946 19.4255 91.8505 14.4752C91.8237 14.4325 91.8006 14.3865 91.7773 14.34L91.7772 14.3399C91.7073 14.2006 91.6355 14.0576 91.4565 13.9893C91.3272 14.1444 91.3463 14.3187 91.365 14.4883V14.4884V14.4885C91.3715 14.5478 91.378 14.6066 91.378 14.6638L91.3771 15.8262C91.3709 23.6088 91.3647 31.3915 91.3876 39.1742C91.3908 39.8342 91.2402 40.0116 90.5675 39.9972C88.4066 39.9493 86.2441 39.9637 84.0833 39.9893C83.5611 39.9956 83.3496 39.9045 83.3496 39.31C83.3672 26.4299 83.3656 13.5482 83.3496 0.668095C83.348 0.134287 83.505 0.00642906 84.0208 0.0112237C86.5036 0.0367954 88.9848 0.0431883 91.4661 0.00802728C91.9755 3.61535e-05 92.2189 0.198216 92.4528 0.596174C94.7368 4.49185 97.0276 8.3836 99.3184 12.2753C99.9533 13.3538 100.588 14.4323 101.223 15.5108C101.305 15.6497 101.388 15.7875 101.484 15.9481C101.547 16.0517 101.615 16.1648 101.692 16.2939L103.618 13.0285L103.651 12.9725L103.712 12.8692C104.976 10.7264 106.221 8.61513 107.465 6.50322C107.738 6.04014 108.011 5.57722 108.284 5.11431L108.293 5.09939L108.293 5.09839C109.206 3.55196 110.118 2.00544 111.018 0.452334C111.199 0.142278 111.386 0.012822 111.756 0.0144202C114.319 0.0304024 116.881 0.0304024 119.442 0.0144202ZM16.813 15.9705C18.8826 16.5779 20.9281 17.2315 22.8711 18.1857H22.8695C26.9285 20.1771 28.8235 23.4103 28.7642 27.9237C28.6729 34.8871 23.9588 39.0569 17.3865 39.6227C10.9695 40.1757 5.28626 38.3633 0.407096 34.1152C-0.0830633 33.6869 -0.139127 33.4359 0.285357 32.9245C1.54439 31.4094 2.76979 29.8655 3.95354 28.2913C4.41647 27.6759 4.69999 27.5417 5.37276 28.0995C7.47596 29.8447 9.77778 31.2831 12.4993 31.8745C14.4199 32.2916 16.3597 32.4291 18.2643 31.7994C20.3338 31.1169 21.2469 29.2997 20.5885 27.3291C20.273 26.3846 19.5281 25.8875 18.7208 25.464C17.1093 24.6185 15.365 24.1327 13.6174 23.6612C11.3828 23.0571 9.15948 22.4274 7.06269 21.4237C3.48421 19.712 1.52357 16.9279 1.28169 12.9323C1.0238 8.66504 2.23959 5.05146 5.78603 2.43995C8.02539 0.790586 10.6139 0.135313 13.3579 0.0442143C18.4789 -0.125198 23.0649 1.35636 27.1064 4.51445C27.5324 4.84848 27.5773 5.06424 27.2729 5.51494C26.3254 6.91804 25.3997 8.3371 24.4739 9.75629L24.4737 9.75663L24.4735 9.75697C24.1224 10.2952 23.7713 10.8334 23.4189 11.3708C21.2917 9.93084 19.1789 8.59632 16.7185 7.94744C15.0702 7.51272 13.4107 7.37208 11.7464 7.84995C10.308 8.26389 9.34529 9.31233 9.23156 10.6293C9.10342 12.1172 9.64323 13.2663 11.016 13.9871C12.485 14.7591 14.0664 15.1998 15.6469 15.6402C16.0362 15.7487 16.4255 15.8571 16.813 15.9705ZM55.9588 9.02139C56.4009 9.23235 56.5563 9.07573 56.7709 8.7433C57.4226 7.7287 58.083 6.72013 58.7434 5.71152C59.1024 5.16312 59.4615 4.6147 59.8192 4.06529C60.7691 2.60611 60.7499 2.53579 59.2057 1.70631C59.1665 1.68498 59.1264 1.66563 59.0863 1.64634C59.0543 1.63092 59.0224 1.61555 58.9911 1.59923C56.7117 0.411745 54.2369 0.0968948 51.7188 0.0313676C47.1039 -0.0884994 42.8975 1.13574 39.3206 4.09725C34.3438 8.21908 32.1493 13.6483 32.0435 20.0044C32.0147 24.3292 33.0831 28.3519 35.5579 31.9C39.5865 37.6792 45.233 40.2491 52.2442 39.9375C55.033 39.8144 57.6584 39.1495 60.0579 37.6792C60.4904 37.4139 60.5497 37.1965 60.2629 36.7698C59.092 35.0261 57.9259 33.2761 56.8142 31.494C56.4826 30.9618 56.2327 30.9618 55.6913 31.1888C51.3696 32.9996 46.0739 32.2868 42.9408 27.8437C40.5268 24.4235 39.9518 20.6053 40.9 16.589C42.6348 9.25153 49.5387 5.95919 55.9588 9.01659V9.02139Z" fill="#1F2937"/>
</g>
<defs>
<clipPath id="clip0_1838_1023">
<rect width="120" height="40" fill="white"/>
</clipPath>
</defs>
</svg>
