<svg width="180" height="31" viewBox="0 0 180 31" fill="none" xmlns="http://www.w3.org/2000/svg">
<g clip-path="url(#clip0_1838_906)">
<path fill-rule="evenodd" clip-rule="evenodd" d="M13.1267 20.4374C10.9867 22.2183 8.47374 22.7475 5.76963 22.4911L5.77196 22.4888C3.90473 22.3116 2.21 21.6146 0.652806 20.5772C0.630658 20.5625 0.60793 20.5484 0.585249 20.5343L0.585235 20.5343L0.585214 20.5343L0.585184 20.5343C0.450327 20.4507 0.317124 20.3681 0.317124 20.1506C0.324086 18.8383 0.323251 17.526 0.322381 16.1585V16.1584C0.322085 15.6943 0.321786 15.2238 0.321786 14.7448C0.937203 15.3392 1.48502 15.8171 2.08179 16.2343C3.41286 17.1621 4.82086 17.9174 6.44566 18.1855C7.44804 18.351 8.42478 18.309 9.29895 17.7216C10.4902 16.9197 10.5298 15.3555 9.39919 14.472C8.74764 13.9623 7.98414 13.7082 7.22149 13.4544C6.99366 13.3786 6.7659 13.3028 6.54123 13.2202L6.2829 13.1255L6.28289 13.1255L6.28288 13.1255L6.28287 13.1255L6.28286 13.1255L6.28285 13.1255L6.28284 13.1255L6.28284 13.1255L6.28283 13.1255L6.28282 13.1255L6.28281 13.1255L6.2828 13.1255L6.28279 13.1255L6.28278 13.1255L6.28278 13.1255L6.28277 13.1255L6.28276 13.1255C5.31488 12.771 4.34709 12.4166 3.42452 11.9521C1.10038 10.7842 -0.135115 8.9216 0.0117462 6.29909C0.160938 3.62062 1.57127 1.73008 4.04226 0.755668C7.41074 -0.573074 10.6557 -0.0858687 13.7444 1.71842C14.1594 1.96086 14.3132 2.24759 14.2992 2.73946C14.271 3.74053 14.2759 4.74278 14.281 5.79926V5.79928V5.79929V5.79931V5.79932V5.79934V5.79935V5.79937V5.79938V5.79939V5.79941V5.79942V5.79944V5.79945V5.79947V5.79948V5.7995L14.281 5.79992C14.2831 6.2267 14.2852 6.66234 14.2852 7.11032C13.4017 6.25246 12.5416 5.6114 11.5905 5.09389C10.1964 4.33628 8.71617 3.94931 7.11935 4.12881C6.04237 4.25003 5.22648 4.88176 5.09826 5.67901C4.94441 6.63943 5.35935 7.35742 6.42467 7.88425C7.2036 8.26981 8.0212 8.56234 8.83897 8.85494L8.83899 8.85494L8.83901 8.85495L8.83905 8.85497C9.2425 8.99932 9.646 9.14369 10.0449 9.29925C11.0753 9.70253 12.0847 10.1361 12.9938 10.7842C16.1968 13.0687 15.9776 18.0666 13.1267 20.4374ZM109.151 6.50924C110.568 6.52556 111.986 6.52323 113.403 6.50924L113.401 6.51391C113.788 6.50924 113.918 6.54887 113.739 6.98712C110.615 14.6332 107.505 22.284 104.402 29.9394C104.284 30.2354 104.139 30.3427 103.813 30.338C102.395 30.317 100.978 30.31 99.5607 30.338C99.0665 30.3473 98.9733 30.2564 99.1737 29.7762C99.7566 28.3839 100.328 26.9866 100.9 25.5894L100.9 25.5882L100.901 25.587C101.369 24.4423 101.837 23.2976 102.311 22.1558C102.449 21.8247 102.44 21.552 102.307 21.2256C101.391 18.9935 100.48 16.7598 99.5689 14.526L99.5678 14.5234C98.5581 12.048 97.5482 9.57255 96.5326 7.09902C96.3438 6.64212 96.3461 6.49059 96.9126 6.50691C98.2903 6.54654 99.6703 6.54421 101.048 6.50691C101.51 6.49293 101.677 6.67009 101.817 7.07104C102.58 9.26764 103.355 11.4592 104.13 13.6512C104.406 14.4322 104.682 15.2132 104.957 15.9946C104.992 16.0922 105.029 16.1889 105.074 16.308L105.075 16.3083L105.125 16.4403L105.147 16.4987L105.172 16.5634C105.457 15.7482 105.737 14.9533 106.012 14.1689L106.015 14.1614L106.018 14.1518C106.333 13.2575 106.642 12.3768 106.95 11.4955C107.067 11.1644 107.183 10.8333 107.3 10.5022L107.303 10.4942C107.719 9.31316 108.135 8.13199 108.531 6.94516C108.645 6.60016 108.806 6.50458 109.151 6.50924ZM49.5912 15.922C49.5912 16.64 49.6285 17.3556 49.731 18.069C50.0924 20.5446 51.6123 22.1088 53.8781 22.4258C56.13 22.7405 58.0975 22.2696 59.7852 20.4607C59.7852 20.6244 59.7869 20.7763 59.7885 20.9202V20.9207V20.9211V20.9216V20.922V20.9225V20.9229V20.9233V20.9237V20.9241C59.7918 21.2313 59.7948 21.5016 59.7805 21.7708C59.7619 22.0971 59.8738 22.1997 60.2071 22.1974C61.5662 22.1787 62.9252 22.1787 64.2843 22.1974C64.6316 22.202 64.6922 22.0808 64.6922 21.7661C64.6829 16.8358 64.6806 11.9078 64.6969 6.97745C64.6969 6.55785 64.536 6.50656 64.1887 6.51123C62.8693 6.52521 61.5475 6.5392 60.2281 6.50656C59.7549 6.49491 59.6057 6.60214 59.6104 7.10333C59.6323 9.06277 59.6284 11.0222 59.6246 12.9817C59.6236 13.5258 59.6225 14.07 59.622 14.6142C59.622 15.4534 59.5474 16.281 59.1558 17.0456C58.6546 18.0247 57.6103 18.5119 56.4587 18.3021C55.4516 18.1202 54.8782 17.4699 54.7406 16.3159C54.687 15.873 54.6567 15.4278 54.6567 14.9825V14.9815C54.6497 12.343 54.6427 9.70451 54.6637 7.0637C54.666 6.64177 54.5821 6.49491 54.1276 6.50656C52.8081 6.5392 51.4864 6.53454 50.167 6.50656C49.7264 6.49724 49.5749 6.59748 49.5795 7.07303C49.5962 9.1793 49.595 11.2868 49.5938 13.3937V13.3938V13.3939V13.394V13.3941V13.3942V13.3943V13.3944V13.3945V13.3946V13.3948V13.3949V13.395V13.3951V13.3952V13.3953C49.5933 14.2376 49.5928 15.0799 49.5935 15.922H49.5912ZM26.0839 22.4393C24.5384 22.6001 23.0255 22.5512 21.5359 22.0803L21.5336 22.0826C18.4565 21.1082 16.7594 18.9636 16.3025 15.8212C15.9645 13.4947 16.2932 11.2778 17.7828 9.37098C19.6826 6.93961 22.3052 6.16334 25.2657 6.28923C27.105 6.36615 28.7601 6.96758 30.1354 8.22406C31.7532 9.70199 32.4153 11.5995 32.4735 13.7395C32.4775 13.882 32.4925 14.0341 32.5077 14.1882C32.556 14.6766 32.6063 15.185 32.3104 15.4739C32.1082 15.6711 31.6714 15.6326 31.2415 15.5948C31.0667 15.5794 30.8931 15.5641 30.7369 15.5648C29.8821 15.5679 29.0274 15.5669 28.1726 15.5658C27.7452 15.5653 27.3179 15.5648 26.8905 15.5648C26.4245 15.5648 25.9585 15.5658 25.4924 15.5669C24.2497 15.5696 23.007 15.5724 21.7643 15.5555C21.3144 15.5485 21.2608 15.686 21.3587 16.0893C21.7364 17.6558 22.9905 18.7025 24.6456 18.8144C26.4289 18.9333 28.0677 18.4577 29.5946 17.5835C29.9396 17.3854 30.0771 17.4483 30.2776 17.7281C30.7322 18.3575 31.1938 18.9845 31.6926 19.5766C31.9677 19.903 31.8931 20.0592 31.5854 20.2993C29.9629 21.5674 28.1213 22.2271 26.0839 22.4393ZM24.4941 9.5528C22.8623 9.5901 21.6245 10.6578 21.3331 12.2546H21.3308C21.2701 12.5926 21.3517 12.6998 21.6991 12.6928C22.3708 12.6794 23.0426 12.6817 23.7144 12.684C23.9727 12.6849 24.2311 12.6858 24.4894 12.6858C24.7533 12.6858 25.0172 12.6832 25.281 12.6805C25.9097 12.6742 26.5376 12.6679 27.1632 12.6975C27.6924 12.7231 27.7856 12.539 27.6761 12.0681C27.3171 10.5179 26.0653 9.51784 24.4941 9.5528ZM144.857 12.6418C144.245 12.6494 143.634 12.6742 143.023 12.699L143.023 12.699C142.509 12.7198 141.996 12.7407 141.482 12.7513C140.402 12.7723 139.363 12.9751 138.351 13.3318C134.961 14.5277 134.096 18.6631 136.763 21.0781C138.209 22.3882 139.99 22.6936 141.873 22.4628C143.246 22.2926 144.37 21.598 145.391 20.5629C145.401 20.7072 145.412 20.8413 145.422 20.9684L145.423 20.9688C145.446 21.2505 145.466 21.4983 145.468 21.7472C145.47 22.0735 145.554 22.2157 145.932 22.2064C147.195 22.18 148.461 22.1889 149.727 22.1978L149.95 22.1994C150.23 22.2017 150.361 22.1528 150.356 21.8264C150.348 20.7326 150.349 19.6388 150.35 18.5451V18.5435C150.352 16.4933 150.353 14.4435 150.295 12.3947C150.209 9.33623 148.463 7.21258 145.68 6.60415C142.959 6.00972 140.241 6.21952 137.528 6.67875L137.519 6.68019C137.358 6.70742 137.23 6.72906 137.23 6.93984C137.233 7.76095 137.232 8.58206 137.231 9.41344C137.23 9.83301 137.23 10.2552 137.23 10.6813C137.28 10.6692 137.323 10.6606 137.359 10.6532C137.422 10.6406 137.468 10.6313 137.512 10.6137C139.181 9.933 140.927 9.74651 142.705 9.84675C144.288 9.93533 145.165 10.7652 145.281 12.1569C145.309 12.5019 145.235 12.6348 144.857 12.6394V12.6418ZM145.309 15.6349C145.296 15.8651 145.299 16.0964 145.302 16.3272C145.303 16.426 145.305 16.5248 145.305 16.6233C145.405 17.4276 145.333 18.1526 144.561 18.6607C143.645 19.2645 142.68 19.465 141.633 19.1153C140.766 18.8263 140.274 18.1013 140.325 17.2667C140.379 16.4182 140.971 15.7282 141.913 15.5906C142.571 15.4953 143.236 15.4471 143.902 15.3989C144.262 15.3728 144.621 15.3468 144.981 15.3132C145.242 15.2876 145.321 15.3808 145.307 15.6326L145.309 15.6349ZM112.705 4.35237C112.083 4.3503 111.462 4.34824 110.841 4.35609L110.838 4.35842C110.472 4.36075 110.326 4.28615 110.337 3.88287C110.365 2.83386 110.361 1.78486 110.337 0.73818C110.328 0.383849 110.419 0.281279 110.785 0.281279C115.969 0.295266 121.151 0.295266 126.336 0.281279C126.739 0.278948 126.809 0.411822 126.802 0.773147C126.779 1.78252 126.765 2.79423 126.807 3.80128C126.828 4.29548 126.641 4.36774 126.212 4.36075C125.559 4.35055 124.905 4.35285 124.251 4.35514C123.411 4.35809 122.57 4.36104 121.729 4.33744C121.205 4.32112 121.154 4.51227 121.154 4.95985C121.16 7.39403 121.161 9.82821 121.162 12.2624C121.164 15.36 121.165 18.4576 121.177 21.5551C121.179 22.0936 121.035 22.2242 120.513 22.2102C119.172 22.1706 117.832 22.1822 116.494 22.2055C116.116 22.2102 116.011 22.1123 116.011 21.7276C116.024 19.5641 116.023 17.3991 116.021 15.2349V15.2315C116.021 14.5824 116.021 13.9333 116.021 13.2843C116.021 12.5641 116.019 11.8438 116.017 11.1236V11.1223C116.013 9.1062 116.008 7.09014 116.039 5.07408C116.051 4.43535 115.846 4.31879 115.268 4.33511C114.413 4.35805 113.559 4.35521 112.705 4.35237ZM167.133 20.4397C168.755 21.7732 170.65 22.4002 172.706 22.5075C174.697 22.61 176.604 22.279 178.275 21.0575C180.546 19.3954 180.744 15.0385 177.842 13.5536C176.886 13.0641 175.888 12.7144 174.874 12.395C174.757 12.3582 174.639 12.3224 174.521 12.2867L174.521 12.2866C173.916 12.1031 173.311 11.9197 172.767 11.5861C172.373 11.346 172.145 11.0127 172.217 10.5231C172.287 10.0453 172.622 9.83312 173.035 9.72589C173.585 9.58136 174.145 9.55805 174.709 9.66295C175.909 9.88441 176.979 10.4159 178.017 11.1059C178.156 10.8548 178.29 10.6034 178.423 10.3535C178.733 9.77299 179.039 9.20021 179.39 8.6559C179.688 8.18968 179.518 7.99853 179.147 7.74676C177.154 6.39005 174.928 6.02872 172.592 6.27349C171.196 6.42035 169.935 6.95651 168.925 7.99153C167.018 9.94735 167.403 13.535 169.669 14.8334C170.413 15.2577 171.205 15.5584 172.03 15.7915C172.193 15.8375 172.357 15.8815 172.521 15.9255L172.521 15.9256C173.329 16.1423 174.14 16.36 174.853 16.8288C175.205 17.0596 175.504 17.3417 175.45 17.8149C175.392 18.3301 175.098 18.6541 174.602 18.8126C174.096 18.9735 173.581 19.0504 173.054 18.9805C171.564 18.7823 170.207 18.2415 169.009 17.3324C168.755 17.1389 168.622 17.1272 168.443 17.4326C167.991 18.1995 167.515 18.9548 167.014 19.6938C166.792 20.0201 166.832 20.1926 167.137 20.4421L167.133 20.4397ZM47.4192 21.2809C45.5729 22.3579 43.5402 22.5864 41.4655 22.5211L41.4678 22.5188C37.8056 22.4045 34.7635 19.9359 33.9989 16.4019C32.6259 10.0659 37.4 5.76495 43.0716 6.29878C44.3771 6.42233 45.6382 6.64845 46.8015 7.29184C47.228 7.52729 47.3796 7.81401 47.3423 8.31754C47.2791 9.16994 47.2539 10.0235 47.2277 10.9087C47.2172 11.2654 47.2065 11.6271 47.1931 11.9961C46.0392 11.1382 44.8503 10.5904 43.4982 10.3922C40.5377 9.95865 38.3744 12.2128 38.9409 15.1664C39.4048 17.5884 41.4725 18.8123 44.0507 18.1875C45.2163 17.9055 46.2233 17.2877 47.3026 16.607C47.3354 16.9226 47.3674 17.2339 47.3991 17.5419L47.3992 17.542L47.3992 17.5423L47.3993 17.5431L47.3995 17.545C47.5145 18.6623 47.625 19.7353 47.7456 20.8054C47.7768 21.0728 47.6248 21.1613 47.4443 21.2663L47.4192 21.2809ZM87.0276 18.754C87.3539 20.9406 88.5684 22.1505 90.7247 22.4535C92.2143 22.661 93.6596 22.4255 95.1049 22.1039C95.4033 22.0363 95.4126 21.8847 95.3963 21.6516L95.3962 21.6504C95.3193 20.5669 95.2424 19.4833 95.1865 18.3997C95.1725 18.1153 95.0723 18.0943 94.8298 18.1479C94.4545 18.2342 94.0699 18.3204 93.6853 18.3344C92.5943 18.3787 92.0768 17.9335 92.0278 16.8518C91.9956 16.1547 92.0035 15.4565 92.0114 14.7579C92.015 14.4473 92.0185 14.1367 92.0185 13.826H91.9835C91.9835 13.5447 91.9847 13.2635 91.9858 12.9825L91.9858 12.9771V12.9769V12.9766V12.9764V12.9761V12.9759V12.9757V12.9754V12.9752V12.9749C91.9887 12.2687 91.9915 11.563 91.9765 10.8562C91.9696 10.5112 92.0511 10.383 92.4218 10.3946C92.8956 10.4098 93.37 10.4078 93.8448 10.4058C94.2437 10.4041 94.6429 10.4024 95.042 10.4109C95.3474 10.4179 95.4453 10.3247 95.4383 10.017C95.4219 9.00759 95.4126 7.99821 95.4429 6.98883C95.4546 6.60886 95.3217 6.53892 94.979 6.54825C94.6003 6.5591 94.2206 6.55631 93.8408 6.55352C93.4047 6.55032 92.9685 6.54712 92.5337 6.56457C92.1094 6.58088 91.9579 6.48064 91.9719 6.02607C91.9917 5.41116 91.9891 4.79624 91.9864 4.18132C91.9844 3.70993 91.9824 3.23855 91.9905 2.76716C91.9975 2.39651 91.9019 2.26597 91.5057 2.27529C90.1466 2.30094 88.7876 2.31026 87.4285 2.27296C86.939 2.25898 86.8667 2.43614 86.869 2.8674C86.8802 6.50023 86.8795 10.1331 86.8787 13.7659C86.8785 14.6741 86.8784 15.5823 86.8784 16.4905C86.8784 17.2481 86.9133 18.0011 87.0252 18.7517L87.0276 18.754ZM160.46 13.6188C160.459 12.8143 160.459 12.0098 160.459 11.2052C160.459 10.3934 160.459 9.58141 160.46 8.76937V8.76917V8.76896V8.76875V8.76855V8.76834C160.462 6.12748 160.463 3.48591 160.447 0.845689C160.445 0.39112 160.557 0.262908 161.016 0.274563C162.375 0.304868 163.734 0.300206 165.091 0.274563C165.487 0.26757 165.566 0.398113 165.566 0.766431C165.555 7.75049 165.555 14.7345 165.566 21.7186C165.566 22.1009 165.464 22.2081 165.081 22.2011C163.704 22.1755 162.326 22.1708 160.948 22.2011C160.524 22.2105 160.449 22.0706 160.449 21.679C160.462 18.9922 160.461 16.3055 160.46 13.6188ZM124.856 7.02496C124.87 11.918 124.868 16.811 124.856 21.7017C124.856 22.0561 124.912 22.2076 125.32 22.1983C126.698 22.1703 128.078 22.1749 129.455 22.1983C129.831 22.2053 129.943 22.1073 129.938 21.7227C129.921 20.132 129.924 18.5412 129.927 16.9492V16.9486V16.9481V16.9475V16.947V16.9464V16.9459V16.9417C129.928 16.5742 129.928 16.2066 129.929 15.8389C129.929 14.713 130.197 13.643 130.742 12.6616C131.432 11.4238 132.425 10.6522 133.934 10.7454C134.19 10.7609 134.448 10.7606 134.705 10.7603C134.952 10.76 135.2 10.7597 135.446 10.7734C135.771 10.7921 135.878 10.6965 135.871 10.3608C135.854 9.68715 135.858 9.0135 135.861 8.33984C135.862 8.0624 135.864 7.78495 135.864 7.5075C135.864 7.00487 135.864 6.75366 135.739 6.61233C135.615 6.47112 135.366 6.43962 134.868 6.37663L134.833 6.37224C132.752 6.1065 131.085 6.71259 129.924 8.73834C129.924 8.53193 129.922 8.33821 129.919 8.1535V8.15213V8.15081V8.14951V8.14825V8.14703V8.14583V8.14466C129.914 7.73008 129.909 7.36071 129.933 6.99465C129.959 6.61002 129.838 6.50046 129.453 6.50512C128.094 6.5261 126.735 6.52843 125.376 6.50512C124.97 6.49812 124.854 6.61468 124.856 7.02263V7.02496ZM67.5263 22.2037C67.2003 22.206 67.1022 22.1176 67.102 21.7852C67.1137 16.8343 67.1137 11.8834 67.102 6.93245C67.0997 6.57812 67.2349 6.51751 67.5426 6.51984C68.9622 6.53383 70.3796 6.53616 71.7969 6.51984C72.1396 6.51518 72.2235 6.63873 72.2095 6.96042C72.193 7.3513 72.1964 7.74335 72.1997 8.13491V8.13512V8.13532V8.13552V8.13573V8.13593V8.13659V8.13683V8.13708V8.13733V8.13758C72.2011 8.29857 72.2025 8.45948 72.2025 8.62019C73.1373 7.11894 74.3844 6.26808 76.1468 6.25409H76.2051C77.5874 6.26109 77.697 6.36832 77.697 7.7297C77.697 7.97658 77.6948 8.22365 77.6927 8.47081V8.471V8.47119V8.47138V8.47157V8.47176V8.47196C77.6874 9.07857 77.6821 9.68567 77.7086 10.2916C77.7273 10.7229 77.5711 10.8254 77.1818 10.7835C76.999 10.7639 76.8141 10.7648 76.629 10.7657C76.4836 10.7664 76.338 10.7671 76.1934 10.7578C74.6898 10.6646 73.6921 11.4245 73.0068 12.674C72.4753 13.6414 72.2025 14.6834 72.2072 15.7954C72.2099 16.5608 72.2094 17.3267 72.209 18.0925V18.098C72.2082 19.2919 72.2075 20.486 72.2188 21.6792C72.2235 22.0638 72.1559 22.2176 71.7223 22.2083C70.3236 22.178 68.925 22.1873 67.5263 22.2037ZM79.9407 22.1996C81.3184 22.1763 82.6984 22.181 84.0761 22.1996C84.4305 22.2043 84.5773 22.1483 84.5773 21.7357C84.561 16.824 84.5633 11.9147 84.5773 7.00301C84.5773 6.6207 84.4771 6.50648 84.0948 6.51114C82.7357 6.53212 81.3767 6.54144 80.0176 6.50648C79.5281 6.49249 79.4558 6.67665 79.4605 7.10324C79.4745 8.90732 79.4727 10.7127 79.471 12.5184V12.5185V12.5186V12.5187V12.5189V12.519L79.471 12.542C79.4704 13.1363 79.4698 13.7307 79.4698 14.3251C79.4698 14.9339 79.4704 15.5426 79.471 16.1512L79.471 16.1747V16.1749V16.1751V16.1753V16.1755V16.1758C79.4727 18.0244 79.4745 19.8724 79.4605 21.7217C79.4582 22.1064 79.5654 22.2089 79.943 22.202L79.9407 22.1996ZM157.383 22.197C156.006 22.1737 154.628 22.1784 153.25 22.197C152.901 22.2017 152.789 22.1178 152.789 21.7494C152.8 16.8214 152.8 11.8911 152.789 6.9631C152.786 6.59711 152.908 6.50387 153.255 6.50853C154.633 6.52485 156.01 6.53184 157.388 6.5062C157.803 6.49687 157.896 6.62742 157.894 7.02604C157.88 8.85696 157.882 10.6892 157.883 12.5217V12.5272C157.884 13.138 157.884 13.7489 157.884 14.3598C157.884 14.9335 157.884 15.5075 157.883 16.0815V16.0818V16.0821V16.0824V16.0826V16.0872C157.882 17.9553 157.88 19.8244 157.896 21.6935C157.901 22.1108 157.784 22.204 157.383 22.197ZM96.9122 27.6732C64.9268 27.6662 32.9438 27.6662 0.95838 27.6732C0.914775 27.6732 0.86154 27.6648 0.80596 27.656L0.805926 27.656C0.632726 27.6287 0.436774 27.5978 0.438538 27.806C0.438538 27.9971 0.597917 27.9785 0.759441 27.9597C0.836368 27.9507 0.913782 27.9417 0.974698 27.9552C1.03952 27.9698 1.10772 27.9664 1.17617 27.9629C1.20618 27.9614 1.23624 27.9599 1.26609 27.9599H48.9213H48.9344C64.9122 27.9599 80.8901 27.9599 96.8679 27.9529C96.9159 27.9529 96.9729 27.9613 97.0323 27.9699C97.2239 27.9979 97.4389 28.0293 97.446 27.7944C97.4513 27.609 97.248 27.6362 97.068 27.6604C97.0103 27.6681 96.9551 27.6755 96.9099 27.6755L96.9122 27.6732ZM108.629 27.6731C132.169 27.6661 155.706 27.6661 179.246 27.6754L179.243 27.6731C179.297 27.6731 179.363 27.6612 179.433 27.6489C179.636 27.6126 179.862 27.5722 179.859 27.8176C179.857 28.0224 179.616 27.9932 179.4 27.9669C179.33 27.9585 179.264 27.9505 179.208 27.9505C167.459 27.9574 155.727 27.9574 143.959 27.9574L138.917 27.9575C128.83 27.9578 118.741 27.9581 108.652 27.9481C108.599 27.9481 108.534 27.9604 108.467 27.9732C108.267 28.0114 108.044 28.0539 108.037 27.7849C108.033 27.6072 108.256 27.6341 108.453 27.6579C108.517 27.6656 108.579 27.6731 108.629 27.6731ZM152.789 3.87903C152.782 4.21704 152.898 4.31495 153.222 4.30796C153.728 4.29449 154.233 4.29683 154.738 4.29917C154.932 4.30007 155.126 4.30096 155.32 4.30096C155.53 4.30096 155.739 4.29958 155.949 4.29819C156.458 4.29482 156.968 4.29144 157.477 4.30796C157.815 4.31961 157.901 4.20306 157.894 3.8767C157.875 2.80904 157.875 1.74139 157.894 0.673732C157.901 0.347374 157.808 0.247136 157.477 0.251798C156.059 0.270447 154.642 0.268116 153.225 0.251798C152.901 0.249467 152.784 0.333388 152.791 0.673732C152.812 1.74139 152.81 2.80904 152.791 3.8767L152.789 3.87903ZM79.8948 4.30665C79.5778 4.31131 79.4519 4.23438 79.4589 3.88938V3.88705C79.4822 2.82172 79.4868 1.7564 79.4589 0.691072C79.4495 0.311098 79.5918 0.241164 79.9274 0.25282C80.4195 0.269333 80.9139 0.265961 81.4082 0.262589C81.6117 0.261201 81.8152 0.259813 82.0184 0.259813C82.2217 0.259813 82.425 0.261202 82.6283 0.26259C83.122 0.265961 83.6158 0.269332 84.1095 0.25282C84.4521 0.241164 84.585 0.318092 84.5757 0.695734C84.5501 1.74008 84.557 2.78675 84.5757 3.83343C84.5804 4.16911 84.5198 4.31364 84.1374 4.30898C82.7225 4.288 81.3098 4.29499 79.8948 4.30665Z" fill="#222222"/>
</g>
<defs>
<clipPath id="clip0_1838_906">
<rect width="180" height="31" fill="white"/>
</clipPath>
</defs>
</svg>
