<svg width="169" height="25" viewBox="0 0 169 25" fill="none" xmlns="http://www.w3.org/2000/svg">
<g clip-path="url(#clip0_1838_926)">
<path fill-rule="evenodd" clip-rule="evenodd" d="M41.6049 7.625C39.7676 7.625 38.1926 8.27215 36.8802 9.3076V7.88386H32.418V24.5804H37.0115V13.9671C37.6677 13.0611 39.2426 11.8962 41.2112 11.8962C41.8674 11.8962 42.5236 12.0256 43.0486 12.1551V7.88386C42.5236 7.75443 41.9987 7.625 41.6049 7.625Z" fill="#293E40"/>
<path fill-rule="evenodd" clip-rule="evenodd" d="M2.09988 19.4076C3.28106 20.4431 5.11846 21.0902 6.69337 21.0902C7.87455 21.0902 8.92449 20.4431 8.92449 19.6665C8.92449 17.0779 0.656213 17.9839 0.656213 12.6772C0.656213 9.44146 3.80603 7.5 7.0871 7.5C9.31822 7.5 11.6806 8.27658 12.8618 9.1826L10.7619 12.4184C9.84319 11.9006 8.79325 11.2535 7.48082 11.2535C6.1684 11.2535 5.2497 11.7712 5.2497 12.6772C5.2497 14.8775 13.518 13.9715 13.518 19.7959C13.518 23.0317 10.3682 24.9731 6.82461 24.9731C4.46225 24.9731 1.96864 24.1965 0 22.7728L2.09988 19.4076Z" fill="#293E40"/>
<path fill-rule="evenodd" clip-rule="evenodd" d="M30.4459 16.0424C30.4459 11.3829 27.1649 7.5 22.4402 7.5C17.4529 7.5 14.1719 11.6418 14.1719 16.1718C14.1719 21.4785 17.9779 24.8437 22.9651 24.8437C25.59 24.8437 28.2148 23.8082 29.921 21.8668L27.2961 19.2782C26.5087 20.1842 24.9338 21.2196 23.0964 21.2196C20.734 21.2196 18.7654 19.537 18.5029 17.2073H30.1835C30.4459 16.9484 30.4459 16.5601 30.4459 16.0424ZM18.8966 14.101C19.1591 12.5478 20.734 11.1241 22.5714 11.1241C24.4088 11.1241 25.7212 12.5478 25.9837 14.101H18.8966Z" fill="#293E40"/>
<path fill-rule="evenodd" clip-rule="evenodd" d="M62.9978 7.89844L55.2545 24.595H52.1046L44.3613 7.89844H48.9548L53.6796 18.1234L58.273 7.89844H62.9978Z" fill="#293E40"/>
<path fill-rule="evenodd" clip-rule="evenodd" d="M66.8053 0C68.5115 0 69.8239 1.29431 69.8239 2.84747C69.8239 4.53007 68.5115 5.69494 66.8053 5.69494C65.0992 5.69494 63.918 4.40064 63.918 2.84747C63.918 1.16488 65.0992 0 66.8053 0Z" fill="#293E40"/>
<path d="M69.1677 7.89844H64.5742V24.595H69.1677V7.89844Z" fill="#293E40"/>
<path fill-rule="evenodd" clip-rule="evenodd" d="M87.8006 21.0902C85.832 23.6788 83.3384 24.8437 80.1885 24.8437C74.9388 24.8437 71.1328 20.9608 71.1328 16.1718C71.1328 11.2535 75.0701 7.5 80.1885 7.5C83.2071 7.5 85.7007 8.92374 87.2756 10.8652L84.2571 13.5832C83.3384 12.4184 82.0259 11.6418 80.451 11.6418C77.8262 11.6418 75.8575 13.7127 75.8575 16.1718C75.8575 18.7605 77.6949 20.7019 80.451 20.7019C82.2884 20.7019 83.7321 19.6665 84.5196 18.5016L87.8006 21.0902Z" fill="#293E40"/>
<path fill-rule="evenodd" clip-rule="evenodd" d="M104.206 21.8668C102.5 23.8082 99.8751 24.8437 97.2503 24.8437C92.2631 24.8437 88.457 21.4785 88.457 16.1718C88.457 11.5123 91.6068 7.5 96.7253 7.5C101.319 7.5 104.731 11.3829 104.731 16.0424C104.731 16.5601 104.731 16.9484 104.6 17.3367H92.788C93.0505 19.6665 95.0192 21.3491 97.3815 21.3491C99.2189 21.3491 100.794 20.3136 101.581 19.4076L104.206 21.8668ZM100.006 14.101C99.8751 12.6772 98.5627 11.1241 96.5941 11.1241C94.7567 11.1241 93.1818 12.5478 92.9193 14.101H100.006Z" fill="#293E40"/>
<path fill-rule="evenodd" clip-rule="evenodd" d="M106.436 24.5804V7.88386H110.767V9.3076C112.079 8.27215 113.654 7.625 115.491 7.625C117.854 7.625 119.954 8.66044 121.397 10.343C122.447 11.6373 123.235 13.3199 123.235 16.1674V24.7098H118.641V15.7791C118.641 14.0965 118.247 13.1905 117.591 12.6728C116.935 12.0256 116.147 11.6373 114.966 11.6373C113.129 11.6373 111.554 12.8022 110.767 13.7082V24.5804H106.436Z" fill="#293E40"/>
<path fill-rule="evenodd" clip-rule="evenodd" d="M134.917 7.5C129.405 7.5 125.074 11.7712 125.074 17.2073C125.074 20.0548 126.255 22.6434 128.093 24.4554C128.749 25.1026 129.93 25.1026 130.718 24.5848C131.768 23.6788 133.342 23.1611 134.917 23.1611C136.624 23.1611 137.936 23.6788 139.117 24.5848C139.905 25.232 140.955 25.1026 141.742 24.326C143.579 22.5139 144.761 20.0548 144.761 17.2073C144.629 11.9006 140.298 7.5 134.917 7.5ZM134.786 22.2551C131.768 22.2551 129.799 20.0548 129.799 17.3367C129.799 14.6187 131.768 12.4184 134.786 12.4184C137.805 12.4184 139.773 14.6187 139.773 17.3367C139.773 20.0548 137.805 22.2551 134.786 22.2551Z" fill="#81B5A1"/>
<path fill-rule="evenodd" clip-rule="evenodd" d="M143.58 7.89844H148.042L151.717 17.4763L155.392 7.89844H159.198L162.741 17.4763L166.416 7.89844H171.01L164.316 24.595H160.904L157.229 15.1465L153.686 24.595H150.273L143.58 7.89844Z" fill="#293E40"/>
</g>
<defs>
<clipPath id="clip0_1838_926">
<rect width="169" height="25" fill="white"/>
</clipPath>
</defs>
</svg>
