<svg width="128" height="50" viewBox="0 0 128 50" fill="none" xmlns="http://www.w3.org/2000/svg">
<g clip-path="url(#clip0_1838_939)">
<path fill-rule="evenodd" clip-rule="evenodd" d="M84.6338 6.80195C82.6256 6.80148 80.6173 6.80102 78.6091 6.79948L78.6042 6.79825L78.577 6.79821C77.6669 6.79694 77.6598 6.79693 77.2973 7.65924C76.7473 8.96605 76.1986 10.2734 75.6498 11.5808L75.6446 11.5933L75.6384 11.6078L75.6379 11.6092L75.6373 11.6106L75.6367 11.612L75.6361 11.6134C74.9898 13.1532 74.3434 14.6931 73.6949 16.2323C73.2141 17.3733 72.7305 18.5131 72.2468 19.6529C71.7632 20.7927 71.2796 21.9325 70.7988 23.0735C70.4049 24.0078 70.0092 24.9413 69.6134 25.8749L69.6129 25.8761L69.6124 25.8773L69.6119 25.8785L69.6114 25.8797C68.5676 28.342 67.5238 30.8046 66.5135 33.2801C65.7298 35.1992 64.9842 37.1337 64.2386 39.0684L64.2383 39.0693L64.2379 39.0701L64.2376 39.0709L64.2373 39.0717C63.913 39.9133 63.5886 40.7549 63.2611 41.5952L63.2543 41.6127C63.2419 41.6445 63.229 41.6776 63.2083 41.7045C63.1924 41.7254 63.1838 41.7537 63.1753 41.7817C63.1587 41.836 63.1425 41.8891 63.0744 41.8851C62.9966 41.8805 62.9614 41.7949 62.9322 41.7236L62.9258 41.7082C62.4714 40.6274 62.0181 39.5465 61.5649 38.4657C61.2013 37.5977 60.8382 36.7294 60.475 35.8611C59.961 34.6322 59.4469 33.4033 58.9316 32.1747C58.1235 30.247 57.3128 28.3193 56.5025 26.3923L56.5014 26.3897L56.5003 26.3871L56.4992 26.3845L56.4981 26.3819L56.0293 25.2671C55.4834 23.9681 54.9366 22.6695 54.3898 21.3709L54.3891 21.3693L54.3884 21.3676L54.3877 21.366C53.6815 19.6888 52.9752 18.0115 52.2709 16.333C51.505 14.508 50.7415 12.6817 49.9779 10.8551L49.9774 10.8538L49.9765 10.8518L49.9754 10.849L49.9739 10.8456C49.6576 10.0889 49.3413 9.33221 49.0247 8.5755C48.9581 8.41578 48.8905 8.25618 48.8229 8.09651C48.6801 7.75891 48.5371 7.42096 48.402 7.08074C48.3123 6.85352 48.1465 6.83387 47.9365 6.83387C43.5566 6.83755 39.1768 6.83755 34.7969 6.83755C34.6616 6.83755 34.5265 6.83722 34.3913 6.83689C34.0762 6.83612 33.7613 6.83534 33.4458 6.83878C33.2481 6.84124 33.1363 6.76877 33.0553 6.57471C32.3803 4.96083 31.6994 3.34987 31.0184 1.73845L31.0179 1.73738L31.0176 1.73671L31.0172 1.73564L31.0169 1.73496C30.8173 1.26275 30.6177 0.790492 30.4182 0.318112C30.3003 0.0393033 30.331 0.00736938 30.7069 0.00736938C33.9199 0.00982584 37.133 0.00982584 40.346 0.00982584L41.4819 0.00984614C45.2682 0.00994765 49.0545 0.0100492 52.8408 0C53.181 0 53.3518 0.0822914 53.4905 0.426196C54.1158 1.96243 54.755 3.49271 55.3942 5.02303L55.3942 5.02321L55.3943 5.02338L55.3944 5.02359L55.3945 5.02383L55.3953 5.02575L55.396 5.0275C55.7619 5.90354 56.1278 6.77959 56.4911 7.65678C57.1568 9.26571 57.8194 10.8764 58.482 12.4871L58.4835 12.4906C59.0612 13.8949 59.6389 15.2994 60.2188 16.7027C60.8901 18.3288 61.5656 19.9525 62.2412 21.5763L62.2415 21.577L62.2417 21.5776L62.242 21.5783L62.2426 21.5798L62.2512 21.6005C62.5474 22.3125 62.8437 23.0245 63.1395 23.7368C63.1488 23.7593 63.1601 23.7808 63.1811 23.8208C63.1933 23.8442 63.2088 23.8738 63.2292 23.9136C63.3428 23.6438 63.4538 23.3808 63.5628 23.1226L63.5659 23.1153L63.5661 23.1148C63.8022 22.5556 64.029 22.0183 64.2535 21.4805C64.8008 20.1724 65.3468 18.8648 65.8927 17.557L65.9008 17.5376L65.9116 17.5118L65.9249 17.4799C66.2479 16.7063 66.5709 15.9326 66.8942 15.1588L67.7439 13.1242L67.7459 13.1194C68.4283 11.4853 69.1106 9.8514 69.7941 8.21809C70.4603 6.62465 71.1285 5.03253 71.7968 3.44029L72.5379 1.67408C72.5911 1.54746 72.6452 1.42113 72.6993 1.29477L72.6993 1.29469L72.6993 1.29462L72.6994 1.29453L72.6994 1.29444C72.8379 0.97106 72.9765 0.647442 73.0992 0.318112C73.1889 0.0798349 73.3166 0.00122823 73.5746 0.00122823C79.4787 0.00982584 85.384 0.00982584 91.2881 0.00982584C92.0404 0.00982584 92.7924 0.00951878 93.5444 0.00921172C94.2963 0.00890467 95.0483 0.00859761 95.8006 0.00859761C96.2514 0.00736938 96.2538 0.00859763 96.0819 0.417598C95.8384 0.995956 95.5943 1.57421 95.3503 2.15254L95.3484 2.15683L95.3481 2.15754L95.3479 2.15817C94.7369 3.60567 94.1258 5.05362 93.5235 6.5047C93.4264 6.73807 93.3036 6.80685 93.0678 6.80685C90.2565 6.80327 87.4451 6.80261 84.6338 6.80195ZM38.5042 47.2923C38.6393 47.1781 38.729 47.2039 38.8395 47.3169L38.8383 47.3156C39.2755 47.7602 39.7152 48.2024 40.1599 48.6397C40.2937 48.7723 40.2839 48.857 40.1402 48.9811C39.6121 49.4343 39.0311 49.7733 38.3372 49.8961L38.3272 49.8979C38.2385 49.9131 38.1517 49.9281 38.0854 49.9956H36.8264C36.661 49.9136 36.4844 49.867 36.307 49.8201L36.307 49.8201C36.1525 49.7794 35.9974 49.7384 35.8488 49.6738C34.6021 49.1285 33.31 47.7516 33.4267 45.6379C33.5053 44.218 34.5603 42.6926 36.0183 42.1792C37.4934 41.6596 38.8739 41.8819 40.0984 42.8977C40.2753 43.0451 40.3171 43.1618 40.1291 43.3411C39.7079 43.7427 39.2952 44.1554 38.8935 44.5767C38.7388 44.7388 38.6332 44.7302 38.46 44.5975C37.8459 44.1284 37.018 44.1394 36.4445 44.6C35.78 45.1343 35.5736 45.9191 35.904 46.6536C36.2197 47.3562 36.98 47.7713 37.7341 47.6472C38.0215 47.6006 38.2831 47.4777 38.5042 47.2923ZM4.57909 45.0898C5.03599 45.1966 5.48921 45.3096 5.91172 45.527H5.91049C7.43472 46.3119 7.26891 48.2218 6.2765 49.1036C5.78275 49.5421 5.19075 49.7816 4.5447 49.8897L4.54012 49.8905C4.41891 49.9111 4.30141 49.931 4.19588 49.9953H2.62006C2.38842 49.9241 2.15012 49.8823 1.91171 49.8405C1.62804 49.7908 1.34421 49.741 1.07126 49.6416L1.04073 49.6305C0.782122 49.536 0.526086 49.4426 0.280283 49.3161C0.112016 49.2289 0.0911358 49.1233 0.158688 48.9685L0.810878 47.4873C0.882116 47.3252 0.957038 47.3031 1.13636 47.3915C1.91506 47.7735 2.73674 48.0056 3.61493 47.9737C3.78688 47.9675 3.96252 47.9454 4.12956 47.9024C4.28186 47.8643 4.42187 47.7722 4.43047 47.5954C4.43784 47.4369 4.33221 47.3374 4.1922 47.2711C3.89648 47.1327 3.58103 47.066 3.26557 46.9993C3.17224 46.9796 3.0789 46.9599 2.98607 46.9383C2.46039 46.8154 1.93717 46.6902 1.4385 46.4703C-0.271192 45.7174 -0.106609 43.5213 1.16829 42.6235C1.8475 42.1457 2.61883 41.9738 3.41964 41.9308C4.40836 41.8767 5.37621 42.0167 6.29984 42.3975L6.31122 42.4022C6.704 42.5645 6.70732 42.5659 6.54917 42.9649C6.39918 43.3453 6.24357 43.7238 6.08807 44.102L6.0198 44.2681C5.95471 44.4278 5.89207 44.5064 5.67958 44.4081C4.92913 44.0617 4.14921 43.8394 3.30787 43.9795C3.21821 43.9942 3.12732 44.0163 3.04503 44.0519C2.89518 44.1182 2.79201 44.2288 2.80552 44.4069C2.81781 44.5678 2.92098 44.6636 3.06345 44.7189C3.40553 44.8509 3.76198 44.9219 4.11817 44.9928C4.27225 45.0235 4.42629 45.0542 4.57909 45.0898ZM23.2283 47.9158C22.5065 47.9248 21.7847 47.9233 21.063 47.9218C20.7923 47.9213 20.5217 47.9208 20.2511 47.9208C19.902 47.9208 19.7282 47.9208 19.6413 47.8338C19.5552 47.7476 19.5546 47.5759 19.5535 47.2338L19.5534 47.2047C19.5534 46.9689 19.6308 46.9099 19.8543 46.9136C20.2887 46.9189 20.7234 46.9183 21.158 46.9177H21.1587C21.6346 46.917 22.1104 46.9164 22.5859 46.9234C22.8586 46.9271 22.9495 46.8289 22.9409 46.566C22.9274 46.1374 22.9237 45.7063 22.9421 45.2776C22.9544 44.9914 22.8439 44.903 22.5663 44.9079C21.8088 44.9206 21.0513 44.917 20.2938 44.9135H20.2933L20.1417 44.9128C20.0644 44.9124 19.9975 44.9132 19.9396 44.9139H19.9393H19.9389H19.9386C19.7513 44.9163 19.6583 44.9174 19.6112 44.8715C19.5648 44.8261 19.5631 44.7349 19.5598 44.5537C19.5586 44.4884 19.5572 44.4115 19.5534 44.3208C19.5411 44.0359 19.6443 43.9843 19.9035 43.9867C20.4937 43.9942 21.0843 43.9934 21.6751 43.9927H21.6751H21.6752H21.6752H21.6752H21.6753H21.6753H21.6754H21.6754H21.6755H21.6755H21.6756C22.1591 43.9921 22.6427 43.9915 23.1263 43.9953C23.3474 43.9966 23.4395 43.9352 23.4322 43.7006C23.4187 43.2203 23.4199 42.7388 23.4322 42.2586C23.4383 42.0117 23.356 41.9184 23.0956 41.9196C21.1317 41.9295 19.1665 41.9307 17.2026 41.9196C16.9348 41.9184 16.8489 41.9933 16.8513 42.2648C16.8602 43.022 16.859 43.7792 16.8578 44.5364V44.5379C16.8572 44.936 16.8566 45.334 16.8575 45.732C16.8599 46.6796 16.8646 47.6276 16.8692 48.5755L16.8692 48.5767L16.8692 48.5778L16.8692 48.579L16.8692 48.5802L16.8692 48.5813L16.8692 48.5825C16.8715 49.0539 16.8738 49.5252 16.8759 49.9965H23.512C23.5599 49.6479 23.5548 49.2984 23.5496 48.9491V48.9491V48.949V48.949V48.9489V48.9489V48.9488V48.9488V48.9487V48.9487V48.9486V48.9486C23.5462 48.7159 23.5427 48.4833 23.555 48.2511C23.5685 48.0006 23.4887 47.9109 23.2283 47.9146V47.9158ZM75.1603 47.9834C75.0178 47.7255 75.051 47.556 75.2291 47.3324C76.0053 46.3547 76.1429 45.2481 75.7265 44.0985C75.2389 42.7487 73.9849 41.9196 72.5552 41.9196H69.4269C69.1624 41.9196 69.0298 42.0559 69.029 42.3286C69.029 44.731 69.029 47.1334 69.0302 49.5359C69.0302 49.6376 69.0379 49.7398 69.0455 49.8419L69.0456 49.8425C69.0494 49.8931 69.0531 49.9436 69.056 49.994H71.3442C71.3464 49.8888 71.3496 49.7836 71.3528 49.6784C71.3606 49.4263 71.3683 49.1743 71.3614 48.923C71.354 48.6908 71.4424 48.6184 71.666 48.6282C71.9816 48.6429 72.2997 48.638 72.6154 48.6294C72.8009 48.6245 72.92 48.6835 72.9949 48.8652C73.0585 49.0179 73.1367 49.1638 73.2149 49.3099C73.3331 49.5305 73.4514 49.7513 73.5194 49.9952C73.9511 49.9952 74.3825 49.9946 74.8139 49.994C75.2453 49.9934 75.6768 49.9928 76.1085 49.9928C76.0974 49.8687 76.0557 49.7557 76.0004 49.6452C75.9113 49.4677 75.824 49.2891 75.7368 49.1105C75.5511 48.7304 75.3654 48.3503 75.1615 47.9809L75.1603 47.9834ZM72.7038 46.2933C72.4499 46.3218 72.1928 46.3206 71.9352 46.3195H71.9349C71.8039 46.3189 71.6728 46.3183 71.5419 46.3216C71.3823 46.3253 71.3614 46.2295 71.3626 46.103C71.3642 45.9201 71.3637 45.7367 71.3632 45.5535V45.5517L71.3627 45.3763L71.3626 45.2764C71.3626 45.1997 71.3633 45.123 71.3639 45.0463V45.0462V45.0461V45.046V45.0459V45.0458V45.0457V45.0456V45.0455V45.0455V45.0454V45.0453C71.3655 44.8669 71.367 44.6887 71.3602 44.5112C71.3528 44.3097 71.4375 44.2422 71.634 44.2508C71.8194 44.2582 72.0047 44.2567 72.1902 44.2551C72.3109 44.2541 72.4317 44.253 72.5528 44.2545C73.0748 44.2594 73.555 44.6708 73.5918 45.1437C73.6385 45.7419 73.2799 46.2295 72.7014 46.2933H72.7038ZM56.9321 41.9246L56.8737 41.9255C56.3513 41.9339 55.8269 41.9422 55.3047 41.9209C54.9976 41.9074 54.8969 41.9971 54.9006 42.3139C54.9166 43.6343 54.9129 44.9534 54.9043 46.2738C54.8994 47.0119 54.3282 47.6223 53.6196 47.6702C52.8286 47.7243 52.1715 47.0991 52.1678 46.2713C52.1616 44.9411 52.1616 43.6109 52.1678 42.2808C52.169 42.0216 52.0879 41.9135 51.8128 41.9234C51.281 41.9418 50.7479 41.9442 50.2174 41.9234C49.9164 41.9111 49.8243 42.0192 49.8268 42.3102C49.8315 42.8812 49.8295 43.4521 49.8276 44.0229V44.023V44.0231V44.0232V44.0232V44.0233V44.0234V44.0235V44.0236V44.0236C49.825 44.8034 49.8224 45.583 49.8366 46.3622C49.8648 47.8852 50.6276 48.9562 51.9541 49.6612C52.125 49.7522 52.3088 49.8003 52.4922 49.8483C52.6527 49.8903 52.8129 49.9321 52.9637 50.0027H54.1158C54.173 49.9407 54.2503 49.9266 54.3264 49.9127L54.3381 49.9105C55.7604 49.6428 57.1937 48.2598 57.2342 46.4359C57.254 45.5336 57.2498 44.6308 57.2457 43.7281V43.728V43.7279V43.7279V43.7278V43.7277V43.7276V43.7275V43.7275C57.2434 43.2284 57.2411 42.7293 57.2428 42.2304C57.2428 42.002 57.1519 41.9234 56.9309 41.927L56.9321 41.9246ZM126.891 41.9228C126.66 41.9215 126.428 41.9221 126.197 41.9226H126.197C125.773 41.9236 125.349 41.9246 124.925 41.9142C124.698 41.9093 124.571 41.9879 124.47 42.1845C124.163 42.7838 123.845 43.3758 123.525 43.9691C123.517 43.9857 123.509 44.0049 123.502 44.0244C123.479 44.0846 123.454 44.1487 123.383 44.1533C123.293 44.1584 123.259 44.0862 123.226 44.0152L123.216 43.9942C123.212 43.9865 123.209 43.9789 123.205 43.9715C123.102 43.7785 122.998 43.5858 122.894 43.3931L122.892 43.3903L122.892 43.3902C122.673 42.983 122.453 42.5756 122.243 42.1636C122.15 41.9806 122.035 41.9142 121.836 41.9167C121.386 41.9224 120.936 41.9216 120.485 41.9208C120.26 41.9204 120.035 41.92 119.81 41.9204C119.495 41.9204 119.478 41.9462 119.628 42.2225L119.794 42.5304L120.04 42.986L120.04 42.9865C120.647 44.1139 121.254 45.2411 121.878 46.3592C122.104 46.7645 122.227 47.1625 122.215 47.6317C122.194 48.4177 122.175 49.2062 122.232 49.9935C122.992 49.9935 123.753 49.9948 124.513 49.996L124.52 49.996C124.522 49.7655 124.524 49.535 124.526 49.3044C124.532 48.615 124.538 47.9256 124.54 47.2362C124.54 47.0372 124.577 46.8603 124.675 46.681C125.222 45.6807 125.765 44.6789 126.308 43.6771L126.308 43.677L126.308 43.6769L126.308 43.6768L126.308 43.6767L126.308 43.6766L126.308 43.6764L126.309 43.6751C126.596 43.1462 126.882 42.6173 127.169 42.0887C127.182 42.0665 127.203 42.0488 127.224 42.0311C127.234 42.0222 127.245 42.0133 127.254 42.0039C127.255 41.9892 127.255 41.9757 127.254 41.9609L127.231 41.9581L127.212 41.9554L127.175 41.9502L127.146 41.946C127.061 41.9336 126.976 41.9213 126.891 41.9204V41.9228ZM109.27 41.9196C109.505 41.9184 109.569 42.0142 109.565 42.2316L109.564 42.2304C109.554 42.8125 109.553 43.396 109.565 43.9781C109.57 44.198 109.484 44.2643 109.278 44.2606C109.099 44.2576 108.919 44.2591 108.74 44.2606H108.74C108.479 44.2627 108.218 44.2649 107.959 44.2533C107.688 44.241 107.609 44.3319 107.61 44.6008C107.619 45.9285 107.617 47.2571 107.616 48.5857V48.5858V48.5858V48.5859V48.586V48.5861V48.5861L107.615 49.5076C107.615 49.6166 107.609 49.7255 107.604 49.8344C107.601 49.8888 107.598 49.9433 107.596 49.9977H105.302L105.296 48.7609C105.291 47.9363 105.287 47.1118 105.284 46.2872L105.283 46.129C105.28 45.5993 105.278 45.0689 105.286 44.5394C105.288 44.3294 105.217 44.2483 105.001 44.2545C104.749 44.2611 104.496 44.2599 104.244 44.2587C104.026 44.2577 103.808 44.2566 103.59 44.2606C103.406 44.2643 103.309 44.2275 103.313 44.0101C103.326 43.3972 103.322 42.7831 103.316 42.1702C103.315 41.9896 103.376 41.9196 103.565 41.9196C105.467 41.9258 107.369 41.9258 109.27 41.9196ZM90.3915 41.9197C89.9943 41.926 89.5964 41.925 89.1988 41.9241C89.0542 41.9237 88.9098 41.9234 88.7654 41.9234C88.4919 41.9234 88.3551 42.0585 88.3551 42.3287V49.5716C88.3551 49.6666 88.3639 49.7615 88.3726 49.8565L88.3727 49.8575C88.377 49.9046 88.3814 49.9518 88.3846 49.999H90.6482C90.6499 49.982 90.6519 49.965 90.6539 49.9481C90.6591 49.9041 90.6642 49.8604 90.6642 49.816L90.6646 48.7466L90.6648 47.6296C90.6652 45.8111 90.6656 43.9925 90.6691 42.1739C90.6691 41.9639 90.5795 41.9172 90.3903 41.9197H90.3915ZM127.169 20.8211C127.054 19.9258 126.873 19.05 126.55 18.2062C125.181 14.637 122.55 12.4471 118.961 11.3441C117.447 10.8786 115.883 10.7583 114.296 10.8086C112.315 10.8713 110.433 11.2913 108.664 12.1867C105.845 13.6127 103.907 15.8149 102.989 18.8425C102.333 21.0091 102.326 23.2187 102.924 25.411C103.624 27.9756 105.096 29.9997 107.282 31.5006C109.555 33.0605 112.098 33.7127 115.134 33.7004C116.392 33.7483 117.916 33.521 119.387 33.0298C121.49 32.3272 123.305 31.1714 124.735 29.4495C126.435 27.4045 127.169 25.0119 127.301 22.3982C127.323 21.9559 127.264 21.522 127.205 21.0861V21.086V21.0859V21.0859L127.193 21.0006C127.185 20.9408 127.177 20.881 127.169 20.8211ZM118.547 25.9834C117.692 27.0151 116.599 27.5776 115.248 27.6845C112.631 27.8933 110.679 26.0976 110.172 23.8696C109.792 22.2054 109.899 20.5915 110.798 19.1102C111.826 17.4153 113.366 16.6796 115.343 16.8257C117.536 16.9878 119.074 18.6435 119.549 20.4969C119.697 21.0742 119.785 21.6563 119.777 22.2545C119.763 23.6277 119.441 24.9038 118.547 25.9834ZM44.7007 27.635C45.0061 27.6358 45.1588 27.7857 45.1588 28.0845L45.1601 28.0821C45.1601 28.4906 45.1595 28.8992 45.1589 29.3077C45.1573 30.475 45.1556 31.6423 45.1674 32.8095C45.1699 33.1264 45.0704 33.205 44.7646 33.205C38.9317 33.1977 33.1001 33.1977 27.2672 33.205C26.9995 33.2063 26.9221 33.1326 26.9221 32.8611C26.9298 30.0807 26.9292 27.2995 26.9286 24.5187V24.5169V24.5168V24.5167C26.9284 23.758 26.9282 22.9993 26.9282 22.2406C26.9279 21.3142 26.928 20.3879 26.9281 19.4616V19.4615V19.4615C26.9284 16.8682 26.9287 14.2752 26.9196 11.6815C26.9184 11.3585 27.0154 11.2946 27.3176 11.2946C33.008 11.3032 38.6971 11.3032 44.3863 11.2946C44.6872 11.2934 44.7646 11.3855 44.7621 11.6766C44.7498 13.2942 44.7498 14.9106 44.7621 16.5269C44.7646 16.7996 44.6811 16.8733 44.4133 16.8733C41.802 16.8674 39.1915 16.8678 36.5805 16.8682H36.5804H36.5803L34.6206 16.8684C34.3365 16.8675 34.1944 17.0071 34.1944 17.2872C34.1944 17.4624 34.1958 17.6377 34.1972 17.813V17.8132C34.2006 18.2311 34.2039 18.649 34.1883 19.0669C34.1772 19.3518 34.2645 19.4317 34.5469 19.4317C36.6131 19.4239 38.6792 19.4246 40.7454 19.4252C41.3089 19.4254 41.8724 19.4255 42.4359 19.4255C42.5179 19.4255 42.6 19.426 42.682 19.4265C42.8664 19.4275 43.0506 19.4285 43.2342 19.4243C43.4135 19.4206 43.4885 19.4869 43.4885 19.6761C43.4823 21.2728 43.4799 22.8683 43.4885 24.465C43.4897 24.7585 43.3202 24.7646 43.1089 24.7646H37.491C37.2329 24.7646 36.9748 24.7651 36.7165 24.7655H36.7163H36.7161H36.7159C35.9924 24.7667 35.2685 24.7679 34.5445 24.7597C34.2841 24.7573 34.1809 24.8322 34.1871 25.1085C34.2043 25.8246 34.2055 26.5407 34.1871 27.2567C34.1797 27.5515 34.273 27.6412 34.5703 27.6412C37.2232 27.6334 39.8769 27.6341 42.5301 27.6347H42.5302H42.5303C43.2538 27.6348 43.9773 27.635 44.7007 27.635ZM19.6991 26.0949C19.6832 24.9613 19.4559 23.878 18.762 22.9506C17.7143 21.5517 16.2687 20.7669 14.6192 20.2805C13.5868 19.9765 12.5364 19.7581 11.4859 19.5396L11.4859 19.5396C10.9192 19.4218 10.3524 19.3039 9.78854 19.1726L9.64585 19.1396C9.0973 19.013 8.54308 18.8851 8.06165 18.5732C7.46964 18.19 7.4549 17.3941 8.01989 16.9692C8.25079 16.7948 8.51241 16.6732 8.79367 16.6142C10.2442 16.3108 11.6837 16.441 13.1084 16.7788C14.2028 17.0392 15.2517 17.4384 16.2552 17.9493C16.4554 18.0512 16.5635 18.0476 16.6642 17.8019C17.2101 16.4638 17.7678 15.13 18.3254 13.7961L18.3256 13.7958L18.6809 12.9455C18.7583 12.7588 18.7067 12.647 18.5262 12.5525C16.8607 11.6767 15.0699 11.2125 13.2202 10.9607C12.0644 10.8035 10.9025 10.7691 9.7345 10.8059C8.03463 10.86 6.38266 11.1216 4.81175 11.7983C2.3774 12.846 0.75245 14.5557 0.345906 17.2603C0.191149 18.2883 0.279582 19.2991 0.585411 20.2891C0.966162 21.5185 1.80873 22.3857 2.82693 23.114C3.95869 23.9229 5.27272 24.2676 6.58101 24.6108L6.58103 24.6108C6.68119 24.6371 6.78131 24.6634 6.88132 24.6898C7.58217 24.8753 8.28984 25.0338 8.99759 25.1924L8.99765 25.1924L8.99784 25.1925C9.56505 25.3196 10.1323 25.4467 10.6962 25.5877C11.1666 25.7056 11.6481 25.8308 12.0362 26.16C12.5336 26.5813 12.4906 27.3023 11.9367 27.6376C11.7181 27.7702 11.4798 27.8574 11.2268 27.9102C10.3351 28.0994 9.43235 28.0871 8.5382 28.0036C6.47355 27.8108 4.51943 27.2237 2.6906 26.2362L2.67036 26.2252C2.32084 26.0358 2.31789 26.0342 2.15877 26.3934C1.87942 27.0229 1.60065 27.6528 1.32184 28.2828C0.899477 29.2372 0.477032 30.1917 0.0523593 31.1454C-0.050812 31.3763 -0.00536747 31.5004 0.223083 31.6305C1.24988 32.2189 2.34792 32.623 3.48403 32.9251C5.4185 33.441 7.38489 33.7259 9.39305 33.6915C9.48193 33.6915 9.57069 33.6922 9.65939 33.6929C9.83667 33.6942 10.0138 33.6956 10.1914 33.6915C12.1111 33.6399 13.9719 33.3243 15.7 32.4399C18.2854 31.1171 19.7446 29.0746 19.7016 26.0937L19.6991 26.0949ZM94.5824 19.1664C93.8589 18.3177 93.0336 17.6029 91.9773 17.1865L91.9761 17.1853C89.4643 16.1941 86.2107 17.0244 85.2257 20.0004C84.544 22.0613 84.6374 24.1014 85.9995 25.9131C86.8457 27.0381 88.0371 27.565 89.4312 27.6793C91.5376 27.8512 93.1687 26.9767 94.5025 25.4218C94.7543 25.1282 94.7629 25.1307 95.0515 25.3898C95.3188 25.6298 95.5858 25.8698 95.8529 26.1099C96.9681 27.1123 98.0832 28.1146 99.2079 29.1065C99.4118 29.2858 99.3933 29.3951 99.2423 29.5781C98.0374 31.0471 96.5426 32.1181 94.7752 32.8059C93.1257 33.447 91.4123 33.7295 89.6449 33.6939C87.676 33.7381 85.7821 33.3905 83.9827 32.5787C81.0178 31.2411 78.9654 29.05 77.9288 25.9597C77.327 24.1678 77.252 22.318 77.5014 20.4474C77.7888 18.2894 78.6584 16.4017 80.0782 14.762C81.3715 13.2697 82.9842 12.2441 84.829 11.5747C86.1837 11.0834 87.5839 10.8501 89.0283 10.8034C90.4899 10.7555 91.9318 10.8587 93.3418 11.2247C95.6865 11.8339 97.6861 13.0179 99.2374 14.9106C99.3847 15.0924 99.4216 15.2078 99.2202 15.3859C97.7807 16.6559 96.3498 17.9357 94.9214 19.218C94.7641 19.3605 94.6929 19.2966 94.5824 19.1664Z" fill="#FE0202"/>
</g>
<defs>
<clipPath id="clip0_1838_939">
<rect width="128" height="50" fill="white"/>
</clipPath>
</defs>
</svg>
