<svg width="174" height="44" viewBox="0 0 174 44" fill="none" xmlns="http://www.w3.org/2000/svg">
<g clip-path="url(#clip0_1838_954)">
<path d="M55.6289 34.6445L57.8009 29.6C60.148 31.3515 63.2658 32.2624 66.3485 32.2624C68.6256 32.2624 70.0618 31.3866 70.0618 30.0554C70.0268 26.3421 56.4346 29.2497 56.3295 19.9313C56.2945 15.2021 60.4983 11.5588 66.4536 11.5588C69.9918 11.5588 73.5299 12.4346 76.0522 14.4314L74.0204 19.581C71.7083 18.1097 68.8357 17.0587 66.1033 17.0587C64.2466 17.0587 63.0205 17.9345 63.0205 19.0555C63.0556 22.6988 76.7528 20.702 76.893 29.6C76.893 34.4343 72.7943 37.8324 66.909 37.8324C62.6002 37.8324 58.6416 36.8164 55.6289 34.6445ZM138.969 27.7783C137.883 29.67 135.851 30.9662 133.504 30.9662C130.036 30.9662 127.233 28.1637 127.233 24.6956C127.233 21.2275 130.036 18.425 133.504 18.425C135.851 18.425 137.883 19.7211 138.969 21.6128L144.959 18.2848C142.717 14.2913 138.408 11.5588 133.504 11.5588C126.252 11.5588 120.367 17.4441 120.367 24.6956C120.367 31.9471 126.252 37.8324 133.504 37.8324C138.443 37.8324 142.717 35.1349 144.959 31.1063L138.969 27.7783ZM79.9057 0.664062H87.4024V37.3419H79.9057V0.664062ZM147.902 0.664062V37.3419H155.398V26.3421L164.296 37.3419H173.895L162.58 24.2752L173.054 12.0843H163.876L155.398 22.2084V0.664062H147.902ZM109.682 27.8484C108.596 29.635 106.354 30.9662 103.832 30.9662C100.364 30.9662 97.5615 28.1637 97.5615 24.6956C97.5615 21.2275 100.364 18.425 103.832 18.425C106.354 18.425 108.596 19.8262 109.682 21.6479V27.8484ZM109.682 12.0843V15.062C108.456 12.9951 105.409 11.5588 102.221 11.5588C95.6347 11.5588 90.4501 17.374 90.4501 24.6606C90.4501 31.9471 95.6347 37.8324 102.221 37.8324C105.409 37.8324 108.456 36.3961 109.682 34.3292V37.3069H117.179V12.0843H109.682Z" fill="black"/>
<path d="M9.28344 27.8195C9.28344 30.3767 7.21659 32.4436 4.6593 32.4436C2.10201 32.4436 0.0351562 30.3767 0.0351562 27.8195C0.0351562 25.2622 2.10201 23.1953 4.6593 23.1953H9.28344V27.8195ZM11.5955 27.8195C11.5955 25.2622 13.6624 23.1953 16.2197 23.1953C18.7769 23.1953 20.8438 25.2622 20.8438 27.8195V39.3798C20.8438 41.9371 18.7769 44.004 16.2197 44.004C13.6624 44.004 11.5955 41.9371 11.5955 39.3798V27.8195Z" fill="#E01E5A"/>
<path d="M16.2195 9.24829C13.6622 9.24829 11.5954 7.18143 11.5954 4.62414C11.5954 2.06685 13.6622 0 16.2195 0C18.7768 0 20.8437 2.06685 20.8437 4.62414V9.24829H16.2195ZM16.2195 11.5954C18.7768 11.5954 20.8437 13.6622 20.8437 16.2195C20.8437 18.7768 18.7768 20.8437 16.2195 20.8437H4.62414C2.06685 20.8437 0 18.7768 0 16.2195C0 13.6622 2.06685 11.5954 4.62414 11.5954H16.2195Z" fill="#36C5F0"/>
<path d="M34.7518 16.2195C34.7518 13.6622 36.8186 11.5954 39.3759 11.5954C41.9332 11.5954 44 13.6622 44 16.2195C44 18.7768 41.9332 20.8437 39.3759 20.8437H34.7518V16.2195ZM32.4397 16.2195C32.4397 18.7768 30.3728 20.8437 27.8155 20.8437C25.2583 20.8437 23.1914 18.7768 23.1914 16.2195V4.62414C23.1914 2.06685 25.2583 0 27.8155 0C30.3728 0 32.4397 2.06685 32.4397 4.62414V16.2195Z" fill="#2EB67D"/>
<path d="M27.8155 34.7557C30.3728 34.7557 32.4397 36.8225 32.4397 39.3798C32.4397 41.9371 30.3728 44.004 27.8155 44.004C25.2583 44.004 23.1914 41.9371 23.1914 39.3798V34.7557H27.8155ZM27.8155 32.4436C25.2583 32.4436 23.1914 30.3767 23.1914 27.8195C23.1914 25.2622 25.2583 23.1953 27.8155 23.1953H39.4109C41.9682 23.1953 44.0351 25.2622 44.0351 27.8195C44.0351 30.3767 41.9682 32.4436 39.4109 32.4436H27.8155Z" fill="#ECB22E"/>
</g>
<defs>
<clipPath id="clip0_1838_954">
<rect width="174" height="44" fill="white"/>
</clipPath>
</defs>
</svg>
