<svg width="135" height="40" viewBox="0 0 135 40" fill="none" xmlns="http://www.w3.org/2000/svg">
<g clip-path="url(#clip0_1838_683)">
<path d="M14.3971 24.2243C14.3971 25.1153 14.2083 25.9434 13.8305 26.7086C13.4528 27.4633 12.9176 28.1132 12.2459 28.6373C11.5638 29.1719 10.7559 29.5807 9.82195 29.8742C8.88803 30.1677 7.85967 30.3144 6.74735 30.3144C5.41468 30.3144 4.21841 30.1362 3.16906 29.7694C2.11971 29.413 1.05985 28.805 0 27.9664L1.75243 25.1258C2.59191 25.8281 3.34744 26.3418 4.02952 26.6667C4.70111 26.9917 5.39369 27.1489 6.10725 27.1489C6.97822 27.1489 7.67078 26.9287 8.20596 26.478C8.74113 26.0272 8.99298 25.4298 8.99298 24.6646C8.99298 24.3397 8.9405 24.0357 8.84607 23.7527C8.75162 23.4696 8.57323 23.1761 8.32139 22.8721C8.06954 22.5787 7.71277 22.2432 7.26154 21.8973C6.82082 21.5513 6.24367 21.1111 5.53011 20.5974C4.99494 20.2201 4.45975 19.8218 3.94557 19.4234C3.43139 19.0147 2.96968 18.5849 2.53945 18.1237C2.11971 17.6624 1.7839 17.1489 1.52157 16.5723C1.26972 16.0063 1.13331 15.3459 1.13331 14.6227C1.13331 13.7841 1.3117 13.0083 1.65799 12.3166C2.00427 11.6248 2.48697 11.0377 3.0956 10.5451C3.70422 10.0524 4.42828 9.67505 5.28875 9.40251C6.13873 9.12998 7.06216 8.99372 8.06954 8.99372C9.12939 8.99372 10.1473 9.12999 11.1336 9.413C12.12 9.69602 13.0329 10.1048 13.883 10.6499L12.2984 13.2076C11.2176 12.4528 10.0738 12.065 8.87754 12.065C8.15348 12.065 7.54487 12.2537 7.07265 12.631C6.60044 13.0083 6.35908 13.4801 6.35908 14.0566C6.35908 14.6017 6.56896 15.0943 6.9887 15.5241C7.40843 15.9643 8.13251 16.5619 9.16087 17.3584C10.1997 18.1132 11.0602 18.7841 11.7318 19.3501C12.4139 19.9161 12.9491 20.4612 13.3478 20.9643C13.7466 21.4676 14.0089 21.9707 14.1663 22.4948C14.3236 23.0293 14.3971 23.5953 14.3971 24.2243ZM32.3935 19.434C32.3935 20.2201 32.3096 21.0692 32.1418 21.9811C31.9843 22.8931 31.701 23.7317 31.3023 24.5073C30.9035 25.283 30.3893 25.9224 29.7492 26.4151C29.1091 26.9182 28.2906 27.1698 27.3147 27.1698C25.6777 27.1698 24.387 26.5199 23.4426 25.2097C22.4981 23.9099 22.026 22.1174 22.026 19.8428C22.026 17.5052 22.4981 15.6603 23.4636 14.2872C24.4185 12.914 25.7197 12.2327 27.3567 12.2327C28.9098 12.2327 30.1374 12.8826 31.0399 14.1614C31.9424 15.4508 32.3935 17.2118 32.3935 19.434ZM38.0811 19.2348C38.0811 17.7149 37.8607 16.3312 37.4305 15.0943C36.9897 13.847 36.3811 12.7778 35.5731 11.8763C34.7651 10.9748 33.8207 10.283 32.7188 9.77988C31.617 9.27673 30.3998 9.02516 29.0671 9.02516C27.598 9.02516 26.3073 9.30818 25.195 9.85326C24.0827 10.4088 23.0438 11.2788 22.0994 12.4738L22.0679 9.50733H16.8317V40H22.0575V27.1174C22.5716 27.7149 23.0648 28.218 23.5475 28.6269C24.0197 29.0357 24.5025 29.3711 24.9957 29.6227C25.4888 29.8742 26.003 30.0629 26.5486 30.1678C27.0943 30.2726 27.682 30.325 28.3011 30.325C29.6862 30.325 30.9875 30.0419 32.1837 29.4969C33.38 28.9413 34.4188 28.1657 35.2898 27.1593C36.1607 26.153 36.8428 24.979 37.3361 23.6478C37.8398 22.3061 38.0811 20.8281 38.0811 19.2348ZM40.4107 29.8323H45.7833V0H40.4107V29.8323ZM68.7013 29.8428V9.48638H63.3286V20.4402C63.3286 21.4151 63.2866 22.1698 63.2026 22.7044C63.1186 23.239 62.9822 23.7107 62.7934 24.151C62.0379 25.8281 60.6421 26.6771 58.6169 26.6771C57.0324 26.6771 55.9306 26.1111 55.3009 24.9686C55.0492 24.5388 54.8812 24.0461 54.7868 23.501C54.6923 22.956 54.6399 22.1698 54.6399 21.1321V9.48638H49.2672V21.0482C49.2672 21.8343 49.2776 22.5052 49.2882 23.0399C49.2987 23.5744 49.3407 24.0671 49.3931 24.4863C49.4456 24.9057 49.5085 25.283 49.582 25.608C49.6449 25.9329 49.7499 26.2473 49.8864 26.5409C50.3795 27.7882 51.1665 28.7317 52.2683 29.3711C53.3701 30.0104 54.7239 30.325 56.3189 30.325C57.7565 30.325 59.0262 30.0733 60.1175 29.5702C61.2089 29.0671 62.2687 28.2494 63.297 27.1069L63.3075 29.8323L68.7013 29.8428ZM91.85 29.8323V18.2914C91.85 17.5052 91.8395 16.8343 91.829 16.2788C91.8185 15.7232 91.7871 15.2411 91.7241 14.8323C91.6716 14.4234 91.5982 14.0671 91.5247 13.7631C91.4407 13.4487 91.3463 13.1447 91.2414 12.8511C90.7482 11.6352 89.9612 10.6918 88.8593 10.0314C87.7575 9.37107 86.4038 9.03563 84.7984 9.03563C83.3607 9.03563 82.091 9.28721 80.9997 9.79036C79.9083 10.2935 78.8485 11.1216 77.8201 12.2537L77.8097 9.5283H72.4054V29.8428H77.8201V18.8784C77.8201 17.935 77.8517 17.1908 77.925 16.6667C77.988 16.1426 78.1245 15.6499 78.3134 15.1782C78.6596 14.3606 79.2053 13.7527 79.9294 13.3333C80.6534 12.914 81.5138 12.7044 82.5212 12.7044C84.1058 12.7044 85.2076 13.2704 85.8372 14.413C86.0786 14.8428 86.2464 15.3354 86.3409 15.87C86.4353 16.4047 86.4878 17.2012 86.4878 18.2286V29.8218L91.85 29.8323ZM114.075 28.4906L105.89 18.3333L112.805 10.9329L108.734 9.18239L101.535 17.5157H100.969V0H95.5542V29.8323H100.969V19.0251L109.07 30.2411L114.075 28.4906ZM135 21.195V17.8721L118.724 9.71698V13.3752L131.337 19.5073L118.724 25.7232V29.2977L135 21.195ZM120.298 4.44444C119.301 4.44444 118.493 5.26206 118.493 6.26834C118.493 7.2956 119.301 8.10273 120.298 8.10273C121.306 8.10273 122.103 7.2956 122.103 6.26834C122.103 5.25158 121.306 4.44444 120.298 4.44444ZM120.309 4.72746C121.116 4.72746 121.767 5.41929 121.767 6.27883C121.767 7.13837 121.116 7.83019 120.309 7.8197C119.49 7.8197 118.839 7.13837 118.839 6.26834C118.839 5.41929 119.49 4.72746 120.309 4.72746ZM119.963 6.45702H120.182C120.445 6.45702 120.571 6.55137 120.623 6.81342C120.665 7.08596 120.718 7.26416 120.76 7.32704H121.106C121.074 7.26416 121.022 7.13837 120.98 6.8239C120.938 6.51991 120.822 6.36269 120.634 6.33124V6.31027C120.855 6.24738 121.033 6.07967 121.033 5.81761C121.033 5.62893 120.969 5.48218 120.844 5.39832C120.718 5.30399 120.518 5.24109 120.214 5.24109C119.973 5.24109 119.805 5.26206 119.637 5.2935V7.32704H119.963V6.45702ZM119.963 5.51362C120.015 5.50314 120.088 5.49267 120.193 5.49267C120.561 5.49267 120.686 5.67087 120.686 5.84907C120.686 6.10063 120.455 6.19497 120.193 6.19497H119.963V5.51362Z" fill="#0C1724"/>
</g>
<defs>
<clipPath id="clip0_1838_683">
<rect width="135" height="40" fill="white"/>
</clipPath>
</defs>
</svg>
