<svg width="158" height="44" viewBox="0 0 158 44" fill="none" xmlns="http://www.w3.org/2000/svg">
<g clip-path="url(#clip0_1838_672)">
<path fill-rule="evenodd" clip-rule="evenodd" d="M157.354 25.4074L157.353 25.4052L157.27 25.0919C157.149 24.6351 157.028 24.1784 156.908 23.7217L156.906 23.7155L156.905 23.7093L156.903 23.7031C156.643 22.7183 156.384 21.7337 156.12 20.7501C155.904 19.9433 155.688 19.1371 155.471 18.3306L155.46 18.2908C155.221 17.4036 154.982 16.516 154.745 15.6274C154.577 14.997 154.412 14.3666 154.246 13.7362C154.122 13.2634 153.998 12.7906 153.873 12.3178C153.775 11.9506 153.678 11.5831 153.581 11.2156C153.29 10.1138 152.999 9.01206 152.685 7.91715C152.649 7.7935 152.618 7.66825 152.586 7.54286C152.439 6.9629 152.291 6.3801 151.784 5.93989C151.362 5.57328 150.881 5.44805 150.376 5.31656L150.332 5.30514C149.694 5.13871 149.058 4.9609 148.421 4.783L148.421 4.7829L148.421 4.78284C147.918 4.64215 147.414 4.5014 146.909 4.36619C146.204 4.17759 145.498 3.99406 144.792 3.81053C144.086 3.627 143.379 3.44347 142.675 3.25487C141.513 2.94309 140.353 2.62474 139.193 2.30621C138.648 2.1565 138.102 2.00674 137.556 1.85761C135.855 1.39321 134.151 0.928804 132.448 0.474542C132.031 0.363057 131.611 0.262248 131.184 0.15974L131.184 0.15966C130.966 0.107427 130.747 0.054753 130.525 0C129.925 0.107482 129.357 0.296082 128.895 0.762512C127.04 2.62734 125.178 4.48674 123.316 6.34626L122.075 7.58659C121.365 8.29545 120.654 9.00352 119.943 9.71155L119.943 9.71174L119.943 9.71193L119.943 9.71211L119.943 9.7123L119.942 9.71249L119.942 9.71268L119.942 9.71287C118.126 11.5222 116.31 13.3312 114.506 15.1529C114.005 15.6579 113.683 16.3169 113.865 17.0369C114.441 19.2933 115.047 21.5407 115.655 23.7895L115.655 23.7897L115.655 23.7899L115.94 24.8465C116.251 25.9989 116.566 27.1504 116.882 28.3018L116.882 28.3041L116.883 28.3068L116.884 28.3095L116.884 28.3122C117.231 29.5766 117.577 30.8411 117.917 32.1066C118.115 32.8412 118.306 33.5774 118.497 34.3136C118.735 35.2338 118.974 36.154 119.225 37.0711C119.424 37.793 119.874 38.3304 120.61 38.5636C121.251 38.7664 121.9 38.951 122.551 39.1213C123.033 39.2476 123.518 39.3657 124.002 39.4837C124.918 39.7068 125.833 39.9298 126.731 40.2083C127.473 40.4381 128.224 40.6319 128.974 40.8256L128.974 40.8257C129.615 40.991 130.255 41.1563 130.89 41.344C131.928 41.6501 132.976 41.9216 134.023 42.1931L134.024 42.1931C134.454 42.3047 134.885 42.4163 135.315 42.5303C135.894 42.6833 136.473 42.8351 137.053 42.987L137.058 42.9884C138.22 43.2931 139.383 43.5977 140.541 43.9114C141.458 44.1608 142.18 43.8688 142.825 43.2239C146.201 39.8466 149.579 36.4714 152.959 33.0961C154.307 31.749 155.656 30.4018 157.004 29.0545C157.649 28.4097 157.972 27.6897 157.71 26.7427L157.712 26.7386C157.589 26.2959 157.471 25.8518 157.354 25.4074ZM122.517 32.1857C121.328 32.1898 120.341 31.2001 120.325 29.9915C120.31 28.8274 121.3 27.8357 122.482 27.8256C123.705 27.8155 124.705 28.7869 124.701 29.9793C124.697 31.1758 123.701 32.1817 122.519 32.1857H122.517ZM131.604 31.8349C131.109 31.798 130.611 31.8098 130.114 31.8215C130.037 31.8233 129.96 31.8251 129.882 31.8268C129.511 31.8349 129.361 31.6625 129.363 31.3096C129.366 31.0053 129.364 30.7001 129.363 30.3951V30.3918V30.3916V30.3914V30.3912V30.391V30.3907V30.3905V30.3903C129.362 30.2072 129.361 30.0241 129.361 29.8414V15.9134C129.361 15.1063 129.363 15.1063 130.162 15.1063C130.319 15.1063 130.476 15.1084 130.633 15.1106C131 15.1157 131.367 15.1209 131.732 15.0981C132.137 15.0738 132.253 15.2218 132.249 15.6153C132.239 17.1254 132.24 18.6345 132.242 20.1441V20.1443V20.1445V20.1447V20.1449V20.1451V20.1453V20.1455C132.242 20.695 132.243 21.2447 132.243 21.7945V23.4148C132.243 24.061 132.242 24.7071 132.242 25.3531V25.3585V25.3587V25.3589V25.359V25.3592V25.3594V25.3596C132.24 27.2943 132.238 29.2284 132.253 31.1636C132.257 31.6564 132.137 31.8754 131.604 31.8349ZM130.821 10.9631C129.627 10.9611 128.801 10.1479 128.807 8.9798C128.814 7.87861 129.702 7.02079 130.831 7.0289C131.967 7.03701 132.845 7.91715 132.839 9.04469C132.835 10.1398 131.965 10.9652 130.821 10.9631ZM152.056 24.3233C151.851 26.5439 151.285 28.6246 149.62 30.2551C148.002 31.841 146.017 32.3216 143.837 32.1533C141.874 32.0012 140.221 31.2143 138.984 29.6325C138.304 28.7645 137.868 27.7952 137.58 26.7325C137.284 25.6496 137.142 24.5606 137.199 23.5385C137.13 21.614 137.473 19.8679 138.379 18.2678C139.432 16.4082 140.977 15.234 143.139 14.8548C145.333 14.4695 147.351 14.7818 149.142 16.1263C150.472 17.1261 151.229 18.5335 151.659 20.1153C152.034 21.4903 152.19 22.9017 152.058 24.3213L152.056 24.3233ZM81.1191 17.7316C79.5028 14.5133 75.4266 13.8116 72.7538 15.6611C72.55 15.8021 72.3728 15.9716 72.1956 16.1412C71.9776 16.3496 71.7597 16.5581 71.4924 16.7136C71.3804 16.5559 71.3911 16.3957 71.4014 16.2416V16.2415V16.2414V16.2412V16.2411C71.4043 16.1973 71.4072 16.1539 71.4072 16.1113C71.4048 14.6122 71.4045 13.1131 71.4043 11.6135C71.4041 10.6139 71.404 9.61408 71.4032 8.61394C71.4032 7.95406 71.3972 7.95476 70.7771 8.02745L70.7562 8.02989C69.8842 8.13129 69.0122 8.22457 68.1382 8.29352C67.331 8.35842 67.2823 8.38884 67.2823 9.19394V31.177L67.2825 31.2373L67.2828 31.2949C67.2832 31.374 67.2837 31.4534 67.2823 31.5319C67.2763 31.8848 67.4324 32.0571 67.8015 32.0531C68.2741 32.0463 68.7458 32.0486 69.2177 32.0508H69.218H69.2182H69.2184H69.2187H69.2189H69.2191H69.2193C69.4557 32.0519 69.6922 32.0531 69.9288 32.0531C70.5223 32.0531 70.8941 31.7773 71.0442 31.2257C71.0522 31.1972 71.0642 31.1694 71.0761 31.1418L71.0761 31.1417L71.0761 31.1417L71.0761 31.1416C71.0913 31.1064 71.1064 31.0714 71.1132 31.035C71.1862 30.5848 71.3058 30.5544 71.6546 30.887C74.293 33.4017 78.4686 32.9535 80.5553 29.9704C81.7113 28.3196 82.1148 26.4437 82.3034 24.4929C82.3953 23.538 82.2975 22.5922 82.1993 21.6418L82.1818 21.4712C82.0439 20.155 81.7092 18.9099 81.1191 17.7337V17.7316ZM77.412 27.2509C76.4913 29.5932 73.9564 30.1265 72.1515 28.3662C71.6323 27.8593 71.3606 27.3198 71.3829 26.5533C71.4397 24.6977 71.4316 22.8401 71.3849 20.9825C71.3687 20.297 71.5492 19.7576 71.9872 19.2445C72.6706 18.4475 73.4615 17.8675 74.5404 17.7965C75.8241 17.7114 76.8726 18.3948 77.3836 19.6237C77.9048 20.879 77.9535 22.2053 77.996 23.4383C77.9717 24.8011 77.8805 26.0544 77.41 27.2509H77.412ZM62.466 28.0065C62.464 28.6534 62.7297 29.1543 63.2934 29.4666C63.6078 29.639 63.6605 29.858 63.555 30.1724C63.3401 30.8112 63.1332 31.452 62.9345 32.0949C62.8554 32.3504 62.7134 32.4477 62.4458 32.4072C61.1134 32.2044 59.9351 31.7481 59.2679 30.4644C59.124 30.1886 58.9881 30.1541 58.7934 30.4076C57.1163 32.6059 53.7904 32.9405 51.5921 32.0584C49.84 31.3547 48.8382 30.004 48.6617 28.114C48.5502 26.9013 48.5786 25.7007 49.2255 24.5813C49.9738 23.2875 51.1237 22.5716 52.4885 22.1275C54.1352 21.5941 55.8407 21.588 57.5462 21.588C58.3756 21.588 58.3756 21.5718 58.3756 20.7302C58.3736 20.1644 58.2783 19.6148 58.0573 19.1017C57.6659 18.1912 56.8283 17.9539 55.9563 17.8322C54.8855 17.6842 53.8371 17.8911 52.7967 18.1243C52.237 18.248 51.6793 18.3717 51.148 18.5988C50.9107 18.7002 50.7708 18.6231 50.6512 18.3575C50.4776 17.9667 50.3483 17.5623 50.2191 17.1578L50.219 17.1576C50.1202 16.8485 50.0214 16.5393 49.9028 16.2362C49.8096 15.9949 49.8927 15.8205 50.1949 15.7069C52.5331 14.8309 54.9504 14.4739 57.4225 14.7335C59.2274 14.9221 60.8214 15.6157 61.7522 17.3374C62.243 18.25 62.391 19.2457 62.4234 20.2557C62.4518 21.1411 62.4454 22.0275 62.4391 22.9142V22.9144V22.9146V22.9147V22.9149V22.915V22.9152C62.4363 23.2955 62.4336 23.6758 62.4336 24.056H62.466C62.466 24.4944 62.4663 24.933 62.4665 25.3716V25.3718V25.372V25.3723V25.3725C62.4669 26.2506 62.4674 27.129 62.466 28.0065ZM55.2364 29.4606C56.222 29.418 57.0047 29.0286 57.6902 28.3391L57.6882 28.3411C58.2742 27.753 58.4628 27.0676 58.3736 26.2706C58.3626 26.1682 58.3656 26.064 58.3687 25.9599C58.3701 25.9113 58.3716 25.8627 58.3716 25.8143C58.3716 25.6817 58.3706 25.5493 58.3696 25.4171V25.4167V25.4166V25.4165V25.4164V25.4163V25.4162C58.3674 25.126 58.3653 24.8364 58.3736 24.5468C58.3838 24.196 58.2702 24.0297 57.8808 24.0297L57.7443 24.0296L57.6476 24.0294C56.7781 24.0277 55.9088 24.026 55.0599 24.2345C53.9932 24.4961 53.1192 25.0254 52.8596 26.1874C52.529 27.6678 53.0239 29.5559 55.2364 29.4606ZM103.7 14.8596C102.264 14.5676 100.837 14.5432 99.4597 14.965C97.4379 15.5836 96.0305 16.9768 95.201 18.9033C93.9741 21.7506 93.9031 24.685 94.8624 27.6033C95.562 29.7347 96.9836 31.3367 99.1616 32.0141C102.339 33.0017 105.351 32.5434 108.099 30.6006C108.458 30.3471 108.543 30.1139 108.247 29.7407C107.879 29.2803 107.545 28.7923 107.212 28.3064L107.164 28.236C106.967 27.95 106.777 27.873 106.46 28.0839C105.54 28.6943 104.546 29.1222 103.443 29.3088C102.045 29.544 100.062 29.0715 99.2772 27.5789C98.9345 26.9259 98.7398 26.2405 98.6384 25.5165C98.5512 24.9 98.5776 24.8554 99.2164 24.8534C100.24 24.852 101.264 24.8525 102.288 24.8529H102.291C102.803 24.8531 103.316 24.8534 103.828 24.8534C104.256 24.8534 104.684 24.8525 105.111 24.8516L105.114 24.8515H105.114H105.114H105.114H105.114H105.114C106.257 24.8491 107.4 24.8467 108.541 24.8615C108.926 24.8655 109.095 24.7317 109.127 24.3626C109.336 22.0507 109.115 19.8078 107.88 17.7839C106.923 16.2143 105.531 15.2388 103.696 14.8657L103.7 14.8596ZM104.688 22.1602C104.014 22.1546 103.34 22.1558 102.667 22.1571C102.378 22.1577 102.089 22.1582 101.8 22.1582V22.1623C101.519 22.1623 101.238 22.1625 100.957 22.1627H100.957H100.956H100.956H100.955C100.392 22.1632 99.829 22.1636 99.2671 22.1623C98.4782 22.1582 98.4741 22.1217 98.6141 21.3551C98.6277 21.2808 98.641 21.2063 98.6544 21.1319L98.6544 21.1318C98.772 20.4754 98.8895 19.8195 99.2083 19.2258C99.8694 17.9948 101.003 17.4331 102.366 17.6318C103.674 17.8224 104.615 18.733 104.889 20.112L104.901 20.1732L104.924 20.287L104.924 20.2888V20.2889V20.2889V20.289V20.289V20.2891C105.019 20.7572 105.115 21.2258 105.122 21.712C105.126 22.0467 105.006 22.1663 104.686 22.1623L104.688 22.1602ZM19.5249 14.6909C20.8614 14.6159 22.1856 14.6747 23.4409 15.2019V15.206C25.1931 15.9422 26.3592 17.2583 27.0365 19.0003C27.7017 20.7119 27.8375 22.5026 27.6834 24.3257C27.6469 24.7354 27.4786 24.8631 27.075 24.8591C25.9452 24.8443 24.8143 24.8467 23.6839 24.8492C23.2601 24.8501 22.8363 24.851 22.4127 24.851C21.8952 24.851 21.3775 24.8505 20.8597 24.8501H20.8595H20.8593H20.859C19.8227 24.8492 18.7862 24.8483 17.7505 24.851C17.1725 24.853 17.0954 24.928 17.1684 25.5101C17.2861 26.4409 17.5375 27.3393 18.1621 28.0653C19.1721 29.2395 20.5044 29.495 21.9707 29.3003C23.0799 29.1523 24.0696 28.698 24.9883 28.0876C25.2884 27.8888 25.4709 27.9335 25.6595 28.191C25.78 28.3547 25.901 28.5178 26.022 28.6809L26.0221 28.681L26.0222 28.6812L26.0223 28.6813L26.0228 28.682C26.3108 29.0702 26.5986 29.458 26.8783 29.8519C27.0466 30.0872 27.0345 30.2737 26.7587 30.4806C25.1099 31.7156 23.2848 32.4173 21.2142 32.4741C19.4276 32.5227 17.716 32.2814 16.1869 31.2755C14.4652 30.1439 13.5425 28.483 13.0781 26.5261C12.7171 25.0091 12.7252 23.4618 12.9057 21.9408C13.2322 19.1869 14.3476 16.8507 16.8947 15.4331C17.7079 14.9809 18.5941 14.7416 19.5249 14.6909ZM21.196 22.1603H21.1978C21.7596 22.1608 22.3214 22.1612 22.8832 22.1599L22.8873 22.1619C23.6155 22.1599 23.6155 22.1579 23.6231 21.4337L23.6234 21.3974C23.6287 20.9804 23.5378 20.5802 23.4475 20.1823L23.4475 20.1823L23.4474 20.1821L23.4474 20.182L23.4474 20.1819C23.4336 20.1212 23.4198 20.0607 23.4064 20.0001C23.1043 18.6312 22.1065 17.745 20.7458 17.6112C19.3485 17.4733 18.2514 18.11 17.6673 19.414C17.355 20.1116 17.1948 20.8478 17.1259 21.6103C17.0894 22.0118 17.2171 22.168 17.6187 22.1619C18.3191 22.1525 19.0208 22.1552 19.7218 22.1578H19.7221H19.7225C19.9325 22.1586 20.1425 22.1594 20.3523 22.1599C20.6336 22.1599 20.9148 22.1601 21.196 22.1603ZM45.136 18.5572C44.9676 17.4256 44.5418 16.4096 43.615 15.6978C41.7939 14.2965 39.8227 14.4181 37.8191 15.2374C37.0464 15.5538 36.4279 16.0993 35.8459 16.6874C35.8169 16.7168 35.7895 16.7522 35.7616 16.7882L35.7616 16.7882L35.7615 16.7882L35.7615 16.7883C35.6642 16.9137 35.5606 17.0472 35.3653 16.9653C35.2043 16.8973 35.21 16.7563 35.2156 16.6181C35.2177 16.5665 35.2198 16.5153 35.2132 16.4684C35.1978 16.3574 35.1889 16.2451 35.18 16.1328V16.1327V16.1327C35.1688 15.9926 35.1577 15.8524 35.1341 15.714C35.0611 15.2719 34.836 15.0752 34.3411 15.1097C33.6009 15.1624 32.8546 15.1523 32.1124 15.1137C31.6034 15.0874 31.4371 15.2537 31.4412 15.7688C31.4564 17.7187 31.4545 19.6698 31.4526 21.6203V21.6205V21.6207V21.6209C31.4519 22.2708 31.4513 22.9206 31.4513 23.5703V31.2705C31.4513 32.037 31.4533 32.0391 32.1976 32.0411H34.8319C35.5843 32.0411 35.5985 32.0269 35.5985 31.2705V20.7839C35.5985 20.7313 35.5951 20.6771 35.5917 20.6226V20.6225V20.6225V20.6225C35.5809 20.4499 35.5699 20.2741 35.6654 20.137C36.3326 19.1818 37.0464 18.249 38.2267 17.8941C39.1515 17.6162 40.4514 17.6791 40.9137 18.977C41.0589 19.3841 41.0557 19.816 41.0526 20.2443C41.0521 20.3066 41.0517 20.3689 41.0517 20.431C41.0541 22.528 41.0543 24.625 41.0546 26.7216V26.7217V26.7219V26.722C41.0547 28.1208 41.0549 29.5194 41.0557 30.9176C41.0557 31.1366 41.0598 31.3577 41.08 31.5747C41.1084 31.8849 41.2524 32.0512 41.6033 32.0452C42.6335 32.0289 43.6637 32.0228 44.6939 32.0472C45.1035 32.0573 45.2333 31.8525 45.2617 31.5098C45.2779 31.309 45.2779 31.1042 45.2779 30.9014C45.2779 30.0064 45.2786 29.1114 45.2793 28.2164V28.2126C45.2806 26.4238 45.282 24.6351 45.2779 22.8463C45.277 22.5337 45.28 22.2207 45.283 21.9077V21.9075V21.9072V21.907C45.2937 20.7868 45.3044 19.6652 45.138 18.5511L45.136 18.5572ZM10.1627 28.6758C10.4162 28.5034 10.55 28.5926 10.6758 28.8258L10.6737 28.8238C10.8757 29.2003 11.0809 29.5747 11.2861 29.9491L11.2862 29.9492C11.4435 30.2363 11.6009 30.5234 11.7567 30.8112C11.8804 31.0424 11.9088 31.2756 11.6431 31.4216C9.48737 32.61 7.25865 32.9365 4.96706 31.8698C3.60224 31.2351 2.97155 30.0284 2.7363 28.5987C2.54933 27.4538 2.57424 26.3025 2.59756 25.2244C2.61117 24.5952 2.62424 23.9909 2.59435 23.4274C2.59435 22.9162 2.5947 22.4304 2.59505 21.9625V21.9622V21.9621C2.59586 20.8507 2.5966 19.8404 2.59232 18.83C2.58826 18.2054 2.51728 18.1405 1.88253 18.1304C1.42624 18.1243 0.969953 18.1223 0.513662 18.1263C0.164854 18.1304 -0.0115784 18.0047 0.000589307 17.6194C0.0228968 16.9461 0.016813 16.2687 0.00464522 15.5934C-0.00143865 15.2548 0.118211 15.0966 0.477159 15.1128C0.804343 15.1268 1.1325 15.1234 1.46028 15.1199H1.46033C1.60591 15.1184 1.75141 15.1169 1.89673 15.1169C2.58015 15.1148 2.59232 15.1067 2.59637 14.401L2.59877 14.1045C2.60454 13.41 2.61032 12.7143 2.59435 12.0202C2.58421 11.5659 2.72414 11.3651 3.22301 11.3286C3.77225 11.2888 4.31862 11.2109 4.8651 11.1329C5.23671 11.0799 5.60837 11.0269 5.98103 10.9859C6.64823 10.9109 6.67865 10.9535 6.68271 11.6105C6.68575 12.2813 6.68537 12.9532 6.68499 13.6245V13.6246V13.6247L6.68474 14.2955C6.68609 14.8431 6.95175 15.1169 7.48172 15.1169C7.70126 15.1174 7.92081 15.1185 8.14035 15.1196H8.14046C8.79898 15.1231 9.45751 15.1265 10.116 15.1128C10.473 15.1047 10.6169 15.2406 10.5744 15.5873C10.5475 15.8031 10.5216 16.0192 10.4957 16.2354L10.4957 16.2355C10.4396 16.7042 10.3834 17.1733 10.3168 17.6396C10.2702 17.9641 10.0795 18.1345 9.72464 18.1304C9.30403 18.1251 8.88342 18.1275 8.46281 18.1299C8.07224 18.1321 7.68167 18.1343 7.2911 18.1304C6.87131 18.1263 6.68068 18.2947 6.68068 18.7327C6.68529 19.9532 6.68571 21.1741 6.68613 22.395C6.68663 23.8601 6.68713 25.3252 6.69488 26.7898C6.6969 27.1731 6.76991 27.5624 6.85103 27.9417C7.04368 28.8482 8.01102 29.3754 8.98849 29.1138L9.10432 29.0834C9.47252 28.9873 9.84334 28.8905 10.1627 28.6758ZM92.3113 29.5801C92.2139 29.1482 92.0517 29.0427 91.6137 29.1421C90.7234 29.3429 90.263 28.9454 90.2468 28.0308C90.2411 27.6885 90.2424 27.3453 90.2437 27.0024C90.2442 26.8557 90.2448 26.709 90.2448 26.5625V8.63337C90.2448 7.98442 90.1921 7.95197 89.5938 8.02093C88.6549 8.13043 87.7159 8.22372 86.7749 8.30687C86.1301 8.36365 86.0976 8.38393 86.0976 9.03693V18.8624V27.7266L86.0975 27.8678V27.8679C86.0965 28.5442 86.0955 29.2167 86.2984 29.8803C86.6411 31.0038 87.284 31.8697 88.4156 32.2428C89.7581 32.6849 91.1148 32.5491 92.4451 32.1313C92.9379 31.9772 93.0048 31.7845 92.8406 31.3019C92.8132 31.2211 92.7855 31.1403 92.7578 31.0595L92.7564 31.0556L92.7564 31.0555C92.5897 30.569 92.422 30.0798 92.3092 29.5801H92.3113ZM140.71 19.9748C141.633 16.6936 145.145 16.3975 147.035 17.7075V17.7096C147.867 18.2835 148.283 19.1393 148.552 20.062C148.873 21.1652 149.004 22.3009 148.978 23.2601C148.98 24.9555 148.834 26.4379 148.153 27.8047C147.55 29.0093 146.595 29.7455 145.2 29.8225C144.164 29.8793 143.16 29.8651 142.257 29.2182C141.258 28.5003 140.773 27.4701 140.548 26.3365C140.126 24.2132 140.118 22.0818 140.71 19.9748Z" fill="#0070B7"/>
</g>
<defs>
<clipPath id="clip0_1838_672">
<rect width="158" height="44" fill="white"/>
</clipPath>
</defs>
</svg>
