<svg width="28" height="28" viewBox="0 0 28 28" fill="none" xmlns="http://www.w3.org/2000/svg">
<path d="M1 17.4666V23.5333L7.06672 27L11.4001 24.5236" stroke="white" stroke-width="1.5" stroke-linecap="round" stroke-linejoin="round"/>
<path d="M7.06689 27.0001V20.9333" stroke="white" stroke-width="1.5" stroke-linecap="round" stroke-linejoin="round"/>
<path d="M20.9334 13.9999L14.8667 17.4666L20.9334 20.9333L27.0001 17.4666L20.9334 13.9999Z" stroke="white" stroke-width="1.5" stroke-linecap="round" stroke-linejoin="round"/>
<path d="M14.8667 17.4666V23.5333L20.9334 27L27.0001 23.5333V17.4666" stroke="white" stroke-width="1.5" stroke-linecap="round" stroke-linejoin="round"/>
<path d="M20.9336 20.9333V27.0001" stroke="white" stroke-width="1.5" stroke-linecap="round" stroke-linejoin="round"/>
<path d="M13.9998 0.999756L7.93311 4.46645L13.9998 7.93315L20.0665 4.46645L13.9998 0.999756Z" stroke="white" stroke-width="1.5" stroke-linecap="round" stroke-linejoin="round"/>
<path d="M7.93311 4.46643V10.5331L13.9998 13.9998L20.0665 10.5331V4.46643" stroke="white" stroke-width="1.5" stroke-linecap="round" stroke-linejoin="round"/>
<path d="M14 7.93323V13.9999" stroke="white" stroke-width="1.5" stroke-linecap="round" stroke-linejoin="round"/>
<path d="M11.4001 16.4763L7.06672 13.9999L1 17.4666L7.06672 20.9333L10.5334 18.9526" stroke="white" stroke-width="1.5" stroke-linecap="round" stroke-linejoin="round"/>
</svg>
