<svg width="29" height="29" viewBox="0 0 29 29" fill="none" xmlns="http://www.w3.org/2000/svg">
<path d="M3.69971 6.39999C4.95749 4.72377 6.58817 3.36333 8.46268 2.42636C10.3372 1.48938 12.4041 1.00159 14.4997 1.00159C16.5953 1.00159 18.6622 1.48938 20.5367 2.42636C22.4112 3.36333 24.0419 4.72377 25.2997 6.39999" stroke="white" stroke-width="1.5" stroke-linecap="round" stroke-linejoin="round"/>
<path d="M9.45996 6.4C10.6096 3.1216 12.4384 1 14.5 1C16.5616 1 18.3916 3.1216 19.54 6.4" stroke="white" stroke-width="1.5" stroke-linecap="round" stroke-linejoin="round"/>
<path d="M28 22.6H1" stroke="white" stroke-width="1.5" stroke-linecap="round" stroke-linejoin="round"/>
<path d="M1 6.40002H28" stroke="white" stroke-width="1.5" stroke-linecap="round" stroke-linejoin="round"/>
<path d="M25.2997 22.6C24.0419 24.2762 22.4112 25.6366 20.5367 26.5736C18.6622 27.5106 16.5953 27.9984 14.4997 27.9984C12.4041 27.9984 10.3372 27.5106 8.46268 26.5736C6.58817 25.6366 4.95749 24.2762 3.69971 22.6" stroke="white" stroke-width="1.5" stroke-linecap="round" stroke-linejoin="round"/>
<path d="M19.54 22.6C18.3916 25.8796 16.5616 28 14.5 28C12.4384 28 10.6096 25.8796 9.45996 22.6" stroke="white" stroke-width="1.5" stroke-linecap="round" stroke-linejoin="round"/>
<path d="M2.80029 10V13.4308C2.8005 14.142 2.87084 14.8514 3.01029 15.5488L3.70029 19L5.50029 13.6L7.30029 19L7.99029 15.5488C8.13034 14.8515 8.20069 14.142 8.20029 13.4308V10" stroke="white" stroke-width="1.5" stroke-linecap="round" stroke-linejoin="round"/>
<path d="M11.8003 10V13.4308C11.8005 14.142 11.8708 14.8514 12.0103 15.5488L12.7003 19L14.5003 13.6L16.3003 19L16.9903 15.5488C17.1303 14.8515 17.2007 14.142 17.2003 13.4308V10" stroke="white" stroke-width="1.5" stroke-linecap="round" stroke-linejoin="round"/>
<path d="M20.8003 10V13.4308C20.8005 14.142 20.8708 14.8514 21.0103 15.5488L21.7003 19L23.5003 13.6L25.3003 19L25.9903 15.5488C26.1303 14.8515 26.2007 14.142 26.2003 13.4308V10" stroke="white" stroke-width="1.5" stroke-linecap="round" stroke-linejoin="round"/>
</svg>
