<svg xmlns="http://www.w3.org/2000/svg" viewBox="0 0 100 100" preserveAspectRatio="xMidYMid" style="shape-rendering: auto; display: block; background: rgb(244, 245, 244);" width="510" height="510" xmlns:xlink="http://www.w3.org/1999/xlink"><g><g transform="rotate(0 50 50)">
  <rect fill="#0d0d28" height="12" width="4" ry="2.16" rx="2" y="26" x="48">
    <animate repeatCount="indefinite" begin="-8.75s" dur="10s" keyTimes="0;1" values="1;0" attributeName="opacity"></animate>
  </rect>
</g><g transform="rotate(45 50 50)">
  <rect fill="#0d0d28" height="12" width="4" ry="2.16" rx="2" y="26" x="48">
    <animate repeatCount="indefinite" begin="-7.500000000000001s" dur="10s" keyTimes="0;1" values="1;0" attributeName="opacity"></animate>
  </rect>
</g><g transform="rotate(90 50 50)">
  <rect fill="#0d0d28" height="12" width="4" ry="2.16" rx="2" y="26" x="48">
    <animate repeatCount="indefinite" begin="-6.250000000000001s" dur="10s" keyTimes="0;1" values="1;0" attributeName="opacity"></animate>
  </rect>
</g><g transform="rotate(135 50 50)">
  <rect fill="#0d0d28" height="12" width="4" ry="2.16" rx="2" y="26" x="48">
    <animate repeatCount="indefinite" begin="-5s" dur="10s" keyTimes="0;1" values="1;0" attributeName="opacity"></animate>
  </rect>
</g><g transform="rotate(180 50 50)">
  <rect fill="#0d0d28" height="12" width="4" ry="2.16" rx="2" y="26" x="48">
    <animate repeatCount="indefinite" begin="-3.7500000000000004s" dur="10s" keyTimes="0;1" values="1;0" attributeName="opacity"></animate>
  </rect>
</g><g transform="rotate(225 50 50)">
  <rect fill="#0d0d28" height="12" width="4" ry="2.16" rx="2" y="26" x="48">
    <animate repeatCount="indefinite" begin="-2.5s" dur="10s" keyTimes="0;1" values="1;0" attributeName="opacity"></animate>
  </rect>
</g><g transform="rotate(270 50 50)">
  <rect fill="#0d0d28" height="12" width="4" ry="2.16" rx="2" y="26" x="48">
    <animate repeatCount="indefinite" begin="-1.25s" dur="10s" keyTimes="0;1" values="1;0" attributeName="opacity"></animate>
  </rect>
</g><g transform="rotate(315 50 50)">
  <rect fill="#0d0d28" height="12" width="4" ry="2.16" rx="2" y="26" x="48">
    <animate repeatCount="indefinite" begin="0s" dur="10s" keyTimes="0;1" values="1;0" attributeName="opacity"></animate>
  </rect>
</g><g></g></g><!-- [ldio] generated by https://loading.io --></svg>